<svg width="16" height="16" viewBox="0 0 16 16" fill="none" xmlns="http://www.w3.org/2000/svg">
<path fill-rule="evenodd" clip-rule="evenodd" d="M3.33333 3.16675C2.8731 3.16675 2.5 3.53984 2.5 4.00008V13.3334C2.5 13.7937 2.8731 14.1667 3.33333 14.1667H12.6667C13.1269 14.1667 13.5 13.7937 13.5 13.3334V4.00008C13.5 3.53984 13.1269 3.16675 12.6667 3.16675H3.33333ZM1.5 4.00008C1.5 2.98756 2.32081 2.16675 3.33333 2.16675H12.6667C13.6792 2.16675 14.5 2.98756 14.5 4.00008V13.3334C14.5 14.3459 13.6792 15.1667 12.6667 15.1667H3.33333C2.32081 15.1667 1.5 14.3459 1.5 13.3334V4.00008Z" fill="#644CC7"/>
<path fill-rule="evenodd" clip-rule="evenodd" d="M10.6667 0.833252C10.9428 0.833252 11.1667 1.05711 11.1667 1.33325V3.99992C11.1667 4.27606 10.9428 4.49992 10.6667 4.49992C10.3905 4.49992 10.1667 4.27606 10.1667 3.99992V1.33325C10.1667 1.05711 10.3905 0.833252 10.6667 0.833252Z" fill="#644CC7"/>
<path fill-rule="evenodd" clip-rule="evenodd" d="M5.33331 0.833252C5.60946 0.833252 5.83331 1.05711 5.83331 1.33325V3.99992C5.83331 4.27606 5.60946 4.49992 5.33331 4.49992C5.05717 4.49992 4.83331 4.27606 4.83331 3.99992V1.33325C4.83331 1.05711 5.05717 0.833252 5.33331 0.833252Z" fill="#644CC7"/>
<path fill-rule="evenodd" clip-rule="evenodd" d="M1.5 6.66675C1.5 6.39061 1.72386 6.16675 2 6.16675H14C14.2761 6.16675 14.5 6.39061 14.5 6.66675C14.5 6.94289 14.2761 7.16675 14 7.16675H2C1.72386 7.16675 1.5 6.94289 1.5 6.66675Z" fill="#644CC7"/>
</svg>
