<svg width="16" height="16" viewBox="0 0 16 16" fill="none" xmlns="http://www.w3.org/2000/svg">
<path fill-rule="evenodd" clip-rule="evenodd" d="M7.1183 9.62724L12.392 4.35355C12.5872 4.15829 12.5872 3.84171 12.392 3.64645C12.1967 3.45118 11.8801 3.45118 11.6849 3.64645L6.41119 8.92013L7.1183 9.62724ZM5.70408 11.0415L4.99698 10.3343L4.7051 10.6262L1.72532 7.64645C1.53006 7.45118 1.21347 7.45118 1.01821 7.64645C0.82295 7.84171 0.82295 8.15829 1.01821 8.35355L4.35155 11.6869C4.54681 11.8821 4.86339 11.8821 5.05865 11.6869L5.70408 11.0415Z" fill="black"/>
<path fill-rule="evenodd" clip-rule="evenodd" d="M15.0971 3.64645C15.2923 3.84171 15.2923 4.15829 15.0971 4.35355L7.76373 11.6869C7.56847 11.8821 7.25189 11.8821 7.05662 11.6869L3.72329 8.35355C3.52803 8.15829 3.52803 7.84171 3.72329 7.64645C3.91855 7.45118 4.23513 7.45118 4.4304 7.64645L7.41018 10.6262L14.39 3.64645C14.5852 3.45118 14.9018 3.45118 15.0971 3.64645Z" fill="black"/>
</svg>
