<svg width="16" height="16" viewBox="0 0 16 16" fill="none" xmlns="http://www.w3.org/2000/svg">
<g clip-path="url(#clip0_717_13464)">
<path fill-rule="evenodd" clip-rule="evenodd" d="M7.99998 1.83325C4.59422 1.83325 1.83331 4.59416 1.83331 7.99992C1.83331 11.4057 4.59422 14.1666 7.99998 14.1666C11.4057 14.1666 14.1666 11.4057 14.1666 7.99992C14.1666 4.59416 11.4057 1.83325 7.99998 1.83325ZM0.833313 7.99992C0.833313 4.04188 4.04194 0.833252 7.99998 0.833252C11.958 0.833252 15.1666 4.04188 15.1666 7.99992C15.1666 11.958 11.958 15.1666 7.99998 15.1666C4.04194 15.1666 0.833313 11.958 0.833313 7.99992Z" fill="black"/>
<path fill-rule="evenodd" clip-rule="evenodd" d="M8 3.5C8.27614 3.5 8.5 3.72386 8.5 4V7.69098L10.8903 8.88612C11.1373 9.00961 11.2374 9.30995 11.1139 9.55694C10.9904 9.80393 10.69 9.90404 10.4431 9.78055L7.77639 8.44721C7.607 8.36252 7.5 8.18939 7.5 8V4C7.5 3.72386 7.72386 3.5 8 3.5Z" fill="black"/>
</g>
<defs>
<clipPath id="clip0_717_13464">
<rect width="16" height="16" fill="white"/>
</clipPath>
</defs>
</svg>
