<svg width="25" height="25" viewBox="0 0 25 25" fill="none" xmlns="http://www.w3.org/2000/svg">
<path fill-rule="evenodd" clip-rule="evenodd" d="M3.43219 14.3242C3.98447 14.3242 4.43219 14.7719 4.43219 15.3242V19.3242C4.43219 19.5894 4.53755 19.8438 4.72508 20.0313C4.91262 20.2189 5.16697 20.3242 5.43219 20.3242H19.4322C19.6974 20.3242 19.9518 20.2189 20.1393 20.0313C20.3268 19.8438 20.4322 19.5894 20.4322 19.3242V15.3242C20.4322 14.7719 20.8799 14.3242 21.4322 14.3242C21.9845 14.3242 22.4322 14.7719 22.4322 15.3242V19.3242C22.4322 20.1199 22.1161 20.8829 21.5535 21.4455C20.9909 22.0081 20.2278 22.3242 19.4322 22.3242H5.43219C4.63654 22.3242 3.87348 22.0081 3.31087 21.4455C2.74826 20.8829 2.43219 20.1199 2.43219 19.3242V15.3242C2.43219 14.7719 2.87991 14.3242 3.43219 14.3242Z" fill="#2D2D2D"/>
<path fill-rule="evenodd" clip-rule="evenodd" d="M6.72508 9.03133C7.11561 9.42185 7.74877 9.42185 8.1393 9.03133L12.4322 4.73843L16.7251 9.03133C17.1156 9.42185 17.7488 9.42185 18.1393 9.03133C18.5298 8.6408 18.5298 8.00764 18.1393 7.61711L13.1393 2.61711C12.7488 2.22659 12.1156 2.22659 11.7251 2.61711L6.72508 7.61711C6.33456 8.00764 6.33456 8.6408 6.72508 9.03133Z" fill="#2D2D2D"/>
<path fill-rule="evenodd" clip-rule="evenodd" d="M12.4322 16.3242C12.9845 16.3242 13.4322 15.8765 13.4322 15.3242V3.32422C13.4322 2.77193 12.9845 2.32422 12.4322 2.32422C11.8799 2.32422 11.4322 2.77193 11.4322 3.32422V15.3242C11.4322 15.8765 11.8799 16.3242 12.4322 16.3242Z" fill="#2D2D2D"/>
</svg>
