<svg width="16" height="16" viewBox="0 0 16 16" fill="none" xmlns="http://www.w3.org/2000/svg">
<g clip-path="url(#clip0_717_13502)">
<path fill-rule="evenodd" clip-rule="evenodd" d="M1.37028 2.70372C1.7141 2.3599 2.18042 2.16675 2.66665 2.16675H7.33331C7.60946 2.16675 7.83331 2.39061 7.83331 2.66675C7.83331 2.94289 7.60946 3.16675 7.33331 3.16675H2.66665C2.44563 3.16675 2.23367 3.25455 2.07739 3.41083C1.92111 3.56711 1.83331 3.77907 1.83331 4.00008V13.3334C1.83331 13.5544 1.92111 13.7664 2.07739 13.9227C2.23367 14.079 2.44563 14.1667 2.66665 14.1667H12C12.221 14.1667 12.433 14.079 12.5892 13.9227C12.7455 13.7664 12.8333 13.5544 12.8333 13.3334V8.66675C12.8333 8.39061 13.0572 8.16675 13.3333 8.16675C13.6095 8.16675 13.8333 8.39061 13.8333 8.66675V13.3334C13.8333 13.8196 13.6402 14.286 13.2963 14.6298C12.9525 14.9736 12.4862 15.1667 12 15.1667H2.66665C2.18042 15.1667 1.7141 14.9736 1.37028 14.6298C1.02647 14.286 0.833313 13.8196 0.833313 13.3334V4.00008C0.833313 3.51385 1.02647 3.04754 1.37028 2.70372Z" fill="black"/>
<path fill-rule="evenodd" clip-rule="evenodd" d="M13.3333 1.75244C13.0909 1.75244 12.8583 1.84876 12.6869 2.02021L6.45147 8.25561L6.02051 9.97947L7.74437 9.54851L13.9798 3.3131C14.1512 3.14165 14.2475 2.90912 14.2475 2.66665C14.2475 2.42419 14.1512 2.19166 13.9798 2.02021C13.8083 1.84876 13.5758 1.75244 13.3333 1.75244ZM11.9798 1.3131C12.3388 0.954117 12.8256 0.752441 13.3333 0.752441C13.841 0.752441 14.3279 0.954117 14.6869 1.3131C15.0459 1.67209 15.2475 2.15897 15.2475 2.66665C15.2475 3.17434 15.0459 3.66122 14.6869 4.02021L8.35354 10.3535C8.28946 10.4176 8.20917 10.4631 8.12126 10.4851L5.45459 11.1517C5.2842 11.1943 5.10396 11.1444 4.97977 11.0202C4.85558 10.896 4.80566 10.7158 4.84825 10.5454L5.51492 7.87872C5.5369 7.7908 5.58236 7.71051 5.64644 7.64644L11.9798 1.3131Z" fill="black"/>
</g>
<defs>
<clipPath id="clip0_717_13502">
<rect width="16" height="16" fill="white"/>
</clipPath>
</defs>
</svg>
