<svg width="26" height="26" viewBox="0 0 26 26" fill="none" xmlns="http://www.w3.org/2000/svg">
<g clip-path="url(#clip0_717_13442)">
<path fill-rule="evenodd" clip-rule="evenodd" d="M1.75503 4.0721C1.32757 4.17742 1.00758 4.35728 0.685256 4.67345C0.353287 4.99911 0.152603 5.35772 0.0601552 5.79056C-0.0206667 6.16886 -0.0197529 19.8349 0.0611198 20.2069C0.247081 21.0624 0.958131 21.763 1.82098 21.9409C2.20391 22.0199 23.7983 22.0196 24.1791 21.9406C25.0406 21.762 25.7601 21.0537 25.9402 20.2069C26.0207 19.828 26.0196 6.16156 25.9389 5.79056C25.7518 4.92958 25.0487 4.23686 24.1791 4.05681C23.7686 3.97178 2.10218 3.98657 1.75503 4.0721ZM18.4574 10.3526C15.749 13.0212 13.4714 15.2369 13.396 15.2763C13.3206 15.3158 13.1424 15.3481 13 15.3481C12.8576 15.3481 12.6795 15.3158 12.604 15.2763C12.5287 15.2369 10.251 13.0212 7.54263 10.3526L2.61828 5.50068H13H23.3818L18.4574 10.3526ZM4.81372 16.2353L1.52657 19.472V12.9987V6.52552L4.81372 9.76213L8.10087 12.9987L4.81372 16.2353ZM24.4735 13.0112V19.472L21.1864 16.2354L17.8993 12.9988L21.1735 9.77462C22.9744 8.00128 24.4536 6.55041 24.4606 6.55041C24.4677 6.55041 24.4735 9.45775 24.4735 13.0112ZM10.3562 15.2646C11.4477 16.328 11.5887 16.448 11.9567 16.6267L12.3602 16.8227H12.9974C13.6296 16.8227 13.6378 16.8212 14.0354 16.6343C14.4067 16.4597 14.5255 16.3587 15.6489 15.2613L16.8616 14.0767L20.1217 17.2867L23.3819 20.4968H13.0001H2.61838L5.8672 17.2976C7.65406 15.5381 9.12576 14.0984 9.13764 14.0984C9.14952 14.0984 9.69786 14.6232 10.3562 15.2646Z" fill="black"/>
</g>
<defs>
<clipPath id="clip0_717_13442">
<rect width="26" height="26" fill="white"/>
</clipPath>
</defs>
</svg>
