<svg width="45" height="45" viewBox="0 0 45 45" fill="none" xmlns="http://www.w3.org/2000/svg">
<g clip-path="url(#clip0_717_13443)">
<path fill-rule="evenodd" clip-rule="evenodd" d="M20.3629 0.0546291C13.3169 0.787138 7.15191 4.61443 3.40061 10.5852C-0.948684 17.5079 -1.14101 26.529 2.91008 33.5972C5.04235 37.3174 8.17003 40.3764 11.8616 42.3518C15.0027 44.0327 18.4702 44.9597 21.7262 44.9893L22.9145 45L22.9369 36.2608L22.9594 27.5216H20.5384H18.1174V24.7053V21.889L20.516 21.8656L22.9145 21.8422L22.9643 18.8924C23.0096 16.215 23.0321 15.8776 23.2082 15.2382C23.8785 12.8054 25.4957 11.1869 27.9316 10.511C28.5652 10.3351 28.8432 10.3152 30.7042 10.3127C31.8419 10.3111 33.1588 10.3427 33.6308 10.3828L34.489 10.4558V12.9941V15.5324L32.3986 15.5618C30.3202 15.591 30.3055 15.5926 29.8538 15.8305C28.884 16.3414 28.7678 16.7506 28.7678 19.6549V21.8862H31.5404C33.0653 21.8862 34.3128 21.916 34.3126 21.9522C34.3125 21.9885 34.154 23.2243 33.9606 24.6983C33.7671 26.1723 33.6088 27.4106 33.6088 27.45C33.6088 27.4893 32.5196 27.5216 31.1883 27.5216H28.7678V35.8425C28.7678 40.4191 28.7832 44.1635 28.802 44.1635C28.9699 44.1635 31.0649 43.3709 31.858 43.0074C34.5053 41.794 36.5608 40.3329 38.6714 38.1644C40.5078 36.2778 41.6476 34.6467 42.8171 32.2324C43.8567 30.0858 44.5659 27.6924 44.8913 25.2322C45.0362 24.1371 45.0362 20.748 44.8914 19.7289C44.1515 14.5224 42.0024 10.1421 38.4383 6.57668C34.9472 3.08417 30.5955 0.906185 25.6431 0.17262C24.5634 0.012628 21.4383 -0.0571096 20.3629 0.0546291Z" fill="black"/>
</g>
<defs>
<clipPath id="clip0_717_13443">
<rect width="45" height="45" fill="white"/>
</clipPath>
</defs>
</svg>
