<svg width="24" height="24" viewBox="0 0 24 24" fill="none" xmlns="http://www.w3.org/2000/svg">
<path fill-rule="evenodd" clip-rule="evenodd" d="M12 2.5C6.75329 2.5 2.5 6.75329 2.5 12C2.5 17.2467 6.75329 21.5 12 21.5C17.2467 21.5 21.5 17.2467 21.5 12C21.5 6.75329 17.2467 2.5 12 2.5ZM1.5 12C1.5 6.20101 6.20101 1.5 12 1.5C17.799 1.5 22.5 6.20101 22.5 12C22.5 17.799 17.799 22.5 12 22.5C6.20101 22.5 1.5 17.799 1.5 12Z" fill="#644CC7"/>
<path fill-rule="evenodd" clip-rule="evenodd" d="M1.5 12C1.5 11.7239 1.72386 11.5 2 11.5H22C22.2761 11.5 22.5 11.7239 22.5 12C22.5 12.2761 22.2761 12.5 22 12.5H2C1.72386 12.5 1.5 12.2761 1.5 12Z" fill="#644CC7"/>
<path fill-rule="evenodd" clip-rule="evenodd" d="M8.50011 12.0001C8.57326 15.3965 9.81229 18.6585 12 21.243C14.1877 18.6585 15.4267 15.3965 15.4999 12.0001C15.4267 8.60364 14.1877 5.34163 12 2.75707C9.8123 5.34163 8.57326 8.60364 8.50011 12.0001ZM12 2.00005L11.6308 1.66284C9.04781 4.49068 7.57988 8.1605 7.50011 11.9896C7.49996 11.9966 7.49996 12.0035 7.50011 12.0105C7.57988 15.8396 9.04781 19.5094 11.6308 22.3373C11.7256 22.441 11.8595 22.5001 12 22.5001C12.1405 22.5001 12.2744 22.441 12.3692 22.3373C14.9522 19.5094 16.4201 15.8396 16.4999 12.0105C16.5 12.0035 16.5 11.9966 16.4999 11.9896C16.4201 8.1605 14.9522 4.49068 12.3692 1.66284L12 2.00005Z" fill="#644CC7"/>
</svg>
