<svg width="16" height="16" viewBox="0 0 16 16" fill="none" xmlns="http://www.w3.org/2000/svg">
<g clip-path="url(#clip0_717_13498)">
<path fill-rule="evenodd" clip-rule="evenodd" d="M7.99998 1.83325C4.59422 1.83325 1.83331 4.59416 1.83331 7.99992C1.83331 11.4057 4.59422 14.1666 7.99998 14.1666C11.4057 14.1666 14.1666 11.4057 14.1666 7.99992C14.1666 4.59416 11.4057 1.83325 7.99998 1.83325ZM0.833313 7.99992C0.833313 4.04188 4.04194 0.833252 7.99998 0.833252C11.958 0.833252 15.1666 4.04188 15.1666 7.99992C15.1666 11.958 11.958 15.1666 7.99998 15.1666C4.04194 15.1666 0.833313 11.958 0.833313 7.99992Z" fill="#644CC7"/>
<path fill-rule="evenodd" clip-rule="evenodd" d="M8.20027 5.18517C7.85113 5.12528 7.49206 5.19089 7.18666 5.37038C6.88126 5.54987 6.64923 5.83165 6.53168 6.16581C6.44004 6.42631 6.15458 6.5632 5.89409 6.47156C5.6336 6.37992 5.49671 6.09447 5.58834 5.83397C5.78426 5.27703 6.17097 4.80739 6.67997 4.50825C7.18898 4.2091 7.78742 4.09975 8.36933 4.19956C8.95123 4.29938 9.47903 4.60191 9.85924 5.05358C10.2394 5.50517 10.4475 6.07671 10.4467 6.66701C10.4465 7.59886 9.75414 8.22917 9.22403 8.58258C8.94371 8.76946 8.66696 8.90748 8.46225 8.99846C8.35918 9.04427 8.2726 9.07894 8.21061 9.10255C8.17958 9.11438 8.15459 9.12347 8.13664 9.12985L8.1151 9.1374L8.1085 9.13966L8.10628 9.1404L8.10509 9.1408C8.10494 9.14085 8.10479 9.1409 7.94668 8.66656L8.10509 9.1408C7.84312 9.22812 7.55966 9.08664 7.47234 8.82467C7.3851 8.56297 7.5263 8.28012 7.78776 8.19249C7.78786 8.19245 7.78766 8.19252 7.78776 8.19249L7.78973 8.19181L7.80163 8.18764C7.81299 8.1836 7.83097 8.17708 7.85462 8.16807C7.90201 8.15001 7.97167 8.12218 8.05611 8.08465C8.2264 8.00897 8.44964 7.89699 8.66933 7.75053C9.13913 7.43733 9.44668 7.06779 9.44668 6.66656C9.44721 6.31232 9.32235 5.96858 9.09422 5.69758C8.86609 5.42658 8.54941 5.24506 8.20027 5.18517ZM7.78776 8.19249C7.78786 8.19245 7.78766 8.19252 7.78776 8.19249Z" fill="#644CC7"/>
<path fill-rule="evenodd" clip-rule="evenodd" d="M7.5 11.3333C7.5 11.0571 7.72386 10.8333 8 10.8333H8.0075C8.28364 10.8333 8.5075 11.0571 8.5075 11.3333C8.5075 11.6094 8.28364 11.8333 8.0075 11.8333H8C7.72386 11.8333 7.5 11.6094 7.5 11.3333Z" fill="#644CC7"/>
</g>
<defs>
<clipPath id="clip0_717_13498">
<rect width="16" height="16" fill="white"/>
</clipPath>
</defs>
</svg>
