<svg width="24" height="24" viewBox="0 0 24 24" fill="none" xmlns="http://www.w3.org/2000/svg">
<path fill-rule="evenodd" clip-rule="evenodd" d="M11.88 2.03909C10.553 2.12149 9.25958 2.49064 8.08898 3.12109C6.27998 4.07009 4.89698 5.50309 3.97698 7.38009C3.40198 8.55309 3.12498 9.61409 3.04298 10.9501C2.9521 12.3231 3.17223 13.699 3.68698 14.9751L3.84298 15.3701L2.93398 18.0951C1.91098 21.1601 1.93598 21.0511 2.15798 21.5021C2.32198 21.8351 2.50698 21.9681 2.83898 21.9921C3.05398 22.0081 3.25798 21.9461 5.84998 21.0831L8.63098 20.1571L9.02498 20.3131C10.345 20.8351 11.648 21.0431 13.05 20.9571C14.386 20.8751 15.447 20.5981 16.62 20.0231C18.567 19.0691 19.991 17.6641 20.96 15.7401C21.678 14.3131 21.967 13.0771 21.972 11.4001C21.975 10.3021 21.847 9.49809 21.506 8.48009C20.8424 6.49135 19.5368 4.7795 17.7944 3.6136C16.0519 2.44769 13.9715 1.89384 11.88 2.03909M13.98 4.11509C15.556 4.44709 16.854 5.15509 17.921 6.26509C18.96 7.34609 19.606 8.60109 19.905 10.1201C20.012 10.6641 20.012 12.2421 19.905 12.8201C19.7398 13.6753 19.4362 14.4978 19.006 15.2551C18.3515 16.3795 17.4203 17.3179 16.301 17.9811C15.493 18.4561 14.871 18.6861 13.78 18.9101C13.298 19.0101 11.724 19.0071 11.18 18.9051C10.5786 18.791 9.99268 18.6071 9.43398 18.3571C9.04198 18.1871 8.83898 18.1201 8.71398 18.1201C8.59598 18.1211 7.89998 18.3341 6.56198 18.7791C5.90205 19.0044 5.23898 19.2204 4.57298 19.4271C4.56698 19.4201 4.85998 18.5251 5.22298 17.4381C5.99598 15.1251 5.97098 15.2931 5.64498 14.5721C5.39607 14.0107 5.21156 13.423 5.09498 12.8201C5.03498 12.5001 5.01998 12.2311 5.02098 11.4801C5.02198 10.6091 5.02998 10.5011 5.13298 10.0081C5.34627 8.96458 5.7785 7.97819 6.40113 7.11405C7.02376 6.24992 7.82263 5.5277 8.74498 4.99509C9.50698 4.55609 10.409 4.22709 11.18 4.10509L11.68 4.02409C11.735 4.01409 12.185 4.01209 12.68 4.01909C13.407 4.02909 13.657 4.04709 13.98 4.11509" fill="black"/>
</svg>
