<svg width="24" height="24" viewBox="0 0 24 24" fill="none" xmlns="http://www.w3.org/2000/svg">
<path fill-rule="evenodd" clip-rule="evenodd" d="M15.78 1.8877C14.8511 1.8877 13.9603 2.25668 13.3035 2.91347L4.11354 12.1035C3.08146 13.1355 2.50165 14.5353 2.50165 15.9949C2.50165 17.4545 3.08146 18.8543 4.11354 19.8864C5.14561 20.9184 6.54541 21.4983 8.00498 21.4983C9.46456 21.4983 10.8644 20.9184 11.8964 19.8864L21.0864 10.6964C21.2817 10.5011 21.5983 10.5011 21.7935 10.6964C21.9888 10.8916 21.9888 11.2082 21.7935 11.4035L12.6035 20.5935C11.3839 21.8131 9.72978 22.4983 8.00498 22.4983C6.28019 22.4983 4.62604 21.8131 3.40643 20.5935C2.18682 19.3739 1.50165 17.7197 1.50165 15.9949C1.50165 14.2701 2.18682 12.616 3.40643 11.3964L12.5964 2.20637C13.4408 1.36204 14.5859 0.887695 15.78 0.887695C16.974 0.887695 18.1192 1.36204 18.9635 2.20637C19.8079 3.0507 20.2822 4.19586 20.2822 5.38992C20.2822 6.58398 19.8079 7.72914 18.9635 8.57347L9.76354 17.7635C9.76347 17.7635 9.7636 17.7634 9.76354 17.7635C9.29451 18.2324 8.65823 18.496 7.99498 18.496C7.33165 18.496 6.69548 18.2325 6.22643 17.7635C5.75738 17.2944 5.49387 16.6583 5.49387 15.9949C5.49387 15.3316 5.75738 14.6954 6.22643 14.2264L14.7166 5.74616C14.912 5.55101 15.2286 5.5512 15.4237 5.74657C15.6189 5.94195 15.6187 6.25853 15.4233 6.45368L6.93354 14.9335C6.65202 15.215 6.49387 15.5968 6.49387 15.9949C6.49387 16.393 6.65202 16.7749 6.93354 17.0564C7.21505 17.3379 7.59687 17.496 7.99498 17.496C8.3931 17.496 8.77492 17.3379 9.05643 17.0564L18.2564 7.86637C18.9132 7.20957 19.2822 6.31877 19.2822 5.38992C19.2822 4.46107 18.9132 3.57027 18.2564 2.91347C17.5996 2.25668 16.7088 1.8877 15.78 1.8877Z" fill="#644CC7"/>
</svg>
