<svg width="18" height="18" viewBox="0 0 18 18" fill="none" xmlns="http://www.w3.org/2000/svg">
<path fill-rule="evenodd" clip-rule="evenodd" d="M8.82444 1.03184C8.93763 0.989388 9.06237 0.989388 9.17556 1.03184L15.1756 3.28184C15.3707 3.35502 15.5 3.54158 15.5 3.75V9C15.5 11.4732 13.8591 13.4751 12.3293 14.8138C11.5538 15.4923 10.7807 16.0235 10.2025 16.3849C9.91286 16.566 9.67079 16.7052 9.49997 16.7998C9.41453 16.847 9.34682 16.8832 9.2998 16.9079C9.27629 16.9203 9.25793 16.9297 9.24512 16.9363L9.23008 16.944L9.22575 16.9461L9.22441 16.9468L9.22394 16.947C9.22376 16.9471 9.22361 16.9472 9 16.5C8.77639 16.9472 8.77624 16.9471 8.77606 16.947L8.77559 16.9468L8.77425 16.9461L8.76992 16.944L8.75488 16.9363C8.74207 16.9297 8.72371 16.9203 8.7002 16.9079C8.65318 16.8832 8.58547 16.847 8.50003 16.7998C8.32921 16.7052 8.08714 16.566 7.7975 16.3849C7.21927 16.0235 6.44619 15.4923 5.67075 14.8138C4.14087 13.4751 2.5 11.4732 2.5 9V3.75C2.5 3.54158 2.62929 3.35502 2.82444 3.28184L8.82444 1.03184ZM9 16.5L8.77639 16.9472C8.91716 17.0176 9.08284 17.0176 9.22361 16.9472L9 16.5ZM9 15.9335C9.00514 15.9307 9.01036 15.9278 9.01565 15.9249C9.17296 15.8378 9.39964 15.7075 9.6725 15.5369C10.2193 15.1952 10.9462 14.6952 11.6707 14.0612C13.1409 12.7749 14.5 11.0268 14.5 9V4.0965L9 2.034L3.5 4.0965V9C3.5 11.0268 4.85913 12.7749 6.32925 14.0612C7.05381 14.6952 7.78073 15.1952 8.3275 15.5369C8.60036 15.7075 8.82704 15.8378 8.98435 15.9249C8.98964 15.9278 8.99486 15.9307 9 15.9335Z" fill="black"/>
</svg>
