<svg width="310" height="334" viewBox="0 0 310 334" fill="none" xmlns="http://www.w3.org/2000/svg">
<g clip-path="url(#clip0_749_13374)">
<path d="M236.817 155.499L166.024 196.563L77.2216 145.398L147.998 104.333L236.817 155.499Z" fill="#888888"/>
<path d="M236.817 155.499L236.591 235.469L165.797 276.534L166.024 196.563L236.817 155.499Z" fill="#A6A6A6"/>
<path d="M166.024 196.563L165.797 276.534L76.9948 225.351L77.2217 145.398L166.024 196.563Z" fill="#CDCDCD"/>
<path d="M242 121.024L241.93 140.999L166.408 184.816L166.477 164.823L242 121.024Z" fill="#5A45B3"/>
<path d="M166.477 164.823L166.408 184.816L72.0391 130.428L72.0914 110.436L166.477 164.823Z" fill="#644CC7"/>
<path d="M242 121.024L166.477 164.823L72.0913 110.436L147.614 66.6366L242 121.024Z" fill="#7359DF"/>
<path d="M212.973 204.885C216.172 203.036 218.781 204.524 218.781 208.244C218.68 210.266 218.105 212.234 217.102 213.986C216.099 215.738 214.698 217.224 213.015 218.321L195.799 228.377C192.6 230.227 190.011 228.717 189.99 225.018C190.093 222.995 190.672 221.026 191.679 219.273C192.685 217.521 194.09 216.036 195.778 214.941L212.973 204.885Z" fill="#7A7A7A"/>
</g>
<path d="M78.1115 224.586C77.6332 224.31 77.0217 224.474 76.7455 224.952C76.4694 225.431 76.6332 226.042 77.1115 226.318L78.1115 224.586ZM225.061 311.399C225.594 311.256 225.911 310.708 225.768 310.174L223.439 301.481C223.296 300.947 222.747 300.631 222.214 300.774C221.68 300.917 221.364 301.465 221.507 301.998L223.577 309.726L215.85 311.796C215.316 311.939 215 312.488 215.143 313.021C215.286 313.555 215.834 313.871 216.368 313.728L225.061 311.399ZM77.1115 226.318L224.302 311.299L225.302 309.567L78.1115 224.586L77.1115 226.318Z" fill="#644CC7"/>
<path d="M76.6115 225.452C76.6115 226.005 77.0593 226.452 77.6115 226.452C78.1638 226.452 78.6115 226.005 78.6115 225.452H76.6115ZM78.3186 54.7843C77.9281 54.3938 77.295 54.3938 76.9044 54.7843L70.5405 61.1483C70.1499 61.5388 70.1499 62.172 70.5405 62.5625C70.931 62.953 71.5642 62.953 71.9547 62.5625L77.6115 56.9057L83.2684 62.5625C83.6589 62.953 84.2921 62.953 84.6826 62.5625C85.0731 62.172 85.0731 61.5388 84.6826 61.1483L78.3186 54.7843ZM78.6115 225.452L78.6115 55.4915H76.6115L76.6115 225.452H78.6115Z" fill="#644CC7"/>
<defs>
<clipPath id="clip0_749_13374">
<rect width="180.177" height="242.403" fill="white" transform="translate(61.8228 34.1304)"/>
</clipPath>
</defs>
</svg>
