<svg width="310" height="334" viewBox="0 0 310 334" fill="none" xmlns="http://www.w3.org/2000/svg">
<path d="M129.78 310.628L129.228 302.397L138.415 301.142L138.883 307.204C138.965 308.738 139.475 310.218 140.355 311.477C141.234 312.736 142.448 313.724 143.86 314.329L155.068 318.582C155.263 318.709 155.416 318.891 155.507 319.104C155.598 319.318 155.623 319.553 155.58 319.781C155.537 320.009 155.426 320.219 155.263 320.385C155.1 320.55 154.892 320.663 154.664 320.709L132.29 322.304C131.527 322.277 130.804 321.952 130.276 321.4C129.748 320.848 129.455 320.112 129.461 319.348L129.78 310.628Z" fill="#FDCFC0"/>
<path d="M128.526 312.457L128.015 320.964C128.04 321.414 128.153 321.855 128.348 322.261C128.543 322.667 128.816 323.031 129.152 323.331C129.488 323.631 129.88 323.863 130.305 324.011C130.73 324.16 131.181 324.223 131.631 324.197L154.005 322.942C154.912 322.887 155.76 322.477 156.365 321.8C156.971 321.123 157.284 320.234 157.238 319.327C157.238 317.902 150.687 315.732 150.687 315.732L140.904 312.01C140.897 312.566 140.762 313.112 140.508 313.607C140.255 314.101 139.89 314.53 139.443 314.86C138.995 315.19 138.478 315.411 137.931 315.507C137.383 315.603 136.821 315.571 136.288 315.413L128.526 312.457Z" fill="#263238"/>
<path d="M145.859 317.689C145.859 314.818 146.859 314.244 146.859 314.244L146.604 313.733C146.476 313.733 145.327 314.478 145.285 317.689H145.859Z" fill="#EAEAEA"/>
<path d="M143.817 316.583C143.898 315.392 144.36 314.258 145.136 313.35L144.753 312.946C143.867 313.935 143.342 315.194 143.264 316.519L143.817 316.583Z" fill="#EAEAEA"/>
<path d="M149.283 134.442C149.283 134.442 149.453 165.174 148.369 176.276C146.837 192.079 145.051 228.022 144.115 232.573C142.35 240.357 142.733 305.226 142.733 305.226C140.437 307.099 137.671 308.306 134.736 308.714C130.695 309.096 125.591 306.991 125.442 305.268C120.678 250.673 120.507 238.38 122.613 224.3C122.889 222.513 115.467 167.152 118.147 148.479C119.657 137.845 112.34 126.126 134.013 125.296C151.878 124.573 149.283 134.442 149.283 134.442Z" fill="#3D3D7A"/>
<path d="M77.8221 93.0541L90.9659 105.815C92.561 105.645 100.962 111.557 94.5602 113.067C79.6724 116.577 71.8032 96.457 71.8032 96.457L77.8221 93.0541Z" fill="#FDCFC0"/>
<path d="M138.734 62.8317C138.607 68.4465 149.177 89.6509 143.137 99.9022C134.736 99.9022 125.42 104.858 122.358 111.281C115.275 126.168 109.597 136.803 103.557 136.803C98.6862 136.803 75.908 107.878 74.2491 104.9C77.7158 95.1594 83.3731 97.2437 84.6917 95.7974C84.8406 95.6485 101.706 110.685 102.281 109.728C105.152 105.474 107.683 96.7545 110.788 87.3539C117.019 69.2547 125.335 65.0861 138.734 62.8317Z" fill="#644CC7"/>
<path d="M237.398 74.4653C236.97 74.8295 236.565 75.2201 236.185 75.635C233.591 78.7189 222.659 114.471 212.45 115.662C207.686 116.215 187.502 110.111 187.502 110.111L190.182 94.1171C190.182 94.1171 209.536 103.411 210.451 102.114C214.875 95.7335 228.401 76.3156 231.719 70.6157L237.398 74.4653Z" fill="#FDCFC0"/>
<path d="M157.365 62.6404C153.388 62.7468 156.961 72.0623 152.24 73.2745C146.114 74.7208 159.875 84.1851 159.875 84.1851C159.875 84.1851 161.598 87.2903 163.937 91.2462C168.871 99.3281 160.237 102.667 168.85 105.709C176.911 108.495 204.687 121.383 213.514 120.022C220.681 118.937 236.015 85.9929 236.292 85.6527C240.545 80.3356 231.464 73.2958 224.488 76.9539C223.382 77.5495 209.877 98.9666 209.6 98.9028C203.22 96.9886 197.562 92.7775 190.459 87.503C178.825 78.6129 167.191 62.3852 157.365 62.6404Z" fill="#644CC7"/>
<path d="M165.341 306.268L165.532 298.037L174.699 297.591V303.652C174.633 305.182 174.997 306.7 175.748 308.034C176.5 309.368 177.61 310.466 178.953 311.202L189.714 316.434C189.913 316.573 190.064 316.77 190.146 316.999C190.228 317.227 190.237 317.475 190.171 317.709C190.106 317.943 189.97 318.15 189.781 318.303C189.592 318.456 189.361 318.546 189.119 318.561L166.702 318.136C165.941 318.05 165.245 317.666 164.766 317.068C164.288 316.47 164.066 315.707 164.15 314.945L165.341 306.268Z" fill="#FDCFC0"/>
<path d="M163.937 307.991L162.682 316.498C162.668 316.953 162.745 317.406 162.908 317.831C163.071 318.256 163.317 318.644 163.632 318.973C163.947 319.302 164.324 319.565 164.742 319.746C165.159 319.927 165.609 320.023 166.064 320.029L188.438 320.773C188.888 320.79 189.337 320.718 189.759 320.562C190.181 320.405 190.568 320.167 190.897 319.861C191.227 319.555 191.494 319.187 191.681 318.777C191.869 318.368 191.973 317.926 191.99 317.476C191.99 316.03 185.78 313.223 185.78 313.223L176.379 308.65C176.323 309.204 176.14 309.738 175.842 310.209C175.545 310.681 175.142 311.076 174.666 311.365C174.189 311.654 173.652 311.828 173.097 311.873C172.542 311.919 171.983 311.835 171.466 311.628L163.937 307.991Z" fill="#263238"/>
<path d="M180.718 314.733C181.016 311.883 182.036 311.394 182.036 311.394L181.824 310.862C181.696 310.862 180.484 311.479 180.165 314.669L180.718 314.733Z" fill="#EAEAEA"/>
<path d="M178.825 313.436C178.993 312.257 179.556 311.17 180.42 310.352L180.08 309.905C179.107 310.818 178.47 312.031 178.272 313.351L178.825 313.436Z" fill="#EAEAEA"/>
<path d="M165.83 129.104C165.83 129.104 174.72 158.496 176.847 169.513C179.867 185.124 187.183 220.366 187.481 225.045C187.992 232.978 177.528 303.461 177.528 303.461C175.347 305.149 172.649 306.028 169.892 305.949C166.043 305.949 160.066 303.397 160.066 301.695C160.194 246.887 163.108 232.255 164.511 223.131C164.788 221.344 141.244 170.215 139.84 151.435C139.181 142.588 127.93 131.635 148.475 124.659C165.511 118.937 165.83 129.104 165.83 129.104Z" fill="#3D3D7A"/>
<path d="M117.147 143.991C117.147 154.306 163.512 154.626 171.424 145.076C174.933 140.822 171.977 101.008 171.764 94.0323C171.594 88.9492 157.45 62.7042 157.45 62.7042L146.199 61.9598L127.505 66.4474C115.658 69.8716 117.147 138.419 117.147 143.991Z" fill="#644CC7"/>
<path d="M153.303 25.5484C153.303 25.5484 160.258 43.1585 160.236 48.9435C160.291 50.3039 160.002 51.6561 159.396 52.8754C158.79 54.0946 157.887 55.1416 156.77 55.9195C152.261 57.9399 141.223 57.5997 138.904 55.9195C137.226 54.2772 136.021 52.2126 135.416 49.9431C134.844 50.3612 134.134 50.5455 133.431 50.4586C132.728 50.3717 132.084 50.02 131.631 49.4752C129.887 47.5185 128.355 43.9242 130.482 43.0947C132.609 42.2653 134.417 45.7958 135.416 44.9451C136.416 44.0943 130.631 35.8635 133.46 32.5882C136.499 29.4069 140.286 27.0378 144.477 25.6973C148.667 24.2511 152.665 23.847 153.303 25.5484Z" fill="#FDCFC0"/>
<path d="M134.651 32.4182C131.822 35.6935 136.416 44.1796 135.417 45.0303C134.417 45.881 132.609 42.393 130.482 43.1799C130.281 43.2507 130.098 43.3658 129.947 43.5167C129.796 43.6677 129.681 43.8506 129.61 44.0519C128.553 42.1677 127.595 40.2297 126.739 38.2457C125.527 35.3532 119.976 29.1429 126.271 24.4639C125.527 14.7869 144.392 11.0649 151.155 18.0834C156.281 23.3792 163.384 18.4663 163.384 18.4663C163.384 18.4663 160.641 26.9736 153.75 26.6758C138.692 26.059 137.48 29.1429 134.651 32.4182Z" fill="#B06D52"/>
<path d="M133.162 48.4545C135.213 53.5895 136.641 58.9519 137.416 64.427C137.798 68.9571 146.965 71.1052 149.624 70.3821C155.153 68.872 154.962 66.5112 155.09 65.6392C155.34 63.8186 155.143 61.9645 154.515 60.2371C154.09 58.9823 153.686 57.6424 153.409 56.8129L153.133 55.9622C152.979 56.1292 152.79 56.26 152.58 56.345C152.475 56.3688 152.366 56.3688 152.261 56.345C148.135 56.5326 144.005 56.0952 140.01 55.0477L139.691 54.9413L139.351 54.8137C139.026 54.7289 138.713 54.6076 138.415 54.4522C137.438 53.4519 136.658 52.2756 136.118 50.9854C135.679 50.0646 135.309 49.1119 135.012 48.1355C134.744 48.3333 134.433 48.4653 134.104 48.5207C133.775 48.5761 133.438 48.5535 133.119 48.4545H133.162Z" fill="#FDCFC0"/>
<path d="M138.926 58.3655C140.351 59.6203 149.794 60.1095 154.558 60.2371C154.154 59.0248 153.75 57.7487 153.494 56.9618C149.173 57.1123 144.847 56.9845 140.542 56.5789H140.181L139.798 56.4726C138.28 55.5552 137.095 54.1766 136.416 52.538C136.422 52.6088 136.422 52.6799 136.416 52.7506C136.703 54.8225 137.573 56.77 138.926 58.3655Z" fill="#FDBAA4"/>
<path d="M134.864 33.8643C134.693 35.6721 136.799 44.7537 135.417 45.0302C134.034 45.3066 130.971 38.6497 130.971 38.6497L131.524 32.4394L138.734 28.6111C138.734 28.6111 135.119 31.2696 134.864 33.8643Z" fill="#B06D52"/>
<path d="M167.149 225.747C167.466 225.786 167.788 225.786 168.106 225.747L167.999 225.215C167.596 225.329 167.172 225.35 166.759 225.277C166.347 225.203 165.956 225.036 165.617 224.789C165.173 224.426 164.877 223.911 164.788 223.343H164.511V223.024L164.256 223.194C164.24 223.482 164.283 223.77 164.382 224.04C164.481 224.311 164.633 224.558 164.83 224.768C165.116 225.098 165.474 225.357 165.876 225.527C166.278 225.697 166.713 225.772 167.149 225.747Z" fill="#173D66"/>
<path d="M165.32 223.556C165.933 223.651 166.559 223.522 167.086 223.195C167.613 222.867 168.005 222.361 168.191 221.769L167.659 221.642C167.234 223.386 164.767 222.939 164.66 222.918V223.471C164.878 223.514 165.098 223.543 165.32 223.556Z" fill="#173D66"/>
<path d="M148.433 181.87L152.686 166.684L152.133 166.536L147.901 181.721L148.433 181.87Z" fill="#31315E"/>
<path d="M117.424 121.894L127.994 101.838L127.505 101.561L116.934 121.638L117.424 121.894Z" fill="#443793"/>
<path d="M172.126 106.729H172.679C172.248 102.09 171.581 97.4761 170.679 92.905L170.233 93.2453C170.552 93.7345 171.573 101.795 172.126 106.729Z" fill="#443793"/>
<path d="M144.137 155.732V155.179H141.903V155.732H144.137ZM146.37 155.732H148.497V155.179C147.773 155.179 147.029 155.179 146.37 155.179V155.732ZM139.67 155.519V154.966L137.543 154.753V155.306L139.67 155.519ZM150.836 155.519L152.963 155.285V154.732L150.836 154.966V155.519ZM135.246 155.094V154.541L133.12 154.222V154.753L135.246 155.094ZM155.26 154.945C156.004 154.817 156.749 154.668 157.387 154.498L157.259 153.966L155.132 154.392L155.26 154.945ZM130.844 154.37V153.839L128.717 153.413L128.611 153.945L130.844 154.37ZM159.684 153.924C160.407 153.732 161.13 153.498 161.81 153.264L161.64 152.754L159.513 153.392L159.684 153.924ZM126.526 153.435L126.654 152.882L124.527 152.35L124.4 152.903L126.526 153.435ZM163.937 152.499C164.618 152.222 165.32 151.925 166.064 151.606L165.83 151.095C165.171 151.414 164.49 151.712 163.703 151.988L163.937 152.499ZM122.209 152.329L122.358 151.797H122.081L121.933 152.329H122.209ZM167.978 150.542C168.634 150.173 169.26 149.754 169.85 149.287L169.51 148.862C168.927 149.305 168.316 149.71 167.68 150.074L167.978 150.542Z" fill="#31315E"/>
<path d="M165.298 299.739H165.851V299.377H165.298V299.739ZM165.171 297.144H165.724C165.724 296.527 165.724 295.783 165.724 295.017H165.171C165.107 295.783 165.128 296.527 165.171 297.123V297.144ZM165.022 292.699H165.575C165.575 291.997 165.575 291.253 165.575 290.572H165.022C165.001 291.274 165.001 292.018 165.022 292.699ZM165.022 288.254H165.575C165.575 287.552 165.575 286.808 165.575 286.021H165.022C164.937 286.808 164.937 287.552 164.958 288.254H165.022ZM165.554 283.809V281.576H165.001C165.001 282.341 165.001 283.064 165.001 283.702L165.554 283.809ZM165.554 279.364C165.554 278.641 165.554 277.896 165.554 277.13H165.001C165.001 277.896 165.001 278.641 165.001 279.364H165.554ZM165.554 274.919V273.728C165.554 273.409 165.554 273.068 165.554 272.728H165.001C165.001 273.068 165.001 273.409 165.001 273.749V274.94L165.554 274.919ZM165.703 270.474C165.703 269.75 165.703 269.006 165.83 268.347H165.277C165.277 269.112 165.235 269.821 165.15 270.474H165.703ZM166.064 266.05L166.256 263.923H165.703L165.511 266.156L166.064 266.05ZM166.468 261.626C166.468 260.882 166.617 260.137 166.702 259.499H166.149C166.149 260.243 165.979 260.967 165.915 261.626H166.468ZM166.936 257.202L167.191 255.075H166.638L166.383 257.202H166.936ZM167.468 252.778C167.468 252.034 167.638 251.311 167.744 250.652H167.191C167.085 251.375 167 252.119 166.915 252.778H167.468ZM168.021 248.355L168.191 246.079H167.638L167.361 248.206L168.021 248.355ZM168.489 243.952L168.765 241.825H168.212L167.936 243.952H168.489ZM169.042 239.528L169.297 237.401H168.744L168.489 239.528H169.042ZM169.552 235.104C169.552 234.339 169.701 233.594 169.765 232.978H169.212C169.212 233.701 169.063 234.424 168.999 235.104H169.552ZM169.956 230.659C169.956 229.894 170.063 229.149 170.105 228.533H169.552C169.552 229.234 169.552 229.979 169.403 230.659H169.956ZM169.616 226.193H170.169V225.917C170.169 225.193 170.169 224.534 170.169 223.96H169.616C169.616 224.541 169.616 225.179 169.616 225.874V226.193ZM169.191 221.939L169.744 221.812C169.595 221.216 169.361 220.493 169.105 219.685L168.574 219.855C168.829 220.557 169.042 221.28 169.191 221.854V221.939ZM167.872 217.686L168.382 217.494C168.148 216.835 167.914 216.133 167.638 215.368L167.128 215.559C167.383 216.303 167.638 216.963 167.872 217.622V217.686ZM166.341 213.432L166.872 213.241C166.617 212.56 166.362 211.858 166.085 211.114L165.554 211.305C165.83 212.05 166.064 212.752 166.341 213.432ZM164.767 209.178L165.277 208.987C165.022 208.285 164.745 207.605 164.469 206.86L163.959 207.052C164.235 207.796 164.512 208.583 164.767 209.264V209.178ZM163.15 204.925L163.661 204.712L162.831 202.585L162.321 202.798L163.15 204.925ZM161.491 200.778L162.023 200.586L161.194 198.459L160.662 198.672L161.491 200.778ZM159.833 196.651L160.343 196.439L159.513 194.312L159.003 194.525L159.833 196.651ZM158.152 192.525L158.663 192.313C158.386 191.611 158.089 190.93 157.812 190.186L157.302 190.399L158.152 192.525ZM156.451 188.399L156.961 188.187L156.111 186.06L155.6 186.273L156.451 188.399ZM154.749 184.273L155.26 184.061L154.409 181.934L153.877 182.147L154.749 184.273ZM153.027 180.169L153.537 179.956L152.665 177.829L152.155 178.063L153.027 180.169Z" fill="#31315E"/>
<path d="M171.679 98.3922L174.103 93.2665L173.593 93.0326L171.19 98.1582L171.679 98.3922Z" fill="#443793"/>
<path d="M127.483 148.373H128.036C128.036 147.82 127.888 147.267 127.824 146.714H127.271C127.335 147.245 127.398 147.798 127.483 148.373ZM127.016 144.481H127.569C127.569 143.736 127.398 142.992 127.335 142.354H126.782C126.845 142.992 126.93 143.736 127.016 144.481ZM126.569 140.057H127.122C127.122 139.312 126.994 138.589 126.952 137.93H126.399C126.441 138.568 126.505 139.291 126.569 140.057ZM126.25 135.612H126.803C126.803 134.867 126.803 134.123 126.675 133.485H126.122C126.136 134.137 126.179 134.846 126.25 135.612ZM126.016 131.23H126.569C126.569 130.465 126.569 129.742 126.569 128.997H125.995L126.016 131.23ZM126.016 126.764H126.569V124.637H126.016V126.764ZM126.611 122.319C126.611 121.553 126.611 120.83 126.611 120.192H126.058C126.058 120.915 126.058 121.66 126.058 122.425L126.611 122.319ZM126.718 117.831C126.718 117.045 126.718 116.321 126.867 115.705H126.314C126.314 116.406 126.207 117.151 126.165 117.831H126.718ZM127.058 113.408C127.058 112.599 127.228 111.876 127.313 111.281H126.76C126.76 111.961 126.59 112.685 126.505 113.408H127.058ZM127.632 109.005C127.845 107.601 128.036 106.878 128.036 106.878L127.483 106.772C127.483 106.772 127.313 107.538 127.079 108.899L127.632 109.005Z" fill="#443793"/>
<path d="M227.572 63.7039L218.107 76.2096C216.859 77.7788 216.197 79.7344 216.236 81.7393C216.21 82.3015 216.296 82.8632 216.489 83.3918C216.682 83.9204 216.978 84.4055 217.36 84.819C217.742 85.2324 218.202 85.566 218.714 85.8004C219.225 86.0347 219.778 86.1653 220.341 86.1844C226.721 86.9288 229.422 89.9063 237.355 91.9481C244.416 93.7559 247.989 90.3317 249.797 89.5235C251.605 88.7153 250.286 68.2553 250.286 68.2553L227.572 63.7039Z" fill="#F2BE22"/>
<path d="M218.448 45.3281C217.234 45.8515 215.974 46.2575 214.683 46.5403C210.961 46.2639 202.071 45.3493 200.625 44.1583C199.354 43.1868 198.198 42.0737 197.179 40.8405C195.797 38.7136 195.053 37.2249 194.606 37.6928C193.798 38.4797 195.754 41.6061 194.606 41.202C193.457 40.7979 187.247 39.6494 187.332 40.6065C188.764 41.2011 190.264 41.6155 191.799 41.8401C191.799 41.8401 185.695 41.6061 185.865 42.1591C186.035 42.7121 191.735 43.2438 191.735 43.2438C191.735 43.2438 186.014 43.2438 186.758 43.9669C186.992 44.1796 192.841 44.924 192.841 44.924C192.841 44.924 188.459 44.924 188.885 45.2643C191.192 45.9737 193.544 46.5279 195.925 46.9232C197.353 46.8878 198.781 47.0235 200.178 47.3273C204.937 49.1261 209.829 50.5483 214.811 51.5809C217.35 51.6054 219.881 51.2979 222.34 50.6664L218.448 45.3281Z" fill="#FDCFC0"/>
<path d="M235.505 32.2482C235.505 32.2482 230.507 30.5893 225.509 37.8843C224.509 39.3305 221.468 41.3935 215.683 44.9241C216.507 47.5316 217.628 50.0363 219.022 52.3892C225.105 51.6235 231.06 46.2427 232.059 45.3707C233.059 44.4987 235.505 32.2482 235.505 32.2482Z" fill="#F2BE22"/>
<path d="M249.35 45.4344C249.733 54.0693 252.626 64.831 250.116 70.616C250.116 70.616 224.892 67.5108 225.594 66.809C227.782 61.8483 229.546 56.7115 230.868 51.4533C231.209 49.6242 230.081 42.3718 231.166 38.0331C232.133 35.7207 233.292 33.4939 234.633 31.3761L241.524 32.2268L244.374 33.2264C249.223 35.332 249.01 40.1386 249.35 45.4344Z" fill="#F2BE22"/>
<path d="M229.103 17.3602C229.103 17.3602 229.103 26.7821 229.996 28.2496C230.89 29.7171 231.91 30.5678 232.57 30.5891C235.294 30.433 237.899 29.4207 240.014 27.6966C240.448 26.7453 240.617 25.6946 240.503 24.6552C240.81 24.7369 241.137 24.6988 241.417 24.5488C241.697 24.3988 241.91 24.148 242.013 23.847C242.417 22.7411 242.481 20.9971 241.46 21.0184C240.439 21.0396 240.269 22.7836 239.716 22.5922C239.163 22.4008 240.248 18.0408 238.525 17.1263C236.756 16.2837 234.801 15.9102 232.846 16.0416C230.826 16.0629 229.082 16.552 229.103 17.3602Z" fill="#FDCFC0"/>
<path d="M232.825 16.0415C234.78 15.9101 236.735 16.2836 238.504 17.1262C240.226 18.0407 239.142 22.4007 239.695 22.5921C240.248 22.7836 240.439 21.0396 241.439 21.0183C241.534 21.0147 241.629 21.0318 241.717 21.0685C241.805 21.1053 241.884 21.1607 241.949 21.231C242.094 20.2797 242.186 19.3212 242.226 18.3598C242.226 16.9561 243.842 14.9994 241.12 12.7875C238.993 11.0222 232.208 12.9151 230.847 13.8509C230.118 14.2959 229.553 14.9662 229.239 15.7604C228.924 16.5547 228.876 17.4297 229.103 18.2534C229.082 17.4665 230.826 16.0628 232.825 16.0415Z" fill="#B06D52"/>
<path d="M241.183 23.6556C241.183 23.6556 241.821 30.5253 241.97 30.9932C242.715 33.5028 239.205 36.0125 236.994 35.736C234.782 35.4595 234.271 33.758 234.25 33.354C234.229 32.9499 234.25 32.5458 234.25 32.0141C234.25 31.4823 234.25 30.8018 234.25 30.3977C234.25 29.9936 234.25 29.9936 234.25 29.9936H234.526H234.675C236.43 29.4239 238.081 28.5766 239.567 27.4839H239.695C239.695 27.4839 239.695 27.4839 239.695 27.3776C239.795 27.2682 239.88 27.1468 239.95 27.016C240.201 26.4463 240.331 25.8308 240.333 25.2082C240.371 24.7482 240.371 24.2858 240.333 23.8258C240.478 23.8664 240.631 23.8722 240.778 23.8426C240.926 23.8131 241.065 23.749 241.183 23.6556Z" fill="#FDCFC0"/>
<path d="M240.375 28.7177C238.465 30.1187 236.358 31.2296 234.122 32.0143C234.122 31.44 234.122 30.8445 234.122 30.4829C235.946 29.8409 237.729 29.088 239.461 28.2285H239.588H239.737C240.214 27.6187 240.489 26.8752 240.524 26.1017C240.711 26.9712 240.66 27.875 240.375 28.7177Z" fill="#FDBAA4"/>
<path d="M241.034 24.0596C241.212 24.0012 241.364 23.8814 241.461 23.7216C241.558 23.5617 241.596 23.3724 241.566 23.1876C241.515 23.0367 241.443 22.8936 241.353 22.7622C241.353 22.6133 241.141 22.3369 241.183 22.2518C241.226 22.1667 241.502 22.2518 241.502 22.2518L241.694 21.7413C241.524 21.6685 241.334 21.6562 241.156 21.7065C240.978 21.7568 240.822 21.8667 240.715 22.0178C240.503 22.3581 240.715 22.7409 240.864 23.06C240.935 23.1811 240.992 23.3094 241.034 23.4428C241.034 23.5704 240.822 23.6768 240.822 23.6768L241.034 24.0596Z" fill="#FDBAA4"/>
<path d="M236.483 16.4884C235.055 16.6357 233.635 16.8558 232.23 17.1477C225.743 18.7216 224.424 9.98031 231.804 11.065C233.74 11.3627 236.845 8.36393 239.078 11.2989C241.311 14.234 236.483 16.4884 236.483 16.4884Z" fill="#B06D52"/>
<path d="M238.121 17.8495C238.376 18.5088 239.078 22.7624 239.695 22.5923C240.311 22.4221 240.503 19.2319 240.503 19.2319L239.269 16.7222L235.675 16.382C235.675 16.382 237.589 16.7861 238.121 17.8495Z" fill="#B06D52"/>
<path d="M253.264 55.7709C254.031 57.2504 254.603 58.8232 254.965 60.4499C253.71 63.3849 250.712 71.6795 249.606 72.9344C248.497 74.1066 247.303 75.1943 246.033 76.1884C245.068 76.9929 244.178 77.8826 243.374 78.8469C242.757 79.6764 241.247 82.4838 242.013 83.1006C242.779 83.7174 242.885 81.548 242.8 82.0372C242.481 83.5897 242.502 84.7382 243.034 84.7595C243.565 84.7808 243.651 83.3771 243.927 82.6327C244.203 81.8883 244.416 81.2928 244.416 81.2928C244.416 81.2928 244.416 83.1644 244.884 83.5472C245.352 83.93 245.395 80.9312 246.352 80.1868C246.883 79.8253 249.01 78.6768 250.499 77.5496C251.747 76.1046 252.739 74.4576 253.434 72.6791C255.984 68.9681 258.341 65.1276 260.495 61.173C261.473 58.8335 259.134 53.9844 259.134 53.9844L253.264 55.7709Z" fill="#FDCFC0"/>
<path d="M241.97 30.9931C246.352 28.8662 262.175 52.2613 261.771 57.791C261.665 59.1309 253.072 59.5563 253.072 59.5563C253.072 59.5563 249.18 49.1774 243.799 44.7749C238.844 40.7552 242.077 37.65 241.97 30.9931Z" fill="#F2BE22"/>
<path d="M230.443 41.4999H230.996V45.9662H230.443V41.4999Z" fill="#CCA01D"/>
<path d="M249.584 53.5162L250.073 53.2397L246.096 46.1149L245.607 46.3701L249.584 53.5162Z" fill="#CCA01D"/>
<path d="M246.628 48.6884L246.82 48.178L245.012 47.5187L244.82 48.0291L246.628 48.6884Z" fill="#CCA01D"/>
<path d="M92.1357 73.9128C92.1357 73.9128 104.046 70.127 105.343 69.8293C106.641 69.5315 109.193 66.7666 110.979 65.5756C112.298 64.7249 111.745 65.7245 111.745 65.7245C112.881 65.209 114.096 64.8925 115.339 64.7887C116.318 64.9801 115.871 65.5331 115.871 65.5331C115.871 65.5331 117.105 65.3842 117.466 65.6394C117.828 65.8946 116.786 66.4051 116.786 66.4051C116.786 66.4051 118.189 66.5327 118.253 66.9155C118.317 67.2983 115.361 67.2771 114.34 68.0215C113.644 68.5118 113.076 69.1606 112.681 69.9143C112.511 70.446 113.617 70.7013 115.084 70.68C116.552 70.6587 116.743 71.2117 115.084 71.7009C112.891 72.2633 110.623 72.4786 108.363 72.3389C105.407 72.2113 93.2416 77.8474 93.2416 77.8474L92.1357 73.9128Z" fill="#FDCFC0"/>
<path d="M111.66 68.5954C113.099 67.4116 114.901 66.7583 116.764 66.7451V66.1921C114.746 66.1911 112.794 66.9072 111.256 68.2126L111.66 68.5954Z" fill="#E6A995"/>
<path d="M111.149 67.6172C112.478 66.5144 114.144 65.8991 115.871 65.8732V65.299C113.98 65.3117 112.155 65.9979 110.724 67.2344L111.149 67.6172Z" fill="#E6A995"/>
<path d="M110.767 66.8938C111.007 66.5084 111.365 66.2103 111.788 66.043L111.554 65.5326C111.447 65.5326 110.448 66.0643 110.235 66.7449L110.767 66.8938Z" fill="#E6A995"/>
<path d="M79.3746 81.3351C80.2911 84.9406 81.9984 88.297 84.3726 91.161C90.3065 97.7329 95.8788 103.582 95.5385 104.071C95.1982 104.56 95.2407 102.582 88.3711 105.368C81.5014 108.154 76.865 115.215 71.08 115.215C67.1143 114.95 63.2019 114.156 59.4463 112.855C58.3936 112.528 57.5026 111.817 56.9507 110.864C56.3988 109.91 56.2268 108.783 56.4687 107.708C57.3787 103.941 58.0886 100.129 58.5956 96.2866C59.5314 88.4174 60.3608 83.6533 60.3608 83.6533L79.3746 81.3351Z" fill="#665C72"/>
<path d="M72.4837 39.0539C73.799 43.9476 74.8007 48.9203 75.4825 53.9416C75.5403 54.2974 75.4775 54.6623 75.3041 54.9783C75.1306 55.2943 74.8566 55.5433 74.5254 55.6856C72.5478 56.5226 70.4658 57.0878 68.3364 57.3658C64.3805 57.8337 59.9993 59.7479 57.3195 57.8125C56.3837 57.1319 56.4049 48.5182 56.2773 45.0515C56.1072 41.0106 55.8945 35.6084 59.4463 34.779C63.8063 33.3965 70.7184 33.8219 72.4837 39.0539Z" fill="#5C2B00"/>
<path d="M72.1646 104.582C72.1646 104.582 74.2914 106.347 74.6742 106.219C75.0571 106.092 74.6742 105.666 74.6742 105.666C74.6742 105.666 76.6522 107.112 76.8011 106.708C76.9499 106.304 75.7802 105.071 75.7802 105.071C75.7802 105.071 77.3966 106.9 77.7156 106.325C78.0346 105.751 76.0567 103.986 76.0567 103.986C76.0567 103.986 77.269 105.262 77.588 104.858C77.907 104.454 75.9078 102.391 75.9078 102.391L71.0161 103.369L72.1646 104.582Z" fill="#FDCFC0"/>
<path d="M63.1895 88.694C63.1895 88.694 69.1659 95.9464 70.1229 96.7121C71.9733 98.1796 71.9945 97.5841 73.6109 98.6475C74.7408 99.218 75.7917 99.933 76.7374 100.774C77.0564 101.115 76.7374 101.923 75.7165 101.2C75.1479 100.832 74.5419 100.525 73.9087 100.285C74.5512 101.058 75.2632 101.769 76.0355 102.412C76.0355 102.412 74.3128 106.304 72.8665 105.219C70.9225 104.027 69.347 102.319 68.3151 100.285C67.1454 97.2863 58.6594 89.3746 58.6594 89.3746L63.1895 88.694Z" fill="#FDCFC0"/>
<path d="M76.3757 104.518L76.7373 104.113L74.1213 101.455L73.7172 101.859L76.3757 104.518Z" fill="#E6A995"/>
<path d="M76.0992 105.645L76.4821 105.241L73.2918 102.306L72.909 102.71L76.0992 105.645Z" fill="#E6A995"/>
<path d="M74.7382 106.006L75.0997 105.602L72.4625 103.263L72.1009 103.688L74.7382 106.006Z" fill="#E6A995"/>
<path d="M68.8683 55.5793C68.8683 55.5793 73.9514 53.7503 76.5886 56.6427C79.2259 59.5352 88.6903 73.2532 88.6903 73.2532L105.854 68.6593L107.236 72.7428C107.236 72.7428 89.4984 80.9523 86.1381 78.8893C82.7777 76.8263 71.2503 61.8747 71.2503 61.8747L68.0601 58.3867L68.8683 55.5793Z" fill="#665C72"/>
<path d="M65.2736 55.8772C65.2736 55.8772 60.6797 55.5795 58.7655 57.2384C56.8514 58.8973 54.2992 64.0655 52.9593 69.5527C51.6194 75.0399 49.1523 80.0592 49.684 81.7394C50.7474 84.9722 55.8305 88.6941 59.0633 91.6504C62.2961 94.6067 67.0601 98.3712 67.0601 98.3712L69.4209 95.8402L57.2342 80.5058C59.1179 76.3734 60.696 72.1083 61.9558 67.7449C62.8505 63.733 63.958 59.7715 65.2736 55.8772Z" fill="#665C72"/>
<path d="M73.0155 55.1113L63.147 55.8983L58.702 64.4055L60.4247 84.7592L66.954 86.2693C66.954 86.2693 76.78 86.3756 79.715 83.8234C79.2014 80.6108 79.0232 77.3534 79.1833 74.1039C79.6512 71.02 80.5019 70.5308 80.6508 68.489C80.7996 66.4473 77.3967 62.0022 77.3967 62.0022L73.0155 55.1113Z" fill="#665C72"/>
<path d="M62.4239 35.2043C64.3593 34.226 69.2084 33.4816 70.9312 36.608C73.7811 41.7124 73.3132 48.3481 72.2711 50.0708C71.2289 51.7935 68.2514 51.8573 65.8906 51.0066C64.3659 50.2865 63.1079 49.1029 62.2963 47.625C61.9677 47.6044 61.6522 47.489 61.3879 47.2927C61.1237 47.0963 60.9221 46.8276 60.8075 46.519C60.3821 45.328 59.9355 44.137 60.4034 43.7967C60.5097 43.7967 58.1489 37.3949 62.4239 35.2043Z" fill="#FDCFC0"/>
<path d="M63.1468 55.8983C65.4159 57.8986 68.2933 59.0751 71.3138 59.2374C73.6108 59.0886 73.0153 55.1114 73.0153 55.1114C72.5485 55.0014 72.1136 54.7847 71.7446 54.4785C71.3756 54.1722 71.0826 53.7846 70.8885 53.3461C70.6097 52.719 70.521 52.0239 70.6332 51.3469C69.7466 51.6263 68.8065 51.6919 67.8896 51.5383H67.4005C66.438 51.3448 65.5212 50.9694 64.6994 50.4324H64.5718C63.9976 50.0435 63.506 49.5447 63.1256 48.9649C62.8418 48.6006 62.6388 48.1801 62.53 47.7313C62.3 47.7917 62.0582 47.7917 61.8282 47.7313C62.9007 50.313 63.3523 53.1103 63.1468 55.8983Z" fill="#FDCFC0"/>
<path d="M72.4838 37.4589C72.4838 37.4589 65.5503 37.2462 63.9765 38.7775C62.4026 40.3088 64.1679 45.392 63.5511 45.4558C62.9343 45.5196 62.8918 42.7547 60.6161 43.7968C60.1907 44.0095 60.3609 45.0729 60.6161 46.349C59.6428 45.0357 59.0027 43.5058 58.7508 41.8907C58.4989 40.2755 58.6427 38.6234 59.1698 37.0761C59.677 35.9501 60.4197 34.9459 61.3479 34.1314C62.2762 33.3169 63.3683 32.711 64.5507 32.3545C65.4094 32.0938 66.3144 32.0229 67.2032 32.1468C68.092 32.2706 68.9432 32.5863 69.6979 33.0718C70.4525 33.5574 71.0925 34.2013 71.5736 34.9588C72.0546 35.7163 72.3652 36.5694 72.4838 37.4589Z" fill="#5C2B00"/>
<path d="M63.1255 48.7096C63.5993 50.2676 64.5894 51.6177 65.933 52.5379C67.4985 53.2172 69.2109 53.488 70.9097 53.3248C70.631 52.6977 70.5423 52.0026 70.6545 51.3256C69.7642 51.5848 68.8286 51.65 67.9109 51.517H67.4217C66.9363 51.432 66.4594 51.3039 65.9968 51.1342C65.5425 50.948 65.1138 50.7051 64.7207 50.4111H64.5931C64.0481 49.9881 63.5617 49.4946 63.1468 48.9435L63.1255 48.7096Z" fill="#FDBAA4"/>
<path d="M67.0177 32.8861C68.967 33.4101 70.7104 34.5155 72.0157 36.0551C72.2642 36.3857 72.4223 36.7752 72.4745 37.1854C72.5267 37.5956 72.4712 38.0124 72.3135 38.3946C71.5538 38.9631 70.685 39.3686 69.7613 39.5856C67.4824 40.0183 65.1822 40.3307 62.8704 40.5214C62.8704 40.5214 62.126 32.7373 67.0177 32.8861Z" fill="#5C2B00"/>
<path d="M60.6403 84.6724L69.6523 95.683L69.2244 96.0332L60.2124 85.0227L60.6403 84.6724Z" fill="#50485B"/>
<path d="M66.8689 98.5839L67.2304 98.1585L59.2335 91.4377L58.872 91.8631L66.8689 98.5839Z" fill="#50485B"/>
<path d="M79.566 73.4236C80.4788 71.9694 80.9719 70.2913 80.991 68.5744C80.991 65.5543 77.0351 60.8115 76.8649 60.6201L76.4396 60.9817C76.4396 60.9817 80.5018 65.7458 80.438 68.5744C80.4495 70.1652 80.0148 71.7272 79.1832 73.0833L79.566 73.4236Z" fill="#50485B"/>
<path d="M77.6731 90.3741L78.141 90.0764C76.2307 86.8708 75.3199 83.1683 75.525 79.4423H74.972C74.7385 83.2762 75.6808 87.0901 77.6731 90.3741Z" fill="#50485B"/>
<path d="M71.4628 92.4797C71.6967 91.1824 70.9949 82.909 70.9523 82.5687H70.3993C70.7338 85.8121 70.9041 89.0703 70.9098 92.3308L71.4628 92.4797Z" fill="#50485B"/>
<path d="M66.8263 76.2521C68.921 76.2223 70.9779 75.6899 72.824 74.6995L72.5262 74.2103C71.0141 75.0701 69.3196 75.5589 67.5819 75.6366C65.8442 75.7142 64.1129 75.3785 62.5301 74.657L62.2749 75.1461C63.6767 75.8869 65.2409 76.267 66.8263 76.2521Z" fill="#50485B"/>
</svg>
