<svg width="310" height="334" viewBox="0 0 310 334" fill="none" xmlns="http://www.w3.org/2000/svg">
<path d="M276.777 58.7783H96.4333V186.88H276.777V58.7783Z" fill="#555788"/>
<path d="M270.534 65.4355H102.677V180.22H270.534V65.4355Z" fill="white"/>
<path d="M235.655 324.332H231.695L206.957 315.72C201.82 313.931 197.364 310.573 194.21 306.114C191.056 301.655 189.361 296.317 189.36 290.843V184.908C189.367 184.185 189.1 183.487 188.613 182.957C188.125 182.427 187.455 182.105 186.739 182.057C186.367 182.039 185.994 182.097 185.645 182.228C185.295 182.36 184.975 182.561 184.705 182.82C184.435 183.079 184.22 183.391 184.073 183.737C183.927 184.082 183.851 184.454 183.851 184.83V290.84C183.85 296.316 182.153 301.655 178.998 306.113C175.843 310.572 171.386 313.929 166.248 315.718L141.505 324.332H137.005C136.288 324.324 135.595 324.594 135.069 325.085C134.543 325.575 134.223 326.25 134.175 326.971C134.157 327.347 134.215 327.722 134.345 328.074C134.476 328.426 134.675 328.748 134.933 329.02C135.19 329.292 135.5 329.508 135.843 329.656C136.186 329.804 136.555 329.88 136.928 329.88H153.019C153.724 329.887 154.406 329.625 154.928 329.148C155.45 328.671 155.775 328.013 155.837 327.306C155.885 326.626 155.683 325.952 155.269 325.413L173.447 319.086C181.97 316.119 191.236 316.119 199.76 319.086L217.513 325.267C217.04 325.798 216.79 326.495 216.817 327.209C216.856 327.936 217.172 328.619 217.7 329.118C218.227 329.616 218.925 329.89 219.647 329.882H235.732C236.105 329.883 236.474 329.806 236.817 329.659C237.16 329.511 237.469 329.294 237.727 329.022C237.984 328.75 238.184 328.428 238.314 328.076C238.444 327.724 238.501 327.349 238.483 326.974C238.436 326.252 238.117 325.577 237.591 325.085C237.065 324.594 236.372 324.325 235.655 324.332Z" fill="#555788"/>
<path d="M279.164 58.7783H276.778V186.88H279.164V58.7783Z" fill="#4A4E77"/>
<path d="M189.36 186.88H183.851V192.029H189.36V186.88Z" fill="#555788"/>
<path d="M254.495 167.124H246.995V151.802H254.495V167.124ZM247.21 166.908H254.28V152.018H247.21V166.908Z" fill="#555788"/>
<path d="M249.294 167.124H147.116C147.088 167.124 147.061 167.112 147.041 167.092C147.021 167.072 147.009 167.044 147.009 167.016C147.009 166.987 147.021 166.96 147.041 166.94C147.061 166.919 147.088 166.908 147.116 166.908H249.08V137.434H240.596V103.317H232.34V121.791H225.484V128.591H213.314V124.642H208.11V108.971H194.183V82.3952L183.388 78.7914V96.4242H180.661V83.2002L169.864 87.3154V102.915H159.672V91.5601H149.214V102.915H147.223V109.521H138.72V132.052C138.719 132.081 138.708 132.108 138.688 132.128C138.668 132.148 138.641 132.16 138.612 132.16C138.584 132.16 138.557 132.149 138.537 132.129C138.517 132.108 138.505 132.081 138.505 132.052V109.305H147.009V102.7H149V91.3444H159.886V102.7H169.65V87.1622L180.875 82.8829V96.2041H183.174V78.4915L194.401 82.2399V108.755H208.328V124.435H213.532V128.384H225.27V121.575H232.126V103.101H240.81V137.219H249.294V167.124Z" fill="#555788"/>
<path d="M192.754 86.5082H185.102V83.554H192.745L192.754 86.5082ZM185.325 86.2924H192.539V83.7698H185.317L185.325 86.2924Z" fill="#555788"/>
<path d="M192.754 91.6552H185.102V88.7009H192.745L192.754 91.6552ZM185.325 91.4394H192.539V88.9167H185.317L185.325 91.4394Z" fill="#555788"/>
<path d="M192.754 96.286H185.102V93.3296H192.745L192.754 96.286ZM185.325 96.0702H192.539V93.5454H185.317L185.325 96.0702Z" fill="#555788"/>
<path d="M240.81 119.998H233.739V115.552H240.81V119.998ZM233.938 119.782H240.596V115.768H233.953L233.938 119.782Z" fill="#555788"/>
<path d="M240.81 132.978H232.053V128.533H240.81V132.978ZM232.259 132.762H240.595V128.749H232.267L232.259 132.762Z" fill="#555788"/>
<path d="M240.81 139.366H232.053V134.92H240.81V139.366ZM232.259 139.15H240.595V135.136H232.267L232.259 139.15Z" fill="#555788"/>
<path d="M240.958 146.049H232.192V141.606H240.958V146.049ZM232.407 145.833H240.743V141.822H232.407V145.833Z" fill="#555788"/>
<path d="M240.958 152.594H232.192V148.151H240.958V152.594ZM232.407 152.378H240.743V148.367H232.407V152.378Z" fill="#555788"/>
<path d="M240.958 159.277H232.192V154.834H240.958V159.277ZM232.407 159.061H240.743V155.05H232.407V159.061Z" fill="#555788"/>
<path d="M179.427 96.286H171.39V93.3296H179.418L179.427 96.286ZM171.613 96.0702H179.212V93.5454H171.604L171.613 96.0702Z" fill="#555788"/>
<path d="M179.427 91.6981H171.39V88.7417H179.418L179.427 91.6981ZM171.613 91.4823H179.212V88.9575H171.604L171.613 91.4823Z" fill="#555788"/>
<path d="M192.942 100.777H171.39V97.8203H192.942V100.777ZM171.613 100.561H192.728V98.0361H171.604L171.613 100.561Z" fill="#555788"/>
<path d="M192.942 104.894H171.39V101.938H192.942V104.894ZM171.613 104.678H192.728V102.154H171.604L171.613 104.678Z" fill="#555788"/>
<path d="M192.942 108.882H171.39V106.038H192.942V108.882ZM171.613 108.666H192.728V106.254H171.604L171.613 108.666Z" fill="#555788"/>
<path d="M240.81 126.59H232.053V122.145H240.81V126.59ZM232.259 126.375H240.595V122.361H232.267L232.259 126.375Z" fill="#555788"/>
<path d="M206.192 114.191H204.111V111.325H206.192V114.191ZM204.326 113.975H205.978V111.541H204.326V113.975Z" fill="#555788"/>
<path d="M202.702 114.191H200.619V111.325H202.702V114.191ZM200.833 113.975H202.487V111.541H200.833V113.975Z" fill="#555788"/>
<path d="M199.289 114.191H197.208V111.325H199.289V114.191ZM197.422 113.975H199.074V111.541H197.422V113.975Z" fill="#555788"/>
<path d="M196.053 114.191H193.973V111.325H196.053V114.191ZM194.187 113.975H195.839V111.541H194.187V113.975Z" fill="#555788"/>
<path d="M192.756 114.191H190.673V111.325H192.754L192.756 114.191ZM190.89 113.975H192.541V111.541H190.887L190.89 113.975Z" fill="#555788"/>
<path d="M189.42 114.191H187.339V111.325H189.42V114.191ZM187.554 113.975H189.205V111.541H187.554V113.975Z" fill="#555788"/>
<path d="M185.929 114.191H183.849V111.325H185.929V114.191ZM184.063 113.975H185.715V111.541H184.063V113.975Z" fill="#555788"/>
<path d="M182.516 114.191H180.436V111.325H182.516V114.191ZM180.65 113.975H182.302V111.541H180.65V113.975Z" fill="#555788"/>
<path d="M179.281 114.191H177.201V111.325H179.281V114.191ZM177.415 113.975H179.067V111.541H177.415V113.975Z" fill="#555788"/>
<path d="M175.984 114.191H173.903V111.325H175.984V114.191ZM174.117 113.975H175.769V111.541H174.117V113.975Z" fill="#555788"/>
<path d="M172.547 114.191H170.466V111.325H172.547V114.191ZM170.681 113.975H172.333V111.541H170.681V113.975Z" fill="#555788"/>
<path d="M169.056 114.191H166.976V111.325H169.056V114.191ZM167.19 113.975H168.842V111.541H167.19V113.975Z" fill="#555788"/>
<path d="M165.643 114.191H163.563V111.325H165.643V114.191ZM163.777 113.975H165.429V111.541H163.777V113.975Z" fill="#555788"/>
<path d="M162.408 114.191H160.328V111.325H162.408V114.191ZM160.542 113.975H162.194V111.541H160.542V113.975Z" fill="#555788"/>
<path d="M159.111 114.191H157.034V111.325H159.115L159.111 114.191ZM157.244 113.975H158.896V111.541H157.249L157.244 113.975Z" fill="#555788"/>
<path d="M155.775 114.191H153.694V111.325H155.775V114.191ZM153.908 113.975H155.56V111.541H153.908V113.975Z" fill="#555788"/>
<path d="M152.284 114.191H150.204V111.325H152.284V114.191ZM150.418 113.975H152.07V111.541H150.418V113.975Z" fill="#555788"/>
<path d="M148.871 114.191H146.791V111.325H148.871V114.191ZM147.005 113.975H148.657V111.541H147.005V113.975Z" fill="#555788"/>
<path d="M145.636 114.191H143.555V111.325H145.636V114.191ZM143.77 113.975H145.422V111.541H143.77V113.975Z" fill="#555788"/>
<path d="M142.338 114.191H140.258V111.325H142.338V114.191ZM140.472 113.975H142.124V111.541H140.472V113.975Z" fill="#555788"/>
<path d="M206.192 118.867H204.111V116.001H206.192V118.867ZM204.326 118.651H205.978V116.217H204.326V118.651Z" fill="#555788"/>
<path d="M202.702 118.867H200.619V116.001H202.702V118.867ZM200.833 118.651H202.487V116.217H200.833V118.651Z" fill="#555788"/>
<path d="M199.289 118.867H197.208V116.001H199.289V118.867ZM197.422 118.651H199.074V116.217H197.422V118.651Z" fill="#555788"/>
<path d="M196.053 118.867H193.973V116.001H196.053V118.867ZM194.187 118.651H195.839V116.217H194.187V118.651Z" fill="#555788"/>
<path d="M192.756 118.867H190.673V116.001H192.754L192.756 118.867ZM190.89 118.651H192.541V116.217H190.887L190.89 118.651Z" fill="#555788"/>
<path d="M189.42 118.867H187.339V116.001H189.42V118.867ZM187.554 118.651H189.205V116.217H187.554V118.651Z" fill="#555788"/>
<path d="M185.929 118.867H183.849V116.001H185.929V118.867ZM184.063 118.651H185.715V116.217H184.063V118.651Z" fill="#555788"/>
<path d="M182.516 118.867H180.436V116.001H182.516V118.867ZM180.65 118.651H182.302V116.217H180.65V118.651Z" fill="#555788"/>
<path d="M179.281 118.867H177.201V116.001H179.281V118.867ZM177.415 118.651H179.067V116.217H177.415V118.651Z" fill="#555788"/>
<path d="M175.984 118.867H173.903V116.001H175.984V118.867ZM174.117 118.651H175.769V116.217H174.117V118.651Z" fill="#555788"/>
<path d="M172.547 118.867H170.466V116.001H172.547V118.867ZM170.681 118.651H172.333V116.217H170.681V118.651Z" fill="#555788"/>
<path d="M169.056 118.867H166.976V116.001H169.056V118.867ZM167.19 118.651H168.842V116.217H167.19V118.651Z" fill="#555788"/>
<path d="M165.643 118.867H163.563V116.001H165.643V118.867ZM163.777 118.651H165.429V116.217H163.777V118.651Z" fill="#555788"/>
<path d="M162.408 118.867H160.328V116.001H162.408V118.867ZM160.542 118.651H162.194V116.217H160.542V118.651Z" fill="#555788"/>
<path d="M159.111 118.867H157.034V116.001H159.115L159.111 118.867ZM157.244 118.651H158.896V116.217H157.249L157.244 118.651Z" fill="#555788"/>
<path d="M155.775 118.867H153.694V116.001H155.775V118.867ZM153.908 118.651H155.56V116.217H153.908V118.651Z" fill="#555788"/>
<path d="M152.284 118.867H150.204V116.001H152.284V118.867ZM150.418 118.651H152.07V116.217H150.418V118.651Z" fill="#555788"/>
<path d="M148.871 118.867H146.791V116.001H148.871V118.867ZM147.005 118.651H148.657V116.217H147.005V118.651Z" fill="#555788"/>
<path d="M145.636 118.867H143.555V116.001H145.636V118.867ZM143.77 118.651H145.422V116.217H143.77V118.651Z" fill="#555788"/>
<path d="M142.338 118.867H140.258V116.001H142.338V118.867ZM140.472 118.651H142.124V116.217H140.472V118.651Z" fill="#555788"/>
<path d="M206.192 123.472H204.111V120.606H206.192V123.472ZM204.326 123.256H205.978V120.822H204.326V123.256Z" fill="#555788"/>
<path d="M202.702 123.472H200.619V120.606H202.702V123.472ZM200.833 123.256H202.487V120.822H200.833V123.256Z" fill="#555788"/>
<path d="M199.289 123.472H197.208V120.606H199.289V123.472ZM197.422 123.256H199.074V120.822H197.422V123.256Z" fill="#555788"/>
<path d="M196.053 123.472H193.973V120.606H196.053V123.472ZM194.187 123.256H195.839V120.822H194.187V123.256Z" fill="#555788"/>
<path d="M192.756 123.472H190.673V120.606H192.754L192.756 123.472ZM190.89 123.256H192.541V120.822H190.887L190.89 123.256Z" fill="#555788"/>
<path d="M189.42 123.472H187.339V120.606H189.42V123.472ZM187.554 123.256H189.205V120.822H187.554V123.256Z" fill="#555788"/>
<path d="M185.929 123.472H183.849V120.606H185.929V123.472ZM184.063 123.256H185.715V120.822H184.063V123.256Z" fill="#555788"/>
<path d="M182.516 123.472H180.436V120.606H182.516V123.472ZM180.65 123.256H182.302V120.822H180.65V123.256Z" fill="#555788"/>
<path d="M179.281 123.472H177.201V120.606H179.281V123.472ZM177.415 123.256H179.067V120.822H177.415V123.256Z" fill="#555788"/>
<path d="M175.984 123.472H173.903V120.606H175.984V123.472ZM174.117 123.256H175.769V120.822H174.117V123.256Z" fill="#555788"/>
<path d="M172.547 123.472H170.466V120.606H172.547V123.472ZM170.681 123.256H172.333V120.822H170.681V123.256Z" fill="#555788"/>
<path d="M169.056 123.472H166.976V120.606H169.056V123.472ZM167.19 123.256H168.842V120.822H167.19V123.256Z" fill="#555788"/>
<path d="M165.643 123.472H163.563V120.606H165.643V123.472ZM163.777 123.256H165.429V120.822H163.777V123.256Z" fill="#555788"/>
<path d="M162.408 123.472H160.328V120.606H162.408V123.472ZM160.542 123.256H162.194V120.822H160.542V123.256Z" fill="#555788"/>
<path d="M159.111 123.472H157.034V120.606H159.115L159.111 123.472ZM157.244 123.256H158.896V120.822H157.249L157.244 123.256Z" fill="#555788"/>
<path d="M155.775 123.472H153.694V120.606H155.775V123.472ZM153.908 123.256H155.56V120.822H153.908V123.256Z" fill="#555788"/>
<path d="M152.284 123.472H150.204V120.606H152.284V123.472ZM150.418 123.256H152.07V120.822H150.418V123.256Z" fill="#555788"/>
<path d="M148.871 123.472H146.791V120.606H148.871V123.472ZM147.005 123.256H148.657V120.822H147.005V123.256Z" fill="#555788"/>
<path d="M145.636 123.472H143.555V120.606H145.636V123.472ZM143.77 123.256H145.422V120.822H143.77V123.256Z" fill="#555788"/>
<path d="M142.338 123.472H140.258V120.606H142.338V123.472ZM140.472 123.256H142.124V120.822H140.472V123.256Z" fill="#555788"/>
<path d="M206.192 128.364H204.111V125.499H206.192V128.364ZM204.326 128.149H205.978V125.714H204.326V128.149Z" fill="#555788"/>
<path d="M202.702 128.364H200.619V125.499H202.702V128.364ZM200.833 128.149H202.487V125.714H200.833V128.149Z" fill="#555788"/>
<path d="M199.289 128.364H197.208V125.499H199.289V128.364ZM197.422 128.149H199.074V125.714H197.422V128.149Z" fill="#555788"/>
<path d="M196.053 128.364H193.973V125.499H196.053V128.364ZM194.187 128.149H195.839V125.714H194.187V128.149Z" fill="#555788"/>
<path d="M192.756 128.364H190.673V125.499H192.754L192.756 128.364ZM190.89 128.149H192.541V125.714H190.887L190.89 128.149Z" fill="#555788"/>
<path d="M189.42 128.364H187.339V125.499H189.42V128.364ZM187.554 128.149H189.205V125.714H187.554V128.149Z" fill="#555788"/>
<path d="M185.929 128.364H183.849V125.499H185.929V128.364ZM184.063 128.149H185.715V125.714H184.063V128.149Z" fill="#555788"/>
<path d="M182.516 128.364H180.436V125.499H182.516V128.364ZM180.65 128.149H182.302V125.714H180.65V128.149Z" fill="#555788"/>
<path d="M179.281 128.364H177.201V125.499H179.281V128.364ZM177.415 128.149H179.067V125.714H177.415V128.149Z" fill="#555788"/>
<path d="M175.984 128.364H173.903V125.499H175.984V128.364ZM174.117 128.149H175.769V125.714H174.117V128.149Z" fill="#555788"/>
<path d="M172.547 128.364H170.466V125.499H172.547V128.364ZM170.681 128.149H172.333V125.714H170.681V128.149Z" fill="#555788"/>
<path d="M169.056 128.364H166.976V125.499H169.056V128.364ZM167.19 128.149H168.842V125.714H167.19V128.149Z" fill="#555788"/>
<path d="M165.643 128.364H163.563V125.499H165.643V128.364ZM163.777 128.149H165.429V125.714H163.777V128.149Z" fill="#555788"/>
<path d="M162.408 128.364H160.328V125.499H162.408V128.364ZM160.542 128.149H162.194V125.714H160.542V128.149Z" fill="#555788"/>
<path d="M159.111 128.364H157.034V125.499H159.115L159.111 128.364ZM157.244 128.149H158.896V125.714H157.249L157.244 128.149Z" fill="#555788"/>
<path d="M155.775 128.364H153.694V125.499H155.775V128.364ZM153.908 128.149H155.56V125.714H153.908V128.149Z" fill="#555788"/>
<path d="M152.284 128.364H150.204V125.499H152.284V128.364ZM150.418 128.149H152.07V125.714H150.418V128.149Z" fill="#555788"/>
<path d="M148.871 128.364H146.791V125.499H148.871V128.364ZM147.005 128.149H148.657V125.714H147.005V128.149Z" fill="#555788"/>
<path d="M145.636 128.364H143.555V125.499H145.636V128.364ZM143.77 128.149H145.422V125.714H143.77V128.149Z" fill="#555788"/>
<path d="M142.338 128.364H140.258V125.499H142.338V128.364ZM140.472 128.149H142.124V125.714H140.472V128.149Z" fill="#555788"/>
<path d="M206.192 133.041H204.111V130.175H206.192V133.041ZM204.326 132.825H205.978V130.391H204.326V132.825Z" fill="#555788"/>
<path d="M202.702 133.041H200.619V130.175H202.702V133.041ZM200.833 132.825H202.487V130.391H200.833V132.825Z" fill="#555788"/>
<path d="M199.289 133.041H197.208V130.175H199.289V133.041ZM197.422 132.825H199.074V130.391H197.422V132.825Z" fill="#555788"/>
<path d="M196.053 133.041H193.973V130.175H196.053V133.041ZM194.187 132.825H195.839V130.391H194.187V132.825Z" fill="#555788"/>
<path d="M192.756 133.041H190.673V130.175H192.754L192.756 133.041ZM190.89 132.825H192.541V130.391H190.887L190.89 132.825Z" fill="#555788"/>
<path d="M189.42 133.041H187.339V130.175H189.42V133.041ZM187.554 132.825H189.205V130.391H187.554V132.825Z" fill="#555788"/>
<path d="M185.929 133.041H183.849V130.175H185.929V133.041ZM184.063 132.825H185.715V130.391H184.063V132.825Z" fill="#555788"/>
<path d="M182.516 133.041H180.436V130.175H182.516V133.041ZM180.65 132.825H182.302V130.391H180.65V132.825Z" fill="#555788"/>
<path d="M179.281 133.041H177.201V130.175H179.281V133.041ZM177.415 132.825H179.067V130.391H177.415V132.825Z" fill="#555788"/>
<path d="M175.984 133.041H173.903V130.175H175.984V133.041ZM174.117 132.825H175.769V130.391H174.117V132.825Z" fill="#555788"/>
<path d="M172.547 133.041H170.466V130.175H172.547V133.041ZM170.681 132.825H172.333V130.391H170.681V132.825Z" fill="#555788"/>
<path d="M169.056 133.041H166.976V130.175H169.056V133.041ZM167.19 132.825H168.842V130.391H167.19V132.825Z" fill="#555788"/>
<path d="M165.643 133.041H163.563V130.175H165.643V133.041ZM163.777 132.825H165.429V130.391H163.777V132.825Z" fill="#555788"/>
<path d="M162.408 133.041H160.328V130.175H162.408V133.041ZM160.542 132.825H162.194V130.391H160.542V132.825Z" fill="#555788"/>
<path d="M159.111 133.041H157.034V130.175H159.115L159.111 133.041ZM157.244 132.825H158.896V130.391H157.249L157.244 132.825Z" fill="#555788"/>
<path d="M155.775 133.041H153.694V130.175H155.775V133.041ZM153.908 132.825H155.56V130.391H153.908V132.825Z" fill="#555788"/>
<path d="M152.284 133.041H150.204V130.175H152.284V133.041ZM150.418 132.825H152.07V130.391H150.418V132.825Z" fill="#555788"/>
<path d="M145.636 133.041H143.708C143.668 133.041 143.63 133.025 143.601 132.996C143.573 132.968 143.558 132.93 143.558 132.89V130.175H145.638L145.636 133.041ZM143.77 132.825H145.422V130.391H143.77V132.825Z" fill="#555788"/>
<path d="M148.871 133.041H146.791V130.175H148.871V133.041ZM147.005 132.825H148.657V130.391H147.005V132.825Z" fill="#555788"/>
<path d="M142.338 132.797L140.258 132.436V130.175H142.338V132.797ZM140.472 132.255L142.124 132.54V130.382H140.472V132.255Z" fill="#555788"/>
<path d="M206.192 137.644H204.111V134.778H206.192V137.644ZM204.326 137.428H205.978V134.994H204.326V137.428Z" fill="#555788"/>
<path d="M202.702 137.644H200.619V134.778H202.702V137.644ZM200.833 137.428H202.487V134.994H200.833V137.428Z" fill="#555788"/>
<path d="M199.289 137.644H197.208V134.778H199.289V137.644ZM197.422 137.428H199.074V134.994H197.422V137.428Z" fill="#555788"/>
<path d="M196.053 137.644H193.973V134.778H196.053V137.644ZM194.187 137.428H195.839V134.994H194.187V137.428Z" fill="#555788"/>
<path d="M192.756 137.644H190.673V134.778H192.754L192.756 137.644ZM190.89 137.428H192.541V134.994H190.887L190.89 137.428Z" fill="#555788"/>
<path d="M189.42 137.644H187.339V134.778H189.42V137.644ZM187.554 137.428H189.205V134.994H187.554V137.428Z" fill="#555788"/>
<path d="M185.929 137.644H183.849V134.778H185.929V137.644ZM184.063 137.428H185.715V134.994H184.063V137.428Z" fill="#555788"/>
<path d="M182.516 137.644H180.436V134.778H182.516V137.644ZM180.65 137.428H182.302V134.994H180.65V137.428Z" fill="#555788"/>
<path d="M179.281 137.644H177.201V134.778H179.281V137.644ZM177.415 137.428H179.067V134.994H177.415V137.428Z" fill="#555788"/>
<path d="M175.984 137.644H173.903V134.778H175.984V137.644ZM174.117 137.428H175.769V134.994H174.117V137.428Z" fill="#555788"/>
<path d="M172.547 137.644H170.466V134.778H172.547V137.644ZM170.681 137.428H172.333V134.994H170.681V137.428Z" fill="#555788"/>
<path d="M169.056 137.644H166.976V134.778H169.056V137.644ZM167.19 137.428H168.842V134.994H167.19V137.428Z" fill="#555788"/>
<path d="M165.643 137.644H163.563V134.778H165.643V137.644ZM163.777 137.428H165.429V134.994H163.777V137.428Z" fill="#555788"/>
<path d="M162.408 137.644H160.328V134.778H162.408V137.644ZM160.542 137.428H162.194V134.994H160.542V137.428Z" fill="#555788"/>
<path d="M159.111 137.644H157.034V134.778H159.115L159.111 137.644ZM157.244 137.428H158.896V134.994H157.249L157.244 137.428Z" fill="#555788"/>
<path d="M155.775 137.644H153.694V134.778H155.775V137.644ZM153.908 137.428H155.56V134.994H153.908V137.428Z" fill="#555788"/>
<path d="M152.284 137.644H150.204V134.778H152.284V137.644ZM150.418 137.428H152.07V134.994H150.418V137.428Z" fill="#555788"/>
<path d="M124.825 147.003H120.456V129.541H124.825V147.003ZM120.67 146.787H124.611V129.756H120.67V146.787Z" fill="#555788"/>
<path d="M225.48 128.589H218.923V121.575H222.004V116.06H222.433V121.575H225.469L225.48 128.589ZM219.137 128.373H225.265V121.791H222.229V116.28V121.791H219.137V128.373Z" fill="#555788"/>
<path d="M228.936 121.804V103.107H230.525V101.267H230.954V103.107H238.594V101.267H239.034V103.107H240.81V107.548H233.939V109.394L240.81 109.381V113.826H232.34V121.791L228.936 121.804ZM229.15 103.323V121.588H232.126V113.625H240.596V109.614L233.724 109.624V107.35L240.596 107.333V103.319H238.811L238.8 101.478V103.319H230.74V101.478V103.319L229.15 103.323Z" fill="#555788"/>
<path d="M148.528 157.728C148.5 157.728 148.473 157.716 148.453 157.696C148.432 157.676 148.421 157.649 148.421 157.62V133.859L124.698 129.758C124.67 129.753 124.646 129.737 124.629 129.714C124.613 129.69 124.606 129.661 124.611 129.633C124.616 129.605 124.632 129.58 124.655 129.564C124.678 129.548 124.707 129.542 124.735 129.547L148.635 133.675V157.613C148.636 157.628 148.634 157.643 148.629 157.657C148.624 157.671 148.616 157.683 148.606 157.694C148.596 157.705 148.584 157.713 148.571 157.719C148.557 157.725 148.543 157.728 148.528 157.728Z" fill="#555788"/>
<path d="M148.635 167.124H118.716V146.787H148.635V167.124ZM118.931 166.908H148.421V147.003H118.931V166.908Z" fill="#555788"/>
<path d="M148.635 141.517H118.716V134.76H148.635V141.517ZM118.931 141.301H148.421V134.976H118.931V141.301Z" fill="#555788"/>
<path d="M146.613 154.508H144.873V152.135H146.613V154.508ZM145.087 154.292H146.399V152.35H145.087V154.292Z" fill="#555788"/>
<path d="M143.761 154.508H142.021V152.135H143.761V154.508ZM142.236 154.292H143.547V152.35H142.236V154.292Z" fill="#555788"/>
<path d="M140.965 154.508H139.225V152.135H140.965V154.508ZM139.439 154.292H140.751V152.35H139.439V154.292Z" fill="#555788"/>
<path d="M138.327 154.508H136.588V152.135H138.327V154.508ZM136.802 154.292H138.113V152.35H136.802V154.292Z" fill="#555788"/>
<path d="M135.632 154.508H133.894V152.135H135.634L135.632 154.508ZM134.107 154.292H135.418V152.35H134.109L134.107 154.292Z" fill="#555788"/>
<path d="M132.905 154.508H131.165V152.135H132.905V154.508ZM131.379 154.292H132.69V152.35H131.379V154.292Z" fill="#555788"/>
<path d="M130.053 154.508H128.324V152.135H130.063L130.053 154.508ZM128.527 154.292H129.838V152.35H128.538L128.527 154.292Z" fill="#555788"/>
<path d="M127.263 154.508H125.523V152.135H127.263V154.508ZM125.738 154.292H127.049V152.35H125.738V154.292Z" fill="#555788"/>
<path d="M124.619 154.508H122.879V152.135H124.619V154.508ZM123.094 154.292H124.405V152.35H123.094V154.292Z" fill="#555788"/>
<path d="M121.924 154.508H120.182V152.135H121.922L121.924 154.508ZM120.398 154.292H121.71V152.35H120.396L120.398 154.292Z" fill="#555788"/>
<path d="M146.613 158.33H144.873V155.956H146.613V158.33ZM145.087 158.114H146.399V156.172H145.087V158.114Z" fill="#555788"/>
<path d="M143.761 158.33H142.021V155.956H143.761V158.33ZM142.236 158.114H143.547V156.172H142.236V158.114Z" fill="#555788"/>
<path d="M140.965 158.33H139.225V155.956H140.965V158.33ZM139.439 158.114H140.751V156.172H139.439V158.114Z" fill="#555788"/>
<path d="M138.327 158.33H136.588V155.956H138.327V158.33ZM136.802 158.114H138.113V156.172H136.802V158.114Z" fill="#555788"/>
<path d="M135.632 158.33H133.894V155.956H135.634L135.632 158.33ZM134.107 158.114H135.418V156.172H134.109L134.107 158.114Z" fill="#555788"/>
<path d="M132.905 158.33H131.165V155.956H132.905V158.33ZM131.379 158.114H132.69V156.172H131.379V158.114Z" fill="#555788"/>
<path d="M130.053 158.33H128.324V155.956H130.063L130.053 158.33ZM128.527 158.114H129.838V156.172H128.538L128.527 158.114Z" fill="#555788"/>
<path d="M127.263 158.33H125.523V155.956H127.263V158.33ZM125.738 158.114H127.049V156.172H125.738V158.114Z" fill="#555788"/>
<path d="M124.619 158.33H122.879V155.956H124.619V158.33ZM123.094 158.114H124.405V156.172H123.094V158.114Z" fill="#555788"/>
<path d="M121.924 158.33H120.182V155.956H121.922L121.924 158.33ZM120.398 158.114H121.71V156.172H120.396L120.398 158.114Z" fill="#555788"/>
<path d="M146.613 145.313H144.873V142.939H146.613V145.313ZM145.087 145.097H146.399V143.155H145.087V145.097Z" fill="#555788"/>
<path d="M143.761 145.313H142.021V142.939H143.761V145.313ZM142.236 145.097H143.547V143.155H142.236V145.097Z" fill="#555788"/>
<path d="M140.965 145.313H139.225V142.939H140.965V145.313ZM139.439 145.097H140.751V143.155H139.439V145.097Z" fill="#555788"/>
<path d="M138.327 145.313H136.588V142.939H138.327V145.313ZM136.802 145.097H138.113V143.155H136.802V145.097Z" fill="#555788"/>
<path d="M135.632 145.313H133.894V142.939H135.634L135.632 145.313ZM134.109 145.097H135.42V143.155H134.109V145.097Z" fill="#555788"/>
<path d="M132.905 145.313H131.165V142.939H132.905V145.313ZM131.379 145.097H132.69V143.155H131.379V145.097Z" fill="#555788"/>
<path d="M130.053 145.313H128.324V142.939H130.063L130.053 145.313ZM128.538 145.097H129.849V143.155H128.538V145.097Z" fill="#555788"/>
<path d="M127.263 145.313H125.523V142.939H127.263V145.313ZM125.738 145.097H127.049V143.155H125.738V145.097Z" fill="#555788"/>
<path d="M146.613 150.628H144.873V148.254H146.613V150.628ZM145.087 150.412H146.399V148.47H145.087V150.412Z" fill="#555788"/>
<path d="M143.761 150.628H142.021V148.254H143.761V150.628ZM142.236 150.412H143.547V148.47H142.236V150.412Z" fill="#555788"/>
<path d="M140.965 150.628H139.225V148.254H140.965V150.628ZM139.439 150.412H140.751V148.47H139.439V150.412Z" fill="#555788"/>
<path d="M138.327 150.628H136.588V148.254H138.327V150.628ZM136.802 150.412H138.113V148.47H136.802V150.412Z" fill="#555788"/>
<path d="M135.632 150.628H133.894V148.254H135.634L135.632 150.628ZM134.107 150.412H135.418V148.47H134.109L134.107 150.412Z" fill="#555788"/>
<path d="M132.905 150.628H131.165V148.254H132.905V150.628ZM131.379 150.412H132.69V148.47H131.379V150.412Z" fill="#555788"/>
<path d="M130.053 150.628H128.324V148.254H130.063L130.053 150.628ZM128.527 150.412H129.838V148.47H128.538L128.527 150.412Z" fill="#555788"/>
<path d="M127.263 150.628H125.523V148.254H127.263V150.628ZM125.738 150.412H127.049V148.47H125.738V150.412Z" fill="#555788"/>
<path d="M124.619 150.628H122.879V148.254H124.619V150.628ZM123.094 150.412H124.405V148.47H123.094V150.412Z" fill="#555788"/>
<path d="M121.924 150.628H120.182V148.254H121.922L121.924 150.628ZM120.398 150.412H121.71V148.47H120.396L120.398 150.412Z" fill="#555788"/>
<path d="M146.613 162.093H144.873V159.72H146.613V162.093ZM145.087 161.878H146.399V159.936H145.087V161.878Z" fill="#555788"/>
<path d="M143.761 162.093H142.021V159.72H143.761V162.093ZM142.236 161.878H143.547V159.936H142.236V161.878Z" fill="#555788"/>
<path d="M140.965 162.093H139.225V159.72H140.965V162.093ZM139.439 161.878H140.751V159.936H139.439V161.878Z" fill="#555788"/>
<path d="M138.327 162.093H136.588V159.72H138.327V162.093ZM136.802 161.878H138.113V159.936H136.802V161.878Z" fill="#555788"/>
<path d="M135.632 162.093H133.894V159.72H135.634L135.632 162.093ZM134.107 161.878H135.418V159.936H134.109L134.107 161.878Z" fill="#555788"/>
<path d="M132.905 162.093H131.165V159.72H132.905V162.093ZM131.379 161.878H132.69V159.936H131.379V161.878Z" fill="#555788"/>
<path d="M130.053 162.093H128.324V159.72H130.063L130.053 162.093ZM128.527 161.878H129.838V159.936H128.538L128.527 161.878Z" fill="#555788"/>
<path d="M127.263 162.093H125.523V159.72H127.263V162.093ZM125.738 161.878H127.049V159.936H125.738V161.878Z" fill="#555788"/>
<path d="M124.619 162.093H122.879V159.72H124.619V162.093ZM123.094 161.878H124.405V159.936H123.094V161.878Z" fill="#555788"/>
<path d="M121.924 162.093H120.182V159.72H121.922L121.924 162.093ZM120.398 161.878H121.71V159.936H120.396L120.398 161.878Z" fill="#555788"/>
<path d="M126.86 130.127L126.207 130.015V125.052H126.86V130.127ZM126.421 129.834L126.646 129.873V125.263H126.421V129.834Z" fill="#555788"/>
<path d="M146.369 139.055H144.869V136.599H146.369V139.055ZM145.083 138.839H146.154V136.821H145.083V138.839Z" fill="#555788"/>
<path d="M133.642 139.055H132.142V136.599H133.642V139.055ZM132.356 138.839H133.427V136.821H132.356V138.839Z" fill="#555788"/>
<path d="M123.516 139.055H122.016V136.599H123.516V139.055ZM122.23 138.839H123.301V136.821H122.23V138.839Z" fill="#555788"/>
<path d="M227.74 167.007H184.781V141.606H227.74V167.007ZM184.989 166.791H227.526V141.822H184.995L184.989 166.791Z" fill="#555788"/>
<path d="M188.959 147.903H186.459V144.187H188.959V147.903ZM186.679 147.687H188.745V144.402H186.679V147.687Z" fill="#555788"/>
<path d="M192.972 147.903H190.478V144.187H192.972V147.903ZM190.692 147.687H192.758V144.402H190.692V147.687Z" fill="#555788"/>
<path d="M197.017 147.903H194.53V144.187H197.024L197.017 147.903ZM194.744 147.687H196.81V144.402H194.744V147.687Z" fill="#555788"/>
<path d="M201.037 147.903H198.543V144.187H201.037V147.903ZM198.757 147.687H200.823V144.402H198.757V147.687Z" fill="#555788"/>
<path d="M205.176 147.903H202.682V144.187H205.176V147.903ZM202.897 147.687H204.962V144.402H202.897V147.687Z" fill="#555788"/>
<path d="M209.196 147.903H206.702V144.187H209.196V147.903ZM206.916 147.687H208.982V144.402H206.916V147.687Z" fill="#555788"/>
<path d="M213.241 147.903H210.749V144.187H213.241V147.903ZM210.964 147.687H213.027V144.402H210.964V147.687Z" fill="#555788"/>
<path d="M217.261 147.903H214.767V144.187H217.261V147.903ZM214.981 147.687H217.046V144.402H214.981V147.687Z" fill="#555788"/>
<path d="M221.477 147.903H218.983V144.187H221.477V147.903ZM219.197 147.687H221.263V144.402H219.197V147.687Z" fill="#555788"/>
<path d="M225.497 147.903H223.003V144.187H225.497V147.903ZM223.217 147.687H225.282V144.402H223.217V147.687Z" fill="#555788"/>
<path d="M188.959 153.082H186.459V149.37H188.959V153.082ZM186.679 152.866H188.745V149.586H186.679V152.866Z" fill="#555788"/>
<path d="M192.972 153.082H190.478V149.37H192.972V153.082ZM190.692 152.866H192.758V149.586H190.692V152.866Z" fill="#555788"/>
<path d="M197.017 153.082H194.53V149.37H197.024L197.017 153.082ZM194.744 152.866H196.81V149.586H194.744V152.866Z" fill="#555788"/>
<path d="M201.037 153.082H198.543V149.37H201.037V153.082ZM198.757 152.866H200.823V149.586H198.757V152.866Z" fill="#555788"/>
<path d="M205.176 153.082H202.682V149.37H205.176V153.082ZM202.897 152.866H204.962V149.586H202.897V152.866Z" fill="#555788"/>
<path d="M209.196 153.082H206.702V149.37H209.196V153.082ZM206.916 152.866H208.982V149.586H206.916V152.866Z" fill="#555788"/>
<path d="M213.241 153.082H210.749V149.37H213.241V153.082ZM210.964 152.866H213.027V149.586H210.964V152.866Z" fill="#555788"/>
<path d="M217.261 153.082H214.767V149.37H217.261V153.082ZM214.981 152.866H217.046V149.586H214.981V152.866Z" fill="#555788"/>
<path d="M221.477 153.082H218.983V149.37H221.477V153.082ZM219.197 152.866H221.263V149.586H219.197V152.866Z" fill="#555788"/>
<path d="M225.497 153.082H223.003V149.37H225.497V153.082ZM223.217 152.866H225.282V149.586H223.217V152.866Z" fill="#555788"/>
<path d="M188.959 158.66H186.459V154.938H188.959V158.66ZM186.679 158.444H188.745V155.154H186.679V158.444Z" fill="#555788"/>
<path d="M192.972 158.66H190.478V154.938H192.972V158.66ZM190.692 158.444H192.758V155.154H190.692V158.444Z" fill="#555788"/>
<path d="M197.017 158.66H194.53V154.938H197.024L197.017 158.66ZM194.738 158.444H196.803V155.154H194.744L194.738 158.444Z" fill="#555788"/>
<path d="M201.037 158.66H198.543V154.938H201.037V158.66ZM198.757 158.444H200.823V155.154H198.757V158.444Z" fill="#555788"/>
<path d="M205.176 158.66H202.682V154.938H205.176V158.66ZM202.897 158.444H204.962V155.154H202.897V158.444Z" fill="#555788"/>
<path d="M209.196 158.66H206.702V154.938H209.196V158.66ZM206.916 158.444H208.982V155.154H206.916V158.444Z" fill="#555788"/>
<path d="M213.241 158.66H210.749V154.938H213.241V158.66ZM210.964 158.444H213.027V155.154H210.964V158.444Z" fill="#555788"/>
<path d="M217.261 158.66H214.767V154.938H217.261V158.66ZM214.981 158.444H217.046V155.154H214.981V158.444Z" fill="#555788"/>
<path d="M221.477 158.66H218.983V154.938H221.477V158.66ZM219.197 158.444H221.263V155.154H219.197V158.444Z" fill="#555788"/>
<path d="M225.497 158.66H223.003V154.938H225.497V158.66ZM223.217 158.444H225.282V155.154H223.217V158.444Z" fill="#555788"/>
<path d="M188.959 163.844H186.459V160.123H188.959V163.844ZM186.679 163.628H188.745V160.339H186.679V163.628Z" fill="#555788"/>
<path d="M192.972 163.844H190.478V160.123H192.972V163.844ZM190.692 163.628H192.758V160.339H190.692V163.628Z" fill="#555788"/>
<path d="M197.017 163.844H194.53V160.123H197.024L197.017 163.844ZM194.738 163.628H196.803V160.339H194.744L194.738 163.628Z" fill="#555788"/>
<path d="M201.037 163.844H198.543V160.123H201.037V163.844ZM198.757 163.628H200.823V160.339H198.757V163.628Z" fill="#555788"/>
<path d="M205.176 163.844H202.682V160.123H205.176V163.844ZM202.897 163.628H204.962V160.339H202.897V163.628Z" fill="#555788"/>
<path d="M209.196 163.844H206.702V160.123H209.196V163.844ZM206.916 163.628H208.982V160.339H206.916V163.628Z" fill="#555788"/>
<path d="M213.241 163.844H210.749V160.123H213.241V163.844ZM210.964 163.628H213.027V160.339H210.964V163.628Z" fill="#555788"/>
<path d="M217.261 163.844H214.767V160.123H217.261V163.844ZM214.981 163.628H217.046V160.339H214.981V163.628Z" fill="#555788"/>
<path d="M221.477 163.844H218.983V160.123H221.477V163.844ZM219.197 163.628H221.263V160.339H219.197V163.628Z" fill="#555788"/>
<path d="M225.497 163.844H223.003V160.123H225.497V163.844ZM223.217 163.628H225.282V160.339H223.217V163.628Z" fill="#555788"/>
<path d="M221.94 141.821H212.804V138.395L221.94 134.873V141.821ZM213.018 141.606H221.726V135.186L213.018 138.544V141.606Z" fill="#555788"/>
<path d="M169.052 167.124H148.421V144.497L169.052 151.69V167.124ZM148.635 166.908H168.838V151.845L148.635 144.802V166.908Z" fill="#555788"/>
<path d="M168.512 153.19H148.961V152.283H168.512V153.19ZM149.175 152.974H168.298V152.499H149.175V152.974Z" fill="#555788"/>
<path d="M168.512 155.412H148.961V154.504H168.512V155.412ZM149.175 155.197H168.298V154.72H149.175V155.197Z" fill="#555788"/>
<path d="M168.512 157.633H148.961V156.727H168.512V157.633ZM149.175 157.417H168.298V156.942H149.175V157.417Z" fill="#555788"/>
<path d="M168.512 159.856H148.961V158.947H168.512V159.856ZM149.175 159.64H168.298V159.163H149.175V159.64Z" fill="#555788"/>
<path d="M168.512 162.076H148.961V161.17H168.512V162.076ZM149.175 161.86H168.298V161.386H149.175V161.86Z" fill="#555788"/>
<path d="M168.512 164.303H148.961V163.397H168.512V164.303ZM149.175 164.088H168.298V163.613H149.175V164.088Z" fill="#555788"/>
<path d="M223.656 141.822H221.728V134.916H223.656V141.822ZM221.942 141.606H223.442V135.132H221.942V141.606Z" fill="#555788"/>
<path d="M220.054 140.781H216.361V138.274H220.054V140.781ZM216.575 140.565H219.84V138.485H216.575V140.565Z" fill="#555788"/>
<path d="M151.646 102.6H150.247V92.2766H151.646V102.6ZM150.461 102.385H151.432V92.4924H150.461V102.385Z" fill="#555788"/>
<path d="M153.998 102.6H152.601V92.2766H153.998V102.6ZM152.816 102.385H153.784V92.4924H152.816V102.385Z" fill="#555788"/>
<path d="M156.319 102.6H154.922V92.2766H156.319V102.6ZM155.136 102.385H156.105V92.4924H155.136V102.385Z" fill="#555788"/>
<path d="M158.721 102.6H157.324V92.2766H158.721V102.6ZM157.538 102.385H158.506V92.4924H157.538V102.385Z" fill="#555788"/>
<path d="M140.893 325.204L147.157 325.119C147.157 325.119 137.737 314.589 134.847 309.229L126.893 294.438L116.482 297.031L129.696 315.891L140.893 325.204Z" fill="#E49963"/>
<path d="M82.1286 37.33C79.7281 35.9549 76.852 35.8028 74.8377 35.9211C75.3552 35.3829 76.3764 35.1857 76.3764 35.1857C75.1286 34.9997 72.3421 36.2452 72.3421 36.2452C54.9792 29.5077 59.1926 54.9557 59.5619 60.9379C59.9312 66.9202 46.7817 69.1745 37.745 73.8887C20.5136 82.8805 19 94.9211 19 94.9211C19.1343 95 19.2798 95.093 19.4225 95.2029C20.2786 93.7461 22.0384 91.0043 23.524 90.5929C23.468 90.7254 21.7698 94.3632 21.1347 96.4484C26.221 100.337 35.7306 108.968 42.3613 115.088C42.3305 113.891 42.3781 112.195 42.8117 111.298L43.6203 116.263C47.1678 119.549 49.6131 121.86 49.6131 121.86C49.1766 117.024 71.3209 91.5172 82.8728 83.878C85.6706 79.7076 86.6862 72.3248 86.7589 71.7613C86.2749 77.6027 85.2817 80.8798 84.3948 82.7255C94.1898 73.652 88.4935 40.9651 82.1286 37.33Z" fill="#443C8E"/>
<path d="M82.2013 84.2555C82.2573 84.2837 76.6226 87.2311 72.384 86.0617C68.3944 84.9684 65.7897 79.7582 65.8457 79.747C67.5243 79.4088 68.0195 77.0728 67.9831 67.03L68.7469 67.1794L81.5858 69.7408C81.5858 69.7408 81.3061 73.8098 81.2837 77.6308C81.2753 80.86 81.4683 83.9117 82.2013 84.2555Z" fill="#E49963"/>
<path d="M67.681 41.5454C67.681 41.5454 74.0123 34.7544 81.9635 41.196C81.9663 41.196 77.3389 40.4013 67.681 41.5454Z" fill="#E37970"/>
<path d="M81.5858 69.7408C81.5858 69.7408 81.3061 73.8097 81.2837 77.6307C74.1158 77.4391 70.3025 70.8341 68.7469 67.1709L81.5858 69.7408Z" fill="#D68D5D"/>
<path d="M67.4208 65.7619C67.4208 65.7619 63.6578 59.7712 62.7541 54.6484C62.1079 50.9852 63.9572 37.4342 77.4843 39.3869C80.2085 39.7671 82.813 40.759 85.1054 42.2893C88.0403 44.2871 92.2789 48.5984 87.5395 60.4278L86.3085 64.4235L67.4208 65.7619Z" fill="#443C8E"/>
<path d="M132.748 304.061L125.944 304.27L118.578 304.498C118.578 304.498 101.567 285.421 92.0215 254.839C91.7977 254.127 91.5617 253.408 91.3137 252.681C86.093 237.343 75.2657 218.089 69.5583 200.663C68.6518 197.888 67.8349 195.276 67.1047 192.802C66.8696 192.009 66.643 191.23 66.4248 190.466C62.2282 175.751 61.0027 166.091 59.8808 155.77L96.3132 156.051C96.3132 156.051 107.734 226.585 132.748 304.061Z" fill="#4F4DA0"/>
<path d="M95.3144 132.263C95.7985 151.988 98.1905 160.481 98.1905 160.481C98.1905 160.481 80.5507 169.498 59.5815 162.862C59.3353 162.786 60.9412 81.2911 66.8892 79.0452C68.2545 80.7585 72.3309 82.4266 75.9568 82.3449C80.1338 82.2519 81.4879 80.4513 81.2725 78.4873C85.7237 80.9783 94.6234 103.992 95.3144 132.263Z" fill="#E7F1FD"/>
<path d="M83.9835 73.3702C83.9835 73.3702 66.9871 73.652 66.976 62.9893C66.9648 52.3265 64.7629 45.1833 75.6126 44.5521C86.4623 43.9209 88.5774 47.9871 89.442 51.5432C90.3065 55.0993 88.404 73.0208 83.9835 73.3702Z" fill="#E49963"/>
<path d="M88.9439 45.6144C86.3224 42.4133 84.3388 43.1093 83.2253 44.073C79.5519 38.5444 67.944 46.5387 67.944 46.5387C62.231 52.0165 61.3301 58.5709 61.3301 58.5709C61.3301 58.5709 64.4272 60.4983 71.5671 58.6498C77.1878 57.1929 81.2669 49.1367 82.7581 45.7694C83.7681 46.6739 85.9028 48.7648 86.5407 50.8133C87.38 53.5297 87.7689 59.1175 89.386 58.9287C89.3692 58.9287 92.8748 50.4245 88.9439 45.6144Z" fill="#443C8E"/>
<path d="M152.372 91.0662C152.372 91.0662 154.77 82.3703 164.262 83.5989C165.351 83.9427 168.535 85.222 166.501 88.6541C165.001 91.1902 164.352 89.8771 161.991 93.2782C159.629 96.6793 157.072 97.4458 154.157 97.04L152.372 91.0662Z" fill="#E49963"/>
<path d="M71.2509 324.595C70.6718 321.391 69.5723 315.86 69.5723 315.86L69.8269 296.199H57.9728L62.4072 315.017C62.6499 317.671 62.3392 320.347 61.4951 322.873C61.4951 322.873 60.3565 328.097 65.4652 328.196C70.5739 328.295 71.8273 327.799 71.2509 324.595Z" fill="#E49963"/>
<path d="M61.4951 322.865C61.4951 322.865 60.4852 328.379 61.0615 331H71.7937C71.7937 331 71.8413 325.015 70.9012 322.732C70.9012 322.732 67.2809 328.205 61.4951 322.865Z" fill="#4B448E"/>
<path d="M147.26 325.173C147.224 325.158 147.19 325.14 147.157 325.119C144.639 325.198 142.121 324.274 139.838 321.679C132.88 313.789 128.969 312.901 127.603 312.904C126.428 315.341 125.133 318.08 126.8 321.169L129.293 331H131.979L132.007 321.718C133.775 322.189 135.501 323.042 136.271 324.592C138.151 328.377 139.457 331 141.2 331H153.292C153.292 331 153.043 327.796 147.26 325.173Z" fill="#4B448E"/>
<path d="M152.372 91.0662C152.372 91.0662 141.217 97.3471 137.233 99.159C134.961 100.193 129.732 102.659 126.042 104.4C124.903 104.939 123.619 105.087 122.388 104.819C121.157 104.552 120.047 103.885 119.23 102.921C113.181 95.8058 97.5107 80.3781 81.3424 78.4817L81.362 78.5211L81.2697 78.4817C81.2697 78.4817 91.1066 102.957 91.3976 107.897C91.6885 112.837 92.5531 188.868 92.5531 188.868C92.5531 188.868 91.9739 192.362 98.627 190.908C105.28 189.454 107.02 187.994 107.02 187.994C107.02 187.994 100.65 141.103 102.373 124.79C102.717 121.578 102.404 117.962 101.688 114.229C111.539 120.265 123.197 122.947 123.197 122.947C123.197 122.947 131.912 119.118 143.825 110.326C147.563 107.565 154.135 97.04 154.135 97.04L152.372 91.0662Z" fill="#5F64A0"/>
<path d="M125.944 304.27L118.578 304.498C118.578 304.498 101.567 285.421 92.0215 254.839C91.7977 254.127 91.5617 253.408 91.3137 252.681C86.093 237.343 75.2657 218.089 69.5583 200.663C68.6518 197.888 67.8349 195.276 67.1047 192.802C66.8696 192.009 66.643 191.23 66.4248 190.466L72.4931 185.83C72.4931 185.83 90.7065 215.539 96.3468 243.497C101.254 267.782 120.866 297.003 125.944 304.27Z" fill="#4B448E"/>
<path d="M73.1282 246.104C73.2317 259.7 72.5491 290.955 70.7921 303.898H64.2677C60.6614 303.898 58.8625 303.844 58.8625 303.844C54.4532 281.347 51.3085 262.729 49.0311 246.684C47.1566 233.519 45.492 222.234 44.2106 212.518C42.9208 202.74 42.0227 194.554 41.6926 187.636C41.6423 186.545 41.6059 185.486 41.5835 184.458C41.5611 183.43 41.5555 182.425 41.5667 181.443L77.1654 177.949C76.7289 201.768 73.0695 238.197 73.1282 246.104Z" fill="#4F4DA0"/>
<path d="M64.2677 303.895C60.6614 303.895 58.8625 303.842 58.8625 303.842C54.4532 281.344 51.3085 262.726 49.0311 246.682C47.1566 233.517 45.492 222.231 44.2106 212.515C42.9208 202.737 42.0227 194.552 41.6926 187.634L54.7637 195.383C54.7637 195.383 46.418 198.333 49.6075 220.76C52.7969 243.188 59.8473 300.719 64.2677 303.895Z" fill="#4B448E"/>
<path d="M65.9492 187.411C65.9492 187.411 63.4312 196.538 54.7581 195.372C46.0851 194.205 33.7442 188.964 33.7442 188.964C33.7442 188.964 37.4652 177.166 42.0703 161.665C47.6658 142.898 54.5595 118.707 57.8161 103.448C58.731 99.1733 59.3549 95.6003 59.5871 93.0445L66.892 79.0398C66.892 79.0398 77.5235 103.239 78.0831 109.354C78.6426 115.469 65.9492 187.411 65.9492 187.411Z" fill="#5F64A0"/>
<path d="M65.5631 122.17C65.177 132.071 62.8633 151.295 42.2354 161.585C42.1794 161.611 42.1263 161.642 42.0703 161.664C47.6658 142.898 54.5595 118.706 57.8161 103.448C61.6043 109.157 65.7757 116.717 65.5631 122.17Z" fill="#555788"/>
<path d="M102.891 116.765C102.891 117.951 99.4803 126.227 93.4903 131.17C92.3292 132.128 91.4004 132.579 90.6618 132.72C80.906 136.084 72.4428 137.828 65.5715 138.679V127.718C74.0599 127.171 84.5179 126.591 88.8208 126.365C89.5315 125.238 90.3596 123.621 90.6394 121.995C91.1542 118.98 92.7573 116.745 96.9315 116.193C101.106 115.641 102.902 115.57 102.891 116.765Z" fill="#E49963"/>
<path d="M66.892 79.0398C66.892 79.0398 49.1766 80.2289 44.9352 89.7476C40.6938 99.2663 39.3397 130.913 44.7422 140.235C44.7422 140.235 52.173 142.365 65.3169 139.891L65.8037 139.798C65.8037 139.798 70.0003 129.457 66.2373 127.419C66.2373 127.419 55.1526 128 56.3081 124.32C57.4636 120.64 66.892 79.0398 66.892 79.0398Z" fill="#5F64A0"/>
<path d="M70.8788 32.1198C67.3872 33.0046 64.7685 34.4163 62.8129 36.1155C62.6198 36.2845 62.4296 36.4564 62.2533 36.6311C55.0099 43.5856 57.8888 54.6484 57.8888 54.6484C57.8888 54.6484 58.8513 57.4437 59.5143 58.5286C60.1774 59.6135 69.7877 58.3623 70.2829 56.2743C70.7781 54.1863 72.6862 52.0194 72.6862 52.0194C72.6862 52.0194 82.8169 51.3177 83.4967 51.267C85.7853 51.1008 92.318 48.8127 92.318 48.8127C92.2509 48.1674 88.5746 27.645 70.8788 32.1198Z" fill="#5F64A0"/>
<path d="M98.3276 46.6458C97.1106 46.3471 95.0403 46.0146 91.613 45.8878C91.613 45.8878 85.0075 48.4831 79.3029 50.3062C76.6254 46.9079 72.7309 38.5107 62.7961 36.1156L62.7094 36.093C62.4967 36.3607 62.3792 36.4509 62.231 36.6312C62.1862 36.6848 62.1414 36.7468 62.0883 36.8228C70.1766 38.2318 74.4656 47.6969 77.1038 51.1234C74.8405 51.687 75.635 51.8222 72.6806 52.0195C72.6806 52.0195 90.3848 52.352 98.4759 48.0604C98.6114 47.9897 98.7225 47.8796 98.7948 47.7443C98.8671 47.609 98.8972 47.4549 98.8812 47.3021C98.8652 47.1493 98.8038 47.005 98.705 46.8879C98.6063 46.7708 98.4747 46.6865 98.3276 46.6458Z" fill="#555788"/>
</svg>
