<svg width="310" height="334" viewBox="0 0 310 334" fill="none" xmlns="http://www.w3.org/2000/svg">
<path d="M106.188 309.338C106.188 309.338 102.896 312.569 102.818 313.753C102.74 314.938 102.527 327.637 103.874 328.83C105.22 330.023 109.168 330.855 107.895 332.19C106.935 333.198 99.5566 332.983 94.662 332.711C93.2332 332.63 91.4439 321.175 90.8793 319.491C90.0541 317.049 87.4396 311.987 87.8392 310.014C88.0216 309.127 90.9053 307.292 93.3591 305.707C95.9389 304.031 98.41 300.3 98.41 300.3L106.188 309.338Z" fill="#F7A491"/>
<path d="M150.239 317.273C150.239 317.273 147.295 325.643 147.291 325.664C147.073 326.991 146.209 330.265 146.209 331.471C146.209 335.998 166.521 327.624 161.97 325.621C161.557 325.436 160.267 323.988 160.128 322.446C159.92 320.073 161.84 317.092 161.84 317.092L150.239 317.273Z" fill="#F7A491"/>
<path d="M178.274 158.384L185.631 177.252C185.631 177.252 190.408 222.34 187.633 249.328C186.464 260.614 161.166 321.038 161.166 321.038L148.602 319.258L165.431 247.708L159.238 220.341L150.474 166.254L178.274 158.384Z" fill="#3D3D7A"/>
<path d="M143.629 159.345L137.319 180.383L127.721 243.874L95.2657 303.268C95.2657 303.268 100.147 310.699 105.389 311.884L151.451 251.861L176.415 176.692L175.546 159.995L143.629 159.345Z" fill="#56548C"/>
<path d="M93.5242 305.62C93.5242 305.62 100.473 326.685 103.431 327.723C104.221 327.999 108.642 329.114 109.372 330.799C109.393 330.847 109.407 330.898 109.415 330.949C109.46 331.204 109.448 331.465 109.379 331.714C109.31 331.963 109.187 332.194 109.017 332.39C108.848 332.586 108.637 332.742 108.399 332.848C108.162 332.953 107.903 333.005 107.643 333H93.5502C93.5502 333 91.5524 323.523 90.762 319.375C90.762 319.375 86.571 309.209 87.0357 308.287C87.5004 307.365 93.5242 305.62 93.5242 305.62Z" fill="#56548C"/>
<path d="M145.054 332.966L147.321 325.578C147.321 325.578 152.263 327.654 154.704 327.301C157.145 326.948 161.913 325.578 161.913 325.578C171.668 328.804 179.655 330.368 178.2 332.966H145.05H145.054Z" fill="#3D3D7A"/>
<path d="M137.115 40.6467C136.741 40.5132 134.101 59.4196 139.108 64.6189C144.116 69.8183 153.875 71.5112 157.384 67.4275C161.258 62.8959 161.062 42.5809 153.271 37.2307C145.479 31.8806 137.115 40.6467 137.115 40.6467Z" fill="#FFBD9F"/>
<path d="M150.305 27.1163C145.968 28.0045 142.008 30.1835 138.952 33.3624C136.22 33.6769 132.503 35.1328 128.663 41.2627C123.947 48.7968 127.43 57.1537 132.924 61.246C138.418 65.3383 138.344 70.0509 138.344 70.0509L139.213 67.6256C139.868 65.7783 140.102 63.8099 139.899 61.862C139.802 60.6668 139.509 59.4954 139.03 58.3943C137.727 55.6589 141.866 53.8411 143.034 51.5666C143.929 49.8134 143.972 45.803 145.388 42.9039L147.078 40.6941C147.078 40.6941 150.986 37.7691 154.791 38.5919C158.595 39.4147 158.031 25.5957 150.305 27.1163Z" fill="#263238"/>
<path d="M142.756 54.9267C142.796 57.2356 141.705 59.1223 140.329 59.1439C138.952 59.1654 137.797 57.3174 137.758 55.0128C137.719 52.7082 138.804 50.8171 140.185 50.7956C141.566 50.7741 142.717 52.6221 142.756 54.9267Z" fill="#F7A491"/>
<path d="M137.032 70.6798C137.032 70.6798 126.818 143.441 131.495 148.86L138.235 152.676C138.235 152.676 140.042 82.2502 141.406 73.1395L137.032 70.6798Z" fill="#13375B"/>
<path d="M193.978 100.76C191.472 102.858 195.281 111.267 197.765 115.837C192.601 115.837 185.17 113.054 180.749 110.668C181.539 105.447 182.282 99.3043 185.913 95.5437C187.919 97.2582 191.78 99.7997 193.978 100.76Z" fill="#F7B094"/>
<path d="M163.034 77.2232C163.034 77.2232 165.127 75.9912 168.68 76.198C171.881 76.3832 180.028 85.873 188.953 93.4287C185.322 97.1893 181.531 109.729 180.74 114.967C174.056 111.37 167.911 103.883 166.361 101.574C162.821 96.2846 163.034 77.2232 163.034 77.2232Z" fill="#6D5ADB"/>
<path d="M163.034 77.2231C163.034 77.2231 158.257 74.8797 138.474 77.2791C137.471 77.3997 135.604 100.084 135.604 100.084C135.604 100.084 137.879 161.253 135.838 170.773C135.838 170.773 172.037 179.604 188.962 171.699C188.962 171.699 180.74 125.077 178.73 115.178C176.237 102.94 174.091 96.4784 171.381 89.1381C169.665 84.5274 166.792 80.4266 163.034 77.2231Z" fill="#644CC7"/>
<path d="M141.406 79.5234C141.406 79.5234 137.554 74.1603 131.061 77.8305C121.676 83.1375 130.991 119.947 134.396 131.246C135.894 136.225 141.645 131.629 146.357 126.309C152.341 119.559 157.735 105.83 157.735 105.83C158.435 101.454 153.128 93.7215 153.128 93.7215C153.128 93.7215 144.494 111.383 142.661 109.569C140.828 107.756 145.393 87.3935 141.406 79.5234Z" fill="#FFBEA0"/>
<path d="M131.061 77.8305C137.554 74.1603 141.406 79.5234 141.406 79.5234C145.123 86.8809 143.851 103.608 145.171 107.239C140.155 107.192 132.542 110.229 127.638 111.68C124.525 98.6538 124.894 81.3197 131.061 77.8305Z" fill="#6D5ADB"/>
<path d="M170.087 71.5887C170.361 72.7518 173.483 76.7579 174.122 79.4933C174.76 82.2286 176.358 85.3129 178.929 90.2366C181.5 95.1603 190.482 113.067 193.978 114.907C197.474 116.746 211.867 117.091 202.707 103.793C200.835 101.092 183.133 83.2539 182.564 80.8459C181.995 78.4379 182.43 76.7665 182.729 74.0398C183.029 71.313 181.496 67.617 180.428 67.4232C179.359 67.2293 181.622 70.6539 181.322 71.0632C181.023 71.4724 179.029 65.8035 177.357 65.2176C175.685 64.6318 179.281 69.7278 179.529 70.7315C179.776 71.7351 180.08 72.4071 179.633 72.5105C179.186 72.6139 178.439 69.9259 177.518 68.4355C176.597 66.945 175.068 64.7826 173.878 65.5666C172.688 66.3506 176.206 68.4656 176.484 69.5641C176.762 70.6625 177.622 72.7431 177.11 73.0662C176.597 73.3893 174.23 65.9973 172.767 66.0275C171.303 66.0576 172.628 67.9315 173.492 69.6072C174.356 71.2828 175.316 74.0225 174.608 74.1862C173.9 74.3499 173.136 73.7554 171.842 72.4416C170.547 71.1278 169.813 70.4256 170.087 71.5887Z" fill="#F7B094"/>
<path d="M132.798 79.0108C131.582 79.2811 130.308 79.0656 129.251 78.4109C128.195 77.7563 127.44 76.7152 127.152 75.513L124.885 65.8681C124.605 64.6574 124.819 63.3859 125.48 62.3311C126.142 61.2763 127.197 60.5238 128.416 60.238C129.638 59.9575 130.922 60.1685 131.987 60.8248C133.053 61.4812 133.813 62.5294 134.101 63.7401L136.368 73.3807C136.507 73.9829 136.524 74.6063 136.42 75.2153C136.316 75.8243 136.091 76.4069 135.76 76.9298C135.428 77.4527 134.996 77.9057 134.488 78.2628C133.979 78.6198 133.405 78.874 132.798 79.0108Z" fill="#13375B"/>
<path d="M147.747 71.2096L132.268 74.7893C131.015 75.0749 129.698 74.857 128.606 74.183C127.514 73.5091 126.735 72.434 126.44 71.1924L124.229 61.7931C123.941 60.5503 124.161 59.2451 124.841 58.1626C125.52 57.0802 126.604 56.3086 127.856 56.0165L143.334 52.4368C144.587 52.1499 145.904 52.3667 146.996 53.04C148.088 53.7132 148.867 54.788 149.162 56.0294L151.369 65.4287C151.658 66.6715 151.439 67.9774 150.76 69.0607C150.082 70.144 148.998 70.9166 147.747 71.2096Z" fill="#13375B"/>
<path d="M149.805 49.2362C153.115 48.187 156.525 47.4797 159.981 47.1255C162.165 46.9209 164.363 46.9209 166.547 47.1255C169.847 47.4289 173.124 47.9396 176.358 48.6547C177.294 48.8225 178.21 49.0822 179.094 49.4301C181.218 50.3735 183.846 52.9021 185.066 56.723C186.286 60.5439 188.384 72.0583 186.399 74.0226C184.415 75.9869 176.489 79.4718 173.865 80.2386C171.242 81.0053 160.333 81.1475 160.333 81.1475C160.333 81.1475 158.669 77.1414 154.252 78.4337C149.836 79.726 149.636 82.1167 149.636 82.1167C149.636 82.1167 143.278 82.7543 140.007 82.4915C136.737 82.2287 133.966 80.9278 133.332 78.9506C131.599 73.3844 130.18 67.7268 129.08 62.0042C128.863 60.9316 128.646 59.7642 129.237 58.7605C129.979 57.4682 131.682 56.9254 133.054 56.2965C134.913 55.435 136.75 54.5734 138.605 53.7119C142.234 51.9762 145.976 50.481 149.805 49.2362Z" fill="#355389"/>
<path d="M139.842 67.8755L141.302 67.4447C141.389 67.4245 141.471 67.3873 141.544 67.3353C141.616 67.2833 141.678 67.2176 141.725 67.1419C141.772 67.0662 141.803 66.982 141.817 66.8942C141.83 66.8065 141.827 66.7168 141.805 66.6306L139.747 60.2509C139.68 60.0819 139.55 59.9451 139.384 59.8695C139.218 59.794 139.029 59.7855 138.856 59.846L137.397 60.2767C137.31 60.2965 137.228 60.3332 137.155 60.3847C137.083 60.4363 137.021 60.5017 136.974 60.577C136.927 60.6524 136.896 60.7363 136.882 60.8237C136.868 60.9112 136.872 61.0006 136.893 61.0866L138.948 67.4921C139.02 67.6568 139.152 67.7881 139.319 67.8593C139.485 67.9305 139.672 67.9363 139.842 67.8755Z" fill="#184655"/>
<path d="M136.655 66.8589L134.787 67.406L136.802 73.7038L138.77 73.4582L136.655 66.8589Z" fill="#184655"/>
<path d="M186.039 57.1021L180.571 57.7784C180.571 57.7784 174.686 59.5876 174.843 64.5586C175.021 70.1931 177.448 73.5143 180.158 73.7254C182.364 73.8104 184.573 73.7211 186.764 73.4583L186.039 57.1021Z" fill="#184655"/>
<path d="M168.971 50.1451C164.385 48.0688 148.932 50.4165 144.411 51.1617C145.566 50.7008 146.73 50.2614 147.886 49.8694C154.943 48.8442 165.553 47.763 169.366 49.486C174.704 51.8768 177.965 55.6202 179.433 60.1691C180.389 63.1371 182.178 71.7179 183.09 76.2065C182.838 76.3444 182.573 76.4822 182.308 76.6373C181.413 72.2349 179.581 63.4214 178.621 60.4232C177.157 55.8269 173.909 52.3765 168.971 50.1451Z" fill="#184655"/>
<path d="M163.325 53.5611C158.209 51.2521 137.931 54.6164 135.851 54.9697C136.676 54.582 137.506 54.19 138.335 53.8066C145.545 52.6823 159.455 50.9549 163.742 52.8934C169.062 55.2971 172.319 59.0404 173.792 63.5721C174.699 66.4022 176.363 74.3068 177.309 78.9333L176.51 79.2607C175.572 74.673 173.883 66.6478 172.975 63.809C171.511 59.2429 168.267 55.7967 163.325 53.5611Z" fill="#184655"/>
<path d="M169.457 74.4146C167.229 67.798 165.114 57.214 158.27 56.5765C156.435 56.5119 154.598 56.5897 152.776 56.8091L156.172 67.9229C156.789 69.9691 154.917 72.0497 152.485 72.0023L148.606 71.9248C147.908 71.9421 147.223 71.7362 146.652 71.3374C146.081 70.9387 145.655 70.3683 145.436 69.7106L142.179 58.11C139.534 58.4805 136.928 58.8682 134.657 59.2171L139.868 75.5303L139.052 75.7672L133.806 59.3506C131.738 59.6694 130.005 59.9494 128.85 60.139C128.857 59.877 128.895 59.6168 128.963 59.3636C134.913 58.3943 153.84 55.4048 158.404 55.8313C164.198 56.3697 166.747 63.1543 168.341 68.1383L170.473 74.8152L170.122 74.9574C170.122 74.9574 168.067 75.8189 167.472 77.2361C167.338 77.5739 167.289 77.9388 167.328 78.2997C167.368 78.6606 167.495 79.0066 167.698 79.3081C168.023 79.8713 168.427 80.3861 168.897 80.8373L167.82 80.9019C167.492 80.5241 167.201 80.1159 166.951 79.6829C165.696 77.542 167.025 75.6078 169.457 74.4146ZM143.03 57.9894L146.261 69.4909C146.428 69.9921 146.753 70.4268 147.187 70.7308C147.622 71.0349 148.144 71.1922 148.676 71.1795L152.554 71.2528C154.4 71.2915 155.829 69.7106 155.36 68.1512L151.907 56.8953C149.258 57.1537 146.14 57.5587 143.03 57.9894Z" fill="#184655"/>
<path d="M132.203 75.8619C137.649 75.668 158.695 75.0865 161.062 77.5849C161.992 78.5814 162.652 79.7951 162.982 81.1129C161.327 81.1603 160.163 81.1775 160.163 81.1775C160.163 81.1775 158.495 77.1714 154.083 78.4637C149.67 79.756 149.453 82.1381 149.453 82.1381C149.453 82.1381 143.095 82.7757 139.825 82.5129C136.555 82.2501 133.784 80.9535 133.15 78.972C132.798 77.9382 132.503 76.9 132.203 75.8619Z" fill="#13375B"/>
<path d="M129.067 61.9869C130.118 66.8718 131.842 74.2638 133.488 78.985C134.383 81.3112 137.94 82.2933 140.763 82.3666C142.222 82.3881 144.111 82.1986 149.049 81.7247C149.397 80.1093 151.438 77.977 155.612 77.6884C157.953 77.5247 159.855 79.3684 160.48 80.7038C163.017 80.6693 171.238 80.4841 173.605 79.7259C175.668 79.0755 180.454 77.6023 183.594 75.8878C184.603 75.3675 185.55 74.736 186.417 74.0054C184.705 75.6853 179.728 77.99 177.44 78.9721C174.76 80.1179 173.848 80.3764 172.91 80.5315C169.396 81.0613 163.664 81.2035 160.237 81.2767C160.121 81.0144 159.983 80.7622 159.824 80.5229C159.259 79.6277 158.414 78.9408 157.418 78.5672C155.099 77.654 150.7 79.5106 149.909 81.7549C149.85 81.911 149.815 82.0751 149.805 82.2416C149.106 82.2847 145.319 82.7155 141.341 82.6724C140.563 82.6379 137.636 82.9136 135.299 81.729C134.184 81.1557 133.342 80.1699 132.954 78.985C131.764 75.2072 130.518 69.6675 129.067 61.9869Z" fill="#184655"/>
<path d="M162.113 57.9333C163.303 57.5844 163.998 56.4644 163.668 55.4263L160.702 46.1691C160.128 44.3857 158.178 43.3045 156.063 43.5845C153.141 43.9851 147.76 44.7432 144.576 45.3075C143.464 45.4812 142.411 45.9169 141.504 46.578C140.597 47.2391 139.864 48.1063 139.365 49.1069L137.953 52.1223C137.475 53.1518 137.132 55.1377 139.152 54.6552C140.32 54.3838 141.606 54.4872 142.079 53.4577L143.49 50.4207C143.657 50.0891 143.902 49.8024 144.205 49.5849C144.507 49.3674 144.858 49.2256 145.228 49.1715C148.302 48.646 153.527 47.9051 156.446 47.5045L159.381 56.6712C159.69 57.7266 160.923 58.2823 162.113 57.9333Z" fill="#184655"/>
<path d="M188.388 42.667C188.388 42.667 184.558 43.9593 183.637 45.4325C182.716 46.9057 183.516 46.4793 182.378 48.3144C181.24 50.1494 160.159 56.99 157.319 56.6411C154.478 56.2922 154.378 53.2596 152.654 53.1174C150.93 52.9753 143.968 55.1076 144.793 60.1002C145.618 65.0927 147.959 65.2047 152.841 65.8897C157.353 66.5186 187.402 54.4959 189.261 52.5359C191.12 50.5759 189.144 47.9956 188.97 47.4614C188.797 46.9273 191.142 44.9199 191.142 44.9199L188.388 42.667Z" fill="#13375B"/>
<path d="M191.333 47.4226C193.8 48.0386 196.575 47.2503 199.033 46.6731C203.383 45.6223 207.619 44.1567 211.684 42.2965C214.108 41.2067 214.937 37.8251 213.808 35.8781C213.286 34.9883 212.476 34.2993 211.51 33.9224C210.337 33.5012 209.07 33.4044 207.845 33.6424C204.597 34.0806 201.391 34.7851 198.26 35.7488C195.792 36.4657 193.378 37.3568 191.038 38.4153C189.101 39.3199 187.303 40.8836 187.242 42.8996C187.181 45.0534 188.883 46.7205 191.085 47.358L191.333 47.4226Z" fill="#184655"/>
<path d="M206.672 34.8141C203.446 36.7008 205.726 42.0854 208.331 42.8048C207.002 42.0768 206.195 40.4098 205.76 39.0615C205.291 37.5538 205.396 36.0159 206.672 34.8141Z" fill="#13375B"/>
<path d="M210.746 49.7316L186.126 55.4306C186.126 55.4306 178.1 57.8042 179.82 65.2177C181.539 72.6312 186.894 74.1173 186.894 74.1173L203.567 73.4669L210.746 49.7316Z" fill="#13375B"/>
<path d="M217.517 43.339L209.951 43.8387L187.333 54.6509L191.654 72.9069L193.834 74.2164L200.948 75.0607L217.517 43.339Z" fill="#466EB6"/>
<path d="M208.709 44.0282L188.241 51.8596C187.604 52.0946 187.076 52.5523 186.756 53.1466C186.436 53.7408 186.346 54.4306 186.503 55.086L190.703 72.0927C190.804 72.4818 190.986 72.8452 191.239 73.1588C191.492 73.4724 191.81 73.729 192.17 73.9115C192.531 74.0941 192.927 74.1984 193.331 74.2175C193.736 74.2367 194.14 74.1702 194.516 74.0226L216.666 65.5106L212.518 46.0442C212.427 45.6483 212.251 45.2765 212.003 44.9539C211.754 44.6313 211.439 44.3654 211.077 44.1742C210.716 43.9831 210.318 43.8711 209.909 43.8459C209.501 43.8207 209.092 43.8829 208.709 44.0282Z" fill="#466EB6"/>
<path d="M216.182 43.507L195.77 51.4934C195.124 51.7558 194.597 52.2423 194.286 52.8622C193.975 53.482 193.902 54.1928 194.081 54.862L198.489 72.7949C198.579 73.1962 198.755 73.5738 199.004 73.9022C199.254 74.2307 199.571 74.5023 199.935 74.699C200.299 74.8957 200.702 75.0128 201.115 75.0425C201.529 75.0722 201.944 75.0138 202.333 74.8712L222.206 67.0614C222.845 66.8036 223.371 66.3287 223.689 65.7219C224.007 65.115 224.097 64.4156 223.943 63.7488L220.065 45.6565C219.984 45.2447 219.813 44.8554 219.564 44.5157C219.316 44.176 218.995 43.8941 218.626 43.6895C218.256 43.485 217.846 43.3627 217.424 43.3312C217.002 43.2996 216.579 43.3596 216.182 43.507Z" fill="#355389"/>
<path d="M215.388 45.3162L197.312 52.3808C196.742 52.6148 196.277 53.0457 196.002 53.5936C195.727 54.1416 195.662 54.7696 195.818 55.3617L199.727 71.2226C199.806 71.5806 199.963 71.9175 200.185 72.2102C200.408 72.503 200.691 72.7449 201.016 72.9194C201.341 73.0939 201.7 73.1969 202.069 73.2215C202.438 73.2461 202.808 73.1917 203.153 73.0619L220.091 66.4195C220.835 66.1133 221.446 65.5564 221.816 64.8472C222.186 64.1379 222.292 63.3217 222.115 62.5426L218.788 47.246C218.718 46.8834 218.57 46.5401 218.354 46.2396C218.138 45.9392 217.859 45.6886 217.536 45.5053C217.212 45.322 216.853 45.2101 216.482 45.1775C216.112 45.1449 215.738 45.1922 215.388 45.3162Z" fill="#42A1B7"/>
<path d="M197.313 52.3808L213.178 46.182C213.204 46.2682 213.23 46.3586 213.252 46.4491L216.544 61.8059C216.721 62.5693 216.62 63.3703 216.258 64.0667C215.896 64.7631 215.298 65.3097 214.568 65.6096L199.802 71.4077C199.802 71.3474 199.763 71.2871 199.75 71.2225L195.841 55.3617C195.683 54.7722 195.746 54.1462 196.016 53.5987C196.287 53.0511 196.747 52.6186 197.313 52.3808Z" fill="#13375B"/>
<path d="M197.313 52.3808L205.43 49.2103C206.214 50.3568 206.783 51.6334 207.111 52.9795C208.601 59.0103 205.039 65.041 199.155 66.3979C198.959 66.4453 198.768 66.4841 198.573 66.5186L195.819 55.3617C195.663 54.7696 195.729 54.1416 196.003 53.5936C196.278 53.0456 196.743 52.6148 197.313 52.3808Z" fill="#F4F4F4"/>
<path d="M163.312 66.7038C163.659 68.177 162.843 74.4102 163.19 77.9037C164.806 94.148 152.333 117.823 149.414 121.864C146.496 125.904 141.918 114.631 142.439 110.5C142.961 106.369 155.086 87.1868 154.365 84.1197C153.644 81.0527 152.22 79.42 150.339 76.4951C148.459 73.5702 148.116 68.5173 149.214 67.7032C150.313 66.889 149.688 72.0324 150.252 72.3339C150.817 72.6354 149.892 65.0884 151.455 63.4989C153.019 61.9093 151.82 69.6847 152.116 70.9511C152.411 72.2176 152.437 73.1653 152.984 73.0318C153.531 72.8982 152.884 69.4348 153.088 67.2336C153.293 65.0324 153.805 61.7241 155.599 61.9524C157.392 62.1807 154.608 66.5401 154.947 67.9229C155.286 69.3056 155.447 72.1616 156.211 72.2305C156.975 72.2995 155.49 62.6115 157.145 61.8404C158.799 61.0693 158.383 63.9253 158.343 66.3032C158.304 68.681 158.778 72.3339 159.646 72.1185C160.515 71.9031 161.084 70.8262 161.818 68.6035C162.552 66.3807 162.969 65.2306 163.312 66.7038Z" fill="#FFC3A7"/>
<path d="M173.144 83.2582C173.144 83.2582 145.949 148.86 131.495 148.86L137.554 155.89C137.554 155.89 150.431 154.559 164.658 121.308C178.886 88.0569 177.874 83.9517 177.874 83.9517L173.144 83.2582Z" fill="#184655"/>
</svg>
