<svg width="310" height="334" viewBox="0 0 310 334" fill="none" xmlns="http://www.w3.org/2000/svg">
<path d="M282.116 127.168L267.656 213.318H261.026L274.832 128.009L282.116 127.168Z" fill="#263238"/>
<path opacity="0.4" d="M282.116 127.168L267.656 213.318H261.026L274.832 128.009L282.116 127.168Z" fill="white"/>
<path d="M259.718 128.543L248.573 215.179L241.955 215.428L252.482 129.657L259.718 128.543Z" fill="#263238"/>
<path opacity="0.4" d="M259.718 128.543L248.573 215.179L241.955 215.428L252.482 129.657L259.718 128.543Z" fill="white"/>
<path d="M236.988 125.508L230.037 212.583L223.443 213.164L229.8 126.978L236.988 125.508Z" fill="#263238"/>
<path opacity="0.4" d="M236.988 125.508L230.037 212.583L223.443 213.164L229.8 126.978L236.988 125.508Z" fill="white"/>
<path d="M223.455 215.061L223.882 233.516L225.831 317H232.259L234.196 233.516L234.624 215.061H223.455Z" fill="#263238"/>
<path opacity="0.4" d="M223.455 215.061L223.882 233.516L225.831 317H232.259L234.196 233.516L234.624 215.061H223.455Z" fill="white"/>
<path opacity="0.2" d="M223.455 215.061L223.882 234.026H234.196L234.624 215.061H223.455Z" fill="black"/>
<path d="M182.604 316.704L188.545 216.365H198.253L189.935 316.704H182.604Z" fill="#263238"/>
<path opacity="0.5" d="M189.959 316.704H182.616L188.011 225.373L188.545 216.246H198.253L197.504 225.373L189.959 316.704Z" fill="white"/>
<path opacity="0.2" d="M198.253 216.246L197.504 225.729H188.01L188.545 216.246H198.253Z" fill="black"/>
<path d="M268.155 316.704L259.837 216.365H269.545L275.474 316.704H268.155Z" fill="#263238"/>
<path opacity="0.5" d="M268.131 316.704L260.586 225.373L259.837 216.246H269.545L270.08 225.373L275.474 316.704H268.131Z" fill="white"/>
<path opacity="0.2" d="M259.837 216.246L260.586 225.729H270.08L269.545 216.246H259.837Z" fill="black"/>
<path d="M274.749 219.838H183.353V211.908C183.353 210.336 183.979 208.828 185.093 207.717C186.207 206.605 187.718 205.981 189.294 205.981H268.808C270.384 205.981 271.895 206.605 273.009 207.717C274.123 208.828 274.749 210.336 274.749 211.908V219.838Z" fill="#644CC7"/>
<path d="M181.927 219.826H276.163C277.482 219.826 278.552 218.759 278.552 217.443V215.286C278.552 213.97 277.482 212.903 276.163 212.903H181.927C180.608 212.903 179.539 213.97 179.539 215.286V217.443C179.539 218.759 180.608 219.826 181.927 219.826Z" fill="#263238"/>
<path opacity="0.6" d="M181.927 219.826H276.163C277.482 219.826 278.552 218.759 278.552 217.443V215.286C278.552 213.97 277.482 212.903 276.163 212.903H181.927C180.608 212.903 179.539 213.97 179.539 215.286V217.443C179.539 218.759 180.608 219.826 181.927 219.826Z" fill="white"/>
<path d="M292.929 107.633L288.818 131.873C288.607 133.126 287.957 134.264 286.985 135.085C286.012 135.905 284.78 136.355 283.506 136.354H226.734C225.98 136.355 225.234 136.197 224.544 135.892C223.855 135.586 223.237 135.14 222.732 134.581C222.227 134.022 221.845 133.364 221.611 132.648C221.377 131.932 221.297 131.176 221.375 130.427L224.013 106.175C224.17 104.868 224.802 103.663 225.79 102.789C226.777 101.916 228.052 101.433 229.372 101.434H287.594C288.372 101.433 289.141 101.601 289.848 101.925C290.555 102.249 291.183 102.721 291.69 103.31C292.197 103.899 292.57 104.59 292.784 105.336C292.997 106.083 293.047 106.866 292.929 107.633Z" fill="#263238"/>
<path opacity="0.5" d="M292.929 107.633L288.818 131.873C288.607 133.126 287.957 134.264 286.985 135.085C286.012 135.905 284.78 136.355 283.506 136.354H226.734C225.98 136.355 225.234 136.197 224.544 135.892C223.855 135.586 223.237 135.14 222.732 134.581C222.227 134.022 221.845 133.364 221.611 132.648C221.377 131.932 221.297 131.176 221.375 130.427L224.013 106.175C224.17 104.868 224.802 103.663 225.79 102.789C226.777 101.916 228.052 101.433 229.372 101.434H287.594C288.372 101.433 289.141 101.601 289.848 101.925C290.555 102.249 291.183 102.721 291.69 103.31C292.197 103.899 292.57 104.59 292.784 105.336C292.997 106.083 293.047 106.866 292.929 107.633Z" fill="white"/>
<path d="M118.536 274.814L126.355 276.698L130.311 265.936L133.9 256.145L125 252.363L121.578 264.241L118.536 274.814Z" fill="#FFA8A7"/>
<path d="M128.256 276.165C128.446 275.3 117.693 273.439 117.693 273.439C117.693 273.439 109.589 278.476 102.9 278.441C96.2101 278.405 98.8479 283.04 105.918 284.747L123.396 288.943C128.422 290.152 126.307 285.126 128.256 276.165Z" fill="#263238"/>
<path d="M110.599 274.328C110.48 274.153 110.417 273.946 110.417 273.735C110.417 273.524 110.48 273.317 110.599 273.142C110.679 273.002 110.786 272.879 110.915 272.781C111.043 272.683 111.191 272.612 111.348 272.573C112.153 272.454 112.976 272.561 113.724 272.882C112.964 272.218 112.346 271.483 112.453 270.914C112.512 270.546 112.821 270.309 113.356 270.191C113.593 270.137 113.84 270.135 114.078 270.186C114.316 270.237 114.54 270.34 114.734 270.487C116.029 271.424 116.326 274.043 116.338 274.221C116.344 274.264 116.344 274.308 116.338 274.351V274.411C116.317 274.444 116.288 274.472 116.255 274.494H116.16C115.03 274.732 113.881 274.867 112.726 274.897C112.351 274.949 111.97 274.925 111.605 274.827C111.24 274.729 110.898 274.56 110.599 274.328ZM111.514 273.142C111.432 273.164 111.356 273.201 111.288 273.252C111.221 273.302 111.165 273.366 111.122 273.439C110.92 273.83 111.027 273.972 111.122 274.008C111.514 274.541 113.593 274.423 115.316 274.138C114.14 273.557 112.382 272.846 111.514 273.107V273.142ZM113.546 270.772C113.391 270.772 113.118 270.878 113.083 271.032C112.999 271.507 114.271 272.692 115.744 273.664C115.623 272.65 115.177 271.702 114.473 270.961C114.286 270.816 114.056 270.737 113.819 270.736C113.728 270.729 113.636 270.733 113.546 270.748V270.772Z" fill="#644CC7"/>
<path opacity="0.2" d="M121.578 264.241L130.311 265.936L133.9 256.145L125 252.363L121.578 264.241Z" fill="black"/>
<path d="M176.841 122.486L168.144 113.584C168.144 113.584 153.802 110.289 151.925 109.352C150.047 108.416 147.695 113.572 147.231 115.919C146.768 118.266 157.094 120.66 158.745 120.66C159.908 120.581 161.034 120.219 162.025 119.605L168.845 126.717L176.841 122.486Z" fill="#FFA8A7"/>
<path opacity="0.2" d="M176.841 122.486L168.144 113.584C168.144 113.584 153.802 110.289 151.925 109.352C150.047 108.416 147.695 113.572 147.231 115.919C146.768 118.266 157.094 120.66 158.745 120.66C159.908 120.581 161.034 120.219 162.025 119.605L168.845 126.717L176.841 122.486Z" fill="black"/>
<path d="M196.625 53.9019C199.453 57.9913 198.692 65.2693 195.175 67.154C191.658 69.0386 197.1 73.2466 197.195 76.53C197.29 79.8134 191.884 83.5709 191.409 88.253C190.934 92.9351 188.117 102.086 208.685 104.67C229.253 107.254 247.278 103.259 250.843 95.0569C254.407 86.8543 241.337 83.9739 240.565 80.6076C239.792 77.2412 244.058 76.9567 243.82 71.9427C243.583 66.9287 235.051 67.2014 236.988 61.7607C239.982 53.2618 235.8 45.1659 235.8 45.1659L196.625 53.9019Z" fill="#263238"/>
<path d="M122.362 258.563L133.199 262.581C133.199 262.581 162.108 190.477 168.049 190.275C173.99 190.074 234.481 217.728 249.643 202.318C264.804 186.909 242.882 149.879 242.882 149.879C242.882 149.879 206.416 144.687 203.671 152.901C202.996 155.323 202.48 157.786 202.126 160.274C201.711 162.787 201.425 164.897 201.425 164.897C200.237 164.613 163.688 155.189 149.263 164.897C134.589 174.795 122.362 258.563 122.362 258.563Z" fill="#644CC7"/>
<path opacity="0.6" d="M122.362 258.563L133.199 262.581C133.199 262.581 162.108 190.477 168.049 190.275C173.99 190.074 234.481 217.728 249.643 202.318C264.804 186.909 242.882 149.879 242.882 149.879C242.882 149.879 206.416 144.687 203.671 152.901C202.996 155.323 202.48 157.786 202.126 160.274C201.711 162.787 201.425 164.897 201.425 164.897C200.237 164.613 163.688 155.189 149.263 164.897C134.589 174.795 122.362 258.563 122.362 258.563Z" fill="#56548C"/>
<path d="M197.873 92.1647C189.056 95.9933 182.426 123.398 182.426 123.398L174.429 116.393L165.744 124.596C165.744 124.596 173.194 142.885 183.341 144.237C193.488 145.588 207.402 127.429 210.099 116.405C212.796 105.381 197.873 92.1647 197.873 92.1647Z" fill="#644CC7"/>
<path opacity="0.1" d="M197.873 92.1647C189.056 95.9933 182.426 123.398 182.426 123.398L174.429 116.393L165.744 124.596C165.744 124.596 173.194 142.885 183.341 144.237C193.488 145.588 207.402 127.429 210.099 116.405C212.796 105.381 197.873 92.1647 197.873 92.1647Z" fill="black"/>
<path d="M184.695 305.573L192.478 303.582L190.981 292.44L189.591 282.222L179.966 283.087L182.462 294.988L184.695 305.573Z" fill="#FFA8A7"/>
<path d="M194.581 303.214C194.581 302.325 183.674 303.155 183.674 303.155C183.674 303.155 177.055 310.03 170.603 311.63C164.151 313.231 167.799 317.083 175.071 317L193.06 316.787C198.146 316.727 194.902 312.365 194.581 303.214Z" fill="#263238"/>
<path d="M177.02 305.751C176.852 305.609 176.734 305.418 176.683 305.205C176.631 304.992 176.65 304.768 176.734 304.566C176.774 304.409 176.844 304.262 176.942 304.134C177.04 304.005 177.164 303.898 177.305 303.819C178.055 303.507 178.877 303.405 179.681 303.523C178.802 303.06 178.018 302.503 177.97 301.934C177.97 301.555 178.208 301.247 178.683 301.01C178.903 300.907 179.142 300.854 179.384 300.854C179.626 300.854 179.866 300.907 180.085 301.01C181.57 301.602 182.462 304.127 182.557 304.234C182.568 304.281 182.568 304.329 182.557 304.376C182.544 304.412 182.524 304.444 182.497 304.471H182.426C181.014 305.212 179.481 305.698 177.899 305.905C177.597 305.948 177.289 305.894 177.02 305.751ZM177.602 304.352C177.525 304.389 177.458 304.442 177.404 304.507C177.351 304.573 177.313 304.65 177.293 304.732C177.186 305.158 177.293 305.265 177.376 305.301C177.887 305.716 179.883 305.099 181.475 304.4C180.252 304.139 178.386 303.89 177.602 304.352ZM178.992 301.555C178.838 301.626 178.6 301.768 178.612 301.923C178.612 302.408 180.204 303.238 181.82 303.831C181.456 302.878 180.793 302.067 179.931 301.519C179.795 301.463 179.65 301.435 179.503 301.437C179.326 301.438 179.151 301.478 178.992 301.555Z" fill="#644CC7"/>
<path opacity="0.2" d="M182.521 295.237L191.04 292.653L189.615 282.329L179.978 283.135L182.521 295.237Z" fill="black"/>
<path d="M242.002 144.225L242.882 149.891L203.671 152.901L202.637 146.216L242.002 144.225Z" fill="#263238"/>
<path opacity="0.2" d="M242.002 144.225L242.882 149.891L203.671 152.901L202.637 146.216L242.002 144.225Z" fill="black"/>
<path d="M229.632 153.711L231.57 153.512L230.555 143.666L228.617 143.865L229.632 153.711Z" fill="#263238"/>
<path d="M212.222 152.722L220.807 152.171L220.389 145.677L211.804 146.228L212.222 152.722Z" fill="white"/>
<path d="M205.573 154.744L207.511 154.545L206.496 144.7L204.558 144.898L205.573 154.744Z" fill="#263238"/>
<path d="M137.678 258.575L121.887 253.229L121.222 259.677L133.187 263.897L137.678 258.575Z" fill="#644CC7"/>
<path d="M223.455 206.028C223.455 206.028 220.983 206.088 182.735 204.31C182.735 204.31 188.45 252.008 191.575 287.722L180.133 289.666C180.133 289.666 152.804 213.2 153.101 201.05C153.398 188.9 167.36 185.344 167.36 185.344C167.36 185.344 194.581 201.05 223.455 206.028Z" fill="#644CC7"/>
<path opacity="0.6" d="M223.455 206.028C223.455 206.028 220.983 206.088 182.735 204.31C182.735 204.31 188.45 252.008 191.575 287.722L180.133 289.666C180.133 289.666 152.804 213.2 153.101 201.05C153.398 188.9 167.36 185.344 167.36 185.344C167.36 185.344 194.581 201.05 223.455 206.028Z" fill="white"/>
<path opacity="0.3" d="M223.455 206.028C223.455 206.028 220.983 206.088 182.735 204.31C182.735 204.31 188.45 252.008 191.575 287.722L180.133 289.666C180.133 289.666 152.804 213.2 153.101 201.05C153.398 188.9 167.36 185.344 167.36 185.344C167.36 185.344 194.581 201.05 223.455 206.028Z" fill="#3D3D7A"/>
<path d="M193.25 284.261L177.531 286.039L180.56 292.191L193.286 290.567L193.25 284.261Z" fill="#644CC7"/>
<path opacity="0.3" d="M201.425 164.909L222.813 169.342C222.813 169.342 211.026 162.846 202.186 160.286C201.71 162.799 201.425 164.909 201.425 164.909Z" fill="black"/>
<path d="M200.677 57.1378C200.677 57.1378 194.985 31.6293 218.619 34.1778C248.324 37.3426 237.024 74.0645 222.314 71.8479C207.604 69.6313 200.677 57.1378 200.677 57.1378Z" fill="#263238"/>
<path d="M216.052 93.4211C223.407 94.322 227.649 86.2142 227.649 86.2142C220.698 81.4729 224.203 70.8048 224.203 70.8048L213.046 74.7164C213.556 76.2662 213.953 77.8508 214.234 79.4578C215.422 86.4039 212.262 86.961 212.262 86.961C211.993 87.6315 211.882 88.3543 211.936 89.0743C211.99 89.7944 212.208 90.4926 212.573 91.1158C212.939 91.7389 213.442 92.2705 214.045 92.67C214.648 93.0696 215.335 93.3265 216.052 93.4211Z" fill="#FFA8A7"/>
<path opacity="0.2" d="M213.046 74.7046C213.556 76.2544 213.953 77.839 214.234 79.446C219.581 77.3005 224.203 70.7693 224.203 70.7693L213.046 74.7046Z" fill="black"/>
<path d="M213.391 41.5387C203.303 42.404 200.51 48.0699 200.665 58.5009C200.867 71.5397 204.538 80.5127 216.919 76.6604C233.792 71.433 230.144 40.0926 213.391 41.5387Z" fill="#FFA8A7"/>
<path d="M225.878 57.5526C225.878 57.5526 220.448 49.6938 220.615 43.2456C220.615 43.2456 199.916 36.8092 200.677 57.1378C200.677 57.1378 197.172 39.3577 214.484 37.4374C231.796 35.5171 233.899 60.8716 225.593 69.1927C225.593 69.1927 229.241 62.4481 225.878 57.5526Z" fill="#263238"/>
<path d="M224.417 59.8166C224.412 59.2329 224.523 58.654 224.743 58.1129C224.962 57.5718 225.286 57.0791 225.697 56.6631C226.107 56.247 226.596 55.9157 227.135 55.688C227.673 55.4603 228.252 55.3407 228.837 55.3361C231.986 55.419 234.03 61.6895 226.389 63.8942C225.284 64.2498 224.571 63.2186 224.417 59.8166Z" fill="#FFA8A7"/>
<path d="M213.664 42.2973C213.664 42.2973 219.153 58.5128 229.598 57.4104C240.042 56.308 222.088 36.7025 222.088 36.7025C222.088 36.7025 204.479 31.7241 196.839 41.4913C189.199 51.2585 200.677 57.1378 200.677 57.1378C200.677 57.1378 198.918 44.3716 213.664 42.2973Z" fill="#263238"/>
<path d="M222.017 56.0592H221.91C213.2 52.7639 213.367 41.2068 213.367 41.1002C213.367 41.0216 213.398 40.9462 213.454 40.8906C213.509 40.8351 213.585 40.8038 213.664 40.8038C213.742 40.8098 213.814 40.8449 213.867 40.9021C213.92 40.9592 213.949 41.0342 213.949 41.112C213.949 41.2187 213.794 52.349 222.112 55.5021C222.184 55.5312 222.243 55.5865 222.276 55.6569C222.309 55.7272 222.314 55.8074 222.29 55.8814C222.266 55.9335 222.227 55.9778 222.179 56.0092C222.131 56.0406 222.074 56.0579 222.017 56.0592Z" fill="#263238"/>
<path d="M201.425 152.901L197.861 164.056C197.861 164.056 249.773 167.813 254.978 197.518C254.978 197.518 263.105 201.88 253.73 172.969C244.355 144.059 244.308 112.232 246.767 88.4071C246.767 88.4071 244.973 87.6129 242.014 86.6291L240.565 86.1549C233.469 83.9441 226.048 82.9501 218.619 83.2153C209.493 83.6894 203.742 86.9491 200.665 89.3909C199.622 90.1781 198.684 91.0942 197.873 92.1172C197.873 92.1172 186.846 123.292 201.425 152.901Z" fill="#644CC7"/>
<path d="M200.665 89.4383C200.665 89.4383 203.873 100.45 217.846 98.8025C231.82 97.1549 240.565 86.1549 240.565 86.1549C233.469 83.9441 226.048 82.9501 218.619 83.2153C209.493 83.7842 203.742 86.9965 200.665 89.4383Z" fill="#FFA8A7"/>
<path d="M198.253 119.107C198.253 119.107 184.874 112.647 182.616 112.232C180.358 111.818 171.673 109.648 168.358 109.423C165.043 109.198 162.238 118.408 164.793 119.534C167.348 120.66 178.647 120.719 179.479 120.719C180.311 120.719 182.426 118.918 182.426 118.918L194.213 126.456L198.253 119.107Z" fill="#FFA8A7"/>
<path d="M246.767 88.4071C236.537 85.2541 229.491 111.237 226.663 122.367C223.835 133.497 194.213 115.919 194.213 115.919L188.64 125.508C188.64 125.508 201.176 151.349 228.968 150.958C256.76 150.566 258.744 92.0817 246.767 88.4071Z" fill="#644CC7"/>
<path opacity="0.1" d="M246.767 88.4071C236.537 85.2541 229.491 111.237 226.663 122.367C223.835 133.497 194.213 115.919 194.213 115.919L188.64 125.508C188.64 125.508 201.176 151.349 228.968 150.958C256.76 150.566 258.744 92.0817 246.767 88.4071Z" fill="black"/>
<path d="M116.825 67.9895C115.706 65.9303 114.167 64.128 112.307 62.6989C110.446 61.2697 108.306 60.2454 106.025 59.6921C98.3726 57.8429 93.5248 65.4647 93.5248 65.4647L116.825 67.9895Z" fill="#644CC7"/>
<path opacity="0.7" d="M116.825 67.9895C115.706 65.9303 114.167 64.128 112.307 62.6989C110.446 61.2697 108.306 60.2454 106.025 59.6921C98.3726 57.8429 93.5248 65.4647 93.5248 65.4647L116.825 67.9895Z" fill="white"/>
<path d="M105.977 59.7159C101.224 59.7159 96.1863 63.6156 94.6654 68.0132L75.7612 70.3839C76.9375 66.9572 79.1869 63.9984 82.1774 61.9443C86.3343 61.5308 90.4534 60.8017 94.4991 59.7633C102.258 57.8312 105.977 59.7159 105.977 59.7159Z" fill="#644CC7"/>
<path opacity="0.8" d="M105.977 59.7159C101.224 59.7159 96.1863 63.6156 94.6654 68.0132L75.7612 70.3839C76.9375 66.9572 79.1869 63.9984 82.1774 61.9443C86.3343 61.5308 90.4534 60.8017 94.4991 59.7633C102.258 57.8312 105.977 59.7159 105.977 59.7159Z" fill="white"/>
<path d="M102.579 110.093L85.1598 103.277C85.1598 103.277 77.1988 105.553 70.9014 104.889C64.6039 104.225 59.0193 98.8795 59.0193 98.8795C59.0193 98.8795 65.602 108.125 80.7991 110.235C95.9962 112.345 102.579 110.093 102.579 110.093Z" fill="#644CC7"/>
<path opacity="0.8" d="M102.579 110.093L85.1598 103.277C85.1598 103.277 77.1988 105.553 70.9014 104.889C64.6039 104.225 59.0193 98.8795 59.0193 98.8795C59.0193 98.8795 65.602 108.125 80.7991 110.235C95.9962 112.345 102.579 110.093 102.579 110.093Z" fill="white"/>
<path d="M102.579 110.093C102.579 110.093 82.8428 111.883 78.8148 108.433C74.7868 104.984 71.2935 95.774 71.2935 95.774L54.3735 93.427C54.3735 93.427 64.3425 118.781 102.579 110.093Z" fill="#644CC7"/>
<path opacity="0.7" d="M102.579 110.093C102.579 110.093 82.8428 111.883 78.8148 108.433C74.7868 104.984 71.2935 95.774 71.2935 95.774L54.3735 93.427C54.3735 93.427 64.3425 118.781 102.579 110.093Z" fill="white"/>
<path d="M152.59 115.919C152.59 115.919 151.402 95.6495 143.94 84.9814H116.909C116.909 84.9814 125.844 100.391 125.951 114.864L152.59 115.919Z" fill="#644CC7"/>
<path opacity="0.8" d="M152.59 115.919C152.59 115.919 151.402 95.6495 143.94 84.9814H116.909C116.909 84.9814 125.844 100.391 125.951 114.864L152.59 115.919Z" fill="white"/>
<path d="M182.485 126.859V123.398L155.917 110.763H122.362V126.859H182.485Z" fill="#263238"/>
<path opacity="0.1" d="M122.374 126.859H154.872V111.355H122.374V126.859Z" fill="white"/>
<path d="M122.885 115.919H153.446C154.431 115.919 155.378 115.532 156.08 114.843C156.782 114.153 157.185 113.215 157.2 112.232C157.2 111.239 156.805 110.286 156.101 109.584C155.397 108.881 154.442 108.487 153.446 108.487H122.885C122.392 108.485 121.903 108.581 121.447 108.769C120.99 108.956 120.576 109.232 120.227 109.58C119.878 109.928 119.601 110.342 119.413 110.797C119.225 111.252 119.129 111.74 119.131 112.232C119.143 113.216 119.545 114.156 120.248 114.846C120.951 115.537 121.899 115.922 122.885 115.919Z" fill="#263238"/>
<path opacity="0.2" d="M122.885 115.919H153.446C154.431 115.919 155.378 115.532 156.08 114.843C156.782 114.153 157.185 113.215 157.2 112.232C157.2 111.239 156.805 110.286 156.101 109.584C155.397 108.881 154.442 108.487 153.446 108.487H122.885C122.392 108.485 121.903 108.581 121.447 108.769C120.99 108.956 120.576 109.232 120.227 109.58C119.878 109.928 119.601 110.342 119.413 110.797C119.225 111.252 119.129 111.74 119.131 112.232C119.143 113.216 119.545 114.156 120.248 114.846C120.951 115.537 121.899 115.922 122.885 115.919Z" fill="white"/>
<path opacity="0.2" d="M152.59 115.919H153.446C154.431 115.919 155.377 115.532 156.08 114.843C156.782 114.153 157.185 113.215 157.2 112.232C157.2 111.239 156.805 110.286 156.101 109.584C155.397 108.881 154.442 108.487 153.446 108.487H152.59C152.097 108.485 151.608 108.581 151.152 108.769C150.695 108.956 150.281 109.232 149.932 109.58C149.583 109.928 149.306 110.342 149.118 110.797C148.93 111.252 148.834 111.74 148.836 112.232C148.848 113.216 149.25 114.156 149.953 114.846C150.656 115.537 151.604 115.922 152.59 115.919Z" fill="white"/>
<path d="M154.182 110.419H158.935L162.809 122.367H161.312L157.747 114.52H154.182C154.182 114.52 152.353 113.465 152.448 112.149C152.543 110.834 154.182 110.419 154.182 110.419Z" fill="#263238"/>
<path opacity="0.2" d="M154.182 110.419H158.935L162.809 122.367H161.312L157.747 114.52H154.182C154.182 114.52 152.353 113.465 152.448 112.149C152.543 110.834 154.182 110.419 154.182 110.419Z" fill="white"/>
<path d="M135.86 317H128.589L127.4 135.347H137.06L135.86 317Z" fill="#263238"/>
<path opacity="0.4" d="M137.06 135.643L136.87 164.956L135.872 317H128.589L127.59 164.956L127.4 135.643H137.06Z" fill="white"/>
<path opacity="0.2" d="M137.06 135.643L136.87 165.276H127.59L127.4 135.643H137.06Z" fill="black"/>
<path d="M213.153 317H205.869L192.787 135.347H202.447L213.153 317Z" fill="#263238"/>
<path opacity="0.5" d="M213.153 317H205.869L193.429 144.379L192.787 135.643H202.447L202.97 144.379L213.153 317Z" fill="white"/>
<path opacity="0.2" d="M202.97 143.94H193.429L192.787 135.643H202.447L202.97 143.94Z" fill="black"/>
<path d="M58.5798 317H51.308L62.0018 135.347H71.6619L58.5798 317Z" fill="#263238"/>
<path opacity="0.5" d="M71.6619 135.643L71.0203 144.379L58.5798 317H51.308L61.479 144.379L62.0018 135.643H71.6619Z" fill="white"/>
<path opacity="0.2" d="M62.0017 135.643H71.6618L71.0202 143.94H61.4789L62.0017 135.643Z" fill="black"/>
<path d="M54.3735 130.807H210.099V137.338C210.099 138.017 209.829 138.668 209.348 139.148C208.866 139.628 208.213 139.898 207.533 139.898H56.9163C56.2397 139.892 55.593 139.619 55.1168 139.14C54.6406 138.66 54.3735 138.013 54.3735 137.338V130.807Z" fill="#263238"/>
<path opacity="0.6" d="M54.3735 130.807H210.099V137.338C210.099 138.017 209.829 138.668 209.348 139.148C208.866 139.628 208.213 139.898 207.533 139.898H56.9163C56.2397 139.892 55.593 139.619 55.1168 139.14C54.6406 138.66 54.3735 138.013 54.3735 137.338V130.807Z" fill="white"/>
<path opacity="0.2" d="M210.099 130.807H54.3497V135.358H210.099V130.807Z" fill="black"/>
<path d="M214.614 131.992H49.8346C49.495 131.994 49.1584 131.928 48.8442 131.8C48.53 131.671 48.2444 131.482 48.0037 131.243C47.763 131.004 47.572 130.72 47.4417 130.407C47.3114 130.094 47.2443 129.759 47.2443 129.42C47.2443 128.741 47.5147 128.09 47.996 127.609C48.4774 127.129 49.1302 126.859 49.8108 126.859H214.614C215.291 126.866 215.938 127.138 216.414 127.618C216.89 128.097 217.157 128.745 217.157 129.42C217.157 130.096 216.89 130.745 216.415 131.226C215.939 131.708 215.292 131.983 214.614 131.992Z" fill="#263238"/>
<path opacity="0.6" d="M214.614 131.992H49.8346C49.495 131.994 49.1584 131.928 48.8442 131.8C48.53 131.671 48.2444 131.482 48.0037 131.243C47.763 131.004 47.572 130.72 47.4417 130.407C47.3114 130.094 47.2443 129.759 47.2443 129.42C47.2443 128.741 47.5147 128.09 47.996 127.609C48.4774 127.129 49.1302 126.859 49.8108 126.859H214.614C215.291 126.866 215.938 127.138 216.414 127.618C216.89 128.097 217.157 128.745 217.157 129.42C217.157 130.096 216.89 130.745 216.415 131.226C215.939 131.708 215.292 131.983 214.614 131.992Z" fill="white"/>
<path d="M76.5335 319.365H30.5382V307.416H23.4803L31.0016 305.283L33.8295 283.935L23.4803 280.225L33.3542 278.293L32.879 258.794L23.4803 255.013H32.879L31.9403 222.487H25.8329L35.2316 217.722L34.2929 194.193H79.8961V202.052L85.0648 203.462L77.0682 204.861L78.0068 240.16L76.5335 319.365Z" fill="#644CC7"/>
<path opacity="0.8" d="M23.4803 280.225L33.8295 283.935L31.0016 305.283L23.4803 307.416H30.5382V319.365H76.5335L78.0068 240.16L77.0682 204.861L85.0648 203.45L79.8842 202.052V194.193H34.2929L35.2316 217.722L25.8329 222.487H31.9403V222.522L32.879 255.013H23.4803L32.879 258.794L33.3542 278.293L23.4803 280.225Z" fill="white"/>
<path opacity="0.1" d="M33.8295 283.935L51.4505 287.147L50.5119 298.443H36.8832L52.6269 301.371L51.4505 304.275H40.6379L56.1558 306.859L48.3969 307.796L48.8603 311.304L30.5382 307.416V319.365H76.5335L78.0068 240.16L77.0682 204.861L85.0648 203.45L79.8842 202.052V194.193H58.9719V202.052H43.6916L58.9719 204.399V207.208L40.6379 208.772L56.6192 209.792L57.0945 213.775L58.9719 219.867L31.9046 222.001L25.8329 222.487L31.9403 222.522L54.2666 222.676V231.59H42.4083L58.9719 234.174L57.7955 237.79H64.5326L56.1558 240.03H38.2853L54.2666 241.962V249.88H36.6456L51.2129 251.99L51.4505 256.779L23.4803 255.013L32.879 258.794L50.9871 262.302L52.1516 269.343H41.1132L52.3892 271.453V276.609L44.0124 277.546L54.2666 279.371L51.4505 282.702L23.4803 280.225L33.8295 283.935Z" fill="black"/>
<path d="M100.167 160.446C99.0476 158.387 97.5082 156.585 95.6479 155.156C93.7875 153.726 91.6476 152.702 89.366 152.149C81.7259 150.311 76.8661 157.921 76.8661 157.921L100.167 160.446Z" fill="#644CC7"/>
<path opacity="0.7" d="M100.167 160.446C99.0476 158.387 97.5082 156.585 95.6479 155.156C93.7875 153.726 91.6476 152.702 89.366 152.149C81.7259 150.311 76.8661 157.921 76.8661 157.921L100.167 160.446Z" fill="white"/>
<path d="M89.3661 152.172C84.6133 152.172 79.5753 156.072 78.0544 160.47L59.162 162.84C60.3404 159.418 62.5844 156.461 65.5664 154.401C69.7244 153.996 73.8442 153.267 77.888 152.22C85.6589 150.288 89.3661 152.172 89.3661 152.172Z" fill="#644CC7"/>
<path opacity="0.8" d="M89.3661 152.172C84.6133 152.172 79.5753 156.072 78.0544 160.47L59.162 162.84C60.3404 159.418 62.5844 156.461 65.5664 154.401C69.7244 153.996 73.8442 153.267 77.888 152.22C85.6589 150.288 89.3661 152.172 89.3661 152.172Z" fill="white"/>
<path d="M82.3557 184.829L64.9366 178.013C64.9366 178.013 56.9757 180.301 50.6782 179.625C44.3807 178.949 38.7962 173.627 38.7962 173.627C38.7962 173.627 45.3788 182.873 60.5759 184.971C75.773 187.069 82.3557 184.829 82.3557 184.829Z" fill="#644CC7"/>
<path opacity="0.8" d="M82.3557 184.829L64.9366 178.013C64.9366 178.013 56.9757 180.301 50.6782 179.625C44.3807 178.949 38.7962 173.627 38.7962 173.627C38.7962 173.627 45.3788 182.873 60.5759 184.971C75.773 187.069 82.3557 184.829 82.3557 184.829Z" fill="white"/>
<path d="M82.3556 184.829C82.3556 184.829 62.6315 186.63 58.5916 183.181C54.5517 179.732 51.0228 170.604 51.0228 170.604L34.1028 168.234C34.1028 168.234 44.1312 193.553 82.3556 184.829Z" fill="#644CC7"/>
<path opacity="0.7" d="M82.3556 184.829C82.3556 184.829 62.6315 186.63 58.5916 183.181C54.5517 179.732 51.0228 170.604 51.0228 170.604L34.1028 168.234C34.1028 168.234 44.1312 193.553 82.3556 184.829Z" fill="white"/>
<path d="M75.9869 227.643L68.632 220.792C68.632 220.792 97.636 216.963 108.104 208.772L117.467 218.469C117.467 218.469 106.797 233.013 75.9869 227.643Z" fill="#644CC7"/>
<path opacity="0.8" d="M75.9869 227.643L68.632 220.792C68.632 220.792 97.636 216.963 108.104 208.772L117.467 218.469C117.467 218.469 106.797 233.013 75.9869 227.643Z" fill="white"/>
<path d="M110.682 240.16L117.728 233.048C117.728 233.048 88.5819 230.464 77.7692 222.736L68.8458 232.811C68.8458 232.811 80.1219 246.846 110.682 240.16Z" fill="#644CC7"/>
<path opacity="0.7" d="M110.682 240.16L117.728 233.048C117.728 233.048 88.5819 230.464 77.7692 222.736L68.8458 232.811C68.8458 232.811 80.1219 246.846 110.682 240.16Z" fill="white"/>
<path d="M66.2556 296.073L71.6738 298.147L70.4856 319.661L116.707 319.365V310.356L119.843 309.669L115.518 307.666L116.707 275.815L118.429 274.832L115.518 272.864L116.707 248.944L119.843 247.296L116.707 247.332V237.79L106.441 238.299L69.2974 240.16L70.4856 257.846L66.2556 259.956L70.4856 259.434L70.3311 263.95L69.2974 295.374L66.2556 296.073Z" fill="#644CC7"/>
<path opacity="0.8" d="M66.2556 296.073L71.6738 298.147L70.4856 319.661L116.707 319.365V310.356L119.843 309.669L115.518 307.666L116.707 275.815L118.429 274.832L115.518 272.864L116.707 248.944L119.843 247.296L116.707 247.332V237.79L106.441 238.299L69.2974 240.16L70.4856 257.846L66.2556 259.956L70.4856 259.434L70.3311 263.95L69.2974 295.374L66.2556 296.073Z" fill="white"/>
<path opacity="0.1" d="M106.441 317.871L70.4856 319.661L116.707 319.365V310.356L119.843 309.669L115.518 307.666L116.707 275.815L118.429 274.832L115.518 272.864L116.707 248.944L119.843 247.296L116.707 247.332V237.79L106.441 238.299L105.205 247.77L74.7155 251.054H105.205V259.019L70.4856 259.434L70.3311 263.95H105.205V273.374H89.0571L105.205 276.361L103.161 294.141L66.2556 296.073L71.6738 298.147L103.161 298.444L105.205 308.495H79.6585L106.441 311.079V315.524L74.4898 313.651L106.441 317.871Z" fill="black"/>
</svg>
