<svg width="310" height="334" viewBox="0 0 310 334" fill="none" xmlns="http://www.w3.org/2000/svg">
<path d="M160.198 106.819C165.753 113.459 174.932 122.423 180.129 128.956C182.892 132.367 184.387 136.63 184.361 141.02C184.361 144.274 183.431 146.98 180.248 145.609C177.948 144.608 176.482 143.416 173.096 140.114C170.116 137.133 155.513 123.508 155.513 123.508C155.513 123.508 152.771 106.7 148.265 105.329C143.759 103.958 139.921 96.7701 139.921 96.7701C147.288 95.9833 153.129 98.3913 160.198 106.819Z" fill="#F28F8F"/>
<path d="M203.816 252.835L229.886 290.981C230.052 291.223 230.29 291.406 230.565 291.506C230.841 291.606 231.141 291.618 231.423 291.539C231.705 291.46 231.956 291.295 232.14 291.067C232.324 290.839 232.432 290.559 232.449 290.266L234.988 243.907L203.816 252.835Z" fill="#FFA8A7"/>
<path d="M232.449 290.29C232.432 290.583 232.324 290.863 232.14 291.091C231.956 291.319 231.705 291.484 231.423 291.563C231.141 291.641 230.841 291.63 230.565 291.53C230.29 291.43 230.052 291.247 229.886 291.005L224.796 283.555C226.191 283.871 227.647 283.797 229.003 283.34C230.359 282.884 231.564 282.063 232.485 280.968L232.997 280.36L232.449 290.29Z" fill="#263238"/>
<path d="M182.609 56.0847L183.801 60.1973L185.207 65.1683L235 243.907C232.555 248.511 228.458 252.02 223.532 253.729C216.189 256.602 207.761 256.268 203.839 252.871L154.321 75.4558L151.675 65.9193C153.785 72.0107 184.588 62.1881 182.609 56.0847Z" fill="#644CC7"/>
<path d="M187.031 71.7483L189.582 80.963C190.417 83.6094 185.207 86.9233 178.854 89.3074C170.366 92.5379 159.781 94.2187 158.684 90.7141L156.705 83.9312L156.073 81.5471C157.17 85.0517 167.756 83.3709 176.243 80.1404C182.37 77.8278 187.425 74.6689 187.055 72.094C187.084 71.9791 187.076 71.8581 187.031 71.7483V71.7483Z" fill="#EBEBEB"/>
<path d="M187.699 74.061C189.582 80.1882 158.648 89.9512 156.705 83.8121L154.13 74.6332C156.073 80.7723 186.996 71.057 185.124 64.8821L187.699 74.061Z" fill="#644CC7"/>
<path d="M182.609 56.0847L185.16 65.1683C187.103 71.1286 157.337 80.8916 154.369 75.4558C154.307 75.3512 154.259 75.239 154.226 75.122L151.722 65.9431C153.785 72.0107 184.588 62.1881 182.609 56.0847Z" fill="#EBEBEB"/>
<path opacity="0.1" d="M154.321 75.4557L151.675 65.9192C152.604 68.6609 159.411 68.1484 166.409 66.2172L217.655 255.279L229.886 291.041L203.816 252.895L154.321 75.4557Z" fill="black"/>
<path d="M171.809 17.5095L182.609 56.0848C183.455 58.6954 178.317 62.0451 171.987 64.4293C163.5 67.6955 152.914 69.4479 151.722 65.967L141.316 28.8103C138.192 20.3586 153.51 12.038 163.738 12.6459C167.565 12.8962 170.64 14.3506 171.809 17.5095Z" fill="#F28F8F"/>
<path d="M133.722 90.595C127.94 90.595 122.394 88.298 118.305 84.2091C114.216 80.1203 111.919 74.5746 111.919 68.7921V67.6001C111.919 62.6997 113.866 58 117.331 54.5348C120.796 51.0697 125.496 49.123 130.396 49.123H137.036C141.934 49.123 146.632 51.0681 150.097 54.5306C153.562 57.9932 155.51 62.6898 155.513 67.5882V68.7802C155.515 71.6434 154.952 74.4789 153.858 77.1247C152.764 79.7706 151.159 82.175 149.136 84.2007C147.112 86.2264 144.709 87.8337 142.065 88.9308C139.42 90.028 136.585 90.5935 133.722 90.595V90.595Z" fill="#263238"/>
<path d="M103.062 92.8005C104.362 92.802 105.65 92.5473 106.852 92.0507C108.054 91.5542 109.146 90.8257 110.066 89.9068C110.986 88.9878 111.716 87.8966 112.214 86.6954C112.712 85.4942 112.968 84.2066 112.968 82.9063V63.2134C110.341 63.2134 107.821 64.2571 105.964 66.1148C104.106 67.9726 103.062 70.4922 103.062 73.1195V92.8005Z" fill="#263238"/>
<path d="M156.157 306.263C158.696 308.942 161.491 311.365 164.501 313.499C164.985 313.799 165.393 314.207 165.693 314.691C166.087 315.514 166.695 317.529 162.975 318.828C161.096 319.484 159.097 319.725 157.116 319.536C155.134 319.346 153.217 318.731 151.496 317.731C148.444 315.812 148.301 311.842 145.416 309.566C143.282 307.885 140.648 307.456 138.896 305.262C137.704 303.736 138.002 301.686 138.633 299.183C139.313 296.429 139.623 294.343 140.541 294.557L140.386 295.821C141.518 297.633 147.407 298.205 150.03 296.918C151.905 300.139 153.95 303.259 156.157 306.263V306.263Z" fill="#263238"/>
<path d="M158.732 308.839C157.849 308.028 156.991 307.194 156.157 306.288C154.431 304.022 152.838 301.658 151.388 299.207C150.249 297.674 149.53 295.87 149.302 293.974C149.302 291.589 149.469 287.215 149.469 287.215L140.755 286.642L140.326 295.785C140.1 297.86 141.816 299.695 144.856 302.318C147.896 304.941 151.734 311.032 154.488 312.558C157.241 314.084 159.256 314.036 160.377 313.249C161.497 312.462 161.7 311.855 158.732 308.839Z" fill="#FFA8A7"/>
<path d="M127.13 314.978C129.669 317.656 132.464 320.079 135.474 322.214C135.961 322.51 136.37 322.919 136.666 323.406C137.048 324.216 137.668 326.231 133.937 327.53C132.059 328.186 130.062 328.427 128.083 328.238C126.103 328.048 124.188 327.433 122.469 326.434C119.405 324.514 119.274 320.545 116.389 318.268C114.256 316.587 111.621 316.158 109.857 313.965C108.665 312.439 108.975 310.388 109.595 307.885C110.286 305.131 110.596 303.045 111.514 303.26L111.359 304.523C112.551 306.335 118.38 306.908 121.003 305.62C122.878 308.846 124.923 311.969 127.13 314.978V314.978Z" fill="#263238"/>
<path d="M129.705 317.553C128.823 316.742 127.953 315.908 127.13 315.002C125.4 312.739 123.807 310.375 122.362 307.921C121.277 306.352 120.575 304.552 120.311 302.664C120.156 300.518 120.311 296.083 120.311 296.083H111.597L111.383 304.511C111.156 306.586 112.873 308.421 115.901 311.044C118.929 313.666 122.791 319.758 125.545 321.284C128.298 322.81 130.253 322.762 131.421 321.987C132.59 321.212 132.661 320.58 129.705 317.553Z" fill="#FFA8A7"/>
<path d="M111.407 154.824C103.813 171.429 112.456 234.371 112.456 234.371C112.229 237.065 109.845 241.249 109.571 249.474C109.213 260.036 111.085 299.028 111.085 299.028C112.611 299.841 114.308 300.283 116.037 300.318C117.767 300.354 119.48 299.981 121.038 299.231C121.038 299.231 130.027 246.291 131.767 232.368C133.293 220.209 136.237 191.647 136.237 191.647L142.293 232.296C142.293 232.296 139.182 239.091 139.015 245.218C138.824 253.444 140.016 291.59 140.016 291.59C140.016 291.59 143.7 292.889 150.125 291.947C150.125 291.947 159.268 240.271 160.138 230.413C160.651 224.524 156.252 152.333 156.252 152.333L111.407 154.824Z" fill="#37474F"/>
<path d="M136.261 191.635L138.729 178.069C138.729 178.069 149.171 175.9 153.904 171.453C150.631 175.284 146.354 178.124 141.554 179.655L138.788 191.575L141.53 227.051L136.261 191.635Z" fill="#263238"/>
<path d="M126.248 97.1158C119.584 98.0337 116.008 99.4999 113.862 105.77C112.456 109.871 112.837 115.903 114.244 119.992L120.073 137.026C116.551 142.629 113.645 148.596 111.407 154.824C128.441 164.36 151.15 159.282 156.276 152.344C156.491 150.866 155.084 143.749 155.525 136.204C155.966 128.157 157.253 118.919 155.99 113.936C153.606 104.697 147.192 98.6655 139.933 96.7224L126.248 97.1158Z" fill="#F5F5F5"/>
<path d="M148.361 57.9446C150.661 59.3035 153.51 65.097 153.224 77.2441C152.986 87.5317 149.648 90.0708 147.979 90.8099C146.31 91.5489 143.068 91.096 139.933 90.5714V96.7463C139.933 96.7463 144.272 101.789 143.998 104.626C143.723 107.463 137.727 108.119 133.674 105.353C131.039 103.459 128.776 101.095 126.999 98.3795V83.431C126.999 83.431 124.889 86.2562 121.42 83.9555C117.951 81.6548 117.844 75.9567 119.834 73.9063C121.825 71.856 126.2 72.5116 126.987 75.3368C126.987 75.3368 132.005 75.5156 138.669 71.856C141.264 70.4621 143.494 68.4761 145.178 66.059C146.862 63.6419 147.952 60.8619 148.361 57.9446V57.9446Z" fill="#FFA8A7"/>
<path d="M139.933 90.5474C136.619 90.1183 129.812 88.1633 128.751 85.4692C129.177 86.8298 130.009 88.0276 131.135 88.9024C133.174 90.6428 139.933 92.6097 139.933 92.6097V90.5474Z" fill="#F28F8F"/>
<path d="M192.312 147.266C190.286 148.029 188.259 148.088 185.493 149.388C183.674 150.431 181.629 151.016 179.533 151.092C176.827 151.223 169.234 147.981 162.558 144.882C155.328 141.382 148.748 136.673 143.104 130.958C137.441 124.252 132.417 117.033 128.095 109.394C125.711 105.317 123.268 99.4163 119.525 98.6653C112.968 99.3567 110.298 110.777 114.554 117.846C118.809 124.915 126.379 134.129 134.437 141.949C138.347 145.74 145.512 149.853 155.775 154.239C162.477 157.169 169.401 159.561 176.481 161.392C178.544 161.928 179.986 162.691 183.848 164.014C185.41 164.651 187.057 165.052 188.736 165.206C190.824 165.289 192.912 165.065 194.935 164.539C197.505 163.897 199.853 162.57 201.729 160.7C202.765 159.681 203.546 158.431 204.006 157.053C204.462 155.662 204.411 154.154 203.863 152.797C203.757 152.521 203.585 152.276 203.363 152.082C203.131 151.951 202.876 151.868 202.612 151.838C202.348 151.807 202.08 151.829 201.825 151.903C198.855 152.532 195.855 153.01 192.837 153.333C190.345 153.429 188.581 153.155 188.891 152.773C189.201 152.392 190.679 152.427 192.562 151.355C194.446 150.282 195.531 148.243 194.875 147.278C194.219 146.312 194.327 146.503 192.312 147.266Z" fill="#FFA8A7"/>
<path d="M197.831 119.741C197.831 119.741 195.114 117.584 189.964 118.43C187.472 118.835 188.426 128.276 196.449 130.911C201.67 132.616 202.731 131.733 204.412 136.037C204.412 136.037 207.559 135.381 206.796 130.577C205.963 125.63 203.757 121.017 200.43 117.262C198.129 114.544 197.986 112.267 196.854 113.042C195.721 113.817 196.353 116.153 196.353 116.153L197.831 119.741Z" fill="#FFA8A7"/>
</svg>
