<svg width="310" height="334" viewBox="0 0 310 334" fill="none" xmlns="http://www.w3.org/2000/svg">
<path d="M193.945 271.694L193.547 265.877C193.519 265.458 193.324 265.067 193.005 264.792C192.687 264.516 192.272 264.377 191.85 264.406L105.551 270.311L106.163 279.259L192.472 273.353C192.887 273.322 193.273 273.132 193.548 272.822C193.823 272.511 193.966 272.107 193.945 271.694Z" fill="#0A2033"/>
<path d="M115.876 292.679L113.348 255.732C113.237 254.11 112.482 252.598 111.25 251.53C110.018 250.461 108.41 249.924 106.778 250.035L105.423 250.128L108.789 299.32L110.144 299.227C110.953 299.171 111.743 298.958 112.469 298.599C113.194 298.24 113.842 297.742 114.374 297.134C114.907 296.526 115.313 295.819 115.571 295.055C115.829 294.29 115.932 293.483 115.876 292.679Z" fill="#30475E"/>
<path d="M205.302 270.917L204.903 265.1C204.875 264.681 204.68 264.29 204.362 264.014C204.043 263.738 203.628 263.6 203.206 263.628L183.213 264.997L183.826 273.945L203.819 272.577C204.235 272.548 204.624 272.358 204.901 272.048C205.178 271.738 205.322 271.331 205.302 270.917Z" fill="#0A2033"/>
<path d="M196.663 221.96C197.704 221.889 198.743 222.126 199.648 222.642C200.553 223.158 201.283 223.929 201.747 224.859C202.211 225.788 202.387 226.834 202.254 227.863C202.12 228.892 201.683 229.86 200.997 230.642C200.311 231.425 199.407 231.987 198.399 232.259C197.392 232.531 196.327 232.5 195.338 232.169C194.349 231.839 193.481 231.224 192.843 230.403C192.206 229.582 191.828 228.591 191.757 227.555C191.662 226.167 192.126 224.797 193.046 223.748C193.966 222.698 195.267 222.055 196.663 221.96Z" fill="#0A2033"/>
<path d="M202.299 304.327C203.34 304.255 204.379 304.493 205.284 305.009C206.189 305.525 206.92 306.296 207.383 307.226C207.847 308.155 208.024 309.2 207.89 310.23C207.756 311.259 207.319 312.226 206.633 313.009C205.947 313.791 205.043 314.354 204.036 314.626C203.028 314.898 201.963 314.867 200.974 314.536C199.985 314.206 199.117 313.591 198.48 312.77C197.842 311.948 197.464 310.957 197.393 309.922C197.298 308.533 197.762 307.164 198.682 306.115C199.602 305.065 200.903 304.422 202.299 304.327Z" fill="#0A2033"/>
<path d="M192.01 259.875L193.241 277.869L177.43 278.951L176.199 260.957L192.01 259.875Z" fill="#30475E"/>
<path d="M199.506 315.037L193.154 222.2L191.321 222.325C189.835 222.427 188.449 223.112 187.469 224.229C186.49 225.346 185.996 226.805 186.097 228.283L191.687 309.971C191.788 311.45 192.476 312.827 193.599 313.801C194.721 314.774 196.187 315.264 197.674 315.162L199.506 315.037Z" fill="#FBD15B"/>
<path d="M116.386 274.089L116.174 270.986L175.198 266.948L175.411 270.05L116.386 274.089Z" fill="#30475E"/>
<path d="M45.7272 314.193C45.675 313.686 45.7302 313.173 45.8893 312.688C46.0484 312.203 46.3078 311.756 46.6508 311.377C46.9939 310.997 47.413 310.693 47.8811 310.485C48.3493 310.276 48.8561 310.167 49.369 310.165C60.1336 310.042 86.1038 305.995 94.3927 295.454C104.461 282.58 100.625 248.275 100.625 248.275C100.625 248.275 107.246 242.124 109.582 253.37C111.919 264.615 113.067 296.709 106.325 304.952C99.8094 312.927 81.6803 318.639 49.3993 317.478C48.5036 317.45 47.6487 317.1 46.993 316.493C46.3374 315.886 45.9255 315.063 45.8338 314.176L45.7272 314.193Z" fill="#FBD15B"/>
<path d="M83.5365 170.243L65.2289 121.135H117.363L135.68 170.243H83.5365Z" fill="#ABB5BA"/>
<path d="M138.907 170.243H135.68L117.363 121.135L120.288 121.262L137.235 165.72L138.907 170.243Z" fill="#8495A0"/>
<path d="M137.886 170.243H172.374L172.276 167.146H137.187" fill="#8495A0"/>
<path fill-rule="evenodd" clip-rule="evenodd" d="M207.278 51.4275V54.2771H210.128H212.977V74.267V94.257H215.848H218.719V97.1066V99.9562H222.994H227.268V102.806V105.655H231.542H235.816L235.827 108.516L235.838 111.376L238.699 111.387L241.559 111.398V114.247V117.097H247.258H252.957V114.247V111.398L255.818 111.387L258.678 111.376L258.689 108.516L258.7 105.655H261.549H264.398V98.5314V91.4073H267.248H270.098V108.526V125.645H267.248H264.398V128.516V131.387H261.549H258.699V134.237V137.086H255.828H252.957V139.936V142.786H250.108H247.258V145.657V148.527H244.408H241.559V159.947V171.367H235.838H230.118V168.496V165.625H232.967H235.817V162.776V159.926H232.967H230.118V157.076V154.227H227.268H224.419V151.377V148.527H218.698H212.977V151.377V154.227H210.128H207.278V162.797V171.367L201.568 171.357L195.858 171.346V168.496V165.646L198.719 165.636L201.579 165.625V154.205V142.786H198.708H195.837V139.936V137.086H192.987H190.138V132.812V128.538H187.288H184.439V118.543V108.548H181.589H178.74L178.729 111.387L178.718 114.226L175.858 114.237L172.998 114.247V108.527V102.806H178.718H184.439V97.1066V91.4073H173.019H161.599V88.5364V85.6656H170.169H178.74L178.729 82.8266L178.718 79.9876L163.013 79.9769L147.308 79.9662V67.1217V54.2771H150.158H153.008V51.4275V48.5779H180.143H207.278V51.4275ZM195.837 57.1268V59.9764H198.708H201.579V57.1268V54.2771H198.708H195.837V57.1268Z" fill="#644CC7"/>
<path d="M284.668 179.614H276.37V316.63H284.668V179.614Z" fill="#8495A0"/>
<path d="M239.648 179.614H231.349V316.63H239.648V179.614Z" fill="#ABB5BA"/>
<path d="M95.4016 179.614H87.1029V316.63H95.4016V179.614Z" fill="#8495A0"/>
<path d="M50.3805 179.614H42.0818V316.63H50.3805V179.614Z" fill="#ABB5BA"/>
<path d="M292.967 170.243H34.133C31.9057 170.243 30.1002 172.059 30.1002 174.298V176.077C30.1002 178.316 31.9057 180.131 34.133 180.131H292.967C295.194 180.131 297 178.316 297 176.077V174.298C297 172.059 295.194 170.243 292.967 170.243Z" fill="#141B56"/>
<path d="M73.9357 126.294L74.8199 128.688H85.2079L84.3236 126.294H73.9357Z" fill="#8495A0"/>
</svg>
