<svg width="310" height="334" viewBox="0 0 310 334" fill="none" xmlns="http://www.w3.org/2000/svg">
<path d="M136.489 102.773C136.489 102.773 165.114 137.797 175.638 129.359C186.162 120.92 157.742 74.9192 157.742 74.9192L136.489 102.773Z" fill="#5344AD"/>
<path d="M137.66 330.19C137.664 330.017 137.646 329.843 137.606 329.674C135.026 319.378 122.192 312.963 122.192 312.963L117.108 313.365C114.185 322.44 114.56 328.005 115.031 330.485C115.043 330.554 115.064 330.621 115.082 330.688C119.278 331.059 127.909 331.305 137.66 330.19Z" fill="#191644"/>
<path d="M115.065 305.75L117.219 316.166C117.376 316.928 117.956 317.5 118.666 317.567C119.776 317.679 120.896 317.661 122.003 317.514C123.108 317.349 123.886 316.215 123.69 314.998L122.193 305.75H115.065Z" fill="url(#paint0_linear_302_11105)"/>
<path d="M182.694 329.736C182.66 329.654 182.619 329.576 182.571 329.503C179.849 325.676 172.915 318.069 159.212 314.767L152.64 314.56C152.64 314.56 149.712 319.67 149.657 329.14C151.158 329.757 154.062 330.42 159.677 330.578C168.357 330.822 178.651 330.072 182.694 329.736Z" fill="#191644"/>
<path d="M151.42 304.549C151.493 305.043 152.394 312.524 152.743 315.425C152.825 316.115 153.323 316.648 153.949 316.724C155.068 316.858 156.879 316.98 158.464 316.653C159.324 316.478 159.939 315.652 159.939 314.693V302.948L151.42 304.549Z" fill="url(#paint1_linear_302_11105)"/>
<path d="M146.147 167.999C146.147 167.999 162.001 228.539 161.714 304.722C161.711 305.398 161.478 306.051 161.053 306.575C160.628 307.098 160.037 307.459 159.379 307.597C157.386 308.018 154.455 308.519 152.03 308.451C151.402 308.43 150.8 308.191 150.327 307.774C149.853 307.358 149.538 306.79 149.434 306.167C147.212 293.068 134.454 219.275 127.186 207.296C127.186 207.296 122.403 273.018 123.933 307.116C123.952 307.524 123.816 307.925 123.553 308.237C123.289 308.549 122.918 308.749 122.514 308.796C120.553 309.007 118.576 309.002 116.617 308.78C116.139 308.733 115.691 308.526 115.343 308.194C114.996 307.861 114.769 307.421 114.699 306.944C113.115 295.858 104.002 229.87 104.389 182.335C104.411 179.655 111.444 167.999 111.444 167.999H146.147Z" fill="#231B56"/>
<path d="M157.066 75.2092C135.248 72.0441 111.281 74.9475 99.6428 76.4202C95.8798 76.8993 92.4268 78.7622 89.9506 81.6493C80.1073 93.0939 58.5078 124.429 83.9306 156.005C87.1839 154.191 91.807 151.281 94.9472 147.913C92.135 139.946 91.904 129.767 97.7987 117.282C97.9994 118.272 98.2508 119.251 98.5518 120.215C106.676 146.077 107.11 167.597 107.092 172.556C107.089 172.884 107.186 173.206 107.368 173.479C107.55 173.752 107.81 173.964 108.114 174.086C118.802 178.392 139.388 175.829 146.298 174.795C146.904 174.7 147.449 174.369 147.813 173.872C148.177 173.376 148.331 172.755 148.241 172.145C145.816 154.454 154.068 128.582 160.63 111.598C163.224 104.888 158.424 77.0905 157.066 75.2092Z" fill="#644CC7"/>
<path d="M122.29 49.4932L119.278 74.513C119.21 75.0629 119.339 75.6189 119.641 76.0822C119.944 76.5454 120.4 76.8857 120.929 77.0424C124.198 78.0028 131.197 79.4582 137.593 76.8128C138.182 76.5662 138.665 76.1197 138.959 75.5514C139.254 74.983 139.34 74.3289 139.203 73.7032L135.394 56.0925L122.29 49.4932Z" fill="#FFBEA0"/>
<path d="M141.821 31.7096C142.009 32.0553 146.04 57.7455 146.04 57.7455L131.392 59.7465L123.969 35.9673C123.969 35.9673 138.673 25.9336 141.821 31.7096Z" fill="#FFBEA0"/>
<path d="M129.399 38.3337C129.193 38.5862 129.048 38.8826 128.975 39.2001C128.901 39.5177 128.901 39.8479 128.974 40.1656L131.862 52.8052C131.905 52.996 131.974 53.1797 132.068 53.3508C132.592 54.3001 134.501 57.185 137.391 55.0519C139.848 53.2335 142.143 51.5954 144.134 51.2633C144.411 51.2192 144.694 51.2306 144.967 51.297C145.239 51.3633 145.496 51.4833 145.722 51.65C145.948 51.8167 146.139 52.0267 146.284 52.268C146.429 52.5093 146.524 52.7771 146.565 53.0558C146.934 55.4666 147.583 60.3489 147.548 64.767C147.543 65.302 147.337 65.8153 146.971 66.2044C146.606 66.5934 146.108 66.8295 145.576 66.8656C142.675 67.0705 136.997 67.3013 132.299 66.4545C131.921 66.3851 131.569 66.2139 131.28 65.9591C130.991 65.7043 130.776 65.3755 130.658 65.0077C129.587 61.713 126.545 52.4892 125.288 50.019C124.12 47.7229 120.718 47.3328 119.145 47.2773C118.851 47.2676 118.562 47.1968 118.296 47.0693C118.03 46.9418 117.793 46.7605 117.601 46.5366C116.427 45.1787 114.594 42.1469 118.128 39.1867C118.547 38.8248 118.809 38.3131 118.86 37.7601C118.91 37.2071 118.744 36.6562 118.397 36.224C117.117 34.6192 116.004 32.017 118.747 29.295C121.524 26.541 124.664 27.2384 126.654 28.1704C127.535 28.5828 128.62 28.405 129.252 27.6606C129.533 27.331 129.947 27.1064 130.561 27.1767C131.719 27.3113 132.755 26.5459 132.895 25.3831C133.141 23.3894 134.2 21.0452 137.711 20.3737C144.15 19.1392 147.343 25.6225 147.215 30.1715C147.088 34.7205 140.031 35.6562 136.035 34.8896C133.094 34.3316 130.545 36.9202 129.399 38.3337Z" fill="#1F1751"/>
<path d="M126.401 54.6816C126.401 54.6816 126.286 46.7465 123.091 45.9923C119.897 45.238 116.442 47.5501 119.16 52.3077C122.546 58.2269 126.401 54.6816 126.401 54.6816Z" fill="#FFCEBB"/>
<path d="M94.9521 147.914C91.8119 151.281 87.1888 154.191 83.9355 156.005C88.7945 162.036 95.3686 168.085 104.066 173.996L105.119 176.369C105.562 177.367 106.272 178.221 107.17 178.837C108.068 179.453 109.119 179.806 110.205 179.857C122.368 180.44 125.734 177.848 114.538 170.002C114.543 170.002 100.223 162.842 94.9521 147.914Z" fill="#FFBEA0"/>
<path d="M184.377 94.8815C184.377 94.8815 169.03 110.912 165.483 116.731C161.936 122.55 165.885 133.138 173.941 130.681C181.996 128.223 191.373 100.398 191.373 100.398L184.377 94.8815Z" fill="#FFBEA0"/>
<path d="M158.688 72.1095C158.688 72.1095 172.175 107.849 176.436 115.284C181.382 123.916 195.829 118.416 195.11 111.193C194.391 103.971 177.513 74.1155 177.513 74.1155L158.688 72.1095Z" fill="#231B56"/>
<path d="M176.911 46.0737L260.74 16.8702L259.859 95.8998L174.62 76.7905L176.911 46.0737Z" fill="#F28F8F"/>
<path d="M260.819 97.2294C265.368 97.2294 269.055 79.0456 269.055 56.6147C269.055 34.1838 265.368 16 260.819 16C256.27 16 252.582 34.1838 252.582 56.6147C252.582 79.0456 256.27 97.2294 260.819 97.2294Z" fill="#FFAEAE"/>
<path d="M261.445 94.4507C260.701 93.6903 259.079 90.756 257.69 83.1678C256.346 75.8352 255.601 66.3225 255.601 56.3802C255.601 46.4379 256.338 36.9302 257.69 29.5926C259.078 22.0143 260.7 19.0862 261.445 18.3184C262.19 19.08 263.812 22.0143 265.201 29.6025C266.545 36.9351 267.29 46.4466 267.29 56.3901C267.29 66.3336 266.552 75.8401 265.201 83.1777C263.81 90.756 262.189 93.6903 261.445 94.4507Z" fill="#DB8282"/>
<mask id="mask0_302_11105" style="mask-type:alpha" maskUnits="userSpaceOnUse" x="247" y="43" width="25" height="26">
<path d="M272 56.0826C272 62.9832 268.301 68.5778 260.978 68.5778C253.656 68.5778 247.719 62.9832 247.719 56.0826C247.719 49.1821 253.655 43.5875 260.978 43.5875C268.302 43.5875 272 49.1821 272 56.0826Z" fill="url(#paint2_linear_302_11105)"/>
</mask>
<g mask="url(#mask0_302_11105)">
<path d="M257.057 79C254.759 66.9728 255.333 45.2091 257.057 35.4728L262.805 36.6182L280.046 42.9182L277.747 65.2546L257.057 79Z" fill="#231B56"/>
</g>
<path d="M268.019 54.6384C267.293 55.3679 266.81 53.4915 264.777 51.4485C262.744 49.4055 259.932 47.9711 260.658 47.2415C261.384 46.512 264.672 46.8255 266.704 48.8685C268.736 50.9115 268.744 53.9113 268.019 54.6384Z" fill="#91B3FA"/>
<path d="M163.391 44.3751C167.334 43.9146 172.99 43.7492 179.103 45.1565C177.089 55.7283 177.393 66.7495 179.723 78.1595H162.478C161.146 78.1619 159.857 77.6861 158.843 76.8178C157.829 75.9496 157.158 74.7461 156.949 73.4242C156.089 67.9543 155.039 58.7614 156.159 51.3781C156.433 49.5751 157.289 47.9126 158.596 46.647C159.902 45.3813 161.587 44.583 163.391 44.3751Z" fill="#2E2A44"/>
<path d="M173.74 52.6731H160.305C160.048 52.6731 159.797 52.6037 159.576 52.4721C159.356 52.3405 159.175 52.1517 159.053 51.9256C158.93 51.6994 158.871 51.4442 158.88 51.1869C158.89 50.9296 158.969 50.6796 159.108 50.4634C159.187 50.3413 159.31 50.2556 159.452 50.2252C159.594 50.1947 159.741 50.222 159.863 50.3011C159.984 50.3802 160.07 50.5045 160.1 50.6468C160.13 50.789 160.103 50.9376 160.024 51.0597C159.992 51.1102 159.973 51.1688 159.971 51.2291C159.968 51.2894 159.982 51.3492 160.011 51.4023C160.04 51.4553 160.082 51.4995 160.134 51.5303C160.185 51.561 160.245 51.5771 160.305 51.5769H173.74C173.829 51.5769 173.914 51.5415 173.977 51.4786C174.039 51.4156 174.074 51.3302 174.074 51.2411V50.2807C174.074 50.1917 174.039 50.1063 173.977 50.0433C173.914 49.9803 173.829 49.945 173.74 49.945H160.211C160.071 49.9383 159.938 49.8775 159.841 49.7754C159.745 49.6732 159.69 49.5374 159.69 49.3962C159.69 49.2551 159.745 49.1193 159.841 49.0171C159.938 48.915 160.071 48.8542 160.211 48.8475H173.74C174.118 48.8482 174.481 48.9994 174.748 49.268C175.015 49.5367 175.166 49.9008 175.167 50.2807V51.2411C175.166 51.6209 175.015 51.985 174.748 52.2534C174.481 52.5218 174.118 52.6728 173.74 52.6731Z" fill="#3B3859"/>
<path d="M172.542 58.6527H159.106C158.849 58.6524 158.598 58.5828 158.378 58.4511C158.157 58.3194 157.976 58.1305 157.854 57.9042C157.732 57.678 157.672 57.4228 157.682 57.1654C157.691 56.9081 157.77 56.6581 157.909 56.4418C157.988 56.3197 158.111 56.234 158.253 56.2035C158.395 56.1731 158.542 56.2004 158.664 56.2795C158.785 56.3585 158.871 56.4829 158.901 56.6251C158.931 56.7674 158.904 56.9159 158.825 57.0381C158.793 57.0886 158.774 57.1472 158.772 57.2075C158.769 57.2678 158.783 57.3276 158.812 57.3807C158.841 57.4337 158.883 57.4779 158.935 57.5086C158.986 57.5394 159.045 57.5555 159.106 57.5553H172.542C172.631 57.5553 172.716 57.5199 172.779 57.4569C172.841 57.394 172.877 57.3086 172.877 57.2195V56.2603C172.877 56.2162 172.868 56.1724 172.852 56.1315C172.835 56.0906 172.81 56.0534 172.779 56.0221C172.748 55.9908 172.711 55.966 172.671 55.949C172.63 55.9321 172.586 55.9233 172.542 55.9233H159.007C158.863 55.9233 158.724 55.8656 158.622 55.7628C158.519 55.66 158.462 55.5206 158.462 55.3752C158.462 55.2299 158.519 55.0905 158.622 54.9877C158.724 54.8849 158.863 54.8271 159.007 54.8271H172.542C172.73 54.827 172.916 54.8639 173.089 54.9359C173.262 55.0078 173.42 55.1133 173.552 55.2464C173.685 55.3795 173.79 55.5375 173.862 55.7115C173.934 55.8855 173.971 56.072 173.971 56.2603V57.2195C173.971 57.5999 173.82 57.9644 173.552 58.2331C173.284 58.5018 172.921 58.6527 172.542 58.6527Z" fill="#3B3859"/>
<path d="M173.74 65.6545H160.305C160.048 65.6545 159.797 65.5851 159.576 65.4536C159.356 65.322 159.175 65.1332 159.053 64.907C158.93 64.6808 158.871 64.4256 158.88 64.1683C158.89 63.911 158.969 63.6611 159.108 63.4449C159.147 63.3844 159.197 63.3322 159.256 63.2913C159.315 63.2504 159.381 63.2216 159.452 63.2064C159.522 63.1913 159.594 63.1902 159.664 63.2031C159.735 63.2161 159.802 63.2429 159.862 63.2819C159.922 63.321 159.974 63.3716 160.015 63.4308C160.056 63.4901 160.085 63.5568 160.1 63.6272C160.115 63.6975 160.116 63.7702 160.103 63.841C160.09 63.9118 160.063 63.9794 160.024 64.0399C159.992 64.0906 159.973 64.1491 159.971 64.2095C159.969 64.2698 159.982 64.3297 160.011 64.3828C160.04 64.4358 160.082 64.4802 160.134 64.5111C160.186 64.542 160.244 64.5583 160.305 64.5584H173.74C173.784 64.5584 173.828 64.5497 173.868 64.5328C173.909 64.5159 173.945 64.4912 173.977 64.46C174.008 64.4288 174.032 64.3918 174.049 64.3511C174.066 64.3103 174.074 64.2667 174.074 64.2226V63.2622C174.074 63.1731 174.039 63.0877 173.977 63.0248C173.914 62.9618 173.829 62.9264 173.74 62.9264H160.211C160.071 62.9197 159.938 62.859 159.841 62.7568C159.745 62.6546 159.69 62.5189 159.69 62.3777C159.69 62.2365 159.745 62.1007 159.841 61.9986C159.938 61.8964 160.071 61.8357 160.211 61.829H173.74C174.118 61.8296 174.481 61.9808 174.748 62.2495C175.015 62.5181 175.166 62.8823 175.167 63.2622V64.2226C175.166 64.6024 175.015 64.9664 174.748 65.2348C174.481 65.5033 174.118 65.6542 173.74 65.6545Z" fill="#3B3859"/>
<path d="M174.998 73.428H161.563C161.306 73.4277 161.055 73.3581 160.835 73.2264C160.614 73.0946 160.434 72.9057 160.311 72.6795C160.189 72.4533 160.129 72.1981 160.139 71.9407C160.148 71.6834 160.227 71.4334 160.366 71.2171C160.405 71.1566 160.455 71.1044 160.514 71.0635C160.573 71.0226 160.64 70.9938 160.71 70.9786C160.78 70.9635 160.852 70.9624 160.922 70.9753C160.993 70.9883 161.06 71.0151 161.12 71.0541C161.181 71.0932 161.232 71.1438 161.273 71.203C161.314 71.2623 161.343 71.329 161.358 71.3994C161.373 71.4697 161.374 71.5424 161.361 71.6132C161.348 71.6841 161.321 71.7516 161.283 71.8121C161.25 71.8628 161.231 71.9214 161.229 71.9817C161.227 72.042 161.241 72.1019 161.269 72.155C161.298 72.2081 161.34 72.2524 161.392 72.2833C161.444 72.3142 161.503 72.3305 161.563 72.3306H174.998C175.087 72.3306 175.172 72.2952 175.235 72.2322C175.297 72.1692 175.332 72.0838 175.332 71.9948V71.0344C175.332 70.9453 175.297 70.8599 175.235 70.797C175.172 70.734 175.087 70.6986 174.998 70.6986H161.463C161.318 70.6986 161.18 70.6409 161.077 70.5381C160.975 70.4353 160.918 70.2959 160.918 70.1505C160.918 70.0052 160.975 69.8657 161.077 69.763C161.18 69.6602 161.318 69.6024 161.463 69.6024H174.998C175.186 69.6021 175.371 69.6389 175.545 69.7107C175.718 69.7825 175.876 69.8878 176.008 70.0208C176.141 70.1538 176.247 70.3117 176.319 70.4856C176.391 70.6595 176.428 70.846 176.428 71.0344V71.9948C176.428 72.3753 176.277 72.7401 176.009 73.0088C175.74 73.2775 175.377 73.4283 174.998 73.428Z" fill="#3B3859"/>
<path d="M186.994 115.686C186.351 115.685 185.71 115.615 185.082 115.477C183.717 115.185 182.439 114.573 181.354 113.69C180.269 112.807 179.408 111.679 178.84 110.397L168.111 86.4354C168.052 86.3028 168.047 86.152 168.099 86.0161C168.15 85.8802 168.253 85.7703 168.385 85.7108C168.517 85.6512 168.667 85.6467 168.802 85.6983C168.937 85.7499 169.047 85.8534 169.106 85.986L179.841 109.948C180.34 111.073 181.096 112.063 182.048 112.838C183 113.612 184.121 114.15 185.319 114.406C186.49 114.67 187.707 114.651 188.869 114.353C190.032 114.054 191.108 113.483 192.009 112.687C192.11 112.6 192.209 112.508 192.31 112.416C192.363 112.367 192.425 112.329 192.492 112.305C192.559 112.28 192.631 112.269 192.703 112.272C192.774 112.275 192.844 112.293 192.909 112.323C192.974 112.354 193.033 112.397 193.081 112.45C193.129 112.503 193.167 112.565 193.191 112.633C193.216 112.7 193.227 112.772 193.224 112.844C193.221 112.916 193.203 112.986 193.173 113.052C193.143 113.117 193.1 113.176 193.047 113.224C192.94 113.324 192.833 113.419 192.727 113.513C191.143 114.916 189.105 115.688 186.994 115.686Z" fill="#3C3687"/>
<path d="M167.022 83.2159C166.917 83.216 166.814 83.1855 166.726 83.1282C166.637 83.0708 166.567 82.9889 166.524 82.8925L165.326 80.2187C165.266 80.0859 165.262 79.9349 165.314 79.7989C165.365 79.6629 165.468 79.553 165.6 79.4934C165.732 79.4338 165.883 79.4294 166.018 79.4812C166.153 79.5329 166.263 79.6366 166.322 79.7693L167.519 82.4419C167.556 82.525 167.572 82.6161 167.566 82.707C167.559 82.7979 167.53 82.8858 167.482 82.9626C167.433 83.0395 167.366 83.1029 167.286 83.1471C167.207 83.1913 167.118 83.215 167.027 83.2159H167.022Z" fill="#3C3687"/>
<path opacity="0.51" d="M250.063 25.8596L184.603 45.2874C184.603 45.2874 179.64 49.4722 183.486 56.7394L246.618 53.6508C246.618 53.6508 246.325 35.0217 250.063 25.8596Z" fill="#FFAEAE"/>
<path d="M178.566 85.6614C178.566 85.6614 182.939 81.9321 186.356 85.6614C189.774 89.3906 190.449 95.8999 189.753 96.2184C189.058 96.5369 167.929 91.2645 178.566 85.6614Z" fill="#FFBEA0"/>
<defs>
<linearGradient id="paint0_linear_302_11105" x1="121.092" y1="295.727" x2="116.667" y2="334.164" gradientUnits="userSpaceOnUse">
<stop stop-color="#FEBBBA"/>
<stop offset="1" stop-color="#FF928E"/>
</linearGradient>
<linearGradient id="paint1_linear_302_11105" x1="156.802" y1="299.838" x2="152.377" y2="338.276" gradientUnits="userSpaceOnUse">
<stop stop-color="#FEBBBA"/>
<stop offset="1" stop-color="#FF928E"/>
</linearGradient>
<linearGradient id="paint2_linear_302_11105" x1="279.065" y1="55.0395" x2="220.597" y2="58.3789" gradientUnits="userSpaceOnUse">
<stop stop-color="#09005D"/>
<stop offset="1" stop-color="#1A0F91"/>
</linearGradient>
</defs>
</svg>
