<svg width="310" height="334" viewBox="0 0 310 334" fill="none" xmlns="http://www.w3.org/2000/svg">
<path d="M151.965 62.9342C151.965 62.9342 125.808 65.5304 117.936 63.5929C110.063 61.6553 90.5813 46.0875 90.5813 46.0875L85.1278 50.1405C85.1278 50.1405 99.5552 77.0212 110.135 80.8723C120.715 84.7233 149.44 85.1224 149.44 85.1224L151.965 62.9342Z" fill="#5A45B3"/>
<path d="M246.72 298.47C246.72 298.47 251.885 303.307 250.861 306.721C249.836 310.134 245.138 312.394 244.488 316.567C243.839 320.74 241.29 323.01 239.011 323L228.142 322.952C228.142 322.952 226.478 320.005 230.547 319.134C234.615 318.264 236.154 313.365 235.919 308.807C235.83 305.257 235.973 301.704 236.347 298.172L244.969 296.187L246.72 298.47Z" fill="#233862"/>
<path d="M182.965 310.658C182.965 310.658 184.129 321.61 181.844 322.74L152.446 322.611C152.446 322.611 152.408 319.13 157.097 318.394C161.786 317.658 170.028 314.904 171.452 308.706C172.875 302.509 182.965 310.658 182.965 310.658Z" fill="#233862"/>
<path d="M159.035 155.889C159.035 155.889 160.477 175.087 162.19 198.164C164.508 229.516 167.292 268.022 167.552 275.316C167.999 287.98 169.956 308.245 169.956 308.245C169.956 308.245 174.765 313.077 184.384 311.091C184.384 311.091 193.093 282.215 195.68 251.632C195.719 251.152 195.762 250.628 195.801 250.123C198.205 218.992 202.053 153.423 202.053 153.423L159.035 155.889Z" fill="#56548C"/>
<path d="M159.035 155.889C159.035 155.889 160.477 175.087 162.19 198.164L195.656 251.632C195.695 251.152 195.738 250.628 195.777 250.123C198.181 218.992 202.028 153.423 202.028 153.423L159.035 155.889Z" fill="#3D3D7A"/>
<path d="M166.051 158.202C166.051 158.202 193.463 227.829 211.56 260.575C229.657 293.321 235.303 302.461 235.303 302.461C235.303 302.461 245.772 298.331 246.734 295.485C246.734 295.485 240.045 232.396 227.902 216.968C221.039 208.251 213.051 182.15 212.714 173.034C212.378 163.918 210.368 145.865 210.368 145.865L166.051 158.202Z" fill="#56548C"/>
<path d="M169.681 54.6557C169.681 54.6557 144.597 67.6754 147.53 64.0887C148.468 62.9445 147.588 58.8962 147.025 57.526C146.751 56.8721 146.506 56.2519 146.275 55.6606C145.395 53.4747 144.631 51.244 143.986 48.9777L150.478 40.3861L154.884 34.559C155.367 36.8417 156.095 39.066 157.053 41.1938C161.602 51.2566 169.681 54.6557 169.681 54.6557Z" fill="#FFB27D"/>
<path d="M156.697 40.0152C156.697 40.0152 155.125 49.9819 145.92 54.482C145.04 52.2961 144.276 50.0654 143.631 47.7991L150.123 39.2075C154.331 39.1883 156.697 40.0152 156.697 40.0152Z" fill="#ED985F"/>
<path d="M214.532 159.288C206.539 168.159 154.307 174.784 155.755 168.125C156.711 163.758 157.268 159.313 157.419 154.846C157.477 153.387 157.491 151.836 157.462 150.192C157.288 142.752 156.276 135.356 154.447 128.143C153.371 123.828 152.061 119.575 150.523 115.402C150.131 114.351 149.726 113.287 149.306 112.21C147.166 106.814 145.484 101.247 144.275 95.5699C142.049 84.9926 141.871 75.1365 144.42 69.021C144.42 68.9921 146.92 62.5448 146.93 62.5112C158.107 58.9582 162.435 48.3136 162.435 48.3136C162.435 48.3136 197.421 57.9581 211.57 108.585C211.555 108.585 221.486 151.562 214.532 159.288Z" fill="#644CC7"/>
<path d="M176.93 84.2281C176.93 84.2281 173.496 113.556 154.447 128.143C153.371 123.828 152.061 119.575 150.523 115.402C152.586 108.46 154.942 102.772 157.049 100.344C165.599 90.4687 176.93 84.2281 176.93 84.2281Z" fill="#5A45B3"/>
<path d="M139.398 51.0547C139.398 51.0547 157.524 50.1989 156.802 38.9052C156.081 27.6116 157.942 19.9095 146.338 20.0008C134.733 20.0922 132.762 24.5298 132.088 28.352C131.415 32.1743 134.666 50.9921 139.398 51.0547Z" fill="#FFB27D"/>
<path d="M164.931 20.0675C165.118 19.8848 165.522 19.7598 166.398 19.7791C165.924 19.4511 165.378 19.2447 164.806 19.1781C164.724 17.9328 164.257 15.6972 162.209 14.9904C162.534 15.2234 162.803 15.526 162.996 15.8762C163.189 16.2264 163.301 16.6154 163.324 17.0145C161.107 14.2933 156.072 12.0288 141.606 12C122.543 11.9615 127.775 24.784 130.103 26.4571C132.431 28.1303 138.937 24.6061 143.477 25.3513C148.017 26.0966 148.33 32.866 149.806 33.9141C151.282 34.9622 150.801 33.2843 152.98 32.4958C155.159 31.7073 155.062 35.2459 154.259 37.4815C153.456 39.7172 156.101 42.9865 156.101 42.9865L159.27 40.0441C162.444 37.0969 166.297 23.8417 165.21 20.856C165.123 20.606 165.027 20.3368 164.931 20.0675Z" fill="#151F2C"/>
<path d="M129.44 74.2434L124.169 74.2195L123.817 151.851L129.087 151.875L129.44 74.2434Z" fill="#151F2C"/>
<path d="M163.074 322.154C163.555 322.211 164.036 322.096 163.926 321.279L139.399 147.485L135.874 149.682L162.17 321.351C162.206 321.568 162.316 321.766 162.48 321.912C162.645 322.058 162.855 322.144 163.074 322.154Z" fill="#151F2C"/>
<path d="M139.322 147.483L115.363 147.374L115.343 151.807L139.302 151.916L139.322 147.483Z" fill="#151F2C"/>
<path d="M150.984 237.007L149.695 237.142C149.094 237.208 148.491 237.035 148.016 236.66C147.542 236.284 147.235 235.737 147.161 235.137L146.791 231.747C146.761 231.45 146.791 231.149 146.878 230.864C146.965 230.578 147.107 230.312 147.297 230.081C147.487 229.85 147.721 229.659 147.984 229.518C148.248 229.378 148.537 229.29 148.835 229.261L150.123 229.127C150.725 229.06 151.328 229.234 151.803 229.609C152.277 229.984 152.584 230.531 152.658 231.132L153.028 234.497C153.061 234.797 153.034 235.099 152.948 235.388C152.863 235.677 152.721 235.946 152.531 236.179C152.341 236.412 152.106 236.606 151.841 236.748C151.575 236.89 151.284 236.978 150.984 237.007Z" fill="#151F2C"/>
<path d="M90.1966 321.827C89.6869 321.88 89.2348 321.76 89.355 320.947L115.464 147.384L118.965 149.62L91.1248 321.029C91.0869 321.249 90.9735 321.449 90.8041 321.594C90.6348 321.74 90.42 321.822 90.1966 321.827Z" fill="#151F2C"/>
<path d="M103.061 236.747L104.34 236.891C104.938 236.964 105.54 236.797 106.016 236.428C106.491 236.059 106.802 235.517 106.88 234.92L107.279 231.555C107.342 230.958 107.166 230.361 106.789 229.894C106.412 229.427 105.865 229.129 105.268 229.064L103.984 228.915C103.387 228.846 102.785 229.014 102.31 229.384C101.835 229.753 101.524 230.295 101.445 230.891L101.051 234.257C100.988 234.853 101.164 235.451 101.541 235.918C101.917 236.385 102.464 236.683 103.061 236.747Z" fill="#151F2C"/>
<path d="M131.026 75.5403L121.826 75.4971C121.689 75.4964 121.552 75.4687 121.426 75.4154C121.299 75.3622 121.183 75.2845 121.086 75.1867C120.99 75.0889 120.913 74.973 120.861 74.8456C120.809 74.7182 120.782 74.5818 120.783 74.4442V70.4633L132.079 70.5161V74.4922C132.078 74.7706 131.967 75.0372 131.769 75.2337C131.572 75.4301 131.305 75.5403 131.026 75.5403Z" fill="#384152"/>
<path d="M117.437 70.7475L135.24 70.8282L135.266 65.1791L117.463 65.0983L117.437 70.7475Z" fill="#151F2C"/>
<path d="M122.601 65.8862H129.718V58.3523H122.601V65.8862Z" fill="#151F2C"/>
<path d="M64.2391 30.5723L60.0985 30.5535L59.9974 52.8328L64.138 52.8516L64.2391 30.5723Z" fill="#151F2C"/>
<path d="M82.2088 31.0144L64.2421 30.9329L64.1454 52.2314L82.1122 52.3129L82.2088 31.0144Z" fill="#384152"/>
<path d="M100.139 31.5861L82.1726 31.5046L82.0804 51.8176L100.047 51.8991L100.139 31.5861Z" fill="#384152"/>
<path d="M118.093 34.4033L100.127 34.3218L100.059 49.1586L118.026 49.2401L118.093 34.4033Z" fill="#384152"/>
<path d="M135.238 28.1202L113.082 28.0197L112.946 58.0876L135.101 58.1881L135.238 28.1202Z" fill="#151F2C"/>
<path d="M137.274 30.8364L135.225 30.8271L135.192 38.1446L137.24 38.1539L137.274 30.8364Z" fill="#151F2C"/>
<path d="M138.384 30.0054H136.336V38.2845H138.384V30.0054Z" fill="#151F2C"/>
<path d="M126.296 24.2529L122.376 24.2351L122.359 28.0621L126.278 28.0799L126.296 24.2529Z" fill="#151F2C"/>
<path d="M131.319 20.4775L117.075 20.4128L117.056 24.5716L131.3 24.6362L131.319 20.4775Z" fill="#151F2C"/>
<path d="M129.454 63.9246C129.454 63.9246 126.89 54.2705 126.03 52.8666C125.169 51.4627 120.374 47.5107 119.927 47.6597C119.479 47.8088 119.273 48.227 119.677 49.1309C120.081 50.0348 121.966 52.732 121.519 52.732C121.071 52.732 115.07 45.2798 113.343 46.0683C111.617 46.8568 110.905 53.0445 112.723 57.0013C114.541 60.9582 122.985 66.1747 123.385 66.7901C126.765 72.0307 129.454 63.9246 129.454 63.9246Z" fill="#FFB27D"/>
<path d="M129.704 63.29C129.704 63.29 122.351 65.9872 123.067 70.4056C123.332 72.0403 138.12 121.196 146.81 121.777C155.5 122.359 183.326 82.3531 181.474 71.2133C179.623 60.0736 166.878 54.8667 162.238 57.2706C157.597 59.6745 152.504 92.1947 150.604 91.6418C148.705 91.0889 129.704 63.29 129.704 63.29Z" fill="#644CC7"/>
<path d="M76.8753 28.0341C76.8753 28.0341 71.0129 32.2169 73.3165 33.3227C75.6201 34.4285 80.5302 34.4093 82.7809 32.265C85.0316 30.1207 81.0881 27.2408 76.8753 28.0341Z" fill="#FFB27D"/>
</svg>
