<svg width="310" height="334" viewBox="0 0 310 334" fill="none" xmlns="http://www.w3.org/2000/svg">
<g clip-path="url(#clip0_302_10725)">
<g style="mix-blend-mode:screen">
<path d="M140.721 18.9736H45.4117V28.4212H140.721V18.9736Z" fill="#1D262D"/>
</g>
<path d="M54.9768 36.1125H53.5211V37.5743H54.9768V36.1125Z" fill="#F9FBFC"/>
<path d="M54.9768 89.6193H53.5211V86.6762H54.9768V89.6193ZM54.9768 82.1829H53.5211V79.2398H54.9768V82.1829ZM54.9768 74.7466H53.5211V71.8034H54.9768V74.7466ZM54.9768 67.3102H53.5211V64.367H54.9768V67.3102ZM54.9768 59.8738H53.5211V56.9012H54.9768V59.8738ZM54.9768 52.4374H53.5211V49.4942H54.9768V52.4374ZM54.9768 45.0108H53.5211V42.0676H54.9768V45.0108Z" fill="#F9FBFC"/>
<path d="M54.9768 94.083H53.5211V95.5448H54.9768V94.083Z" fill="#F9FBFC"/>
<path d="M239.714 0H161.229V48.5818H239.714V0Z" fill="#7361E0"/>
<path d="M191.713 19.5425L182.372 23.5452L191.713 27.4694L190.511 30.3145L179.314 25.2915V21.8185L190.511 16.7661L191.713 19.5425Z" fill="#F9FBFC"/>
<path d="M205.469 10.2814L198.698 36.4167L195.464 35.6613L202.304 9.54565L205.469 10.2814Z" fill="#F9FBFC"/>
<path d="M221.678 21.8187V25.2917L210.481 30.3147L209.26 27.4696L218.571 23.5454L209.26 19.5525L210.481 16.7761L221.678 21.8187Z" fill="#F9FBFC"/>
<path d="M281.717 94.1125H237.018V126.095H281.717V94.1125Z" fill="#606BF1"/>
<path d="M255.718 101.049C254.282 101.049 253.764 101.441 253.764 102.52V107.327C253.764 109.211 252.982 109.78 251.683 110.153C252.003 110.191 252.312 110.294 252.592 110.455C252.872 110.616 253.116 110.833 253.31 111.091C253.505 111.349 253.645 111.644 253.723 111.959C253.801 112.273 253.815 112.6 253.764 112.919V117.727C253.764 118.806 254.262 119.188 255.718 119.188V121.298C252.093 121.298 251.067 120.13 251.067 117.707V113.116C251.067 111.811 250.725 111.301 249.533 111.301V108.897C250.725 108.897 251.067 108.367 251.067 107.063V102.501C251.067 100.048 252.044 98.9001 255.718 98.9001V101.049Z" fill="#F1F2F2"/>
<path d="M267.696 102.501V107.063C267.696 108.367 268.038 108.897 269.25 108.897V111.301C268.038 111.301 267.696 111.811 267.696 113.116V117.727C267.696 120.15 266.671 121.317 263.046 121.317V119.208C264.462 119.208 265 118.825 265 117.746V112.929C265 111.075 265.772 110.506 267.081 110.163C265.772 109.79 265 109.182 265 107.337V102.53C265 101.451 264.521 101.059 263.046 101.059V98.9492C266.651 98.9002 267.696 100.068 267.696 102.501Z" fill="#F1F2F2"/>
<path d="M211.107 111.006C210.999 112.115 209.485 123.76 197.585 123.76C185.098 123.76 187.189 111.35 187.189 111.35V111.271C188.473 111.001 189.793 110.938 191.097 111.085V105.199L205.274 97.2422H205.782V110.977C207.553 110.803 209.337 110.813 211.107 111.006Z" fill="url(#paint0_radial_302_10725)"/>
<path d="M204.189 70.9696C206.321 73.1624 207.797 75.9124 208.449 78.9063C209.807 84.93 208.527 91.3167 206.778 97.1245C206.526 98.1326 206.106 99.091 205.538 99.9597C205.08 100.54 204.559 101.067 203.984 101.529L196.422 108.152C194.722 109.653 184.219 110.899 182.216 109.466C174.497 103.923 173.012 87.883 174.556 79.6519C177.165 66.0349 194.595 61.159 204.189 70.9696Z" fill="url(#paint1_radial_302_10725)"/>
<path d="M199.89 88.4029C199.988 87.0883 201.336 85.656 202.685 86.5095C204.033 87.363 203.75 89.7176 203.173 90.9929C202.714 91.974 201.219 93.1022 200.174 92.1604C199.314 91.3854 200.652 90.4632 200.692 89.747C200.731 89.0308 199.451 88.6384 199.978 87.9517" fill="#F7B094"/>
<path d="M200.135 94.4656C201.058 94.6131 202.004 94.4308 202.807 93.9504C203.61 93.47 204.221 92.7219 204.531 91.8364C204.904 90.4654 205.085 89.0488 205.069 87.6277C205.54 89.1302 205.657 90.7222 205.411 92.2779C205.049 95.1426 204.043 97.8699 201.805 97.9091C199.568 97.9484 200.135 94.4656 200.135 94.4656Z" fill="#F7B094"/>
<path d="M198.405 92.4252L198.249 92.4742C197.379 92.592 197.028 91.4932 196.901 90.8751C196.673 89.3261 196.572 87.761 196.598 86.1955C196.623 85.7715 196.573 85.3464 196.451 84.9397C195.963 83.8213 194.663 83.0855 194.263 81.9279C193.794 80.574 195.103 79.2202 194.585 77.7388C193.794 75.4726 190.892 74.9526 188.801 74.982C185.672 75.1257 182.556 75.4962 179.48 76.0906C176.197 76.6008 172.006 77.0717 169.124 75.0016C165.636 72.4901 164.19 65.9563 166.788 62.3755C167.575 61.4241 168.56 60.6584 169.675 60.1328C170.789 59.6071 172.006 59.3345 173.237 59.3342C175.728 59.2753 177.839 60.7666 180.125 61.5122C181.952 62.1106 183.711 60.3643 185.42 60.021C187.56 59.5893 188.469 61.9831 190.364 61.9831C192.26 61.9831 194.009 60.5998 195.797 60.276C199.363 59.6187 199.148 63.2192 201.542 64.4455C203.027 65.2107 204.951 64.7496 206.427 65.5247C207.57 66.1133 207.736 67.1532 207.98 68.3207C208.105 69.3836 208.291 70.4384 208.537 71.4797C208.943 72.2746 209.493 72.9865 210.159 73.5791C210.757 74.3312 211.208 75.19 211.488 76.1102C212.149 78.1866 212.372 80.3784 212.142 82.546C211.696 86.1701 210.796 89.7233 209.465 93.1217C208.684 95.3389 208.391 97.6346 207.189 99.7242C206.866 100.293 205.44 101.932 204.903 100.705C204.813 100.434 204.786 100.145 204.824 99.8616C204.99 97.5855 207.101 82.8991 201.561 84.665C201.007 84.8674 200.505 85.1932 200.094 85.618C199.683 86.0427 199.373 86.5554 199.187 87.1177C198.732 88.4199 198.566 89.8058 198.698 91.1792C198.698 91.3755 198.698 91.5815 198.698 91.7777C198.712 91.9021 198.692 92.0279 198.64 92.1418C198.589 92.2558 198.508 92.3536 198.405 92.4252Z" fill="#3D3D7A"/>
<path d="M191.097 109.702C197.389 108.721 201.551 103.698 201.551 103.698C200.963 106.161 199.583 108.361 197.625 109.957C195.666 111.553 193.238 112.456 190.716 112.527L191.097 109.702Z" fill="#F7B094"/>
<path d="M208.86 312.897H202.997C202.575 312.897 202.17 312.729 201.871 312.429C201.573 312.129 201.405 311.722 201.405 311.298V224.446H210.423V311.308C210.42 311.726 210.255 312.125 209.963 312.422C209.671 312.719 209.275 312.89 208.86 312.897Z" fill="#0A2033"/>
<path d="M224.551 233.256H187.316C185.681 233.256 184.113 232.603 182.957 231.442C181.8 230.282 181.151 228.707 181.151 227.065V225.701H230.726V227.065C230.726 227.879 230.566 228.685 230.255 229.436C229.945 230.188 229.49 230.871 228.916 231.446C228.343 232.021 227.662 232.477 226.913 232.787C226.164 233.098 225.361 233.257 224.551 233.256Z" fill="#30475E"/>
<path d="M208.86 324.327H202.997C202.575 324.327 202.17 324.158 201.871 323.859C201.573 323.559 201.405 323.152 201.405 322.728V302.606H210.423V322.728C210.423 323.147 210.259 323.549 209.967 323.848C209.674 324.147 209.277 324.319 208.86 324.327Z" fill="#0A2033"/>
<path d="M159.158 319.029C159.158 320.077 159.467 321.101 160.047 321.972C160.627 322.844 161.451 323.523 162.415 323.924C163.379 324.325 164.44 324.429 165.463 324.225C166.487 324.021 167.427 323.516 168.165 322.775C168.902 322.034 169.405 321.09 169.608 320.063C169.812 319.035 169.708 317.97 169.308 317.002C168.909 316.034 168.233 315.206 167.365 314.624C166.497 314.042 165.477 313.731 164.434 313.731C163.035 313.731 161.693 314.29 160.703 315.283C159.714 316.277 159.158 317.624 159.158 319.029Z" fill="#0A2033"/>
<path d="M242.167 319.029C242.167 320.077 242.476 321.101 243.056 321.972C243.635 322.844 244.459 323.523 245.424 323.924C246.388 324.325 247.448 324.429 248.472 324.225C249.495 324.021 250.435 323.516 251.173 322.775C251.911 322.034 252.414 321.09 252.617 320.063C252.821 319.035 252.716 317.97 252.317 317.002C251.918 316.034 251.241 315.206 250.374 314.624C249.506 314.042 248.486 313.731 247.443 313.731C246.043 313.731 244.701 314.29 243.712 315.283C242.722 316.277 242.167 317.624 242.167 319.029Z" fill="#0A2033"/>
<path d="M196.871 311.769H215.005V295.857H196.871V311.769Z" fill="#30475E"/>
<path d="M252.718 315.497H159.158V313.653C159.158 312.157 159.75 310.722 160.803 309.664C161.857 308.606 163.286 308.012 164.776 308.012H247.101C248.591 308.012 250.019 308.606 251.073 309.664C252.127 310.722 252.718 312.157 252.718 313.653V315.497Z" fill="#FBD15B"/>
<path d="M205.938 235.041H202.812V294.444H205.938V235.041Z" fill="#30475E"/>
<path d="M241.317 161.511C240.804 161.493 240.293 161.584 239.818 161.776C239.342 161.969 238.912 162.26 238.555 162.629C238.198 162.999 237.922 163.44 237.744 163.923C237.567 164.406 237.493 164.921 237.526 165.435C238.141 176.227 235.865 202.519 225.86 211.545C213.637 222.513 178.962 221.022 178.962 221.022C178.962 221.022 173.247 228.075 184.688 229.645C196.129 231.215 228.4 230.165 236.207 222.846C243.759 215.773 248.244 197.221 244.863 164.964C244.774 164.069 244.364 163.236 243.71 162.621C243.056 162.006 242.202 161.65 241.307 161.619L241.317 161.511Z" fill="#FBD15B"/>
<path d="M176.422 294.444L180.545 303.882L167.912 309.444L163.779 299.977L176.422 294.444Z" fill="url(#paint2_radial_302_10725)"/>
<path d="M235.972 189.559C235.191 191.129 179.08 189.559 173.784 190.079C173.784 190.079 139.441 206.541 134.507 221.944C133.985 223.916 133.823 225.967 134.029 227.997C135.396 249.688 159.998 301.635 159.998 301.635L163.779 299.977L176.422 294.444L178.22 293.659C178.22 293.659 158.679 235.267 162.587 232.137C166.495 229.008 210.716 221.159 226.094 216.99C241.473 212.82 235.972 189.559 235.972 189.559Z" fill="#56548C"/>
<path d="M128.274 296.867L129.261 311.043H115.484L114.488 296.838L128.274 296.867Z" fill="url(#paint3_radial_302_10725)"/>
<path d="M173.501 189.599L173.002 189.814C173.002 189.814 115.514 197.918 106.144 214.115C100.057 224.642 111.84 301.606 111.84 301.606L132.182 301.655C132.182 301.655 129.134 237.543 130.15 233.962C131.293 229.881 133.247 228.409 134.058 227.987C133.853 225.957 134.015 223.906 134.537 221.934C139.422 206.532 173.813 190.07 173.813 190.07C173.665 189.947 173.557 189.783 173.501 189.599Z" fill="#3D3D7A"/>
<path d="M229.035 136.259L225.176 136.789C224.486 143.803 223.406 150.772 221.942 157.665L173.901 175.972L173.247 179.474L172.651 179.425C172.651 180.141 172.651 180.848 172.7 181.505C172.807 185.537 173.081 188.431 173.501 189.599C173.544 189.782 173.639 189.949 173.774 190.079C175.084 191.149 192.074 189.098 210.442 195.848C226.368 201.734 235.298 208.141 235.708 207.277C240.721 196.829 231.605 155.821 229.035 136.259Z" fill="#7361E0"/>
<path d="M224.023 160.177C222.743 166.348 219.431 178.64 212.943 180.288C204.463 182.447 188.068 182.339 172.709 181.505C172.709 180.847 172.709 180.141 172.66 179.425L173.256 179.474L173.911 175.972L221.942 157.665C223.406 150.772 224.486 143.802 225.176 136.788C225.172 136.847 225.172 136.906 225.176 136.965C225.283 138.574 225.938 151.082 224.023 160.177Z" fill="#644CC7"/>
<path d="M154.087 170.703L153.882 177.571H128.958C128.958 177.571 131.439 167.76 138.191 167.76C144.942 167.76 147.56 171.351 147.56 171.351L154.087 170.703Z" fill="url(#paint4_radial_302_10725)"/>
<path d="M175.855 120.846C174.996 122.416 173.764 139.182 173.09 155.831L163.271 146.628C167.463 138.525 175.855 120.846 175.855 120.846Z" fill="#644CC7"/>
<path d="M169.993 167.996C161.698 169.438 154.087 170.674 154.087 170.674V171.086C144.864 163.689 130.824 142.724 130.824 142.724C130.824 142.724 135.025 137.662 136.071 136.337C136.227 136.131 159.109 151.946 160.281 151.808C160.584 151.808 161.757 149.699 163.31 146.628L173.129 155.831C172.973 159.755 172.846 163.748 172.768 167.495L169.993 167.996Z" fill="#F7B094"/>
<path d="M135.865 136.18L136.051 136.337C135.006 137.662 130.804 142.724 130.804 142.724L128.205 140.879C127.246 141.39 126.174 141.651 125.089 141.637C124.003 141.624 122.938 141.336 121.992 140.801C118.504 138.908 120.663 134.375 120.839 133.835C120.164 134.032 115.953 137.416 115.338 137.053C114.722 136.69 114.195 135.503 118.865 130.882C123.535 126.262 129.857 132.197 130.042 132.197L135.865 136.18Z" fill="#F7B094"/>
<path d="M122.529 140.016C122.529 140.016 121.552 141.909 123.311 142.724C125.463 143.587 127.763 144.021 130.081 143.999C131.576 143.852 132.758 141.752 132.758 141.752L128.235 137.485H124.61L122.529 140.016Z" fill="#F7B094"/>
<path d="M122.265 140.938C122.529 140.016 125.098 140.507 126.701 140.546C127.873 140.546 128.518 140.271 128.88 139.369C129.241 138.466 127.531 137.044 127.199 137.485C126.867 137.926 127.815 138.574 127.844 139.163C127.873 139.751 126.163 139.957 124.854 139.957C123.654 140.004 122.456 140.119 121.269 140.301L122.265 140.938Z" fill="#E8987C"/>
<path d="M219.509 166.573L195.083 157.871C193.305 161.207 191.4 163.758 189.514 164.219C186.652 164.974 179.744 166.269 172.787 167.495L170.032 167.996C161.737 169.438 154.126 170.674 154.126 170.674V171.086V171.351L153.941 177.541V179.111C160.201 178.876 166.47 178.981 172.719 179.425C187.375 180.475 206.28 181.103 212.543 178.14C215.474 176.747 217.819 172.165 219.656 166.524L219.509 166.573Z" fill="url(#paint5_radial_302_10725)"/>
<path d="M195.044 157.871L219.509 166.573L218.395 169.85L194.184 159.421L195.044 157.871Z" fill="#F7B094"/>
<path d="M195.044 157.871C193.266 161.207 191.361 163.758 189.475 164.219C186.612 164.974 179.705 166.269 172.748 167.495C172.827 163.748 172.954 159.794 173.11 155.831C173.784 139.153 175.015 122.416 175.875 120.846C177.282 118.227 181.122 112.537 187.179 111.242V111.32C187.179 111.32 185.088 123.731 197.575 123.731C209.475 123.731 210.989 112.115 211.097 110.977C217.213 111.664 226.602 114.734 227.892 127.086C228.156 129.529 228.537 132.668 229.016 136.229L225.166 136.759C225.166 136.759 223.603 154.153 219.587 166.495H219.499L195.044 157.871Z" fill="#7361E0"/>
<path d="M194.79 155.605L204.561 131.864L197.36 156.566L194.79 155.605Z" fill="#644CC7"/>
<path d="M211.107 111.006H205.782C205.782 111.006 198.21 119.355 193.344 119.355C188.479 119.355 191.097 111.055 191.097 111.055H188.723C185.425 111.053 182.242 112.27 179.78 114.474C177.319 116.678 175.751 119.715 175.377 123.005C175.289 123.789 175.21 124.525 175.142 125.192C174.624 130.245 195.005 133.924 195.005 133.924L205.499 133.335L211.869 120.846L213.139 115.735L211.107 111.006Z" fill="#7361E0"/>
<path d="M146.877 320.304C147.346 322.855 149.114 324.67 151.654 324.229L185.557 317.871C185.761 317.835 185.956 317.758 186.13 317.645C186.305 317.532 186.455 317.386 186.572 317.214C186.689 317.043 186.771 316.849 186.814 316.645C186.856 316.442 186.857 316.231 186.818 316.027L186.261 313.005C186.261 313.005 150.609 319.274 146.857 320.314L146.877 320.304Z" fill="#F1F2F2"/>
<path d="M156.96 311.73L158.005 310.808L159.959 309.032L160.936 308.129L162.665 306.579L163.711 305.598L165.088 304.352C165.226 304.239 165.399 304.177 165.577 304.177C165.755 304.177 165.928 304.239 166.065 304.352C167.453 305.53 171.928 308.228 180.115 303.156C180.206 303.096 180.307 303.057 180.414 303.039C180.521 303.021 180.63 303.026 180.734 303.053C180.839 303.08 180.937 303.128 181.022 303.194C181.107 303.261 181.178 303.345 181.229 303.44L186.163 312.966C186.163 312.966 150.511 319.235 146.759 320.275C148.088 319.51 152.641 315.556 156.96 311.73Z" fill="#3D3D7A"/>
<path d="M93.4817 319.971C93.5403 322.571 94.9961 324.641 97.5852 324.572L132.055 323.728C132.262 323.724 132.467 323.679 132.657 323.596C132.847 323.512 133.019 323.392 133.162 323.241C133.306 323.091 133.418 322.914 133.493 322.719C133.568 322.525 133.604 322.318 133.599 322.109L133.521 319.039C133.521 319.039 97.3703 319.52 93.4622 319.951L93.4817 319.971Z" fill="#F1F2F2"/>
<path d="M104.796 313.123L105.978 312.378L108.225 310.935L109.349 310.209L111.303 308.964L112.485 308.189L114.048 307.207C114.202 307.111 114.385 307.074 114.564 307.101C114.743 307.127 114.906 307.218 115.025 307.355C116.217 308.738 120.233 312.113 129.095 308.414C129.194 308.372 129.3 308.35 129.408 308.35C129.516 308.351 129.622 308.373 129.721 308.416C129.82 308.459 129.909 308.522 129.983 308.601C130.056 308.68 130.113 308.773 130.15 308.875L133.501 319.068C133.501 319.068 97.3507 319.549 93.4426 319.981C94.7616 319.382 99.9203 316.204 104.796 313.123Z" fill="#3D3D7A"/>
<path d="M68.9484 179.111L50.5411 129.803H102.959L121.376 179.111H68.9484Z" fill="#ABB5BA"/>
<path d="M124.62 179.111H121.376L102.959 129.803L105.9 129.931L122.939 174.569L124.62 179.111Z" fill="#8495A0"/>
<path d="M123.594 179.111H158.269L158.171 176.001H122.89" fill="#8495A0"/>
<path d="M271.175 188.52H262.831V326.093H271.175V188.52Z" fill="#8495A0"/>
<path d="M225.909 188.52H217.565V326.093H225.909V188.52Z" fill="#ABB5BA"/>
<path d="M80.878 188.52H72.5341V326.093H80.878V188.52Z" fill="#8495A0"/>
<path d="M35.612 188.52H27.2682V326.093H35.612V188.52Z" fill="#ABB5BA"/>
<path d="M279.519 179.111H19.2761C17.0367 179.111 15.2214 180.934 15.2214 183.182V184.968C15.2214 187.217 17.0367 189.039 19.2761 189.039H279.519C281.758 189.039 283.573 187.217 283.573 184.968V183.182C283.573 180.934 281.758 179.111 279.519 179.111Z" fill="#141B56"/>
<path d="M59.2953 134.983L60.1844 137.387H70.6289L69.7398 134.983H59.2953Z" fill="#8495A0"/>
<path d="M163.291 146.628L162.548 148.09L173.11 159.049V155.831L163.291 146.628Z" fill="#E8987C"/>
</g>
<defs>
<radialGradient id="paint0_radial_302_10725" cx="0" cy="0" r="1" gradientUnits="userSpaceOnUse" gradientTransform="translate(199.089 110.467) scale(12.633 12.685)">
<stop stop-color="#FFC8AF"/>
<stop offset="1" stop-color="#FFBB9C"/>
</radialGradient>
<radialGradient id="paint1_radial_302_10725" cx="0" cy="0" r="1" gradientUnits="userSpaceOnUse" gradientTransform="translate(191.773 87.5187) rotate(-12.1985) scale(19.9156 19.9902)">
<stop stop-color="#FFC8AF"/>
<stop offset="1" stop-color="#FFBB9C"/>
</radialGradient>
<radialGradient id="paint2_radial_302_10725" cx="0" cy="0" r="1" gradientUnits="userSpaceOnUse" gradientTransform="translate(172.162 301.939) scale(7.94328 7.97598)">
<stop stop-color="#FFC8AF"/>
<stop offset="1" stop-color="#FFBB9C"/>
</radialGradient>
<radialGradient id="paint3_radial_302_10725" cx="0" cy="0" r="1" gradientUnits="userSpaceOnUse" gradientTransform="translate(121.874 303.94) scale(7.23004 7.25979)">
<stop stop-color="#FFC8AF"/>
<stop offset="1" stop-color="#FFBB9C"/>
</radialGradient>
<radialGradient id="paint4_radial_302_10725" cx="0" cy="0" r="1" gradientUnits="userSpaceOnUse" gradientTransform="translate(165.909 167.682) scale(40.4882 40.6549)">
<stop stop-color="#FFC8AF"/>
<stop offset="1" stop-color="#FFBB9C"/>
</radialGradient>
<radialGradient id="paint5_radial_302_10725" cx="0" cy="0" r="1" gradientUnits="userSpaceOnUse" gradientTransform="translate(165.909 167.682) scale(40.4882 40.6549)">
<stop stop-color="#FFC8AF"/>
<stop offset="1" stop-color="#FFBB9C"/>
</radialGradient>
<clipPath id="clip0_302_10725">
<rect width="310" height="334" fill="white"/>
</clipPath>
</defs>
</svg>
