<svg width="310" height="334" viewBox="0 0 310 334" fill="none" xmlns="http://www.w3.org/2000/svg">
<path d="M145.404 218.367C151.521 256.342 156.562 297.264 154.379 318.808C152.583 324.843 147.025 326.844 142.114 327.621L145.492 331.294L154.997 331.836L167.68 326.851C167.68 326.851 166.948 324.353 166.366 319.993C165.693 314.926 168.044 303.347 168.044 303.347C168.044 303.347 174.229 263.371 170.708 254.39C169.71 251.84 169.05 248.918 168.644 245.748C167.605 237.674 168.187 227.962 168.871 218.533C169.609 208.279 170.469 198.346 169.497 191.179C165.064 158.458 165.012 130.162 165.012 130.162H140.121C140.121 130.162 133.069 150.148 136.356 167.284C139.147 181.848 142.405 199.748 145.404 218.367Z" fill="#FFB27D"/>
<path d="M168.644 245.743C167.605 237.669 168.187 227.957 168.871 218.527L150.494 211.112L145.404 218.369C146.183 219.321 159.859 235.412 168.644 245.743Z" fill="#F3A36C"/>
<path d="M97.1324 105.058C97.1324 105.058 94.313 102.088 92.2966 100.616C90.2802 99.1435 84.613 97.6739 84.0361 100.144C83.7763 101.24 85.7719 103.669 87.2037 104.535C88.6354 105.401 88.8589 106.5 90.3842 108.047C91.9095 109.594 95.633 109.675 95.633 109.675L97.1324 105.058Z" fill="#FFB27D"/>
<path d="M179.956 80.5019C181.143 78.221 154.085 70.0044 153.657 92.5209C153.657 92.5209 102.968 91.2768 127.171 63.0968C135.551 53.3406 134.688 45.2717 134.446 37.7654C134.205 30.259 139.656 8.42157 158.417 10.6196C158.417 10.6196 163.331 8.62374 169.46 11.7963C183.401 19.015 214.642 88.7963 179.956 80.5019Z" fill="#233862"/>
<path d="M144.806 107.288C143.359 109.975 141.666 112.524 139.747 114.9C135.826 119.796 129.782 125.455 122.192 126.564C118.554 127.098 115.02 126.32 111.762 124.877H111.749C102.532 120.794 95.5993 111.398 95.5993 111.398C93.9753 106.979 96.6387 103.98 96.6387 103.98C96.6387 103.98 115.251 108.158 117.026 107.275C118.801 106.391 129.14 76.6737 131.601 72.9387C134.062 69.2036 142.462 67.283 142.462 67.283L144.806 107.288Z" fill="#56548C"/>
<path d="M139.747 114.9C135.826 119.796 129.782 125.455 122.192 126.564C118.554 127.098 115.02 126.32 111.762 124.877C112.12 124.923 121.327 126.059 124.998 119.509C128.74 112.829 132.794 102.218 138.349 105.756C140.76 107.29 140.654 111.087 139.747 114.9Z" fill="#444472"/>
<path d="M197.292 333.562H205.867C208.359 333.562 211.199 331.657 211.893 327.168C212.587 322.678 217.701 320.229 218.821 316.556C219.582 314.031 217.781 312.23 216.079 310.854C215.3 310.216 214.538 309.669 214.055 309.179C212.312 307.424 210.677 299.848 210.677 299.848L201.632 304.594C201.632 304.594 205.893 311.823 203.435 319.952C202.287 323.751 201.26 327.253 198.716 329.436C198.091 329.972 197.391 330.415 196.638 330.75C192.675 332.51 197.292 333.562 197.292 333.562Z" fill="#FFB27D"/>
<path d="M190.726 92.5131C191.012 97.413 191.012 102.325 190.726 107.225C190.409 112.544 185.01 119.667 184.248 121.432C182.328 125.854 180.163 126.572 180.163 126.572L163.409 130.67L157.515 132.108L138.939 126.572C138.939 126.572 130.476 103.013 133.875 89.75C137.273 76.4869 142.462 67.2827 142.462 67.2827C142.462 67.2827 163.822 61.7411 180.369 66.5622L190.726 92.5131Z" fill="#56548C"/>
<path d="M179.101 129.296C179.101 129.296 193.132 148.08 194.432 160.778C195.731 173.476 183.331 208.621 186.117 220.998C188.195 230.186 199.215 237.472 202.261 260.634C203.318 268.669 207.135 284.773 210.656 299.825L202.89 307.437C184.368 265.331 165.212 238.823 164.087 229.515C163.286 222.926 159.532 188.263 144.339 162.678C140.701 156.535 146.576 132.108 146.576 132.108L179.101 129.296Z" fill="#FFB27D"/>
<path d="M135.483 172.535C137.546 197.618 139.973 218.742 139.973 218.742C139.973 218.742 151.697 226.625 168.296 227.625C176.898 228.168 185.507 226.683 193.426 223.289C193.426 223.289 196.838 162.722 194.665 153.077C192.493 143.433 182.868 130.154 182.868 130.154L139.578 131.823C139.578 131.823 133.42 147.453 135.483 172.535Z" fill="#555788"/>
<path d="M138.65 125.74C138.65 125.74 142.346 128.653 149.681 128.801C158.446 128.977 180.161 126.572 180.161 126.572C180.759 128.355 181.072 130.22 181.089 132.1C181.089 132.1 154.558 138.775 139.196 133.075C139.196 133.075 137.214 129.356 138.65 125.74Z" fill="#424466"/>
<path d="M151.578 131.823C151.578 129.332 149.782 127.308 147.579 127.308C145.375 127.308 143.58 129.332 143.58 131.823C143.58 134.314 145.373 136.336 147.579 136.336C149.785 136.336 151.578 134.309 151.578 131.823ZM150.253 131.823C150.253 133.583 149.052 135.014 147.579 135.014C146.105 135.014 144.905 133.583 144.905 131.823C144.905 130.063 146.103 128.63 147.579 128.63C149.055 128.63 150.253 130.058 150.253 131.823V131.823Z" fill="white"/>
<path d="M208.713 130.909L181.539 154.513L149.149 117.411L176.323 93.8065L208.713 130.909Z" fill="#233862"/>
<path d="M174.034 130.994C174.034 130.994 164.076 132.155 164.108 134.511C164.139 136.867 166.589 141.711 167.81 141.932C169.032 142.152 175.912 135.382 175.912 135.382L174.034 130.994Z" fill="#FFB27D"/>
<path d="M177.362 66.0232C177.362 66.0232 190.656 66.9537 195.752 79.3097C200.847 91.6656 210.513 112.409 210.513 115.901C210.513 119.392 205.114 130.157 176.11 136.333C176.11 136.333 173.111 133.187 173.293 130.698C173.293 130.698 191.397 115.185 191.347 113.373C191.256 109.944 188.38 105.416 172.485 89.5558C168.164 85.2427 177.362 66.0232 177.362 66.0232Z" fill="#56548C"/>
<path d="M99.0526 140.452L59.2183 23.6597C59.0364 23.1284 58.7921 22.6229 59.3222 22.4285L59.8055 22.2523C60.3486 22.0553 60.5071 22.4052 60.7046 22.9469L103.166 138.059C103.36 138.589 103.345 139.173 103.124 139.692C102.903 140.211 102.493 140.627 101.976 140.856L100.994 141.294C100.812 141.374 100.615 141.416 100.416 141.416C100.217 141.417 100.02 141.376 99.8381 141.297C99.6557 141.218 99.4918 141.102 99.3566 140.957C99.2214 140.811 99.1179 140.639 99.0526 140.452Z" fill="#F9DDBF"/>
<path d="M93.6426 104.488C92.3859 104.425 91.1387 104.237 89.919 103.928C88.4119 103.534 86.4761 102.834 86.4761 102.834C85.338 103.661 89.2902 105.914 90.2984 107.453C91.1221 108.71 92.0576 109.073 94.3286 109.561L93.6426 104.488Z" fill="#FFB27D"/>
<path d="M157.313 333.22C151.775 332.536 153.238 333.946 145.474 333.998C137.71 334.049 135.057 331.465 134.69 330.369C134.363 329.384 138.107 328.588 142.114 327.647L142.257 327.748C145.754 329.459 149.654 330.184 153.534 329.845C158.75 329.366 164.082 327.238 167.68 326.877C167.899 328.054 168.12 329.257 168.018 330.475C167.738 333.912 162.852 333.912 157.313 333.22Z" fill="#233862"/>
<path d="M197.292 333.562H205.867C208.359 333.562 211.199 331.657 211.893 327.168C212.587 322.678 217.701 320.229 218.821 316.556C219.582 314.032 217.781 312.23 216.079 310.854C215.139 312.264 213.101 315.779 211.106 322.258C208.767 329.832 203.186 330.05 198.703 329.42C198.078 329.957 197.378 330.4 196.625 330.734C192.675 332.51 197.292 333.562 197.292 333.562Z" fill="#233862"/>
<path d="M175.273 65.383C173.947 65.1005 172.714 64.4867 171.69 63.599C170.667 62.7113 169.886 61.5789 169.421 60.3079C168.304 57.1845 167.415 52.5734 167.436 46.7959L166.594 46.9618L152.451 49.7559C152.451 49.7559 152.773 54.196 152.781 58.3795C152.781 58.4131 152.781 58.4468 152.781 58.4831C152.792 60.2503 152.224 61.9726 151.164 63.3887C150.104 64.8047 148.61 65.8371 146.908 66.3291C145.123 66.8474 155.426 80.3776 156.606 80.1106C159.061 79.5585 176.125 65.5722 175.273 65.383Z" fill="#FFB27D"/>
<path d="M152.451 49.7558C152.451 49.7558 152.773 54.1959 152.781 58.3793C160.696 58.1564 164.879 50.9533 166.594 46.9617L152.451 49.7558Z" fill="#E8945B"/>
<path d="M149.808 53.7164C149.808 53.7164 168.533 54.0249 168.546 42.3895C168.559 30.7541 170.986 22.9497 159.03 22.268C147.075 21.5863 144.739 26.016 143.795 29.8987C142.852 33.7815 144.944 53.3354 149.808 53.7164Z" fill="#FFB27D"/>
<path d="M150.499 21.9827C150.499 21.9827 155.629 35.6347 163.492 37.6512C171.355 39.6678 174.774 37.5683 174.774 37.5683C174.774 37.5683 168.738 32.7835 167.499 24.4347C167.491 24.4347 154.369 15.4846 150.499 21.9827Z" fill="#233862"/>
<path d="M151.77 23.0896C151.77 23.0896 147.969 24.5151 146.404 27.2756C144.514 30.5054 143.632 34.2247 143.873 37.9571C143.873 37.9571 140.009 28.6779 144.351 23.4421C148.953 17.8641 151.77 23.0896 151.77 23.0896Z" fill="#233862"/>
<path d="M156.608 80.1106C156.608 80.1106 169.276 66.6167 169.751 61.0984C169.751 61.0984 172.979 61.9952 176.767 65.681C176.767 65.681 173.724 73.2885 170.089 75.7897C168.475 75.5481 166.891 75.1372 165.363 74.5637C166.09 75.7691 166.881 76.9354 167.732 78.0577C167.732 78.0577 162.003 81.3106 156.608 80.1106Z" fill="#D7E6FF"/>
<path d="M152.17 61.6168C152.17 61.6168 147.173 70.7224 156.608 80.1106C156.608 80.1106 150.689 78.983 147.646 74.8177C147.646 74.8177 148.59 72.5834 149.393 72.0651C149.393 72.0651 147.613 71.36 146.498 72.3942C146.498 72.3942 145.82 67.5109 146.498 66.0232C147.176 64.5354 150.705 61.5805 152.17 61.6168Z" fill="#D7E6FF"/>
<path d="M157.552 80.1107C157.551 79.9247 157.495 79.743 157.391 79.5886C157.288 79.4343 157.14 79.3141 156.968 79.2432C156.795 79.1724 156.606 79.1542 156.423 79.1908C156.24 79.2274 156.072 79.3172 155.941 79.4489C155.809 79.5805 155.719 79.7482 155.683 79.9306C155.647 80.1131 155.666 80.3021 155.737 80.4739C155.809 80.6457 155.93 80.7925 156.085 80.8957C156.24 80.999 156.422 81.0541 156.608 81.0541C156.733 81.0541 156.855 81.0297 156.97 80.9823C157.085 80.9348 157.189 80.8653 157.276 80.7776C157.364 80.69 157.433 80.586 157.481 80.4715C157.528 80.3571 157.552 80.2344 157.552 80.1107V80.1107Z" fill="white"/>
<path d="M152.521 93.4619C152.521 93.2758 152.466 93.0939 152.362 92.9392C152.258 92.7844 152.111 92.6638 151.939 92.5926C151.766 92.5214 151.577 92.5028 151.394 92.5391C151.211 92.5754 151.043 92.665 150.911 92.7966C150.779 92.9282 150.689 93.0958 150.653 93.2783C150.616 93.4608 150.635 93.65 150.706 93.8219C150.778 93.9939 150.899 94.1408 151.054 94.2442C151.209 94.3476 151.391 94.4028 151.578 94.4028C151.828 94.4028 152.068 94.3036 152.245 94.1272C152.422 93.9507 152.521 93.7114 152.521 93.4619V93.4619Z" fill="white"/>
<path d="M151.578 109.099C151.576 108.914 151.519 108.733 151.414 108.579C151.309 108.426 151.161 108.307 150.988 108.237C150.816 108.168 150.627 108.151 150.444 108.188C150.262 108.226 150.095 108.316 149.964 108.448C149.833 108.58 149.744 108.748 149.709 108.93C149.673 109.112 149.693 109.301 149.764 109.472C149.836 109.643 149.957 109.79 150.112 109.893C150.267 109.996 150.448 110.05 150.635 110.05C150.759 110.05 150.883 110.025 150.998 109.977C151.113 109.929 151.217 109.859 151.305 109.77C151.392 109.682 151.461 109.577 151.508 109.462C151.555 109.347 151.579 109.224 151.578 109.099V109.099Z" fill="white"/>
<path d="M135.483 172.535C137.546 197.618 139.973 218.743 139.973 218.743C139.973 218.743 151.697 226.625 168.296 227.625C168.003 227.516 158.568 223.888 151.586 215.733C144.484 207.452 135.483 172.535 135.483 172.535Z" fill="#424466"/>
</svg>
