<svg width="310" height="334" viewBox="0 0 310 334" fill="none" xmlns="http://www.w3.org/2000/svg">
<path d="M102.879 116.382C102.879 116.382 105.969 129.682 114.926 129.682C122.615 129.682 133.165 112.368 133.165 112.368L102.879 116.382Z" fill="#644CC7"/>
<path d="M205.869 312.816L200.107 316.762C200.107 316.762 172.389 287.341 165.686 259.133C164.492 254.099 164.009 249.129 164.521 244.416C164.521 244.416 164.116 243.139 163.408 240.88C163.376 240.783 163.346 240.682 163.314 240.581C163.004 239.606 162.632 238.423 162.22 237.103C160.876 232.842 159.029 227.008 156.927 220.368C152.082 205.092 141.003 170.621 136.268 156.285L170.297 144.025C170.297 144.025 174.17 152.804 179.718 176.663C180.573 179.777 181.431 183.222 182.231 186.973C183.138 191.224 183.986 195.872 184.691 200.89C186.012 210.357 186.694 219.901 186.731 229.459C186.75 233.73 186.646 238.156 186.404 242.726C186.218 246.074 186.731 250.527 187.654 255.616C191.935 278.829 205.869 312.816 205.869 312.816Z" fill="#56548C"/>
<path d="M224 327H196.488C196.488 327 195.46 322.628 197.264 319.655C198.863 317.025 198.243 315.527 197.069 313.349C198.528 313.978 200.11 314.274 201.699 314.217C203.07 314.139 204.522 313.518 205.791 312.784C206.976 314.129 212.047 319.853 213.623 320.987C215.427 322.274 223.445 321.813 224 327Z" fill="#233862"/>
<path d="M184.698 200.89L163.323 240.581C163.013 239.606 162.641 238.423 162.23 237.103C160.886 232.842 159.039 227.008 156.937 220.368C152.091 205.093 141.013 170.621 136.278 156.285L170.307 144.025C170.307 144.025 174.17 152.804 179.718 176.663C180.573 179.777 181.431 183.222 182.231 186.973C183.144 191.224 183.993 195.872 184.698 200.89Z" fill="#3D3D7A"/>
<path d="M135.723 318.423C135.723 318.423 133.821 323.077 135.612 327H150.577C150.577 327 150.904 323.461 145.457 319.359C141.342 316.252 135.723 318.423 135.723 318.423Z" fill="#233862"/>
<path d="M152.01 15.4515C152.01 14.7105 152.401 6.71179 164.606 6C164.606 6 158.615 6.85805 157.642 9.51344C157.642 9.51344 161.653 6.16576 165.007 7.13106C168.362 8.09636 170.46 13.8589 170.525 15.77C170.591 17.6811 168.894 23.8954 166.789 24.4642C165.949 24.6541 165.079 24.6751 164.231 24.526C164.857 25.4513 165.428 26.4129 165.941 27.4056C171.057 37.2537 166.642 48.8568 162.491 47.8817C159.828 47.2544 158.21 51.8502 158.21 51.8502L132.6 29.9115C132.6 29.9115 141.571 10.2252 152.01 15.4515Z" fill="#2C3A64"/>
<path d="M135.909 82.1028C138.751 84.0529 142.311 85.678 146.779 86.7116C163.532 90.5663 169.948 76.4638 172.366 66.7815C170.615 65.8151 168.681 65.224 166.688 65.0459C165.477 64.9029 164.204 64.8086 163.15 64.7566C161.268 63.3201 158.464 57.447 157.844 48.327L157.058 48.5383L143.852 52.1525C143.852 52.1525 144.459 56.3355 144.756 60.2779C144.984 63.3721 145.02 66.3265 144.429 67.048C143.398 67.2723 142.781 67.4153 142.781 67.4153C140.025 72.0816 137.724 76.9998 135.909 82.1028Z" fill="#FFB27D"/>
<path d="M143.852 52.1524C143.852 52.1524 144.459 56.3289 144.752 60.2778C152.235 59.5336 155.707 52.4384 157.058 48.548L143.852 52.1524Z" fill="#ED985F"/>
<path d="M143.698 58.4123C143.698 58.4123 160.922 54.0051 158.001 43.377C155.08 32.749 155.335 24.9908 144.214 27.3537C133.093 29.7165 132.075 34.3578 132.189 38.1475C132.303 41.9372 139.143 59.3029 143.698 58.4123Z" fill="#FFB27D"/>
<path d="M131.07 32.0923C132.838 28.1661 135.034 28.3221 136.421 28.9754C144.377 21.2823 152.509 27.2171 152.509 27.2171C155.772 34.5365 162.491 37.3966 162.491 37.3966C162.491 37.3966 159.881 40.1755 152.183 40.299C149.827 40.338 147.431 39.324 145.242 37.8841C147.995 40.4571 151.088 42.6441 154.434 44.3845C144.736 42.7789 137.994 31.8031 137.302 30.6363C136.513 31.8583 135.018 34.4552 134.933 36.6231C134.826 39.5482 135.978 45.2458 134.281 45.5025C134.294 45.4928 128.417 37.9784 131.07 32.0923Z" fill="#2C3A64"/>
<path d="M138.745 66.5214C138.745 66.5214 167.67 59.527 180.25 69.8593L173.962 157.169L117.39 143.557C117.39 143.557 118.979 138.032 129.83 123.341C140.68 108.65 135.961 87.1015 138.745 66.5214Z" fill="#FFB27D"/>
<path d="M155.609 147.451C155.609 147.451 155.577 147.747 155.518 148.309C155.492 148.553 155.456 148.845 155.42 149.19C155.178 151.465 154.718 155.794 154.115 161.439C152.565 176.247 150.127 200.029 148.469 218.802C147.164 233.48 146.345 245.096 146.789 246.961C148.13 252.574 146.789 319.671 146.789 319.671C141.982 321.965 134.692 319.671 134.692 319.671C134.692 319.671 121.884 259.218 123.678 250.803C125.473 242.388 122.478 235.225 122.478 235.225C112.541 189.098 113.631 163.536 115.605 151.299C115.985 148.769 116.554 146.27 117.305 143.824C117.493 143.197 117.721 142.582 117.987 141.984C139.923 136.111 155.609 147.451 155.609 147.451Z" fill="#56548C"/>
<path d="M184.149 94.7622C182.753 105.267 177.166 118.118 175.169 125.038C175.169 125.038 178.507 149.056 175.322 155.654C174.96 156.405 174.513 156.932 173.965 157.169C162.168 162.285 116.232 157.315 114.29 142.543C113.585 137.18 131.788 118.316 132.848 116.028C133.289 115.082 133.759 112.014 131.624 105.654C128.599 114.956 111.905 112.281 111.905 112.281C113.863 108.939 118.757 85.8373 124.197 75.4075C128.296 67.5713 139.254 66.4337 139.254 66.4337C139.254 66.4337 143.822 73.6296 154.823 72.6091C165.823 71.5885 167.853 64.8737 167.853 64.8737C167.853 64.8737 177.62 66.1737 180.632 68.5854C181.134 69.0046 185.98 81.001 184.149 94.7622Z" fill="#644CC7"/>
<path d="M175.169 125.038C175.169 125.038 178.507 149.056 175.322 155.654C166.727 151.358 159.956 139.728 161.519 126.786C162.674 117.214 164.391 115.034 169.533 109.56C173.312 105.537 182.045 105.309 181.359 107.223C179.323 112.931 176.223 121.381 175.169 125.038Z" fill="#5A45B3"/>
<path d="M139.296 96.6311L158.993 128.106H125.48L106.713 97.3136L139.296 96.6311Z" fill="#1C468A"/>
<path d="M157.968 126.526L158.308 125.424L139.668 95.6429L139.296 96.631L157.968 126.526Z" fill="#EFDECE"/>
<path d="M139.668 95.6429L108.096 96.5367L106.713 97.3135L139.296 96.631L139.668 95.6429Z" fill="#FCECDB"/>
<path d="M106.713 97.3135L89 87.7645L109.646 120.058L125.48 128.106L106.713 97.3135Z" fill="#163560"/>
<path d="M200.439 119.369C198.544 120.231 193.675 125.944 191.935 126.52C184.12 129.12 150.861 122.194 150.861 122.194L151.892 116.389C151.892 116.389 184.525 117.253 188.114 116.298C188.79 116.116 192.317 110.62 193.662 109.833L200.439 119.369Z" fill="#FFB27D"/>
<path d="M151.892 116.395C151.892 116.395 147.957 113.204 145.297 113.925C142.638 114.647 138.722 117.998 137.27 118.8C135.818 119.603 131.869 122.434 133.869 124.15C135.87 125.866 142.099 124.391 144.57 123.078C147.04 121.765 150.864 122.21 150.864 122.21L151.892 116.395Z" fill="#FFB27D"/>
<path d="M146.051 113.821C146.051 113.821 141.264 113.256 139.959 113.282C138.653 113.308 139.006 113.59 139.727 114.601C140.448 115.612 142.941 115.999 143.055 116.35C143.17 116.701 146.051 113.821 146.051 113.821Z" fill="#FFB27D"/>
<path d="M167.836 64.8737C167.836 64.8737 182.022 66.5507 185.928 72.6091C190.868 80.2697 202.525 110.786 202.149 118.475C202.149 118.475 193.626 132.923 164.4 130.608C164.4 130.608 161.362 119.912 167.51 116.382C167.51 116.382 182.521 113.724 184.247 112.206L172.01 90.0527L167.836 64.8737Z" fill="#644CC7"/>
<path d="M111.249 108.819C110.811 107.038 106.912 108.15 105.6 109.173C105.212 109.513 104.876 109.907 104.602 110.343C104.559 110.044 104.523 109.762 104.504 109.537C104.429 108.702 103.453 107.204 103.198 108.325C102.944 109.446 102.546 114.159 102.546 114.159C102.5 117.955 104.951 119.522 106.524 118.287C108.096 117.052 111.689 110.597 111.249 108.819Z" fill="#FFB27D"/>
</svg>
