<svg width="24" height="24" viewBox="0 0 24 24" fill="none" xmlns="http://www.w3.org/2000/svg">
<circle cx="12" cy="12" r="12" fill="white"/>
<path d="M8.40909 18V6.36364H12.4773C13.2879 6.36364 13.9564 6.50379 14.483 6.78409C15.0095 7.06061 15.4015 7.43371 15.6591 7.90341C15.9167 8.36932 16.0455 8.88636 16.0455 9.45455C16.0455 9.95455 15.9564 10.3674 15.7784 10.6932C15.6042 11.0189 15.3731 11.2765 15.0852 11.4659C14.8011 11.6553 14.4924 11.7955 14.1591 11.8864V12C14.5152 12.0227 14.8731 12.1477 15.233 12.375C15.5928 12.6023 15.8939 12.928 16.1364 13.3523C16.3788 13.7765 16.5 14.2955 16.5 14.9091C16.5 15.4924 16.3674 16.017 16.1023 16.483C15.8371 16.9489 15.4186 17.3182 14.8466 17.5909C14.2746 17.8636 13.5303 18 12.6136 18H8.40909ZM9.81818 16.75H12.6136C13.5341 16.75 14.1875 16.572 14.5739 16.2159C14.964 15.8561 15.1591 15.4205 15.1591 14.9091C15.1591 14.5152 15.0587 14.1515 14.858 13.8182C14.6572 13.4811 14.3712 13.2121 14 13.0114C13.6288 12.8068 13.1894 12.7045 12.6818 12.7045H9.81818V16.75ZM9.81818 11.4773H12.4318C12.8561 11.4773 13.2386 11.3939 13.5795 11.2273C13.9242 11.0606 14.197 10.8258 14.3977 10.5227C14.6023 10.2197 14.7045 9.86364 14.7045 9.45455C14.7045 8.94318 14.5265 8.50947 14.1705 8.15341C13.8144 7.79356 13.25 7.61364 12.4773 7.61364H9.81818V11.4773Z" fill="#644CC7"/>
</svg>
