<svg width="640" height="340" viewBox="0 0 640 340" fill="none" xmlns="http://www.w3.org/2000/svg">
<g clip-path="url(#clip0_231_26649)">
<path d="M205.337 290.607C204.815 293.277 204.45 295.976 204.246 298.689C202.859 325.816 181.506 387.845 177.687 389.293C171.778 391.534 162.472 386.775 157.604 385.214C155.586 384.567 154.223 382.524 154.679 380.45C165.255 331.628 169.141 261.323 170.558 219.702C171.272 198.72 174.858 184.254 174.858 184.254C174.858 184.254 226.937 170.301 227.246 187.951C227.509 203.575 209.984 264.836 205.337 290.607Z" fill="#3A3D68"/>
<path d="M205.337 290.607L170.545 219.686C171.26 198.703 174.845 184.238 174.845 184.238C174.845 184.238 226.924 170.284 227.234 187.935C227.509 203.575 209.984 264.836 205.337 290.607Z" fill="#33364F"/>
<path d="M193.75 188.014L221.283 388.411C221.283 388.411 233.376 391.349 242.778 388.999C242.778 388.999 250.839 282.407 250.166 256.653C249.493 230.899 255.954 187.704 248.695 182.941C241.437 178.178 193.75 188.014 193.75 188.014Z" fill="#3A3D68"/>
<path d="M254.065 184.674C254.128 185.552 253.888 186.426 253.386 187.148C252.884 187.87 252.15 188.397 251.307 188.64C247.467 189.76 243.037 190.537 234.496 192.316C223.938 194.453 213.195 195.537 202.425 195.551C181.335 195.686 173.353 188.384 173.353 188.384C172.442 188.405 173.83 183.969 175.083 162.894C175.501 155.76 175.919 146.704 176.207 135.268C176.475 124.974 176.655 112.75 176.671 98.2464C176.696 80.7972 203.586 62.0261 204.084 62.0261C204.084 64.544 208.028 69.1602 214.112 69.5799C221.321 70.0541 230.163 66.4535 230.163 62.2821C230.163 62.2401 243.192 83.2144 247.818 105.565C248.407 108.398 248.862 111.386 249.226 114.533C250.304 124.013 249.251 117.244 254.065 184.674Z" fill="white"/>
<path d="M204.079 62.0259C204.079 62.0259 179.074 61.8119 173.052 70.2889C167.031 78.7659 153.83 124.365 160.725 139.532C167.62 154.698 180.499 133.237 187.649 123.958C194.798 114.68 204.079 62.0259 204.079 62.0259Z" fill="white"/>
<path d="M203.824 58.1945V60.7879C203.824 60.7879 203.122 68.9082 213.076 70.0917C223.03 71.2751 230.443 68.6019 230.171 62.3365C229.277 57.4853 228.424 52.4788 228.358 48.4879C228.335 46.8595 228.452 45.2322 228.709 43.6241L209.42 43.238L203.737 44.1697L203.824 58.1945Z" fill="#FFB27D"/>
<path d="M203.749 44.1487L203.824 58.1945C206 59.2221 208.374 59.7538 210.778 59.7514C219.641 59.7514 225.374 53.2216 228.37 48.4838C228.347 46.8554 228.465 45.2281 228.721 43.62L209.432 43.2339L203.749 44.1487Z" fill="#E2915A"/>
<path d="M230.2 40.4852C227.961 52.5838 212.42 52.1852 205.705 51.4256C203.812 51.2158 202.625 50.9724 202.625 50.9724C200.494 50.4016 199.303 47.0276 198.752 42.6129C197.653 33.8757 199.04 21.0469 200.511 17.7652C202.721 12.8259 206.887 7.48788 222.541 11.3403C238.194 15.1927 233.071 24.9874 230.2 40.4852Z" fill="#FFB27D"/>
<path d="M178.506 96.0095C178.506 96.0095 168.819 117.458 169.116 123.891C172.287 123.843 175.449 124.25 178.506 125.1C186.069 127.366 178.506 96.0095 178.506 96.0095Z" fill="#EBF3FF"/>
<path d="M195.705 6.24986C200.886 5.65656 205.947 4.2814 210.719 2.17083C217.317 -0.712193 225.637 2.46039 228.337 3.8914C228.243 3.30465 228.019 2.74666 227.681 2.25895C227.681 2.25895 228.892 3.11924 229.072 4.32784C229.198 4.42017 229.252 4.48311 229.218 4.5041C229.185 4.52508 230.593 4.25231 231.479 4.65098C231.479 4.65098 230.861 4.56285 230.643 4.96152C230.617 5.00509 230.583 5.04348 230.543 5.07483C240.831 10.0645 241.784 26.3932 238.483 30.1743C234.484 34.7191 228.575 44.8328 228.575 44.8328C228.575 44.8328 227.956 42.5373 228.684 38.538C229.411 34.5387 225.967 34.5345 221.622 32.7174C217.276 30.9003 220.894 25.8099 217.096 22.7171C213.298 19.6242 199.349 21.4581 199.545 19.0829C194.364 17.186 195.705 6.78281 195.705 6.24986Z" fill="#33364F"/>
<path d="M233.351 136.191C229.269 152.654 185.116 161.165 175.088 162.894C175.505 155.76 175.923 146.704 176.212 135.268L233.351 136.191Z" fill="#EBF3FF"/>
<path d="M223.661 141.542C224.079 141.542 233.476 140.136 235.161 139.288C236.845 138.441 244.538 127.458 239.498 124.642C234.458 121.827 220.928 133.094 220.928 133.094L223.661 141.542Z" fill="#FFB27D"/>
<path d="M166.517 144.807C166.517 144.807 202.872 146.788 227.238 141.542C227.238 141.542 227.852 134.467 220.188 131.323C220.188 131.323 182.183 123.237 173.052 125.49C163.922 127.744 166.517 144.807 166.517 144.807Z" fill="white"/>
<path d="M249.961 116.17C242.44 125.301 232.566 132.754 221.697 134.5C219.553 130.819 218.613 126.555 219.01 122.309C219.286 118.994 220.376 115.175 222.967 111.125C223.816 109.756 224.531 108.307 225.102 106.799C231.032 91.5905 230.15 62.2693 230.15 62.2693C230.15 62.2693 255.352 64.9215 263.204 76.1892C268.013 83.1009 261.879 101.717 249.961 116.17Z" fill="white"/>
<path d="M205.705 51.4255C203.812 51.2157 202.625 50.9723 202.625 50.9723C200.494 50.4016 199.303 47.0275 198.752 42.6128C202.746 43.6032 204.577 46.7044 205.341 48.0221C205.688 48.618 205.755 49.9483 205.705 51.4255Z" fill="#E2915A"/>
<path d="M195.563 58.2701C195.563 58.2701 186.859 43.8466 193.628 43.2171C200.398 42.5877 203.114 47.1913 204.075 48.8783C205.036 50.5653 203.82 58.1946 203.82 58.1946L195.563 58.2701Z" fill="#FFB27D"/>
<path d="M228.721 121.827C228.462 123.557 227.963 125.242 227.238 126.833C225.918 129.734 224.034 132.341 221.697 134.5C199.094 124.252 194.535 89.0642 193.754 69.735C193.445 61.963 193.754 56.7509 193.754 56.7509C203.95 53.3601 206.816 59.2688 206.816 59.2688C206.816 59.2688 218.859 88.0235 225.102 106.816C227.488 113.987 229.026 119.724 228.721 121.827Z" fill="white"/>
<path d="M249.961 116.17C242.44 125.301 232.566 132.754 221.697 134.5C199.094 124.252 194.535 89.0643 193.754 69.7351C193.754 69.7351 204.451 108.696 219.01 122.309C221.638 124.777 224.4 126.409 227.242 126.833C227.242 126.833 245.603 121.625 249.452 116.719C249.588 116.507 249.76 116.321 249.961 116.17Z" fill="#EBF3FF"/>
<path d="M587.036 49.7051C580.35 46.222 574.998 48.4084 574.998 48.4084C554.522 45.9996 548.576 69.9492 548.856 78.2038C549.136 86.4583 550.067 95.3004 540.916 106.006C514.532 136.934 569.787 138.298 569.787 138.298C570.255 113.589 599.748 122.607 598.457 125.108C636.287 134.211 602.238 57.624 587.036 49.7051Z" fill="#555788"/>
<path d="M508.13 152.722C508.13 152.722 504.536 147.224 501.636 147.115C498.736 147.006 493.371 145.499 493.797 146.578C494.223 147.656 497.558 147.761 497.88 148.408C498.201 149.054 492.94 150.027 491.436 150.137C489.932 150.246 486.392 150.137 486.497 150.888C486.601 151.639 492.886 154.77 497.315 154.341C501.745 153.913 507.219 155.634 507.219 155.634L508.13 152.722Z" fill="#FFB27D"/>
<path d="M560.159 154.501C558.586 157.45 556.745 160.247 554.66 162.856C550.385 168.232 543.795 174.443 535.521 175.668C531.568 176.251 527.703 175.4 524.151 173.813C514.122 169.336 506.546 159.033 506.546 159.033C506.014 157.695 505.838 156.24 506.036 154.812C506.234 153.385 506.798 152.033 507.675 150.892C507.675 150.892 527.962 155.474 529.897 154.505C531.832 153.536 543.102 120.933 545.776 116.824C548.45 112.716 557.61 110.597 557.61 110.597L560.159 154.501Z" fill="#B0D4FF"/>
<path d="M554.66 162.856C550.385 168.232 543.795 174.443 535.521 175.668C531.568 176.251 527.703 175.4 524.151 173.813C524.544 173.868 534.598 175.11 538.58 167.938C542.658 160.603 547.071 148.961 553.134 152.831C555.767 154.505 555.633 158.668 554.66 162.856Z" fill="#91B8EF"/>
<path d="M608.243 204.41C601.085 188.287 596.706 183.662 597.541 178.656C598.164 174.934 595.648 109.216 595.648 109.216C594.813 108.952 593.095 108.717 592.163 108.507C590.718 108.196 589.375 107.522 588.26 106.548C587.145 105.574 586.294 104.332 585.787 102.938C584.567 99.5094 583.601 94.4525 583.622 88.1116L582.703 88.292L567.288 91.3555C567.288 91.3555 567.639 96.2319 567.647 100.819V100.936C567.659 102.875 567.041 104.765 565.886 106.319C564.732 107.873 563.104 109.007 561.249 109.547L557.606 110.592C557.606 110.592 551.943 126.825 550.861 143.502C549.779 160.179 561.158 167.422 550.778 200.747C540.18 234.785 612.2 213.319 608.243 204.41Z" fill="#FFB27D"/>
<path d="M567.288 91.3555C567.288 91.3555 567.639 96.2318 567.647 100.819C576.276 100.575 580.835 92.6732 582.69 88.292L567.288 91.3555Z" fill="#E8945B"/>
<path d="M564.404 95.7032C564.404 95.7032 584.817 96.0431 584.834 83.2731C584.851 70.503 587.492 61.9463 574.458 61.1909C561.425 60.4355 558.889 65.3035 557.852 69.563C556.816 73.8225 559.11 95.2877 564.404 95.7032Z" fill="#FFB27D"/>
<path d="M565.161 60.8761C565.161 60.8761 570.752 75.8577 579.327 78.0819C587.901 80.3061 591.625 77.9896 591.625 77.9896C587.395 74.2549 584.589 69.161 583.685 63.5787C583.685 63.5787 569.377 53.7462 565.161 60.8761Z" fill="#555788"/>
<path d="M566.544 62.093C566.544 62.093 562.403 63.65 560.694 66.6841C558.635 70.2303 557.674 74.3124 557.936 78.4092C557.936 78.4092 553.724 68.2242 558.458 62.4623C563.477 56.3564 566.544 62.093 566.544 62.093Z" fill="#555788"/>
<path d="M610.216 138.285C610.527 143.664 610.527 149.055 610.216 154.434C609.869 160.271 603.989 168.093 603.154 170.028C601.064 174.879 598.703 175.668 598.703 175.668L580.421 180.163L573.999 181.741L553.745 175.668C553.745 175.668 544.522 149.809 548.225 135.256C551.927 120.702 557.589 110.593 557.589 110.593C557.589 110.593 574.112 126.842 595.615 109.216L610.216 138.285Z" fill="#B0D4FF"/>
<path d="M604.871 156.817C604.524 162.655 603.989 168.093 603.154 170.028C601.064 174.879 598.703 175.668 598.703 175.668L580.421 180.163L572.482 177.821C572.482 177.821 598.962 173.792 596.029 150.913L604.871 156.817Z" fill="#F2CCAA"/>
<path d="M555.048 179.592C555.048 179.592 545.019 210.944 544.376 221.616C543.732 232.288 563.548 373.249 564.346 378.147C565.098 382.763 570.831 385.738 570.831 385.738C570.831 385.738 573.468 387.299 577.229 386.229C582.448 384.752 584.099 382.977 584.099 382.977C584.099 382.977 591.904 282.449 587.074 246.539C584.133 224.332 582.502 201.971 582.189 179.571L555.048 179.592Z" fill="#ED7D2B"/>
<path d="M597.554 178.656C597.554 178.656 612.852 199.274 614.269 213.206C615.685 227.139 616.504 276.091 619.542 289.675C622.58 303.259 633.75 329.404 633.75 371.776C633.75 371.776 632.588 374.202 629.007 375.499C627.636 375.961 626.241 376.347 624.828 376.657C623.393 376.985 621.889 376.819 620.559 376.185C619.228 375.551 618.149 374.486 617.495 373.161C609.948 357.898 585.908 308.677 584.675 298.463C583.802 291.232 576.209 243.379 559.653 215.296C555.675 208.556 562.089 181.745 562.089 181.745L597.554 178.656Z" fill="#F99746"/>
<path d="M553.448 174.737C553.448 174.737 557.476 177.934 565.474 178.094C575.027 178.287 598.699 175.647 598.699 175.647C599.351 177.604 599.693 179.652 599.71 181.715C599.71 181.715 570.798 189.038 554.046 182.781C554.046 182.802 551.885 178.723 553.448 174.737Z" fill="#33364F"/>
<path d="M563.18 186.382C560.777 186.382 558.822 184.158 558.822 181.426C558.822 178.694 560.777 176.47 563.18 176.47C565.583 176.47 567.539 178.694 567.539 181.426C567.539 184.158 565.583 186.382 563.18 186.382ZM563.18 177.922C561.576 177.922 560.255 179.495 560.255 181.426C560.255 183.356 561.563 184.93 563.18 184.93C564.797 184.93 566.105 183.356 566.105 181.426C566.105 179.495 564.789 177.922 563.18 177.922Z" fill="white"/>
<path d="M594.51 139.678L564.888 165.583L600.198 206.304L629.82 180.399L594.51 139.678Z" fill="#555788"/>
<path d="M592.017 180.519C592.017 180.519 581.153 181.778 581.199 184.38C581.245 186.982 583.902 192.282 585.244 192.521C586.585 192.761 594.077 185.333 594.077 185.333L592.017 180.519Z" fill="#FFB27D"/>
<path d="M595.649 109.216C595.649 109.216 610.14 110.236 615.706 123.795C621.272 137.354 631.799 160.124 631.799 163.956C631.799 167.787 625.911 179.592 594.295 186.382C594.295 186.382 591.027 182.928 591.223 180.196C591.223 180.196 610.959 163.171 610.905 161.182C610.805 157.405 607.671 152.449 590.346 135.042C585.62 130.308 595.649 109.216 595.649 109.216Z" fill="#B0D4FF"/>
<path d="M506.922 140.245L509.521 149.364C509.557 149.502 509.557 149.646 509.521 149.784C509.429 150.078 509.261 150.341 509.034 150.549C508.807 150.756 508.53 150.899 508.23 150.963L485.753 157.422C485.464 157.527 485.152 157.552 484.849 157.496C484.547 157.44 484.264 157.304 484.031 157.103C483.939 157.003 483.872 156.882 483.835 156.75L481.236 147.635C481.056 147.01 481.629 146.301 482.514 146.045L504.987 139.586C505.882 139.326 506.743 139.624 506.922 140.245Z" fill="#CDE0FB"/>
<path d="M509.534 149.776C509.442 150.069 509.274 150.333 509.047 150.54C508.82 150.747 508.542 150.89 508.243 150.955L485.765 157.413C485.476 157.518 485.164 157.544 484.862 157.488C484.559 157.432 484.277 157.296 484.044 157.094L496.058 148.601L509.534 149.776Z" fill="#BED7FB"/>
<path d="M506.922 140.245L496.104 150.132L481.386 148.093L481.252 147.627C481.073 147.002 481.645 146.292 482.531 146.036L505.004 139.578C505.882 139.326 506.743 139.624 506.922 140.245Z" fill="#DFEBFD"/>
<path d="M295.367 402.608H295.217C295.007 402.608 294.8 402.566 294.607 402.485C294.414 402.403 294.24 402.283 294.094 402.133C293.948 401.982 293.833 401.804 293.757 401.608C293.681 401.412 293.644 401.203 293.65 400.993L296.027 297.41L303.039 296.57L297.06 400.993C297.037 401.428 296.849 401.839 296.534 402.139C296.219 402.44 295.802 402.608 295.367 402.608Z" fill="#B0D4FF"/>
<path d="M254.516 402.608H254.37C254.16 402.608 253.953 402.566 253.76 402.485C253.567 402.403 253.392 402.283 253.245 402.133C253.099 401.982 252.984 401.804 252.907 401.608C252.831 401.412 252.794 401.203 252.799 400.993L255.181 297.41L262.188 296.57L256.213 400.984C256.191 401.422 256.003 401.834 255.688 402.137C255.372 402.439 254.952 402.608 254.516 402.608Z" fill="#95C0F4"/>
<path d="M367.241 402.608H367.391C367.6 402.608 367.807 402.565 368 402.484C368.193 402.402 368.367 402.282 368.513 402.131C368.659 401.981 368.774 401.803 368.85 401.607C368.926 401.412 368.963 401.203 368.958 400.993L366.581 297.401L359.569 296.562L365.548 400.976C365.567 401.415 365.753 401.829 366.068 402.133C366.384 402.438 366.804 402.608 367.241 402.608Z" fill="#B0D4FF"/>
<path d="M249.886 290.98V219.996C249.891 214.003 252.263 208.257 256.483 204.02C260.703 199.783 266.425 197.401 272.393 197.398H323.314C329.287 197.398 335.015 199.78 339.238 204.022C343.461 208.263 345.833 214.015 345.833 220.013V293.704L249.886 290.98Z" fill="#B0D4FF"/>
<path d="M249.886 290.98H354.955V302.185H256.635C254.843 302.182 253.126 301.464 251.861 300.191C250.595 298.917 249.885 297.19 249.886 295.391V290.98Z" fill="#95C0F4"/>
<path d="M366.744 290.976H292.354C289.594 290.976 287.357 293.223 287.357 295.995V297.162C287.357 299.934 289.594 302.181 292.354 302.181H366.744C369.504 302.181 371.741 299.934 371.741 297.162V295.995C371.741 293.223 369.504 290.976 366.744 290.976Z" fill="#B0D4FF"/>
<path d="M363.852 273.288C356.556 286.041 347.379 290.981 347.379 290.981H309.224C309.224 290.981 369.418 263.565 363.852 273.288Z" fill="#33364F"/>
<path d="M437.665 363.925C438.454 367.89 444.083 367.227 450.372 365.683C456.661 364.139 455.165 365.977 464.112 364.982C473.058 363.987 475.77 360.634 476.046 359.3C476.288 358.112 471.867 357.697 467.124 357.147L465.332 356.933C459.975 356.257 456.055 352.787 451.191 349.937C446.594 347.239 439.708 336.24 439.708 336.24L427.435 337.218C427.435 337.218 433.879 347.038 436.369 351.31C437.832 353.828 437.756 357.143 437.573 359.703C437.415 361.108 437.446 362.528 437.665 363.925Z" fill="#FFB27D"/>
<path d="M390.637 285.105L379.167 316.105L364.19 356.585C361.522 356.782 358.839 356.536 356.251 355.855C352.67 354.814 348.558 352.078 348.558 352.078C348.558 352.078 352.716 308.618 360.476 283.674C362.465 277.27 364.692 272.092 367.161 269.175C379.154 254.924 390.637 285.105 390.637 285.105Z" fill="#33364F"/>
<path d="M378.975 235.888C371.453 233.454 350.025 236.577 328.492 240.811L323.983 233.345L277.466 229.711C277.466 229.711 262.121 263.892 270.521 285.672C271.774 288.874 274.21 290.926 278.393 290.993H279.074H315.743C338.893 290.981 364.7 274.992 368.039 274.32C373.505 273.225 375.694 284.203 381.16 295.723C386.626 307.242 432.558 346.786 432.558 346.786C432.558 346.786 439.616 346.857 442.533 345.758C445.667 344.579 446.816 343.043 446.816 343.043C446.816 343.043 395.923 241.378 378.975 235.888Z" fill="#555788"/>
<path d="M322.153 97.3357C316.194 94.1925 307.109 93.7687 305.655 93.5589C288.03 91.1794 277.424 116.9 276.801 124.693C275.648 139.058 268.085 141.244 257.433 150.241C236.076 168.287 242.34 189.24 254.015 197.029C261.023 201.699 273.371 197.029 273.371 197.029C273.546 197.15 307.147 178.165 323.707 169.008C348.537 165.475 337.334 105.343 322.153 97.3357Z" fill="#33364F"/>
<path d="M309.825 161.224C309.901 161.27 301.677 164.09 296.178 161.643C291.009 159.348 287.077 150.816 287.169 150.816C289.521 150.707 292.104 148.642 294.093 135.088L295.096 135.449L311.936 141.534C311.936 141.534 310.716 146.964 309.93 152.13C309.261 156.452 308.906 160.611 309.825 161.224Z" fill="#FFB27D"/>
<path d="M311.936 141.517C311.936 141.517 310.716 146.947 309.93 152.113C300.252 150.363 296.454 140.686 295.096 135.432L311.936 141.517Z" fill="#ED975D"/>
<path d="M314.447 146.905C314.447 146.905 291.402 143.8 293.554 129.414C295.706 115.028 294.176 104.944 308.981 106.333C323.787 107.722 325.817 113.627 326.265 118.6C326.712 123.572 320.506 147.342 314.447 146.905Z" fill="#FFB27D"/>
<path d="M325.416 110.706C325.416 110.706 310.661 123.472 300.628 124.5C290.595 125.528 286.792 122.28 286.792 122.28C290.797 118.686 294.023 114.304 296.27 109.405C296.78 108.251 297.589 107.255 298.612 106.521C299.634 105.787 300.834 105.341 302.087 105.229C309.249 104.608 322.834 104.323 325.416 110.706Z" fill="#33364F"/>
<path d="M316.194 109.56C316.194 109.56 321.129 114.353 322.683 117.907C324.184 121.34 324.635 129.544 323.44 132.8C323.44 132.8 331.129 117.785 326.783 110.488C322.178 102.753 316.194 109.56 316.194 109.56Z" fill="#33364F"/>
<path d="M329.232 195.3C328.538 242.15 329.039 232.363 323.937 236.807C322.709 237.878 319.253 238.515 314.702 238.818C300.398 239.77 275.251 237.403 274.294 234.747C270.997 225.565 273.325 222.707 270.571 208.645C270.287 207.151 269.927 205.531 269.514 203.768C267.215 194.116 264.984 190.822 273.128 175.303C280.512 161.245 288.172 149.839 288.874 150.25C308.355 161.862 309.926 152.1 309.926 152.1C309.926 152.1 329.574 172.466 329.232 195.3Z" fill="white"/>
<path d="M379.167 316.122L364.19 356.602C361.522 356.799 358.839 356.553 356.251 355.872C352.67 354.831 348.558 352.095 348.558 352.095C348.558 352.095 352.716 308.635 360.476 283.691L379.167 316.122Z" fill="#555788"/>
<path d="M309.93 152.113C309.93 152.113 329.988 155.529 332.328 164.195L348.537 223.836C348.537 223.836 338.345 225.674 333.636 220.949C328.926 216.223 317.255 177.078 317.255 177.078L309.93 152.113Z" fill="white"/>
<path d="M314.702 238.834C300.398 239.787 275.251 237.42 274.294 234.764C270.997 225.582 273.325 222.724 270.571 208.661L277.466 189.152C277.466 189.152 276.325 210.877 282.706 216.593C289.087 222.308 308.831 227.625 311.932 232.401C313.432 234.692 314.414 236.988 314.702 238.834Z" fill="#EBF3FF"/>
<path d="M298.313 229.711C298.313 229.711 312.425 226.555 314.702 227.814C316.979 229.073 322.546 233.652 323.243 235.246C323.941 236.841 318.17 234.038 316.294 233.53C315.082 233.203 311.886 234.319 310.302 234.852C303.641 237.08 299.558 235.935 299.558 235.935L298.313 229.711Z" fill="#FFB27D"/>
<path d="M288.861 150.254C288.861 150.254 269.911 151.425 263.371 160.615C254.119 173.549 235.8 228.675 246.297 236.006C258.118 244.286 300.106 238.175 300.106 238.175C300.106 238.175 301.501 231.616 299.558 228.444C297.615 225.271 266.024 220.143 264.566 218.678C263.108 217.214 282.793 190.142 282.793 185.736C282.793 181.329 288.861 150.254 288.861 150.254Z" fill="white"/>
<path d="M315.383 231.742C315.383 231.742 318.342 235.574 319.311 236.031C319.799 236.297 320.354 236.416 320.907 236.375L318.914 232.77L315.383 231.742Z" fill="#FFB27D"/>
<path d="M314.702 227.797L323.298 231.994C323.298 231.994 322.934 232.594 321.877 232.548C320.82 232.502 318.145 231.52 318.145 231.52L314.702 227.797Z" fill="#FFB27D"/>
<path d="M319.311 241.898H387.319L407.778 190.809H339.875L319.311 241.898Z" fill="#F4F4F4"/>
<path d="M388.113 239.909H298.313V241.898H387.32L388.113 239.909Z" fill="#C9C9C9"/>
<path d="M370.153 216.353C370.663 214.557 369.631 213.101 367.843 213.101C366.054 213.101 364.186 214.557 363.664 216.353C363.142 218.149 364.186 219.606 365.97 219.606C367.755 219.606 369.639 218.149 370.153 216.353Z" fill="#C9C9C9"/>
<path d="M4.79297 193.537H4.57568C2.0486 193.537 0 195.594 0 198.132V295.156C0 297.694 2.0486 299.751 4.57568 299.751H4.79297C7.32004 299.751 9.36864 297.694 9.36864 295.156V198.132C9.36864 195.594 7.32004 193.537 4.79297 193.537Z" fill="#B0D4FF"/>
<path d="M4.64674 402.608H4.4963C4.28605 402.609 4.07791 402.566 3.88422 402.484C3.69054 402.402 3.51525 402.282 3.36873 402.13C3.22221 401.979 3.10746 401.799 3.03126 401.602C2.95505 401.406 2.91896 401.195 2.92511 400.984L5.30697 297.401L12.3146 296.562L6.33911 400.993C6.31664 401.428 6.12859 401.839 5.81373 402.139C5.49886 402.44 5.08117 402.608 4.64674 402.608Z" fill="#95C0F4"/>
<path d="M117.367 402.608H117.518C117.727 402.608 117.934 402.566 118.127 402.485C118.32 402.403 118.495 402.283 118.641 402.133C118.787 401.982 118.901 401.804 118.978 401.608C119.054 401.412 119.09 401.203 119.085 400.993L116.707 297.401L109.695 296.562L115.675 400.976C115.693 401.415 115.879 401.829 116.195 402.133C116.51 402.438 116.93 402.608 117.367 402.608Z" fill="#B0D4FF"/>
<path d="M116.866 290.98H1.29303e-06V295.395C-0.000548067 296.287 0.173959 297.17 0.513543 297.994C0.853128 298.818 1.35113 299.567 1.97907 300.198C2.60701 300.828 3.35257 301.328 4.17311 301.669C4.99366 302.011 5.8731 302.186 6.76114 302.185H116.866C118.196 302.185 119.471 301.655 120.411 300.71C121.352 299.766 121.88 298.485 121.88 297.149V296.016C121.88 294.681 121.352 293.4 120.411 292.455C119.471 291.511 118.196 290.98 116.866 290.98Z" fill="#B0D4FF"/>
<path d="M30.1201 262.792C30.1201 262.792 30.9224 283.901 34.6289 290.98H120.021C120.021 290.98 140.538 293.112 142.41 294.501C144.767 296.251 134.191 313.642 173.834 381.626L193.257 381.13C193.257 381.13 172.956 270.883 169.35 268.093C163.951 263.921 100.778 249.397 89.9549 249.078C79.132 248.759 30.1201 262.792 30.1201 262.792Z" fill="#555788"/>
<path d="M77.9912 137.723C84.5811 141.823 84.953 149.977 84.953 149.977C68.8817 154.173 45.4977 136.233 45.4977 136.233C45.4977 136.233 55.84 129.254 59.676 113.912C59.8682 113.14 60.0437 112.347 60.2025 111.532C60.7332 108.765 61.024 105.957 61.0717 103.139L68.4555 109.783L80.7325 120.828C80.7325 120.828 80.4525 125.41 78.9189 133.296C78.6515 134.675 78.3423 136.151 77.9912 137.723Z" fill="#FFB27D"/>
<path d="M87.0716 222.455C86.5241 226.06 87.6357 228.956 88.1706 231.637C88.397 232.62 88.4786 233.631 88.4129 234.638C87.5312 244.6 91.0706 245.864 89.9632 249.078C89.9632 249.078 86.2024 251.298 79.2658 253.929C76.2613 255.071 72.655 256.296 68.5014 257.45L67.8454 257.626C51.7824 261.987 34.8921 262.918 30.1201 262.792C21.0021 262.545 19.1635 239.363 22.565 210.117C27.8343 164.589 34.9548 142.515 53.7297 126.564C54.9123 125.561 54.1142 128.977 60.4156 132.02C66.2449 134.836 73.2777 135.495 78.7309 134.282L83.0266 138.701C91.5511 152.226 92.4454 168.278 91.7183 181.661C90.7864 198.594 88.6595 212.086 87.0716 222.455Z" fill="#B0D4FF"/>
<path d="M80.7325 120.832C80.7325 120.832 81.3844 120.14 79.8508 128.025C66.2491 124.076 61.8197 117.114 60.0062 112.498C59.488 111.193 65.0582 110.496 68.4555 109.778L80.7325 120.832Z" fill="#ED975D"/>
<path d="M87.0506 120.87C87.0506 120.87 60.8126 124.647 58.7274 108.196C56.6422 91.7458 51.8451 81.1537 68.5306 78.0609C85.2162 74.968 89.2528 80.8138 91.2795 86.1308C93.3062 91.4478 93.8243 119.464 87.0506 120.87Z" fill="#FFB27D"/>
<path d="M185.803 242.755L187.81 243.385L204.245 190.618L202.239 189.987L185.803 242.755Z" fill="#555788"/>
<path d="M130.016 242.801L187.787 243.398L187.823 239.928L130.051 239.33L130.016 242.801Z" fill="#555788"/>
<path d="M50.3575 78.3924C50.1486 78.1448 49.6597 77.9434 48.569 77.8763C49.195 77.5259 49.8961 77.3329 50.6124 77.3139C50.8506 75.7948 51.678 73.1174 54.2938 72.4711C53.8672 72.717 53.5013 73.0563 53.2235 73.464C52.9456 73.8716 52.763 74.337 52.6892 74.8254C55.7355 71.7325 62.2292 69.5168 80.1516 71.0779C103.77 73.1384 95.8636 88.2837 92.788 90.063C89.7125 91.8423 82.053 86.8233 76.349 87.2303C70.6451 87.6374 69.496 95.9046 67.5529 97.025C65.6098 98.1455 66.387 96.1438 63.792 94.9268C61.1971 93.7098 60.9004 98.07 61.6358 100.907C62.3713 103.744 58.7442 107.449 58.7442 107.449L55.1421 103.492C51.5401 99.5346 48.2431 82.8617 49.9229 79.3283C50.0608 79.0261 50.2071 78.7072 50.3575 78.3924Z" fill="#383B60"/>
<path d="M89.9632 249.078C89.9632 249.078 86.2024 251.298 79.2657 253.929C49.3295 231.998 49.4925 180.07 49.3295 179.185L86.9378 212.434L88.1914 231.637C88.4178 232.62 88.4995 233.631 88.4338 234.638C87.5312 244.6 91.0706 245.864 89.9632 249.078Z" fill="#91B8EF"/>
<path d="M144.165 224.675C145.858 224.855 147.568 224.564 149.109 223.836C151.649 222.636 160.412 218.859 162.063 219.375C163.713 219.891 169.083 222.938 170.349 223.517C171.615 224.096 173.851 227.067 173.851 227.067C172.919 228.007 169.672 225.85 168.197 225.888C166.722 225.926 155.97 231.839 152.769 231.969C149.568 232.099 144.579 231.436 144.579 231.436L144.165 224.675Z" fill="#FFB27D"/>
<path d="M163.684 225.124C163.709 225.301 167.62 229.678 170.6 228.289L167.336 225.049L163.684 225.124Z" fill="#FFB27D"/>
<path d="M149.109 223.836C149.109 223.836 152.614 220.575 153.776 219.01C153.776 219.01 154.478 219.329 154.507 219.925C154.553 220.915 153.588 222.737 153.588 222.737L149.109 223.836Z" fill="#FFB27D"/>
<path d="M80.1433 146.376C60.8753 134.588 38.1306 155.189 47.6915 175.706C58.7817 199.5 77.2391 228.528 91.9063 230.261C102.353 231.486 132.239 235.33 144.892 232.963C144.892 232.963 151.022 233.266 147.7 223.349C147.7 223.349 106.812 211.905 100.021 203.03C96.3817 198.275 90.1805 188.644 80.5904 146.674C80.5528 146.481 80.2937 146.469 80.1433 146.376Z" fill="#B0D4FF"/>
<path d="M598.277 402.608H598.486C598.775 402.608 599.061 402.549 599.327 402.437C599.593 402.324 599.834 402.159 600.036 401.951C600.238 401.744 600.397 401.498 600.503 401.228C600.609 400.958 600.661 400.67 600.655 400.38L597.366 257.278L587.68 256.145L595.941 400.388C595.974 400.988 596.235 401.552 596.669 401.965C597.104 402.378 597.679 402.608 598.277 402.608Z" fill="#739AF0"/>
<path d="M122.152 402.608H121.947C121.658 402.608 121.372 402.55 121.105 402.438C120.839 402.325 120.598 402.16 120.395 401.953C120.193 401.745 120.035 401.499 119.929 401.229C119.823 400.959 119.772 400.67 119.778 400.38L123.067 257.278L132.749 256.145L124.492 400.38C124.46 400.981 124.199 401.548 123.764 401.962C123.329 402.377 122.752 402.608 122.152 402.608Z" fill="#739AF0"/>
<path d="M112.482 242.636H606.714C608.442 242.636 610.099 243.326 611.32 244.553C612.542 245.78 613.228 247.444 613.228 249.179V253.375C613.228 255.111 612.542 256.775 611.32 258.002C610.099 259.229 608.442 259.918 606.714 259.918H112.482C110.756 259.918 109.1 259.229 107.879 258.003C106.658 256.777 105.972 255.114 105.972 253.38V249.183C105.971 248.324 106.138 247.473 106.465 246.678C106.792 245.884 107.271 245.162 107.876 244.554C108.48 243.946 109.198 243.464 109.989 243.135C110.779 242.806 111.627 242.636 112.482 242.636Z" fill="#739AF0"/>
<path d="M533.307 242.636H465.302L444.844 191.548H512.747L533.307 242.636Z" fill="#555788"/>
<path d="M464.504 240.647H554.309V242.636H465.302L464.504 240.647Z" fill="#555788"/>
<path d="M482.468 217.092C481.955 215.296 482.991 213.84 484.779 213.84C486.568 213.84 488.432 215.296 488.958 217.092C489.485 218.888 488.436 220.344 486.647 220.344C484.859 220.344 482.982 218.888 482.468 217.092Z" fill="white"/>
</g>
<defs>
<clipPath id="clip0_231_26649">
<rect width="640" height="340" fill="white"/>
</clipPath>
</defs>
</svg>
