<svg width="946" height="381" viewBox="0 0 946 381" fill="none" xmlns="http://www.w3.org/2000/svg">
<mask id="mask0_609_14117" style="mask-type:alpha" maskUnits="userSpaceOnUse" x="0" y="0" width="1012" height="381">
<ellipse cx="165.572" cy="163.723" rx="52.0368" ry="108.639" fill="#D9D9D9"/>
<ellipse cx="226.394" cy="123.939" rx="52.0368" ry="108.639" fill="#D9D9D9"/>
<ellipse cx="269.645" cy="195.855" rx="52.0368" ry="108.639" fill="#D9D9D9"/>
<ellipse cx="322.358" cy="177.494" rx="52.0368" ry="108.639" fill="#D9D9D9"/>
<ellipse cx="365.609" cy="136.181" rx="52.0368" ry="108.639" fill="#D9D9D9"/>
<ellipse cx="435.892" cy="171.373" rx="52.0368" ry="108.639" fill="#D9D9D9"/>
<ellipse cx="496.715" cy="131.59" rx="52.0368" ry="108.639" fill="#D9D9D9"/>
<ellipse cx="539.966" cy="203.506" rx="52.0368" ry="108.639" fill="#D9D9D9"/>
<ellipse cx="592.679" cy="185.144" rx="52.0368" ry="108.639" fill="#D9D9D9"/>
<ellipse cx="635.93" cy="143.831" rx="52.0368" ry="108.639" fill="#D9D9D9"/>
<ellipse cx="577.811" cy="153.012" rx="52.0368" ry="108.639" fill="#D9D9D9"/>
<ellipse cx="638.633" cy="113.229" rx="52.0368" ry="108.639" fill="#D9D9D9"/>
<ellipse cx="681.884" cy="185.144" rx="52.0368" ry="108.639" fill="#D9D9D9"/>
<ellipse cx="734.597" cy="166.783" rx="52.0368" ry="108.639" fill="#D9D9D9"/>
<ellipse cx="777.848" cy="125.47" rx="52.0368" ry="108.639" fill="#D9D9D9"/>
<ellipse cx="645.391" cy="217.277" rx="52.0368" ry="108.639" fill="#D9D9D9"/>
<ellipse cx="706.213" cy="177.494" rx="52.0368" ry="108.639" fill="#D9D9D9"/>
<ellipse cx="749.465" cy="249.41" rx="52.0368" ry="108.639" fill="#D9D9D9"/>
<ellipse cx="802.177" cy="231.048" rx="52.0368" ry="108.639" fill="#D9D9D9"/>
<ellipse cx="845.428" cy="189.735" rx="52.0368" ry="108.639" fill="#D9D9D9"/>
<ellipse cx="758.926" cy="148.422" rx="52.0368" ry="108.639" fill="#D9D9D9"/>
<ellipse cx="819.748" cy="108.639" rx="52.0368" ry="108.639" fill="#D9D9D9"/>
<ellipse cx="862.999" cy="180.555" rx="52.0368" ry="108.639" fill="#D9D9D9"/>
<ellipse cx="915.712" cy="162.193" rx="52.0368" ry="108.639" fill="#D9D9D9"/>
<ellipse cx="958.963" cy="120.879" rx="52.0368" ry="108.639" fill="#D9D9D9"/>
<ellipse cx="52.0368" cy="186.674" rx="52.0368" ry="108.639" fill="#D9D9D9"/>
<ellipse cx="112.859" cy="146.891" rx="52.0368" ry="108.639" fill="#D9D9D9"/>
<ellipse cx="156.11" cy="218.806" rx="52.0368" ry="108.639" fill="#D9D9D9"/>
<ellipse cx="208.823" cy="200.445" rx="52.0368" ry="108.639" fill="#D9D9D9"/>
<ellipse cx="252.074" cy="159.132" rx="52.0368" ry="108.639" fill="#D9D9D9"/>
<ellipse cx="322.358" cy="194.326" rx="52.0368" ry="108.639" fill="#D9D9D9"/>
<ellipse cx="383.18" cy="154.542" rx="52.0368" ry="108.639" fill="#D9D9D9"/>
<ellipse cx="426.431" cy="226.458" rx="52.0368" ry="108.639" fill="#D9D9D9"/>
<ellipse cx="479.144" cy="208.096" rx="52.0368" ry="108.639" fill="#D9D9D9"/>
<ellipse cx="522.395" cy="166.783" rx="52.0368" ry="108.639" fill="#D9D9D9"/>
<ellipse cx="464.276" cy="175.963" rx="52.0368" ry="108.639" fill="#D9D9D9"/>
<ellipse cx="525.098" cy="136.181" rx="52.0368" ry="108.639" fill="#D9D9D9"/>
<ellipse cx="568.35" cy="208.096" rx="52.0368" ry="108.639" fill="#D9D9D9"/>
<ellipse cx="621.062" cy="189.734" rx="52.0368" ry="108.639" fill="#D9D9D9"/>
<ellipse cx="664.313" cy="148.421" rx="52.0368" ry="108.639" fill="#D9D9D9"/>
<ellipse cx="531.856" cy="240.229" rx="52.0368" ry="108.639" fill="#D9D9D9"/>
<ellipse cx="592.678" cy="200.446" rx="52.0368" ry="108.639" fill="#D9D9D9"/>
<ellipse cx="635.93" cy="272.361" rx="52.0368" ry="108.639" fill="#D9D9D9"/>
<ellipse cx="688.642" cy="254" rx="52.0368" ry="108.639" fill="#D9D9D9"/>
<ellipse cx="731.894" cy="212.687" rx="52.0368" ry="108.639" fill="#D9D9D9"/>
<ellipse cx="645.391" cy="171.373" rx="52.0368" ry="108.639" fill="#D9D9D9"/>
<ellipse cx="706.213" cy="131.59" rx="52.0368" ry="108.639" fill="#D9D9D9"/>
<ellipse cx="749.465" cy="203.506" rx="52.0368" ry="108.639" fill="#D9D9D9"/>
<ellipse cx="802.177" cy="185.144" rx="52.0368" ry="108.639" fill="#D9D9D9"/>
<ellipse cx="845.428" cy="143.831" rx="52.0368" ry="108.639" fill="#D9D9D9"/>
</mask>
<g mask="url(#mask0_609_14117)">
<rect x="-50" y="-91" width="774" height="329" fill="#D9D9D9"/>
</g>
</svg>
