<svg width="327" height="243" viewBox="0 0 327 243" fill="none" xmlns="http://www.w3.org/2000/svg">
<path d="M112.66 224.281C112.66 224.281 113.131 220.604 114.22 218.416C115.309 216.228 122.252 217.621 122.252 217.621C122.252 217.621 123.64 218.813 123.939 224.38L112.66 224.281Z" fill="#33364F"/>
<path d="M89.0101 224.232C90.6409 223.234 89.7136 215.79 89.7136 215.79C89.7136 215.79 82.114 209.696 81.0673 214.36C80.0207 219.025 73.8493 221.121 70.3341 221.694C67.9082 222.087 67.1557 223.435 66.9233 224.232H89.0101Z" fill="#33364F"/>
<path d="M104.751 170.088C104.484 171.447 104.298 172.821 104.194 174.203C103.486 188.015 92.5934 219.6 90.645 220.337C87.6307 221.478 82.8834 219.055 80.3999 218.26C79.3703 217.931 78.6753 216.89 78.9077 215.835C84.3031 190.975 86.2856 155.177 87.0083 133.984C87.3728 123.3 89.2018 115.934 89.2018 115.934C89.2018 115.934 115.769 108.829 115.927 117.817C116.062 125.772 107.121 156.965 104.751 170.088Z" fill="#3A3D68"/>
<path d="M104.751 170.088L87.002 133.975C87.3665 123.291 89.1955 115.926 89.1955 115.926C89.1955 115.926 115.763 108.821 115.921 117.808C116.062 125.772 107.121 156.965 104.751 170.088Z" fill="#33364F"/>
<path d="M98.8394 117.849L112.885 219.888C112.885 219.888 119.054 221.384 123.851 220.187C123.851 220.187 127.963 165.912 127.62 152.799C127.277 139.685 130.572 117.691 126.869 115.266C123.167 112.84 98.8394 117.849 98.8394 117.849Z" fill="#3A3D68"/>
<path d="M129.609 116.148C129.641 116.595 129.518 117.04 129.262 117.408C129.006 117.775 128.632 118.043 128.202 118.167C126.243 118.738 123.983 119.133 119.626 120.039C114.24 121.128 108.759 121.679 103.265 121.687C92.506 121.755 88.4344 118.037 88.4344 118.037C87.9697 118.048 88.6774 115.789 89.3169 105.058C89.5301 101.425 89.7433 96.8141 89.8904 90.9913C90.0268 85.7497 90.1185 79.5252 90.127 72.1403C90.1398 63.2555 103.857 53.6975 104.111 53.6975C104.111 54.9796 106.123 57.3301 109.227 57.5438C112.904 57.7852 117.415 55.9518 117.415 53.8279C117.415 53.8065 124.062 64.4863 126.422 75.8669C126.722 77.3093 126.955 78.8307 127.14 80.4333C127.69 85.2604 127.153 81.8137 129.609 116.148Z" fill="white"/>
<path d="M104.109 53.6975C104.109 53.6975 91.353 53.5885 88.2812 57.9049C85.2094 62.2213 78.4752 85.4399 81.9926 93.1623C85.5099 100.885 92.0799 89.9571 95.7273 85.2326C99.3747 80.5081 104.109 53.6975 104.109 53.6975Z" fill="white"/>
<path d="M103.979 51.7467V53.0673C103.979 53.0673 103.621 57.202 108.698 57.8046C113.776 58.4071 117.558 57.046 117.419 53.8557C116.963 51.3856 116.528 48.8364 116.494 46.8043C116.483 45.9751 116.543 45.1465 116.673 44.3277L106.833 44.1311L103.934 44.6055L103.979 51.7467Z" fill="#FFB27D"/>
<path d="M103.941 44.5947L103.979 51.7466C105.089 52.2699 106.3 52.5406 107.526 52.5394C112.048 52.5394 114.973 49.2145 116.501 46.8021C116.489 45.9729 116.549 45.1443 116.68 44.3255L106.84 44.1289L103.941 44.5947Z" fill="#E2915A"/>
<path d="M117.435 42.7294C116.292 48.8898 108.364 48.6868 104.938 48.3001C103.973 48.1932 103.367 48.0693 103.367 48.0693C102.28 47.7787 101.673 46.0607 101.391 43.8128C100.831 39.3639 101.538 32.8317 102.289 31.1607C103.416 28.6457 105.542 25.9276 113.527 27.8892C121.513 29.8508 118.899 34.8381 117.435 42.7294Z" fill="#FFB27D"/>
<path d="M91.0629 71.0015C91.0629 71.0015 86.1216 81.9227 86.2729 85.1985C87.8907 85.174 89.5036 85.3813 91.0629 85.8139C94.9213 86.9677 91.0629 71.0015 91.0629 71.0015Z" fill="#EBF3FF"/>
<path d="M99.837 25.2971C102.48 24.995 105.062 24.2948 107.496 23.2201C110.862 21.7521 115.106 23.3676 116.484 24.0962C116.436 23.7975 116.321 23.5133 116.149 23.265C116.149 23.265 116.767 23.703 116.859 24.3184C116.923 24.3655 116.95 24.3975 116.933 24.4082C116.916 24.4189 117.635 24.28 118.087 24.483C118.087 24.483 117.771 24.4381 117.66 24.6411C117.647 24.6633 117.63 24.6828 117.609 24.6988C122.857 27.2395 123.343 35.5538 121.659 37.4791C119.619 39.7932 116.605 44.943 116.605 44.943C116.605 44.943 116.29 43.7741 116.661 41.7377C117.031 39.7014 115.275 39.6992 113.058 38.774C110.841 37.8487 112.687 35.2568 110.749 33.682C108.812 32.1071 101.696 33.0409 101.796 31.8315C99.1527 30.8656 99.837 25.5685 99.837 25.2971Z" fill="#33364F"/>
<path d="M119.042 91.4615C116.959 99.8443 94.4355 104.178 89.3193 105.058C89.5325 101.426 89.7457 96.8143 89.8928 90.9915L119.042 91.4615Z" fill="#EBF3FF"/>
<path d="M114.098 94.1858C114.311 94.1858 119.106 93.47 119.965 93.0383C120.824 92.6067 124.748 87.0147 122.177 85.5809C119.607 84.1471 112.704 89.8844 112.704 89.8844L114.098 94.1858Z" fill="#FFB27D"/>
<path d="M84.9468 95.8482C84.9468 95.8482 103.493 96.8568 115.923 94.1858C115.923 94.1858 116.236 90.5831 112.327 88.9826C112.327 88.9826 92.9387 84.865 88.2808 86.0125C83.623 87.1599 84.9468 95.8482 84.9468 95.8482Z" fill="white"/>
<path d="M127.516 81.2668C123.678 85.9165 118.641 89.7114 113.097 90.6004C112.003 88.7259 111.524 86.5549 111.726 84.3929C111.867 82.7048 112.423 80.7603 113.745 78.6983C114.178 78.0009 114.543 77.2631 114.834 76.4953C117.859 68.7514 117.409 53.8215 117.409 53.8215C117.409 53.8215 130.266 55.172 134.271 60.9093C136.725 64.4287 133.595 73.9076 127.516 81.2668Z" fill="white"/>
<path d="M104.938 48.3001C103.973 48.1932 103.367 48.0693 103.367 48.0693C102.28 47.7787 101.673 46.0607 101.391 43.8127C103.429 44.317 104.363 45.8961 104.753 46.5671C104.93 46.8705 104.964 47.5479 104.938 48.3001Z" fill="#E2915A"/>
<path d="M99.7649 51.7852C99.7649 51.7852 95.3245 44.441 98.7779 44.1205C102.231 43.7999 103.617 46.144 104.107 47.003C104.597 47.862 103.977 51.7467 103.977 51.7467L99.7649 51.7852Z" fill="#FFB27D"/>
<path d="M116.68 84.1471C116.548 85.0282 116.293 85.8863 115.923 86.6963C115.25 88.1735 114.289 89.5009 113.096 90.6003C101.566 85.3822 99.2402 67.465 98.8416 57.6229C98.6838 53.6655 98.8416 51.0116 98.8416 51.0116C104.043 49.285 105.505 52.2936 105.505 52.2936C105.505 52.2936 111.649 66.9351 114.834 76.5037C116.051 80.1555 116.835 83.0766 116.68 84.1471Z" fill="white"/>
<path d="M127.516 81.2666C123.679 85.9163 118.641 89.7113 113.097 90.6002C101.566 85.3821 99.2404 67.465 98.8418 57.6228C98.8418 57.6228 104.299 77.461 111.726 84.3928C113.067 85.6492 114.476 86.4805 115.925 86.6963C115.925 86.6963 125.292 84.0445 127.256 81.5466C127.325 81.4385 127.413 81.3437 127.516 81.2666Z" fill="#EBF3FF"/>
<path d="M299.471 47.4239C296.06 45.6503 293.329 46.7636 293.329 46.7636C282.884 45.5371 279.85 57.7319 279.993 61.935C280.136 66.1381 280.611 70.6404 275.943 76.0914C262.483 91.8397 290.671 92.5342 290.671 92.5342C290.91 79.9526 305.956 84.5446 305.297 85.8182C324.595 90.4529 307.226 51.4561 299.471 47.4239Z" fill="#555788"/>
<path d="M259.218 99.8783C259.218 99.8783 257.384 97.0791 255.905 97.0235C254.426 96.968 251.688 96.2009 251.906 96.75C252.123 97.2992 253.824 97.3526 253.989 97.6817C254.153 98.0108 251.469 98.5065 250.702 98.562C249.934 98.6176 248.129 98.562 248.182 98.9445C248.235 99.327 251.441 100.921 253.701 100.703C255.96 100.485 258.753 101.361 258.753 101.361L259.218 99.8783Z" fill="#FFB27D"/>
<path d="M285.76 100.784C284.957 102.286 284.018 103.71 282.954 105.039C280.773 107.776 277.412 110.938 273.191 111.562C271.174 111.859 269.202 111.426 267.39 110.618C262.274 108.338 258.409 103.092 258.409 103.092C258.138 102.41 258.048 101.67 258.149 100.943C258.25 100.216 258.538 99.528 258.985 98.9466C258.985 98.9466 269.335 101.28 270.322 100.786C271.309 100.293 277.058 83.6919 278.422 81.6C279.786 79.508 284.459 78.429 284.459 78.429L285.76 100.784Z" fill="#B0D4FF"/>
<path d="M282.954 105.039C280.774 107.776 277.412 110.939 273.191 111.562C271.174 111.86 269.203 111.426 267.391 110.618C267.591 110.646 272.72 111.278 274.751 107.626C276.832 103.891 279.083 97.9638 282.176 99.934C283.519 100.787 283.451 102.906 282.954 105.039Z" fill="#91B8EF"/>
<path d="M324.378 212.785C324.378 212.785 327.537 215.674 326.919 217.728C326.301 219.781 323.453 221.147 323.067 223.66C322.681 226.172 321.142 227.544 319.759 227.544H313.15C313.15 227.544 312.131 225.779 314.595 225.247C317.06 224.715 317.989 221.766 317.836 219.029C317.682 216.292 318.068 212.642 318.068 212.642L323.306 211.426L324.378 212.785Z" fill="#33364F"/>
<path d="M297.644 214.012C297.644 214.012 298.78 226.254 297.395 226.938L279.648 226.901C279.648 226.901 279.648 224.848 282.498 224.393C285.348 223.937 290.356 222.256 291.204 218.538C292.052 214.82 297.644 214.012 297.644 214.012Z" fill="#33364F"/>
<path d="M310.289 126.197C306.638 117.988 304.404 115.633 304.83 113.084C305.148 111.188 303.864 77.726 303.864 77.726C303.438 77.5914 302.562 77.4717 302.086 77.3649C301.349 77.2068 300.664 76.8637 300.095 76.3678C299.526 75.8718 299.092 75.2393 298.833 74.5293C298.211 72.7836 297.719 70.2087 297.729 66.98L297.26 67.0719L289.396 68.6317C289.396 68.6317 289.575 71.1147 289.58 73.4502V73.5101C289.586 74.4974 289.27 75.4597 288.681 76.2511C288.092 77.0424 287.262 77.6195 286.316 77.8948L284.457 78.4269C284.457 78.4269 281.569 86.6921 281.016 95.1838C280.464 103.675 286.269 107.364 280.974 124.332C275.568 141.664 312.308 130.734 310.289 126.197Z" fill="#FFB27D"/>
<path d="M289.396 68.6317C289.396 68.6317 289.576 71.1146 289.58 73.4502C293.982 73.3262 296.308 69.3026 297.254 67.0718L289.396 68.6317Z" fill="#E8945B"/>
<path d="M287.926 70.8456C287.926 70.8456 298.339 71.0187 298.348 64.5163C298.356 58.014 299.703 53.6571 293.054 53.2724C286.406 52.8878 285.112 55.3665 284.583 57.5354C284.054 59.7042 285.225 70.634 287.926 70.8456Z" fill="#FFB27D"/>
<path d="M288.312 53.112C288.312 53.112 291.164 60.7404 295.538 61.873C299.912 63.0055 301.812 61.826 301.812 61.826C299.654 59.9243 298.223 57.3306 297.761 54.4881C297.761 54.4881 290.462 49.4816 288.312 53.112Z" fill="#555788"/>
<path d="M289.017 53.7318C289.017 53.7318 286.905 54.5246 286.033 56.0695C284.982 57.8752 284.492 59.9537 284.626 62.0397C284.626 62.0397 282.477 56.8537 284.892 53.9198C287.452 50.8108 289.017 53.7318 289.017 53.7318Z" fill="#555788"/>
<path d="M311.295 92.5278C311.454 95.2663 311.454 98.0117 311.295 100.75C311.119 103.723 308.119 107.706 307.693 108.691C306.627 111.161 305.423 111.563 305.423 111.563L296.096 113.851L292.82 114.654L282.487 111.563C282.487 111.563 277.783 98.3955 279.671 90.985C281.56 83.5745 284.449 78.4269 284.449 78.4269C284.449 78.4269 292.877 86.7007 303.847 77.7261L311.295 92.5278Z" fill="#B0D4FF"/>
<path d="M308.569 101.964C308.392 104.936 308.119 107.706 307.693 108.691C306.627 111.161 305.422 111.563 305.422 111.563L296.096 113.851L292.046 112.659C292.046 112.659 305.555 110.607 304.058 98.9575L308.569 101.964Z" fill="#F2CCAA"/>
<path d="M283.152 113.56C283.152 113.56 278.036 129.525 277.708 134.959C277.38 140.392 287.488 212.168 287.896 214.662C288.279 217.012 291.204 218.527 291.204 218.527C291.204 218.527 292.549 219.322 294.468 218.777C297.13 218.025 297.972 217.121 297.972 217.121C297.972 217.121 301.954 165.934 299.49 147.649C297.99 136.342 297.158 124.956 296.998 113.55L283.152 113.56Z" fill="#ED7D2B"/>
<path d="M304.836 113.084C304.836 113.084 312.641 123.582 313.363 130.676C314.086 137.771 314.504 162.697 316.053 169.613C317.603 176.53 323.301 189.843 323.301 211.418C323.301 211.418 322.709 212.653 320.882 213.313C320.182 213.549 319.471 213.745 318.75 213.903C318.018 214.07 317.25 213.986 316.572 213.663C315.893 213.34 315.343 212.798 315.009 212.123C311.159 204.352 298.895 179.289 298.266 174.088C297.821 170.406 293.947 146.04 285.502 131.74C283.472 128.309 286.744 114.657 286.744 114.657L304.836 113.084Z" fill="#F99746"/>
<path d="M282.336 111.088C282.336 111.088 284.391 112.716 288.471 112.798C293.344 112.896 305.42 111.552 305.42 111.552C305.753 112.548 305.927 113.591 305.936 114.642C305.936 114.642 291.187 118.37 282.641 115.184C282.641 115.195 281.539 113.118 282.336 111.088Z" fill="#33364F"/>
<path d="M287.301 117.018C286.075 117.018 285.078 115.885 285.078 114.494C285.078 113.103 286.075 111.971 287.301 111.971C288.527 111.971 289.524 113.103 289.524 114.494C289.524 115.885 288.527 117.018 287.301 117.018ZM287.301 112.71C286.482 112.71 285.809 113.511 285.809 114.494C285.809 115.477 286.476 116.279 287.301 116.279C288.126 116.279 288.793 115.477 288.793 114.494C288.793 113.511 288.122 112.71 287.301 112.71Z" fill="white"/>
<path d="M303.283 93.2366L288.172 106.427L306.185 127.162L321.296 113.971L303.283 93.2366Z" fill="#555788"/>
<path d="M302.012 114.033C302.012 114.033 296.469 114.674 296.493 115.999C296.516 117.323 297.872 120.022 298.556 120.144C299.241 120.266 303.063 116.484 303.063 116.484L302.012 114.033Z" fill="#FFB27D"/>
<path d="M303.865 77.7261C303.865 77.7261 311.257 78.2453 314.097 85.1494C316.936 92.0534 322.306 103.648 322.306 105.599C322.306 107.55 319.303 113.56 303.174 117.018C303.174 117.018 301.507 115.259 301.607 113.868C301.607 113.868 311.675 105.199 311.648 104.186C311.596 102.263 309.998 99.7395 301.159 90.876C298.748 88.4657 303.865 77.7261 303.865 77.7261Z" fill="#B0D4FF"/>
<path d="M258.601 93.5255L259.927 98.1688C259.945 98.2389 259.945 98.3124 259.927 98.3825C259.88 98.532 259.795 98.6664 259.679 98.7718C259.563 98.8773 259.422 98.9502 259.269 98.983L247.802 102.272C247.655 102.325 247.495 102.338 247.341 102.31C247.187 102.281 247.043 102.212 246.924 102.109C246.877 102.058 246.842 101.997 246.824 101.93L245.498 97.2885C245.406 96.9701 245.698 96.609 246.15 96.4786L257.614 93.19C258.071 93.0576 258.51 93.2093 258.601 93.5255Z" fill="#CDE0FB"/>
<path d="M259.934 98.3783C259.887 98.5279 259.801 98.6622 259.685 98.7677C259.569 98.8732 259.428 98.946 259.275 98.9788L247.808 102.267C247.661 102.321 247.502 102.334 247.347 102.305C247.193 102.277 247.049 102.208 246.93 102.105L253.059 97.78L259.934 98.3783Z" fill="#BED7FB"/>
<path d="M258.602 93.5257L253.083 98.56L245.575 97.5215L245.507 97.2843C245.415 96.9659 245.707 96.6048 246.159 96.4745L257.623 93.1859C258.071 93.0577 258.51 93.2094 258.602 93.5257Z" fill="#DFEBFD"/>
<path d="M150.679 227.117H150.602C150.495 227.117 150.389 227.096 150.291 227.054C150.193 227.012 150.104 226.951 150.029 226.875C149.954 226.798 149.896 226.707 149.857 226.608C149.818 226.508 149.8 226.401 149.803 226.294L151.015 173.551L154.593 173.124L151.542 226.294C151.531 226.516 151.435 226.725 151.274 226.878C151.113 227.031 150.9 227.117 150.679 227.117Z" fill="#B0D4FF"/>
<path d="M129.839 227.117H129.765C129.658 227.117 129.552 227.096 129.453 227.054C129.355 227.012 129.266 226.952 129.191 226.875C129.116 226.798 129.058 226.707 129.019 226.608C128.979 226.508 128.961 226.401 128.963 226.294L130.178 173.551L133.753 173.124L130.705 226.29C130.694 226.513 130.598 226.723 130.437 226.877C130.276 227.031 130.062 227.117 129.839 227.117Z" fill="#95C0F4"/>
<path d="M187.345 227.117H187.421C187.528 227.117 187.634 227.095 187.732 227.054C187.83 227.012 187.919 226.951 187.994 226.874C188.068 226.798 188.126 226.707 188.165 226.607C188.204 226.508 188.223 226.401 188.221 226.294L187.008 173.547L183.431 173.12L186.481 226.286C186.49 226.509 186.586 226.72 186.746 226.875C186.907 227.03 187.121 227.117 187.345 227.117Z" fill="#B0D4FF"/>
<path d="M127.477 170.278V134.134C127.479 131.082 128.69 128.156 130.843 125.999C132.995 123.841 135.914 122.629 138.959 122.627H164.936C167.982 122.627 170.904 123.84 173.059 126C175.213 128.159 176.424 131.088 176.424 134.142V171.665L127.477 170.278Z" fill="#B0D4FF"/>
<path d="M127.477 170.278H181.077V175.983H130.92C130.006 175.981 129.13 175.616 128.484 174.967C127.839 174.319 127.476 173.44 127.477 172.524V170.278Z" fill="#95C0F4"/>
<path d="M187.091 170.276H149.142C147.734 170.276 146.592 171.42 146.592 172.831V173.425C146.592 174.837 147.734 175.981 149.142 175.981H187.091C188.499 175.981 189.64 174.837 189.64 173.425V172.831C189.64 171.42 188.499 170.276 187.091 170.276Z" fill="#B0D4FF"/>
<path d="M185.616 161.269C181.894 167.763 177.212 170.278 177.212 170.278H157.748C157.748 170.278 188.455 156.318 185.616 161.269Z" fill="#33364F"/>
<path d="M170.659 211.506C170.428 211.762 170.274 212.079 170.217 212.42C170.16 212.761 170.202 213.111 170.338 213.429C170.802 214.711 172.335 216.153 174.117 217.587C174.345 217.773 174.543 217.94 174.725 218.093L174.861 218.217L174.966 218.311C176.628 219.848 176.002 220.2 178.988 223.316C182.399 226.867 184.744 226.931 185.405 226.606C185.969 226.331 184.823 224.448 183.552 222.333C183.49 222.232 183.431 222.119 183.367 222.025L182.861 221.17C181.369 218.623 181.755 217.427 182.109 213.636C182.395 210.555 186.89 196.424 186.89 196.424L180.365 195.298C180.365 195.298 178.4 206.55 176.236 208.283C175.078 209.206 173.782 209.219 172.67 209.903C172.591 209.95 172.514 209.999 172.437 210.05C171.782 210.453 171.184 210.942 170.659 211.506Z" fill="#FFB27D"/>
<path d="M170.659 211.505C170.428 211.761 170.274 212.079 170.217 212.42C170.16 212.761 170.202 213.111 170.338 213.429C170.905 214.711 172.401 216.144 174.123 217.574C174.349 217.762 174.55 217.933 174.725 218.093L174.861 218.217L174.966 218.311C176.628 219.848 176.002 220.2 178.988 223.316C182.399 226.867 184.744 226.931 185.405 226.606C185.969 226.331 184.823 224.448 183.552 222.333C181.17 221.4 179.076 219.852 177.483 217.845C175.432 215.223 174.072 211.862 172.67 209.903C172.591 209.95 172.514 209.999 172.437 210.05C171.782 210.453 171.184 210.942 170.659 211.505Z" fill="#33364F"/>
<path d="M223.27 207.42C223.673 209.439 226.545 209.101 229.753 208.315C232.961 207.529 232.198 208.465 236.762 207.958C241.326 207.452 242.709 205.745 242.85 205.065C242.974 204.46 240.718 204.249 238.299 203.969L237.384 203.86C234.651 203.516 232.652 201.749 230.171 200.298C227.826 198.924 224.313 193.323 224.313 193.323L218.052 193.821C218.052 193.821 221.339 198.821 222.609 200.997C223.355 202.279 223.317 203.967 223.223 205.27C223.143 205.986 223.159 206.709 223.27 207.42Z" fill="#FFB27D"/>
<path d="M229.753 208.313C232.95 207.529 232.198 208.463 236.762 207.956C241.326 207.45 242.709 205.742 242.85 205.063C242.974 204.458 240.718 204.247 238.299 203.967L238.275 204.014C236.32 205.271 234.061 205.975 231.739 206.05C228.642 206.125 225.361 205.236 223.223 205.27C223.143 205.985 223.159 206.707 223.27 207.418C223.673 209.439 226.544 209.102 229.753 208.313Z" fill="#33364F"/>
<path d="M199.28 167.286L193.428 183.071L185.788 203.683C184.427 203.783 183.058 203.658 181.738 203.311C179.911 202.781 177.813 201.388 177.813 201.388C177.813 201.388 179.935 179.259 183.893 166.558C184.908 163.297 186.044 160.66 187.304 159.175C193.422 151.918 199.28 167.286 199.28 167.286Z" fill="#33364F"/>
<path d="M193.33 142.226C189.493 140.986 178.562 142.576 167.577 144.732L165.277 140.931L141.546 139.08C141.546 139.08 133.719 156.485 138.003 167.575C138.643 169.205 139.886 170.25 142.02 170.284H142.367H161.073C172.883 170.278 186.048 162.137 187.751 161.795C190.54 161.237 191.657 166.827 194.445 172.692C197.233 178.558 220.665 198.693 220.665 198.693C220.665 198.693 224.266 198.729 225.754 198.17C227.352 197.569 227.939 196.787 227.939 196.787C227.939 196.787 201.976 145.021 193.33 142.226Z" fill="#555788"/>
<path d="M164.343 71.6768C161.303 70.0763 156.669 69.8605 155.927 69.7536C146.935 68.5421 141.525 81.6386 141.207 85.6066C140.619 92.921 136.761 94.0342 131.327 98.6156C120.431 107.804 123.627 118.473 129.583 122.439C133.158 124.817 139.457 122.439 139.457 122.439C139.547 122.501 156.688 112.834 165.136 108.171C177.803 106.372 172.087 75.7538 164.343 71.6768Z" fill="#33364F"/>
<path d="M158.055 104.207C158.093 104.231 153.898 105.667 151.092 104.421C148.455 103.252 146.45 98.9082 146.496 98.9082C147.697 98.8526 149.014 97.8013 150.029 90.8994L150.54 91.0832L159.131 94.1816C159.131 94.1816 158.509 96.9466 158.108 99.577C157.767 101.778 157.586 103.896 158.055 104.207Z" fill="#FFB27D"/>
<path d="M159.131 94.1731C159.131 94.1731 158.508 96.9381 158.108 99.5685C153.171 98.6775 151.233 93.75 150.54 91.0747L159.131 94.1731Z" fill="#ED975D"/>
<path d="M160.412 96.9166C160.412 96.9166 148.656 95.3354 149.754 88.0104C150.851 80.6854 150.071 75.5506 157.624 76.2579C165.177 76.9652 166.213 79.9717 166.441 82.5038C166.669 85.036 163.503 97.1389 160.412 96.9166Z" fill="#FFB27D"/>
<path d="M166.008 78.4847C166.008 78.4847 158.481 84.9849 153.363 85.5084C148.245 86.0319 146.305 84.378 146.305 84.378C148.348 82.5482 149.993 80.3167 151.139 77.8223C151.4 77.2347 151.812 76.7277 152.334 76.3539C152.856 75.98 153.468 75.7529 154.107 75.6962C157.761 75.3799 164.691 75.2346 166.008 78.4847Z" fill="#33364F"/>
<path d="M161.303 77.9012C161.303 77.9012 163.821 80.3414 164.614 82.1513C165.379 83.8992 165.609 88.0767 165 89.7348C165 89.7348 168.922 82.0893 166.705 78.3734C164.356 74.4353 161.303 77.9012 161.303 77.9012Z" fill="#33364F"/>
<path d="M167.954 121.558C167.601 145.414 167.856 140.431 165.254 142.694C164.627 143.239 162.864 143.563 160.542 143.717C153.246 144.202 140.417 142.997 139.929 141.644C138.247 136.969 139.434 135.514 138.029 128.353C137.884 127.593 137.701 126.768 137.49 125.871C136.318 120.956 135.179 119.278 139.334 111.377C143.101 104.218 147.008 98.4103 147.366 98.6197C157.304 104.532 158.106 99.5621 158.106 99.5621C158.106 99.5621 168.129 109.932 167.954 121.558Z" fill="white"/>
<path d="M193.428 183.079L185.788 203.691C184.427 203.792 183.058 203.666 181.738 203.319C179.911 202.789 177.813 201.396 177.813 201.396C177.813 201.396 179.935 179.267 183.893 166.566L193.428 183.079Z" fill="#555788"/>
<path d="M158.108 99.5686C158.108 99.5686 168.34 101.308 169.534 105.72L177.803 136.089C177.803 136.089 172.604 137.025 170.201 134.619C167.799 132.213 161.845 112.281 161.845 112.281L158.108 99.5686Z" fill="white"/>
<path d="M160.542 143.726C153.246 144.211 140.417 143.006 139.929 141.653C138.247 136.978 139.434 135.522 138.029 128.362L141.547 118.428C141.547 118.428 140.965 129.49 144.22 132.401C147.475 135.311 157.547 138.018 159.129 140.45C159.894 141.617 160.395 142.786 160.542 143.726Z" fill="#EBF3FF"/>
<path d="M152.182 139.08C152.182 139.08 159.38 137.473 160.542 138.114C161.704 138.755 164.544 141.087 164.899 141.899C165.255 142.711 162.312 141.283 161.354 141.025C160.736 140.858 159.105 141.426 158.298 141.698C154.9 142.833 152.817 142.249 152.817 142.249L152.182 139.08Z" fill="#FFB27D"/>
<path d="M147.36 98.6218C147.36 98.6218 137.692 99.218 134.356 103.898C129.636 110.483 120.291 138.552 125.646 142.285C131.677 146.501 153.096 143.39 153.096 143.39C153.096 143.39 153.808 140.05 152.817 138.435C151.826 136.819 135.71 134.208 134.966 133.463C134.222 132.717 144.264 118.932 144.264 116.689C144.264 114.445 147.36 98.6218 147.36 98.6218Z" fill="white"/>
<path d="M160.89 140.115C160.89 140.115 162.399 142.065 162.893 142.298C163.143 142.434 163.425 142.495 163.708 142.474L162.691 140.638L160.89 140.115Z" fill="#FFB27D"/>
<path d="M160.542 138.106L164.927 140.243C164.927 140.243 164.741 140.548 164.202 140.525C163.663 140.501 162.299 140.001 162.299 140.001L160.542 138.106Z" fill="#FFB27D"/>
<path d="M162.894 145.286H197.587L208.024 119.272H173.384L162.894 145.286Z" fill="#F4F4F4"/>
<path d="M197.992 144.273H152.182V145.286H197.587L197.992 144.273Z" fill="#C9C9C9"/>
<path d="M188.83 132.279C189.091 131.364 188.564 130.623 187.652 130.623C186.739 130.623 185.786 131.364 185.52 132.279C185.253 133.193 185.786 133.935 186.697 133.935C187.607 133.935 188.568 133.193 188.83 132.279Z" fill="#C9C9C9"/>
<path d="M2.44509 120.661H2.33424C1.04507 120.661 0 121.708 0 123.001V172.404C0 173.696 1.04507 174.744 2.33424 174.744H2.44509C3.73425 174.744 4.77932 173.696 4.77932 172.404V123.001C4.77932 121.708 3.73425 120.661 2.44509 120.661Z" fill="#B0D4FF"/>
<path d="M2.37031 227.117H2.29357C2.18631 227.117 2.08013 227.096 1.98132 227.054C1.88252 227.012 1.79309 226.951 1.71835 226.874C1.64361 226.796 1.58506 226.705 1.54619 226.605C1.50732 226.505 1.4889 226.398 1.49204 226.29L2.70712 173.547L6.28203 173.12L3.23366 226.294C3.2222 226.516 3.12627 226.725 2.96564 226.878C2.80502 227.031 2.59193 227.117 2.37031 227.117Z" fill="#95C0F4"/>
<path d="M59.8738 227.117H59.9505C60.0573 227.117 60.1631 227.096 60.2615 227.054C60.3599 227.013 60.449 226.952 60.5235 226.875C60.598 226.798 60.6564 226.707 60.6953 226.608C60.7342 226.508 60.7528 226.401 60.7499 226.294L59.537 173.547L55.96 173.12L59.0105 226.286C59.0198 226.509 59.1148 226.72 59.2756 226.875C59.4365 227.03 59.6508 227.117 59.8738 227.117Z" fill="#B0D4FF"/>
<path d="M59.6179 170.278H6.59629e-07V172.526C-0.000279591 172.98 0.0887435 173.43 0.261979 173.849C0.435215 174.269 0.689265 174.65 1.0096 174.971C1.32994 175.292 1.71028 175.547 2.12887 175.721C2.54747 175.894 2.9961 175.983 3.44913 175.983H59.6179C60.2964 175.983 60.947 175.713 61.4267 175.232C61.9065 174.751 62.176 174.099 62.176 173.419V172.842C62.176 172.162 61.9065 171.51 61.4267 171.029C60.947 170.548 60.2964 170.278 59.6179 170.278Z" fill="#B0D4FF"/>
<path d="M89.4643 215.837C89.4643 215.837 88.586 226.773 90.5408 226.918C90.7988 226.937 100.449 226.937 100.449 226.937L112.766 226.865C112.766 226.865 112.685 223.89 109.085 223.262C105.484 222.634 98.3579 219.595 96.1771 214.826C93.8834 209.809 89.4643 215.837 89.4643 215.837Z" fill="#555788"/>
<path d="M15.3652 155.925C15.3652 155.925 15.7745 166.673 17.6654 170.278H61.2271C61.2271 170.278 71.6939 171.363 72.6489 172.071C73.8512 172.962 68.4558 181.817 88.6795 216.433L98.5877 216.181C98.5877 216.181 88.2318 160.045 86.3921 158.624C83.6379 156.5 51.4105 149.104 45.8894 148.942C40.3682 148.779 15.3652 155.925 15.3652 155.925Z" fill="#555788"/>
<path d="M39.7862 92.2413C43.148 94.329 43.3377 98.4808 43.3377 98.4808C35.1391 100.618 23.21 91.4827 23.21 91.4827C23.21 91.4827 28.486 87.9292 30.4429 80.117C30.541 79.7239 30.6305 79.32 30.7115 78.9055C30.9822 77.4964 31.1306 76.0665 31.1549 74.6318L34.9217 78.0144L41.1847 83.6385C41.1847 83.6385 41.0418 85.9719 40.2595 89.987C40.1231 90.6893 39.9653 91.4407 39.7862 92.2413Z" fill="#FFB27D"/>
<path d="M44.4188 135.386C44.1396 137.221 44.7066 138.696 44.9795 140.061C45.095 140.562 45.1366 141.076 45.1031 141.589C44.6533 146.662 46.4589 147.305 45.894 148.942C45.894 148.942 43.9754 150.072 40.4368 151.412C38.9041 151.993 37.0644 152.617 34.9455 153.205L34.6108 153.294C26.4164 155.515 17.8 155.989 15.3656 155.925C10.7142 155.799 9.77621 143.995 11.5114 129.104C14.1995 105.921 17.832 94.6817 27.4098 86.5596C28.0131 86.0489 27.6059 87.7883 30.8206 89.3375C33.7943 90.7713 37.382 91.1068 40.1639 90.4892L42.3553 92.7393C46.7041 99.6262 47.1602 107.8 46.7893 114.614C46.314 123.236 45.2289 130.106 44.4188 135.386Z" fill="#B0D4FF"/>
<path d="M41.1848 83.6408C41.1848 83.6408 41.5173 83.2882 40.735 87.3033C33.7962 85.2926 31.5366 81.7476 30.6115 79.3971C30.3471 78.7326 33.1887 78.3778 34.9218 78.0125L41.1848 83.6408Z" fill="#ED975D"/>
<path d="M44.4081 83.6601C44.4081 83.6601 31.023 85.5832 29.9592 77.2069C28.8955 68.8306 26.4483 63.4373 34.9603 61.8624C43.4722 60.2876 45.5315 63.2642 46.5654 65.9715C47.5993 68.6789 47.8636 82.9442 44.4081 83.6601Z" fill="#FFB27D"/>
<path d="M94.7857 145.722L95.8091 146.043L104.194 119.175L103.17 118.854L94.7857 145.722Z" fill="#555788"/>
<path d="M66.3262 145.745L95.7979 146.05L95.816 144.283L66.3444 143.978L66.3262 145.745Z" fill="#555788"/>
<path d="M25.6892 62.0312C25.5826 61.9051 25.3332 61.8025 24.7769 61.7684C25.0962 61.5899 25.4538 61.4917 25.8193 61.482C25.9408 60.7085 26.3629 59.3452 27.6973 59.0161C27.4797 59.1413 27.293 59.3141 27.1513 59.5217C27.0095 59.7292 26.9164 59.9662 26.8787 60.2149C28.4328 58.6401 31.7455 57.5118 40.8884 58.3067C52.9369 59.3559 48.9037 67.0676 47.3348 67.9737C45.7658 68.8797 41.8584 66.324 38.9486 66.5313C36.0388 66.7386 35.4525 70.9481 34.4613 71.5186C33.47 72.0892 33.8665 71.0699 32.5427 70.4502C31.2189 69.8305 31.0676 72.0507 31.4428 73.4952C31.8179 74.9397 29.9676 76.8265 29.9676 76.8265L28.1301 74.8115C26.2925 72.7964 24.6106 64.3069 25.4675 62.5077C25.5379 62.3538 25.6125 62.1914 25.6892 62.0312Z" fill="#383B60"/>
<path d="M45.8939 148.942C45.8939 148.942 43.9754 150.072 40.4367 151.412C25.165 140.245 25.2482 113.804 25.165 113.353L44.3505 130.283L44.9901 140.061C45.1056 140.562 45.1472 141.076 45.1137 141.589C44.6533 146.662 46.4588 147.305 45.8939 148.942Z" fill="#91B8EF"/>
<path d="M73.5444 136.516C74.4082 136.607 75.2804 136.459 76.0663 136.089C77.3623 135.478 81.8326 133.554 82.6746 133.817C83.5166 134.08 86.2559 135.631 86.9018 135.926C87.5477 136.221 88.6882 137.734 88.6882 137.734C88.2128 138.213 86.5565 137.114 85.804 137.134C85.0515 137.153 79.5666 140.164 77.9337 140.23C76.3008 140.296 73.7555 139.958 73.7555 139.958L73.5444 136.516Z" fill="#FFB27D"/>
<path d="M83.502 136.745C83.5147 136.835 85.51 139.063 87.03 138.356L85.3651 136.706L83.502 136.745Z" fill="#FFB27D"/>
<path d="M76.0664 136.089C76.0664 136.089 77.8549 134.428 78.4475 133.631C78.4475 133.631 78.8057 133.794 78.8206 134.097C78.844 134.601 78.3516 135.529 78.3516 135.529L76.0664 136.089Z" fill="#FFB27D"/>
<path d="M40.8842 96.6475C31.0548 90.6452 19.4518 101.135 24.3292 111.582C29.9868 123.697 39.4026 138.478 46.885 139.36C52.2143 139.984 67.4604 141.941 73.9152 140.736C73.9152 140.736 77.0425 140.89 75.3477 135.841C75.3477 135.841 54.4888 130.014 51.0248 125.494C49.1681 123.073 46.0046 118.169 41.1123 96.7992C41.0931 96.7009 40.9609 96.6945 40.8842 96.6475Z" fill="#B0D4FF"/>
<path d="M305.205 227.117H305.312C305.459 227.117 305.605 227.087 305.741 227.03C305.877 226.972 306 226.888 306.103 226.782C306.206 226.677 306.287 226.552 306.341 226.414C306.395 226.277 306.421 226.13 306.418 225.982L304.741 153.117L299.799 152.54L304.014 225.987C304.031 226.292 304.164 226.579 304.385 226.789C304.607 227 304.9 227.117 305.205 227.117Z" fill="#739AF0"/>
<path d="M62.3146 227.117H62.2102C62.0627 227.117 61.9167 227.087 61.7808 227.03C61.6449 226.973 61.5217 226.889 61.4187 226.783C61.3156 226.677 61.2346 226.552 61.1806 226.415C61.1265 226.277 61.1004 226.13 61.1038 225.982L62.7815 153.117L67.7207 152.54L63.5084 225.982C63.492 226.289 63.3591 226.577 63.1371 226.788C62.915 226.999 62.6207 227.117 62.3146 227.117Z" fill="#739AF0"/>
<path d="M57.3818 145.662H309.509C310.391 145.662 311.236 146.013 311.859 146.637C312.483 147.262 312.833 148.109 312.833 148.993V151.13C312.833 152.013 312.483 152.861 311.859 153.485C311.236 154.11 310.391 154.461 309.509 154.461H57.3818C56.5009 154.461 55.6562 154.11 55.0333 153.486C54.4105 152.862 54.0605 152.015 54.0605 151.132V148.995C54.06 148.558 54.1455 148.124 54.3121 147.72C54.4788 147.315 54.7233 146.948 55.0318 146.638C55.3403 146.329 55.7066 146.083 56.1098 145.915C56.513 145.748 56.9453 145.662 57.3818 145.662Z" fill="#739AF0"/>
<path d="M272.061 145.662H237.37L226.933 119.648H261.573L272.061 145.662Z" fill="#555788"/>
<path d="M236.962 144.649H282.775V145.662H237.37L236.962 144.649Z" fill="#555788"/>
<path d="M246.127 132.655C245.865 131.74 246.393 130.999 247.306 130.999C248.218 130.999 249.169 131.74 249.437 132.655C249.706 133.57 249.171 134.311 248.258 134.311C247.346 134.311 246.389 133.57 246.127 132.655Z" fill="white"/>
</svg>
