<svg width="524" height="333" viewBox="0 0 524 333" fill="none" xmlns="http://www.w3.org/2000/svg">
<g clip-path="url(#clip0_231_26761)">
<path d="M312.817 195.33C312.817 195.33 191.95 247.829 169.955 246.875C147.961 245.921 12.8904 205.797 12.8904 205.797L16.3351 228.966C16.3351 228.966 120.662 288.784 157.133 292.177C193.043 295.53 315.824 260.054 327.676 252.558C339.528 245.062 347.265 202.908 312.817 195.33Z" fill="#ED985F"/>
<path d="M330.97 2.20782C330.97 2.20782 375.561 -6.24212 397.76 9.9218C437.99 39.2104 440.136 140.187 455.173 155.22C470.21 170.253 506.585 163.847 509.852 241.682C513.119 319.517 495.376 326.004 516.468 360.744C537.56 395.485 507.542 430.252 507.542 430.252C507.542 430.252 519.844 411.076 514.568 397.229C514.568 397.229 509.455 427.785 489.962 434.94C470.469 442.096 467.667 447.37 464.55 457.932C464.55 457.932 298.491 373.092 298.3 312.921C298.108 252.749 265.629 193.122 281.582 167.091C281.582 167.091 274.474 178.239 273.599 190.655C273.599 190.655 264.03 172.365 280.625 155.329C297.22 138.293 261.159 103.062 266.49 62.2433C270.168 34.0723 289.879 3.4208 330.97 2.20782Z" fill="#363854"/>
<path d="M298.122 252.667C308.743 260.013 322.044 266.064 338.762 269.908C401.383 284.341 425.387 231.556 434.45 195.33C427.901 191.723 420.672 189.509 413.221 188.829C408.696 188.298 403.939 187.943 399.989 187.752C392.962 182.383 382.478 160.399 380.168 126.272L377.215 127.063L327.854 140.528C327.854 140.528 330.123 156.174 331.23 170.962C332.091 182.533 332.214 193.586 330.027 196.298C326.172 197.129 323.862 197.661 323.862 197.661C313.535 215.132 304.916 233.552 298.122 252.667Z" fill="#FFB27D"/>
<path d="M327.813 140.542C327.813 140.542 330.082 156.174 331.189 170.975C359.144 168.249 372.198 141.632 377.174 127.076L327.813 140.542Z" fill="#ED985F"/>
<path d="M319.46 155.22C319.46 155.22 385.84 151.567 382.929 110.394C380.017 69.2212 386.606 41.0093 344.107 41.609C301.608 42.2087 294.486 58.4816 292.162 72.4649C289.838 86.4482 302.127 155.111 319.46 155.22Z" fill="#FFB27D"/>
<path d="M292.435 49.4322C301.799 36.3211 309.728 38.529 314.307 41.8953C349.124 19.4348 374.59 47.1289 374.59 47.1289C378.814 64.9219 389.106 80.6994 403.707 91.7637C403.707 91.7637 392.156 100.064 363.778 94.9119C355.125 93.3446 347.087 87.8521 340.102 80.9968C348.313 92.4362 358.054 102.703 369.054 111.512C334.675 98.5645 317.998 53.3709 316.316 48.5872C312.516 52.4987 305.107 60.9486 303.234 68.8261C300.678 79.5521 289.674 96.3157 283.318 96.084C283.413 96.0295 278.41 69.0987 292.435 49.4322Z" fill="#363854"/>
<path d="M453.314 387.225C459.301 356.669 478.849 234.581 459.301 195.33C452.289 181.265 424.744 179.902 394.521 181.183C385.116 187.234 349.288 210.104 334.565 207.255L333.745 207.064C326.815 205.334 324.176 200.482 329.986 196.298C318.758 195.546 307.48 196.233 296.427 198.342C285.929 200.318 257.619 214.928 257.619 214.928C257.619 214.928 271.876 240.605 292.9 249.478C289.319 281.356 294.636 295.421 327.813 369.085C355.863 431.342 324.04 487.385 324.04 487.385C324.04 487.385 489.088 619.694 490.003 552.327C490.687 501.613 445.645 426.272 453.314 387.225Z" fill="white"/>
<path d="M315.852 631.252C311.417 630.752 307.144 629.295 303.331 626.981C299.519 624.667 296.258 621.553 293.775 617.855L291.233 614.025C272.437 585.663 265.137 498.833 222.884 406.32C212.591 383.791 175.642 379.743 165.567 354.284C165.567 354.284 140.77 271.761 213.028 269.322C285.286 266.882 406.536 498.942 408.45 523.27C410.309 546.848 456.226 647.048 315.852 631.252Z" fill="#644CC7"/>
<path d="M442.46 227.331C442.46 227.331 455.857 348.751 369.04 374.183C282.224 399.614 257.591 262.425 327.676 252.599C397.76 242.772 442.46 227.331 442.46 227.331Z" fill="#EBEEF2"/>
<path d="M163.202 293.186C157.01 339.524 132.828 485.572 90.1652 556.851C76.4135 579.83 124.818 592.709 125.078 592.641C131.571 590.951 142.397 580.634 147.373 576.15C182.012 545.035 252.315 456.91 252.315 386.258C252.315 351.817 252.93 286.031 227.805 269.308C212.331 258.95 165.663 274.8 163.202 293.186Z" fill="#4D3EA3"/>
<path d="M377.188 629.357C377.188 629.357 373.374 624.069 366.73 614.025C358.815 602.072 350.067 578.59 339.391 548.442C328.236 516.81 315.004 477.899 298.464 437.407C293.365 424.91 287.938 412.262 282.17 399.628C271.876 377.113 243.566 380.22 233.492 354.761C233.492 354.761 194.178 266.5 266.436 264.061C338.694 261.621 476.06 500.182 483.948 523.27C492.56 548.565 534.731 653.59 377.188 629.357Z" fill="#5949BA"/>
<path d="M223.267 289.901C217.075 336.24 208.353 485.572 165.69 556.851C151.938 579.83 200.343 592.709 200.603 592.641C207.096 590.951 217.922 580.634 222.898 576.15C257.537 545.035 327.84 456.91 327.84 386.258C327.84 351.818 287.296 288.784 262.225 272.061C246.669 261.771 225.7 271.516 223.267 289.901Z" fill="#5949BA"/>
<path d="M-5.34058e-05 157.319L21.3246 118.967L67.4462 247.297L40.2298 276.422L-5.34058e-05 157.319Z" fill="#555788"/>
<path d="M111.326 179.779L154.208 301.908L40.2298 276.422L-7.62939e-05 157.319L111.326 179.779Z" fill="#555788"/>
<path d="M151.939 295.748L153.934 292.273L113.363 176.699L111.326 179.779L151.939 295.748Z" fill="#EFDECE"/>
<path d="M113.363 176.699L5.30379 155.738L-7.62939e-06 157.319L111.326 179.779L113.363 176.699Z" fill="#FCECDB"/>
<path d="M-4.95911e-05 157.319L23.047 120.834L37.7556 162.021L5.30375 155.738L-4.95911e-05 157.319Z" fill="#EFDECE"/>
<path d="M78.3683 197.47C82.0727 196.761 90.0285 193.763 98.08 191.568C95.6741 189.701 92.9948 187.412 92.2567 185.067C90.8077 180.543 89.8645 179.098 94.6488 180.529C99.4332 181.96 116.179 189.62 116.179 189.62C125.747 192.345 134.469 205.811 134.469 205.811C134.469 205.811 252.301 247.106 266.477 247.815C288.348 248.919 434.395 195.316 434.395 195.316C468.843 202.894 461.106 245.103 449.254 252.558C437.403 260.013 332.365 298.147 270.113 298.896C238.577 299.251 123.847 225.763 123.847 225.763C123.847 225.763 110.451 219.658 99.9117 221.566C89.3723 223.474 64.9583 221.566 59.6955 212.966C54.4326 204.366 72.2032 198.669 78.3683 197.47Z" fill="#FFB27D"/>
<path d="M359.198 221.77C359.198 221.77 372.266 263.038 417.089 272.347C417.089 272.347 491.138 249.6 454.271 199.31C454.285 199.31 417.814 172.311 359.198 221.77Z" fill="white"/>
<path d="M1.91368 200.577C1.87546 199.447 2.00443 198.317 2.29643 197.224C2.29643 197.224 12.8631 180.57 16.3215 179.888C26.8608 177.817 26.8608 191.65 24.619 200.577C23.037 206.352 20.0401 211.644 15.8977 215.978L16.3215 229.007C-1.46276 219.262 1.91368 200.577 1.91368 200.577Z" fill="#FFB27D"/>
</g>
<defs>
<clipPath id="clip0_231_26761">
<rect width="524" height="333" fill="white" transform="matrix(-1 0 0 1 524 0)"/>
</clipPath>
</defs>
</svg>
