<svg width="334" height="274" viewBox="0 0 334 274" fill="none" xmlns="http://www.w3.org/2000/svg">
<mask id="mask0_698_17089" style="mask-type:alpha" maskUnits="userSpaceOnUse" x="0" y="0" width="334" height="274">
<rect width="334" height="274" fill="#D9D9D9"/>
</mask>
<g mask="url(#mask0_698_17089)">
<path d="M212.471 432.859C213.246 436.821 213.787 440.827 214.089 444.854C216.148 485.111 247.837 577.165 253.506 579.314C262.274 582.639 276.085 575.577 283.31 573.26C286.305 572.301 288.327 569.268 287.651 566.192C271.955 493.736 266.187 389.4 264.085 327.632C263.025 296.493 257.704 275.025 257.704 275.025C257.704 275.025 180.416 254.317 179.957 280.512C179.566 303.698 205.575 394.613 212.471 432.859Z" fill="#3A3D68"/>
<path d="M212.471 432.859L264.104 327.607C263.044 296.468 257.723 275 257.723 275C257.723 275 180.434 254.293 179.975 280.487C179.566 303.698 205.575 394.613 212.471 432.859Z" fill="#33364F"/>
<path d="M58.6515 122.467C103.345 70.1789 154.927 77.7982 175.131 88.1438L206.168 113.339C197.648 190.505 151.689 332.715 36.0128 284.224C-79.6635 235.733 -81.5623 157.886 -68.0521 125.023C-44.4397 145.958 13.9583 174.755 58.6515 122.467Z" fill="#644CC7"/>
<path d="M67.7799 200.242C121.821 145.325 151.153 136.951 159.065 139.628L184.625 150.582V218.133L101.373 271.809L-3.84803 244.627C-16.8602 246.194 -25.693 242.341 -30.0776 237.851L-3.84803 244.627C13.1198 242.583 37.1944 231.323 67.7799 200.242Z" fill="#4D3EA3"/>
<path d="M229.667 280.606L188.806 578.007C188.806 578.007 170.859 582.366 156.906 578.878C156.906 578.878 144.944 420.69 145.942 382.469C146.94 344.249 137.353 280.145 148.125 273.076C158.897 266.008 229.667 280.606 229.667 280.606Z" fill="#3A3D68"/>
<path d="M140.156 275.649C140.063 276.952 140.418 278.248 141.164 279.32C141.909 280.392 142.998 281.173 144.249 281.534C149.948 283.197 156.521 284.349 169.197 286.99C184.866 290.162 200.809 291.77 216.793 291.791C248.092 291.991 259.936 281.154 259.936 281.154C261.288 281.185 259.229 274.602 257.369 243.326C256.749 232.739 256.129 219.299 255.701 202.328C255.304 187.051 255.037 168.909 255.012 147.385C254.975 121.49 215.069 93.6323 214.331 93.6323C214.331 97.3691 208.477 104.22 199.448 104.843C188.75 105.546 175.628 100.203 175.628 94.0122C175.628 93.9499 156.292 125.077 149.427 158.247C148.553 162.451 147.877 166.885 147.337 171.556C145.737 185.625 147.3 175.579 140.156 275.649Z" fill="white"/>
<path d="M214.337 93.6321C214.337 93.6321 251.447 93.3145 260.383 105.895C269.319 118.475 288.91 186.147 278.677 208.655C268.445 231.163 249.332 199.313 238.722 185.543C228.111 171.773 214.337 93.6321 214.337 93.6321Z" fill="white"/>
<path d="M214.716 87.9457V91.7946C214.716 91.7946 215.758 103.846 200.986 105.602C186.214 107.358 175.213 103.391 175.616 94.0927C176.943 86.8932 178.208 79.4633 178.307 73.5406C178.341 71.124 178.167 68.709 177.786 66.3225L206.412 65.7495L214.846 67.1321L214.716 87.9457Z" fill="#FFB27D"/>
<path d="M214.828 67.1013L214.716 87.9461C211.488 89.4711 207.964 90.2602 204.397 90.2566C191.244 90.2566 182.735 80.566 178.289 73.5347C178.322 71.1181 178.148 68.7031 177.768 66.3166L206.394 65.7437L214.828 67.1013Z" fill="#E2915A"/>
<path d="M175.572 61.6646C178.896 79.6196 201.96 79.0279 211.925 77.9007C214.735 77.5893 216.496 77.2281 216.496 77.2281C219.658 76.3811 221.426 71.3739 222.244 64.8221C223.875 51.8556 221.817 32.817 219.634 27.9468C216.353 20.6165 210.17 12.6946 186.94 18.4119C163.709 24.1291 171.312 38.665 175.572 61.6646Z" fill="#FFB27D"/>
<path d="M252.29 144.064C252.29 144.064 266.665 175.895 266.225 185.443C261.519 185.371 256.827 185.975 252.29 187.236C241.066 190.599 252.29 144.064 252.29 144.064Z" fill="#EBF3FF"/>
<path d="M226.765 10.8568C219.077 9.97634 211.565 7.93552 204.484 4.80331C194.692 0.524745 182.345 5.23303 178.338 7.35674C178.478 6.48597 178.81 5.65789 179.312 4.93409C179.312 4.93409 177.514 6.21081 177.247 8.00444C177.061 8.14146 176.98 8.23488 177.03 8.26602C177.08 8.29715 174.99 7.89234 173.675 8.48399C173.675 8.48399 174.593 8.35321 174.915 8.94486C174.954 9.00952 175.005 9.0665 175.064 9.11301C159.796 16.518 158.382 40.7507 163.281 46.362C169.216 53.1068 177.985 68.1161 177.985 68.1161C177.985 68.1161 178.903 64.7094 177.824 58.7742C176.745 52.839 181.855 52.8328 188.304 50.1361C194.754 47.4395 189.383 39.885 195.02 35.2951C200.657 30.7051 221.358 33.4267 221.066 29.9017C228.756 27.0867 226.765 11.6478 226.765 10.8568Z" fill="#33364F"/>
<path d="M170.896 203.697C176.955 228.129 242.479 240.759 257.363 243.325C256.743 232.737 256.123 219.298 255.695 202.327L170.896 203.697Z" fill="#EBF3FF"/>
<path d="M185.277 211.637C184.657 211.637 170.71 209.551 168.211 208.293C165.712 207.035 154.295 190.737 161.774 186.558C169.253 182.379 189.333 199.101 189.333 199.101L185.277 211.637Z" fill="#FFB27D"/>
<path d="M270.082 216.483C270.082 216.483 216.13 219.422 179.969 211.637C179.969 211.637 179.058 201.137 190.431 196.472C190.431 196.472 246.833 184.471 260.383 187.816C273.933 191.16 270.082 216.483 270.082 216.483Z" fill="white"/>
<path d="M145.003 192.532C156.165 206.083 172.062 198.597 188.192 201.188C191.374 195.725 192.768 189.397 192.18 183.096C191.771 178.176 190.152 172.508 186.307 166.498C185.047 164.466 183.986 162.315 183.138 160.077C174.338 137.507 175.647 93.9932 175.647 93.9932C175.647 93.9932 154.153 96.2552 138.677 104.635C129.676 109.508 127.082 120.258 127.783 130.47C130.34 167.746 129.309 173.5 145.003 192.532Z" fill="white"/>
<path d="M250.925 147.416C250.925 147.416 275.271 141.733 268.93 133.885C262.589 126.037 254.883 127.917 252.094 128.642C249.305 129.367 242.455 138.56 242.455 138.56L250.925 147.416Z" fill="#FFB27D"/>
<path d="M149.025 177.985C147.454 180.052 146.18 182.328 145.24 184.746C143.522 189.153 142.702 193.856 142.827 198.576C177.128 211.991 219.254 180.398 240.611 161.212C249.193 153.492 254.414 147.766 254.414 147.766C247.46 133.416 238.21 136.488 238.21 136.488C238.21 136.488 195.172 153.463 168.73 166.287C158.635 171.177 150.945 175.483 149.025 177.985Z" fill="white"/>
<path d="M130.717 150.01C128.799 167.462 131.102 185.676 140.501 199.038C174.802 212.453 216.928 180.86 238.285 161.674C238.285 161.674 185.791 190.648 156.243 189.27C150.898 189.031 146.302 187.785 142.909 185.204C142.909 185.204 129.431 160.292 130.661 151.121C130.745 150.756 130.764 150.38 130.717 150.01Z" fill="#EBF3FF"/>
<path d="M207.812 101.737C203.43 97.4772 194.228 90.929 192.476 98.8161C190.723 106.703 201.969 104.05 207.812 101.737ZM207.812 101.737C212.68 97.1121 223.148 89.2495 226.069 94.7996C228.99 100.35 215.114 101.737 207.812 101.737Z" stroke="#644CC7" stroke-width="3"/>
<path d="M207.994 101.654C203.49 105.792 189.737 110.198 170.75 94.7163" stroke="#644CC7" stroke-width="3"/>
</g>
</svg>
