<svg width="530" height="310" viewBox="0 0 530 310" fill="none" xmlns="http://www.w3.org/2000/svg">
<g clip-path="url(#clip0_828_18108)">
<mask id="mask0_828_18108" style="mask-type:alpha" maskUnits="userSpaceOnUse" x="-204" y="-17" width="775" height="327">
<rect x="-204" y="-17" width="775" height="327" fill="#D9D9D9"/>
</mask>
<g mask="url(#mask0_828_18108)">
<path d="M194 168.5C255.2 96.8999 325.833 107.333 353.5 121.5L396 156C384.333 261.667 321.4 456.4 163 390C4.60001 323.6 2 217 20.5 172C52.8333 200.667 132.8 240.1 194 168.5Z" fill="#644CC7"/>
<path d="M206.5 275C280.5 199.8 320.667 188.333 331.5 192L366.5 207V299.5L252.5 373L108.417 335.779C90.5991 337.925 78.5041 332.649 72.5 326.5L108.417 335.779C131.652 332.98 164.618 317.561 206.5 275Z" fill="#4D3EA3"/>
<path d="M305.608 378.258C305.48 380.043 305.967 381.818 306.987 383.285C308.008 384.752 309.499 385.822 311.212 386.317C319.016 388.594 328.018 390.171 345.375 393.787C366.831 398.131 388.662 400.333 410.55 400.362C453.408 400.635 469.628 385.796 469.628 385.796C471.479 385.839 468.66 376.825 466.112 333.997C465.263 319.499 464.414 301.095 463.828 277.856C463.284 256.937 462.919 232.095 462.885 202.622C462.834 167.162 408.189 129.016 407.179 129.016C407.179 134.132 399.162 143.513 386.798 144.366C372.15 145.33 354.181 138.013 354.181 129.536C354.181 129.451 327.703 172.074 318.303 217.495C317.105 223.251 316.18 229.323 315.441 235.719C313.25 254.984 315.39 241.228 305.608 378.258Z" fill="white"/>
<path d="M407.187 129.016C407.187 129.016 458.002 128.581 470.239 145.807C482.476 163.034 509.301 255.7 495.29 286.521C481.278 317.341 455.106 273.729 440.577 254.873C426.047 236.018 407.187 129.016 407.187 129.016Z" fill="white"/>
<path d="M407.705 121.229V126.499C407.705 126.499 409.132 143.001 388.904 145.406C368.676 147.811 353.612 142.379 354.164 129.646C355.981 119.788 357.713 109.614 357.849 101.504C357.895 98.1944 357.657 94.8875 357.136 91.6195L396.334 90.835L407.883 92.7282L407.705 121.229Z" fill="#FFB27D"/>
<path d="M407.858 92.6858L407.705 121.229C403.285 123.318 398.459 124.398 393.574 124.393C375.563 124.393 363.912 111.124 357.824 101.495C357.87 98.1861 357.631 94.8792 357.111 91.6112L396.309 90.8267L407.858 92.6858Z" fill="#E2915A"/>
<path d="M354.104 85.2409C358.656 109.827 390.237 109.017 403.884 107.474C407.731 107.047 410.142 106.553 410.142 106.553C414.473 105.393 416.893 98.5362 418.014 89.5646C420.248 71.8091 417.428 45.7388 414.439 39.0698C409.947 29.0322 401.481 18.1845 369.67 26.0133C337.86 33.8421 348.271 53.7466 354.104 85.2409Z" fill="#FFB27D"/>
<path d="M459.157 198.075C459.157 198.075 478.841 241.662 478.238 254.736C471.794 254.638 465.369 255.465 459.157 257.192C443.787 261.797 459.157 198.075 459.157 198.075Z" fill="#EBF3FF"/>
<path d="M424.205 15.6684C413.677 14.4627 403.391 11.6681 393.693 7.37907C380.285 1.52028 363.378 7.96751 357.892 10.8756C358.082 9.6832 358.538 8.54928 359.225 7.55816C359.225 7.55816 356.762 9.30642 356.397 11.7625C356.142 11.9501 356.032 12.0781 356.1 12.1207C356.168 12.1633 353.306 11.609 351.506 12.4192C351.506 12.4192 352.763 12.2401 353.204 13.0503C353.258 13.1388 353.327 13.2168 353.408 13.2805C332.501 23.4204 330.565 56.6032 337.274 64.287C345.4 73.5229 357.408 94.0756 357.408 94.0756C357.408 94.0756 358.665 89.4108 357.187 81.2835C355.709 73.1562 362.707 73.1477 371.538 69.455C380.37 65.7624 373.016 55.4178 380.735 49.1326C388.454 42.8474 416.8 46.5742 416.401 41.7473C426.931 37.8926 424.205 16.7514 424.205 15.6684Z" fill="#33364F"/>
<path d="M347.702 279.732C355.998 313.188 445.723 330.483 466.104 333.996C465.254 319.499 464.405 301.095 463.819 277.856L347.702 279.732Z" fill="#EBF3FF"/>
<path d="M367.394 290.605C366.545 290.605 347.447 287.749 344.024 286.026C340.602 284.303 324.969 261.985 335.21 256.263C345.451 250.54 372.948 273.438 372.948 273.438L367.394 290.605Z" fill="#FFB27D"/>
<path d="M483.52 297.24C483.52 297.24 409.641 301.265 360.125 290.605C360.125 290.605 358.877 276.227 374.451 269.839C374.451 269.839 451.684 253.405 470.239 257.985C488.794 262.565 483.52 297.24 483.52 297.24Z" fill="white"/>
<path d="M312.244 264.442C327.53 282.999 349.298 272.748 371.386 276.295C375.742 268.814 377.652 260.15 376.846 251.521C376.285 244.784 374.069 237.023 368.804 228.794C367.079 226.01 365.626 223.066 364.465 220.001C352.415 189.096 354.207 129.51 354.207 129.51C354.207 129.51 319.751 133.136 298.558 147.075C290.006 152.7 287.522 163.419 288.256 173.628C292.301 229.945 289.962 237.419 312.244 264.442Z" fill="white"/>
<path d="M457.287 202.665C457.287 202.665 490.626 194.882 481.943 184.135C473.26 173.389 462.707 175.963 458.888 176.956C455.07 177.949 445.688 190.538 445.688 190.538L457.287 202.665Z" fill="#FFB27D"/>
<path d="M317.753 244.524C315.601 247.354 313.856 250.471 312.569 253.782C310.217 259.817 309.094 266.256 309.265 272.72C356.234 291.09 413.92 247.828 443.164 221.556C454.916 210.985 462.065 203.144 462.065 203.144C452.542 183.494 439.876 187.7 439.876 187.7C439.876 187.7 380.942 210.945 344.735 228.505C330.912 235.202 320.38 241.098 317.753 244.524Z" fill="white"/>
<path d="M292.683 206.216C290.056 230.114 293.209 255.056 306.08 273.352C353.049 291.722 410.735 248.46 439.979 222.188C439.979 222.188 368.097 261.864 327.636 259.976C320.317 259.649 314.024 257.944 309.378 254.408C309.378 254.408 290.922 220.296 292.605 207.737C292.721 207.238 292.747 206.723 292.683 206.216Z" fill="#EBF3FF"/>
<path d="M398.251 140.114C392.251 134.281 379.651 125.314 377.251 136.114C374.851 146.914 390.251 143.281 398.251 140.114ZM398.251 140.114C404.918 133.781 419.251 123.014 423.251 130.614C427.251 138.214 408.251 140.114 398.251 140.114Z" stroke="#644CC7" stroke-width="3"/>
<path d="M398.5 140C392.333 145.667 373.5 151.7 347.5 130.5" stroke="#644CC7" stroke-width="3"/>
</g>
</g>
<defs>
<clipPath id="clip0_828_18108">
<rect width="530" height="310" fill="white"/>
</clipPath>
</defs>
</svg>
