<svg width="206" height="250" viewBox="0 0 206 250" fill="none" xmlns="http://www.w3.org/2000/svg">
<g clip-path="url(#clip0_697_16856)">
<path d="M122.978 76.5063C122.978 76.5063 75.461 97.0689 66.8143 96.6952C58.1676 96.3216 5.06746 80.606 5.06746 80.606L6.42169 89.6809C6.42169 89.6809 47.4358 113.11 61.7735 114.439C75.8909 115.752 124.16 101.857 128.819 98.9212C133.478 95.9852 136.52 79.4744 122.978 76.5063Z" fill="#ED985F"/>
<path d="M130.114 0.864901C130.114 0.864901 147.644 -2.44475 156.371 3.88629C172.187 15.358 173.031 54.9083 178.942 60.7963C184.853 66.6843 199.153 64.1753 200.438 94.6615C201.722 125.148 194.747 127.689 203.039 141.296C211.331 154.903 199.53 168.52 199.53 168.52C199.53 168.52 204.366 161.009 202.292 155.586C202.292 155.586 200.282 167.554 192.619 170.356C184.955 173.159 183.854 175.225 182.628 179.362C182.628 179.362 117.346 146.132 117.27 122.564C117.195 98.9961 104.427 75.6417 110.698 65.4458C110.698 65.4458 107.904 69.8124 107.56 74.6755C107.56 74.6755 103.798 67.5117 110.322 60.839C116.846 54.1663 102.669 40.3672 104.765 24.3794C106.211 13.3455 113.96 1.34 130.114 0.864901Z" fill="#363854"/>
<path d="M117.2 98.964C121.376 101.841 126.605 104.211 133.177 105.717C157.795 111.37 167.232 90.6952 170.795 76.5064C168.22 75.0934 165.378 74.2264 162.449 73.9601C160.67 73.7519 158.8 73.6131 157.247 73.5384C154.485 71.4352 150.363 62.8247 149.455 49.458L148.294 49.7676L128.889 55.0417C128.889 55.0417 129.781 61.1699 130.216 66.9618C130.555 71.4939 130.603 75.8231 129.743 76.8854C128.228 77.211 127.32 77.4192 127.32 77.4192C123.26 84.2624 119.871 91.4771 117.2 98.964Z" fill="#FFB27D"/>
<path d="M128.873 55.047C128.873 55.047 129.765 61.1699 130.2 66.9671C141.19 65.8995 146.322 55.4741 148.278 49.7729L128.873 55.047Z" fill="#ED985F"/>
<path d="M125.589 60.7962C125.589 60.7962 151.685 59.3656 150.541 43.239C149.396 27.1125 151.986 16.0625 135.279 16.2974C118.571 16.5323 115.771 22.906 114.857 28.3829C113.944 33.8599 118.775 60.7535 125.589 60.7962Z" fill="#FFB27D"/>
<path d="M114.965 19.3616C118.646 14.2263 121.763 15.0911 123.563 16.4096C137.251 7.61231 147.262 18.4594 147.262 18.4594C148.923 25.4285 152.969 31.6083 158.709 35.9419C158.709 35.9419 154.168 39.1928 143.012 37.175C139.61 36.5611 136.45 34.4098 133.704 31.7247C136.932 36.2053 140.761 40.2265 145.086 43.6768C131.57 38.6056 125.014 20.9043 124.353 19.0306C122.859 20.5627 119.947 23.8723 119.21 26.9578C118.205 31.1589 113.879 37.7248 111.381 37.6341C111.418 37.6127 109.451 27.0645 114.965 19.3616Z" fill="#363854"/>
<path d="M178.211 151.668C180.565 139.699 188.25 91.8803 180.565 76.5064C177.808 70.9975 166.979 70.4637 155.098 70.9654C151.4 73.3356 137.315 82.293 131.527 81.1773L131.205 81.1026C128.48 80.4246 127.443 78.5243 129.727 76.8854C125.313 76.5909 120.879 76.86 116.534 77.6862C112.407 78.4602 101.277 84.1827 101.277 84.1827C101.277 84.1827 106.882 94.2398 115.148 97.7149C113.74 110.201 115.83 115.71 128.873 144.562C139.9 168.947 127.389 190.898 127.389 190.898C127.389 190.898 192.275 242.72 192.635 216.334C192.903 196.471 175.196 166.961 178.211 151.668Z" fill="white"/>
<path d="M124.171 247.247C122.427 247.051 120.747 246.48 119.248 245.574C117.75 244.668 116.468 243.448 115.492 242L114.492 240.5C107.103 229.391 104.233 195.382 87.6222 159.146C83.5756 150.322 69.0498 148.737 65.0892 138.765C65.0892 138.765 55.3408 106.443 83.7476 105.487C112.154 104.532 159.821 195.424 160.574 204.953C161.305 214.188 179.356 253.434 124.171 247.247Z" fill="#644CC7"/>
<path d="M11.269 246.505H51.6973C51.6973 246.505 53.2127 240.099 50.558 235.738C48.2042 231.884 49.107 229.685 50.8482 226.492C48.703 227.417 46.3764 227.853 44.0394 227.768C42.0241 227.651 39.8907 226.743 38.0259 225.665C36.2848 227.635 28.8311 236.026 26.5041 237.687C23.8602 239.571 12.0805 238.904 11.269 246.505Z" fill="#363854"/>
<path d="M173.944 89.0405C173.944 89.0405 179.211 136.598 145.081 146.559C110.951 156.52 101.267 102.786 128.819 98.9375C156.372 95.0886 173.944 89.0405 173.944 89.0405Z" fill="#EBEEF2"/>
<path d="M64.1595 114.834C61.7251 132.984 52.2186 190.188 35.4464 218.106C30.0402 227.106 49.0694 232.151 49.1715 232.124C51.7242 231.462 55.9803 227.421 57.9365 225.665C71.5541 213.478 99.1923 178.962 99.1923 151.289C99.1923 137.799 99.4342 112.032 89.5568 105.482C83.4735 101.425 65.1268 107.633 64.1595 114.834Z" fill="#4D3EA3"/>
<path d="M148.284 246.505C148.284 246.505 146.784 244.434 144.172 240.5C141.061 235.818 137.622 226.621 133.425 214.813C129.039 202.423 123.837 187.182 117.335 171.323C115.33 166.428 113.197 161.474 110.929 156.525C106.883 147.707 95.7531 148.924 91.7925 138.952C91.7925 138.952 76.337 104.382 104.744 103.427C133.15 102.471 187.153 195.91 190.254 204.953C193.64 214.861 210.218 255.996 148.284 246.505Z" fill="#5949BA"/>
<path d="M40.9496 246.505H81.378C81.378 246.505 82.888 240.099 80.2333 235.738C77.8849 231.884 78.7877 229.685 80.5289 226.492C78.3819 227.418 76.0535 227.854 73.7147 227.768C71.7048 227.651 69.5714 226.743 67.7066 225.665C65.9654 227.635 58.5118 236.026 56.1848 237.687C53.5408 239.571 41.7611 238.904 40.9496 246.505Z" fill="#555788"/>
<path d="M133.451 214.813C129.066 202.423 123.864 187.182 117.362 171.323C119.06 159.306 122.736 148.796 128.878 144.563C128.873 144.562 143.818 190.54 133.451 214.813Z" fill="#4D3EA3"/>
<path d="M87.7725 113.548C85.3381 131.698 81.9095 190.188 65.1374 218.106C59.7312 227.106 78.7604 232.151 78.8625 232.124C81.4151 231.462 85.6713 227.421 87.6274 225.665C101.245 213.478 128.883 178.961 128.883 151.289C128.883 137.799 112.944 113.11 103.088 106.56C96.9727 102.53 88.7291 106.347 87.7725 113.548Z" fill="#5949BA"/>
<path d="M1.90735e-05 61.6185L8.38338 46.5969L26.5151 96.8609L15.8156 108.269L1.90735e-05 61.6185Z" fill="#555788"/>
<path d="M43.7654 70.4157L60.6235 118.251L15.8155 108.268L-0.000106812 61.6184L43.7654 70.4157Z" fill="#555788"/>
<path d="M59.7315 115.838L60.5161 114.477L44.5662 69.2092L43.7655 70.4157L59.7315 115.838Z" fill="#EFDECE"/>
<path d="M44.5659 69.2093L2.08476 60.9993L-0.000320435 61.6185L43.7652 70.4158L44.5659 69.2093Z" fill="#FCECDB"/>
<path d="M-0.000102043 61.6183L9.06039 47.3281L14.8428 63.46L2.08498 60.9991L-0.000102043 61.6183Z" fill="#EFDECE"/>
<path d="M30.8086 77.3445C32.265 77.0669 35.3926 75.8925 38.5579 75.0331C37.612 74.3018 36.5587 73.405 36.2686 72.4868C35.6989 70.7145 35.3281 70.1487 37.209 70.7092C39.0899 71.2697 45.673 74.2697 45.673 74.2697C49.4348 75.3374 52.8633 80.6115 52.8633 80.6115C52.8633 80.6115 99.1869 96.7861 104.76 97.0636C113.358 97.496 170.773 76.5011 170.773 76.5011C184.316 79.4691 181.274 96.0013 176.615 98.9213C171.956 101.841 130.662 116.777 106.189 117.071C93.7914 117.21 48.6878 88.4265 48.6878 88.4265C48.6878 88.4265 43.4213 86.035 39.278 86.7824C35.1346 87.5297 25.5367 86.7824 23.4678 83.414C21.3988 80.0456 28.3849 77.8143 30.8086 77.3445Z" fill="#FFB27D"/>
<path d="M141.212 86.8626C141.212 86.8626 146.349 103.027 163.97 106.672C163.97 106.672 193.081 97.7631 178.587 78.0653C178.593 78.0653 164.255 67.4904 141.212 86.8626Z" fill="white"/>
<path d="M0.752282 78.5617C0.737259 78.119 0.787959 77.6765 0.902752 77.2485C0.902752 77.2485 5.05681 70.7253 6.41642 70.4584C10.5597 69.647 10.5598 75.0652 9.67842 78.5617C9.05649 80.8236 7.8783 82.8964 6.24983 84.5938L6.41642 89.6971C-0.575098 85.8803 0.752282 78.5617 0.752282 78.5617Z" fill="#FFB27D"/>
</g>
<defs>
<clipPath id="clip0_697_16856">
<rect width="206" height="250" fill="white" transform="matrix(-1 0 0 1 206 0)"/>
</clipPath>
</defs>
</svg>
