<svg width="74" height="74" viewBox="0 0 74 74" fill="none" xmlns="http://www.w3.org/2000/svg">
<path fill-rule="evenodd" clip-rule="evenodd" d="M56.9476 9.18943C56.6627 9.3052 56.1784 9.59833 55.8713 9.84091C55.5643 10.0835 52.9158 12.7213 49.9858 15.7028L44.6584 21.1234H29.795C15.5123 21.1234 14.9006 21.1316 14.1341 21.3325C13.0843 21.6078 12.404 22.0065 11.6015 22.8168C10.9259 23.4991 10.5601 24.115 10.2032 25.1719C10.0073 25.7519 10 26.4001 10 43.0617V60.3497L10.243 61.061C10.9215 63.0468 12.2717 64.3364 14.1933 64.8339C14.757 64.9799 17.5993 65 37.6076 65C57.616 65 60.4582 64.9799 61.0219 64.8339C62.6223 64.4195 63.8987 63.3888 64.6032 61.942L65 61.127V43.0674V25.0078L64.652 24.261C64.4191 23.7609 64.0811 23.289 63.6295 22.8329C62.3052 21.4953 61.214 21.1234 58.6141 21.1234H56.9446L59.4946 18.5048C61.7309 16.2084 62.0874 15.7944 62.3922 15.1402C62.7153 14.4466 62.7397 14.3134 62.7397 13.243C62.7397 12.1688 62.7167 12.0445 62.3955 11.3829C61.9885 10.5445 61.2462 9.77646 60.4256 9.34448C59.8943 9.06469 59.7125 9.03001 58.6497 9.00583C57.6891 8.98405 57.368 9.01863 56.9476 9.18943ZM59.1576 11.1712C60.024 11.4159 60.6409 12.2784 60.6409 13.2453C60.6409 14.0076 60.3855 14.4534 59.3568 15.4864L58.4872 16.3597L56.9813 14.8318L55.4753 13.3038L56.363 12.3873C57.5722 11.1386 58.1506 10.8869 59.1576 11.1712ZM55.5023 16.392L56.9803 17.8972L48.7731 26.2401L40.5658 34.583L39.0607 33.05L37.5555 31.5169L45.7344 23.2018C50.2329 18.6285 53.9383 14.8866 53.9689 14.8866C53.9995 14.8866 54.6895 15.564 55.5023 16.392ZM40.3547 25.4975L38.2067 27.6834L29.8259 27.7132L21.4451 27.7432L21.1311 28.1006L20.817 28.4579V43.0673C20.817 59.1925 20.7675 58.0627 21.486 58.3173C21.9532 58.4828 57.5674 58.4828 58.0346 58.3173C58.7531 58.0627 58.7035 59.1969 58.7035 43.0258V28.3749L58.4329 28.0998C58.2841 27.9485 58.0117 27.794 57.8275 27.7566C57.6433 27.7191 55.9129 27.6885 53.9821 27.6885H50.4717L52.6223 25.5001L54.7729 23.3118H57.3249C58.7622 23.3118 60.126 23.3643 60.4473 23.432C61.534 23.6613 62.2617 24.2615 62.7553 25.336L63.0067 25.8831L63.0077 43.0149C63.0089 62.2368 63.0755 60.7062 62.1948 61.7019C61.9146 62.0188 61.4932 62.3407 61.1553 62.4959L60.5871 62.7569H37.6076H14.6282L14.06 62.4959C13.722 62.3407 13.3006 62.0188 13.0205 61.7019C12.1397 60.7062 12.2064 62.2368 12.2075 43.0149L12.2086 25.8831L12.4599 25.336C12.9389 24.2934 13.6056 23.7155 14.6182 23.4657C15.0377 23.3621 18.3737 23.3282 28.8346 23.3211L42.5028 23.3118L40.3547 25.4975ZM34.9551 31.0067C34.3717 31.6281 33.7563 32.3947 33.5876 32.7102C33.4189 33.0257 32.8309 34.6543 32.2809 36.3292L31.281 39.3745L30.4081 40.2338C29.6231 41.0065 29.5352 41.1341 29.5352 41.5012C29.5352 41.962 29.9727 42.5446 30.3425 42.5761C30.8996 42.6237 31.0971 42.5234 31.9321 41.7684L32.818 40.9673L35.9521 39.9005C38.1852 39.1404 39.2527 38.7214 39.6654 38.4435C39.9839 38.2289 42.0623 36.2137 44.2839 33.9651L48.3234 29.8769H52.4371H56.5509V43.0617V56.2466H39.7603H22.9697V43.0617V29.8769H29.4928H36.0159L34.9551 31.0067ZM16.224 32.1517C16.0954 32.1715 15.8653 32.3146 15.7128 32.4696L15.4354 32.7516V35.3969V38.0423L15.7373 38.3363C16.3512 38.9341 17.3519 38.5994 17.5211 37.7397C17.5579 37.5525 17.5881 36.5007 17.5881 35.4025C17.5881 34.3042 17.5579 33.2524 17.5211 33.0652C17.4002 32.4508 16.8409 32.0569 16.224 32.1517ZM38.8564 36.3203C38.7501 36.4395 38.4378 36.6458 38.1624 36.7785C37.4823 37.1061 33.9481 38.3054 33.9481 38.2086C33.9481 38.0391 35.2184 34.2836 35.397 33.9253C35.5019 33.7147 35.6891 33.4298 35.813 33.2921L36.0381 33.0419L37.5438 34.5726C39.0163 36.0695 39.0453 36.1081 38.8564 36.3203ZM15.5969 41.0812C13.5568 41.9953 14.2077 45.2267 16.4319 45.2267C18.2162 45.2267 19.1918 43.338 18.1969 41.8098C17.7004 41.047 16.4532 40.6976 15.5969 41.0812ZM52.6898 43.3458C52.5567 43.4719 52.4022 43.6967 52.3467 43.8453C52.2906 43.9952 52.2456 45.8414 52.2456 47.9926V51.8699H49.4522C47.5926 51.8699 46.569 51.9115 46.3899 51.9945C46.0391 52.157 45.7526 52.7712 45.8397 53.1742C45.8764 53.3444 46.0289 53.6006 46.1785 53.7435L46.4505 54.0035L49.8055 54.0373C51.6507 54.056 53.3124 54.0425 53.4982 54.0073C53.684 53.9722 53.9624 53.8149 54.1171 53.6576L54.3982 53.3718V48.564V43.7561L54.0836 43.4362C53.6888 43.0349 53.061 42.9942 52.6898 43.3458ZM15.75 47.813L15.4354 48.1328V50.7164C15.4354 53.5971 15.4631 53.7234 16.1445 53.952C16.4517 54.055 16.5801 54.0423 16.916 53.8755C17.5418 53.5645 17.6077 53.2203 17.5679 50.4656L17.5342 48.1313L17.1827 47.8122C16.7024 47.3762 16.1795 47.3764 15.75 47.813ZM42.0024 52.0373C41.6726 52.2192 41.4406 52.8115 41.5405 53.2161C41.6515 53.6656 42.0613 53.9751 42.5634 53.9884C42.9385 53.9985 43.0595 53.9436 43.3224 53.6446C44.1451 52.7085 43.0974 51.4327 42.0024 52.0373Z" fill="#644CC7"/>
</svg>
