<svg width="670" height="600" viewBox="0 0 670 600" fill="none" xmlns="http://www.w3.org/2000/svg">
<path d="M215.5 103C279.9 37.4002 495.667 62.3335 595.5 83.0002C636.5 91.4877 673 105.5 668 171.5C663 237.5 475 262 433 331.5C391 401 569.5 476.5 552 509C534.5 541.5 374.5 617 315 509C255.5 401 104 495.5 40.4999 476.5C-23.0001 457.5 -11.5001 355 88.9999 320.5C189.5 286 135 185 215.5 103Z" fill="#F6F6F6"/>
<g clip-path="url(#clip0_847_18196)">
<path d="M340.363 161.756C340.363 161.756 276.47 189.374 264.843 188.872C253.216 188.37 181.814 167.263 181.814 167.263L183.635 179.451C183.635 179.451 238.785 210.919 258.065 212.704C277.048 214.468 341.953 195.805 348.218 191.862C354.483 187.919 358.573 165.743 340.363 161.756Z" fill="#ED985F"/>
<path d="M349.96 60.1613C349.96 60.1613 373.531 55.7161 385.266 64.2194C406.533 79.6271 407.668 132.748 415.616 140.656C423.565 148.564 442.794 145.194 444.521 186.141C446.248 227.087 436.868 230.5 448.018 248.775C459.168 267.051 443.3 285.341 443.3 285.341C443.3 285.341 449.803 275.253 447.014 267.969C447.014 267.969 444.311 284.043 434.007 287.807C423.702 291.572 422.221 294.346 420.573 299.903C420.573 299.903 332.79 255.271 332.689 223.617C332.588 191.962 315.419 160.595 323.851 146.901C323.851 146.901 320.094 152.766 319.631 159.297C319.631 159.297 314.573 149.675 323.346 140.713C332.118 131.751 313.056 113.217 315.874 91.744C317.818 76.9242 328.238 60.7994 349.96 60.1613Z" fill="#363854"/>
<path d="M332.595 191.919C338.21 195.784 345.241 198.967 354.078 200.989C387.181 208.582 399.871 180.813 404.661 161.756C401.199 159.858 397.378 158.694 393.439 158.336C391.047 158.057 388.533 157.87 386.444 157.77C382.73 154.945 377.188 143.38 375.966 125.427L374.406 125.843L348.312 132.927C348.312 132.927 349.512 141.158 350.097 148.937C350.552 155.024 350.617 160.839 349.461 162.265C347.423 162.703 346.202 162.982 346.202 162.982C340.743 172.173 336.186 181.864 332.595 191.919Z" fill="#FFB27D"/>
<path d="M348.29 132.934C348.29 132.934 349.49 141.158 350.075 148.944C364.853 147.51 371.754 133.508 374.384 125.851L348.29 132.934Z" fill="#ED985F"/>
<path d="M343.875 140.656C343.875 140.656 378.965 138.735 377.426 117.075C375.887 95.4151 379.37 80.5737 356.904 80.8892C334.438 81.2047 330.673 89.7653 329.444 97.1215C328.216 104.478 334.712 140.599 343.875 140.656Z" fill="#FFB27D"/>
<path d="M329.589 85.0046C334.539 78.1073 338.73 79.2688 341.151 81.0397C359.556 69.224 373.018 83.7929 373.018 83.7929C375.251 93.1532 380.692 101.453 388.41 107.274C388.41 107.274 382.304 111.64 367.302 108.93C362.728 108.105 358.479 105.216 354.787 101.61C359.127 107.628 364.277 113.029 370.092 117.663C351.918 110.851 343.102 87.0766 342.213 84.5601C340.204 86.6178 336.288 91.063 335.298 95.2071C333.946 100.85 328.129 109.668 324.769 109.547C324.82 109.518 322.175 95.3505 329.589 85.0046Z" fill="#363854"/>
<path d="M414.634 262.706C417.799 246.632 428.132 182.405 417.799 161.756C414.092 154.357 399.531 153.64 383.554 154.314C378.582 157.497 359.643 169.528 351.86 168.03L351.426 167.929C347.763 167.019 346.368 164.466 349.439 162.265C343.504 161.87 337.542 162.231 331.699 163.341C326.149 164.38 311.184 172.066 311.184 172.066C311.184 172.066 318.721 185.574 329.835 190.242C327.941 207.012 330.752 214.411 348.29 253.163C363.118 285.914 346.296 315.396 346.296 315.396C346.296 315.396 433.544 385 434.029 349.56C434.39 322.882 410.58 283.247 414.634 262.706Z" fill="white"/>
<path d="M341.967 391.08C339.623 390.817 337.364 390.051 335.349 388.833C333.333 387.616 331.609 385.978 330.297 384.032L328.953 382.018C319.017 367.098 315.158 321.419 292.822 272.751C287.381 260.9 267.849 258.77 262.523 245.377C262.523 245.377 249.415 201.964 287.612 200.681C325.81 199.398 389.906 321.477 390.917 334.275C391.9 346.678 416.173 399.39 341.967 391.08Z" fill="#644CC7"/>
<path d="M190.153 390.083H244.516C244.516 390.083 246.553 381.48 242.984 375.622C239.819 370.446 241.033 367.492 243.374 363.204C240.489 364.446 237.361 365.032 234.218 364.918C231.508 364.76 228.64 363.541 226.132 362.093C223.791 364.738 213.768 376.009 210.639 378.239C207.084 380.77 191.244 379.874 190.153 390.083Z" fill="#363854"/>
<path d="M408.896 178.591C408.896 178.591 415.978 242.466 370.084 255.845C324.191 269.223 311.17 197.053 348.218 191.883C385.266 186.714 408.896 178.591 408.896 178.591Z" fill="#EBEEF2"/>
<path d="M261.273 213.235C257.999 237.612 245.216 314.443 222.664 351.941C215.394 364.029 240.982 370.804 241.119 370.768C244.552 369.879 250.275 364.452 252.905 362.093C271.216 345.725 308.38 299.365 308.38 262.197C308.38 244.079 308.705 209.471 295.424 200.674C287.244 195.225 262.574 203.563 261.273 213.235Z" fill="#4D3EA3"/>
<path d="M374.391 390.083C374.391 390.083 372.375 387.301 368.863 382.017C364.679 375.73 360.054 363.376 354.411 347.517C348.514 330.876 341.519 310.406 332.776 289.105C330.08 282.53 327.212 275.877 324.162 269.23C318.721 257.386 303.756 259.021 298.43 245.628C298.43 245.628 277.647 199.196 315.845 197.913C354.042 196.63 426.658 322.129 430.827 334.274C435.38 347.581 457.673 402.831 374.391 390.083Z" fill="#5949BA"/>
<path d="M230.063 390.083H284.426C284.426 390.083 286.456 381.48 282.886 375.622C279.729 370.446 280.943 367.492 283.284 363.204C280.397 364.447 277.266 365.033 274.121 364.918C271.418 364.76 268.55 363.541 266.042 362.093C263.701 364.738 253.678 376.009 250.549 378.239C246.994 380.77 231.154 379.874 230.063 390.083Z" fill="#555788"/>
<path d="M354.447 347.517C348.55 330.876 341.556 310.406 332.812 289.105C335.095 272.966 340.038 258.849 348.298 253.163C348.29 253.163 368.386 314.916 354.447 347.517Z" fill="#4D3EA3"/>
<path d="M293.025 211.507C289.751 235.884 285.141 314.443 262.588 351.941C255.319 364.029 280.906 370.804 281.044 370.768C284.476 369.879 290.199 364.452 292.83 362.093C311.141 345.725 348.305 299.365 348.305 262.197C348.305 244.079 326.872 210.919 313.619 202.122C305.396 196.709 294.311 201.835 293.025 211.507Z" fill="#5949BA"/>
<path d="M175 141.76L186.273 121.584L210.654 189.095L196.267 204.416L175 141.76Z" fill="#555788"/>
<path d="M233.85 153.576L256.518 217.824L196.267 204.417L175 141.76L233.85 153.576Z" fill="#555788"/>
<path d="M255.319 214.583L256.374 212.755L234.926 151.956L233.85 153.576L255.319 214.583Z" fill="#EFDECE"/>
<path d="M234.926 151.955L177.804 140.928L175 141.76L233.85 153.576L234.926 151.955Z" fill="#FCECDB"/>
<path d="M175 141.76L187.183 122.567L194.959 144.234L177.804 140.929L175 141.76Z" fill="#EFDECE"/>
<path d="M216.427 162.882C218.386 162.509 222.591 160.932 226.848 159.778C225.576 158.795 224.159 157.591 223.769 156.358C223.003 153.977 222.505 153.217 225.034 153.97C227.563 154.723 236.415 158.752 236.415 158.752C241.473 160.186 246.084 167.27 246.084 167.27C246.084 167.27 308.373 188.994 315.867 189.367C327.428 189.948 404.633 161.749 404.633 161.749C422.842 165.736 418.752 187.94 412.487 191.862C406.222 195.784 350.697 215.845 317.789 216.239C301.118 216.426 240.469 177.767 240.469 177.767C240.469 177.767 233.387 174.555 227.816 175.558C222.245 176.562 209.339 175.558 206.557 171.034C203.774 166.51 213.168 163.513 216.427 162.882Z" fill="#FFB27D"/>
<path d="M364.882 175.666C364.882 175.666 371.79 197.376 395.484 202.273C395.484 202.273 434.628 190.306 415.139 163.85C415.147 163.85 395.867 149.647 364.882 175.666Z" fill="white"/>
<path d="M176.012 164.517C175.991 163.922 176.06 163.328 176.214 162.753C176.214 162.753 181.8 153.992 183.628 153.633C189.199 152.543 189.199 159.821 188.014 164.517C187.178 167.555 185.594 170.339 183.404 172.619L183.628 179.473C174.227 174.346 176.012 164.517 176.012 164.517Z" fill="#FFB27D"/>
</g>
<g clip-path="url(#clip1_847_18196)">
<path d="M302.601 391H488.251C496.406 391 504.227 394.208 509.994 399.918C515.76 405.628 519 413.372 519 421.447V432.576C519 436.834 518.153 441.05 516.507 444.984C514.862 448.918 512.45 452.492 509.409 455.503C506.368 458.514 502.759 460.902 498.786 462.532C494.813 464.161 490.555 465 486.254 465H302.601V391Z" fill="#555788"/>
<path d="M96.2334 391H308.509C316.434 391 324.035 394.117 329.639 399.666C335.243 405.215 338.391 412.741 338.391 420.588V434.743C338.391 438.717 337.6 442.651 336.065 446.322C334.529 449.993 332.278 453.328 329.441 456.138C326.603 458.948 323.235 461.176 319.527 462.697C315.82 464.217 311.846 465 307.834 465H96.2334V391Z" fill="#FCECDB"/>
<path d="M351.844 453.932H89.7488C87.1261 453.932 85 456.037 85 458.634V460.298C85 462.895 87.1261 465 89.7488 465H351.844C354.466 465 356.593 462.895 356.593 460.298V458.634C356.593 456.037 354.466 453.932 351.844 453.932Z" fill="#555788"/>
<path d="M351.844 391H89.7488C87.1261 391 85 393.105 85 395.702V397.366C85 399.963 87.1261 402.068 89.7488 402.068H351.844C354.466 402.068 356.593 399.963 356.593 397.366V395.702C356.593 393.105 354.466 391 351.844 391Z" fill="#555788"/>
<path d="M96.2334 427.997L125.594 429.243L96.2334 429.992V427.997Z" fill="#F4D2B8"/>
<path d="M96.2334 439.611L166.077 440.857L96.2334 441.606V439.611Z" fill="#F4D2B8"/>
<path d="M188.333 425.376C188.333 425.376 181.947 428.378 179.852 433.356C179.464 434.24 179.24 435.186 179.189 436.149C178.835 442.779 179.189 457.787 179.189 457.787L160.311 450.298L141.508 457.8V437.463C141.484 435.558 141.885 433.67 142.681 431.936C143.477 430.201 144.649 428.661 146.114 427.426C147.558 426.158 149.405 425.432 151.334 425.376H188.333Z" fill="#5949BA"/>
<path d="M188.333 425.376C188.333 425.376 181.947 428.378 179.852 433.356L142.035 433.657C142.035 433.657 143.529 426.524 151.334 425.376H188.333Z" fill="#4D3EA3"/>
</g>
<defs>
<clipPath id="clip0_847_18196">
<rect width="277" height="333" fill="white" transform="matrix(-1 0 0 1 452 59)"/>
</clipPath>
<clipPath id="clip1_847_18196">
<rect width="434" height="74" fill="white" transform="translate(85 391)"/>
</clipPath>
</defs>
</svg>
