<svg width="520" height="650" viewBox="0 0 520 650" fill="none" xmlns="http://www.w3.org/2000/svg">
<path d="M109.507 358.677C220.472 334.151 331.465 214.602 373.092 157.893C391.528 140.334 436.265 111.605 467.723 137.167C507.044 169.12 412.413 277.068 492.785 410.924C573.156 544.78 459.617 561.65 358.464 548.047C245.734 532.887 126.791 625.093 52.4694 601.776C-21.8527 578.46 -29.1985 389.334 109.507 358.677Z" fill="#F6F6F6"/>
<path d="M308.632 632.16L305.855 612.191L317.497 602.451L321.161 628.897L308.632 632.16Z" fill="#FFB27D"/>
<path d="M347.273 650H299.832C299.832 650 298.693 642.78 301.174 637.272C303.547 632.001 307.24 628.752 307.579 624.717C310.594 627.821 314.302 629.821 321.161 628.897C322.005 630.261 326.586 637.56 329.391 639.575C332.493 641.806 346.32 641.011 347.273 650Z" fill="#363854"/>
<path d="M337.73 362.46C334.628 387.447 332.089 410.998 330.019 432.953C318.983 549.913 321.147 621.388 321.147 621.388C321.147 621.388 320.346 623.504 313.501 623.554C310.927 623.531 308.361 623.253 305.841 622.724C305.841 622.724 281.122 546.346 283.033 502.876C283.171 498.133 283.816 493.418 284.959 488.812C290.888 466.568 263.01 381.527 293.319 349.854C323.628 318.181 339.172 350.995 337.73 362.46Z" fill="#4D3EA3"/>
<path d="M337.73 362.46C334.628 387.447 332.089 410.998 330.019 432.953L283.033 502.884C283.171 498.14 283.816 493.425 284.959 488.82C290.888 466.576 263.01 381.534 293.319 349.862C323.628 318.189 339.172 350.995 337.73 362.46Z" fill="#4D3EA3"/>
<path d="M375.086 124.159C375.086 124.159 373.939 118.448 372.656 114.095C372.086 112.167 376.053 99.5107 378.801 97.9512C381.549 96.3918 388.712 104.918 386.685 111.481C385.646 114.838 383.937 125.783 383.937 125.783L375.086 124.159Z" fill="#FFB27D"/>
<path d="M375.086 124.159C375.086 124.159 373.593 120.852 372.244 120.311C370.896 119.769 369.467 114.369 368.458 112.203C368.458 112.203 369.41 110.802 371.083 112.607C372.107 113.712 374.387 116.939 374.387 116.939L375.086 124.159Z" fill="#FFB27D"/>
<path d="M179.222 143.356C178.927 143.962 178.501 145.031 178.162 146.042C178.162 145.767 178.162 145.493 178.162 145.226C178.162 143.219 170.639 132.274 167.559 131.595C164.479 130.916 160.115 141.154 163.967 146.857C165.943 149.745 170.776 159.73 170.776 159.73L178.768 155.601C178.768 155.601 179.23 151.991 180.362 151.088C181.495 150.186 181.3 144.59 181.617 142.244C181.617 142.208 180.29 141.139 179.222 143.356Z" fill="#FFB27D"/>
<path d="M229.058 626.175C228.387 619.771 228.222 602.927 228.222 602.927C228.222 602.927 245.367 597.44 244.739 601.209C241.638 619.728 242.475 628.897 242.475 628.897L235.543 633.041L229.058 626.175Z" fill="#FFB27D"/>
<path d="M323.426 361.283C323.426 361.283 257.182 543.011 244.148 621.843C244.148 621.843 241.126 623.922 235.492 623.229C229.102 622.45 227.37 618.009 227.37 618.009C227.37 618.009 215.382 523.525 239.164 490.718C255.501 468.186 232.117 369.225 270.173 361.283C308.229 353.342 323.426 361.283 323.426 361.283Z" fill="#5949BA"/>
<path d="M311.654 186.45C311.644 186.37 311.627 186.29 311.603 186.212C311.214 184.609 310.788 183.036 310.334 181.476C309.026 176.925 307.418 172.466 305.523 168.127C304.499 165.824 303.431 163.694 302.349 161.788C302.183 161.499 302.017 161.225 301.866 160.943C299.305 156.611 296.672 153.658 294.299 152.742C289.972 151.067 285.153 151.536 281.835 152.222C282.483 151.501 283.302 150.954 284.216 150.633C282.052 150.633 277.767 153.377 277.767 153.377C247.256 146.547 249.045 189.743 251.122 199.533C253.199 209.323 243.368 214.08 229.483 224.08C203.047 243.197 203.516 263.456 203.516 263.456C203.754 263.557 204.014 263.673 204.281 263.81C205.348 261.189 207.599 256.229 209.965 255.146C208.945 258.52 208.1 261.944 207.433 265.405C211.458 267.629 217.026 271.066 223.078 274.95C231.178 280.134 240.115 286.104 247.278 290.949C246.931 288.978 246.6 286.169 247.097 284.581L249.377 291.649L249.68 292.573C254.253 295.678 257.852 298.154 259.684 299.425L260.189 299.771L261.011 300.342C260.405 297.836 263.067 291.317 267.546 283.101C267.856 282.531 268.181 281.946 268.513 281.354C269.955 278.762 271.571 276.026 273.309 273.203C273.93 272.182 274.567 271.155 275.221 270.12C275.747 269.282 276.274 268.459 276.829 267.607C278.128 265.6 279.465 263.584 280.84 261.557C284.389 256.316 288.139 251.11 291.847 246.338C297.235 239.385 302.522 233.343 306.951 229.393C307.095 229.09 307.232 228.787 307.355 228.476C308.058 226.79 308.606 225.043 308.992 223.257C309.122 222.708 309.238 222.159 309.339 221.611C310.1 217.336 310.472 213.001 310.449 208.658C310.781 213.006 310.726 217.374 310.283 221.712C310.197 222.434 310.103 223.062 310.002 223.668C309.808 224.827 309.541 225.972 309.202 227.098C309.941 226.175 310.586 225.181 311.127 224.13C311.502 223.41 311.837 222.67 312.13 221.914C315.715 212.824 314.748 199.215 311.654 186.45Z" fill="#363854"/>
<path d="M305.928 230.209C306.029 230.209 297.388 236.498 290.059 235.617C283.164 234.801 277.559 226.845 277.646 226.809C280.372 225.834 280.603 221.849 278.078 205.272L279.384 205.33L301.348 206.384C301.348 206.384 301.86 213.178 302.79 219.51C303.555 224.83 304.63 229.819 305.928 230.209Z" fill="#FFB27D"/>
<path d="M301.34 206.384C301.34 206.384 301.853 213.178 302.783 219.51C290.795 220.954 282.861 210.99 279.377 205.33L301.34 206.384Z" fill="#ED975D"/>
<path d="M276.83 203.337C276.83 203.337 269.105 194.378 266.32 186.14C264.351 180.256 264.099 157.413 287.058 157.261C291.675 157.209 296.246 158.196 300.431 160.149C305.805 162.726 313.905 168.813 308.935 189.511L307.868 196.414L276.83 203.337Z" fill="#363854"/>
<path d="M340.513 357.782C340.513 357.782 311.928 374.784 276.05 366.041C275.625 365.94 246.477 361.283 246.477 361.283C246.975 359.911 250.74 337.393 251.23 336.137C257.599 319.698 269.263 230.455 278.95 226.051C281.431 228.758 288.529 230.613 294.595 230.072C301.592 229.451 303.929 226.462 303.352 223.177C311.084 226.838 317.057 230.245 317.057 230.245C324.133 240.851 340.513 357.782 340.513 357.782Z" fill="white"/>
<path d="M306.216 211.784C306.216 211.784 278.042 216.456 275.402 198.839C272.762 181.223 267.359 169.96 285.233 166.25C303.107 162.539 307.593 168.711 309.93 174.379C312.268 180.046 313.479 210.117 306.216 211.784Z" fill="#FFB27D"/>
<path d="M298.059 163.917C298.059 163.917 293.392 185.728 281.981 190.551C270.57 195.374 264.943 192.955 264.943 192.955C270.034 186.933 272.877 179.328 272.986 171.44C272.986 171.44 290.737 154.951 298.059 163.917Z" fill="#363854"/>
<path d="M296.371 165.874C296.371 165.874 302.862 169.628 304.904 173.902C306.945 178.176 308.979 187.316 311.626 186.602C311.626 186.602 315.363 171.693 307.637 164.726C299.443 157.333 296.371 165.874 296.371 165.874Z" fill="#363854"/>
<path d="M384.124 124.563C382.985 124.166 381.29 123.206 379.075 123.011C377.585 122.951 376.093 123.107 374.646 123.473C374.646 123.473 366.712 172.928 366.106 175.549C365.5 178.17 332.01 215.979 322.979 215.799C314.821 215.662 305.156 221.964 303.367 223.177C303.367 223.177 322.359 263.384 323.311 270.936C324.343 279.159 331.595 361.172 331.595 361.172C331.595 361.172 333.94 361.524 344.932 358.361C355.925 355.199 356.866 352.74 356.866 352.74C356.866 352.74 348.189 303.027 346.076 272.04C345.818 268.135 345.173 264.266 344.15 260.489C343.699 258.794 343.635 257.019 343.962 255.295C344.289 253.572 344.999 251.944 346.04 250.533C359.932 231.437 381.874 200.507 383.1 193.937C384.939 184.263 384.124 124.563 384.124 124.563Z" fill="white"/>
<path d="M384.125 124.563C382.985 124.166 381.29 123.206 379.076 123.011C377.585 122.951 376.093 123.107 374.647 123.473C374.647 123.473 366.712 172.928 366.107 175.549C347.936 198.785 332.297 210.811 332.297 210.811L353.356 241.024C353.356 241.024 381.874 200.507 383.1 193.937C384.94 184.263 384.125 124.563 384.125 124.563Z" fill="#FFB27D"/>
<path d="M268.592 650H221.145C221.145 650 220.005 642.78 222.487 637.272C224.86 632.001 228.553 628.752 228.892 624.717C231.907 627.821 235.614 629.821 242.474 628.897C243.318 630.261 247.898 637.56 250.711 639.575C253.813 641.806 267.633 641.011 268.592 650Z" fill="#555788"/>
<path d="M301.182 274.841C299.588 264.994 279.168 225.451 279.168 225.451C279.168 225.451 266.264 221.582 257.767 224.664C249.27 227.747 205.321 202.904 203.914 200.623C202.507 198.341 178.964 154.416 178.964 154.416C178.964 154.416 177.017 153.283 173.915 154.915C173.027 155.369 172.273 156.048 171.728 156.884C171.183 157.719 170.865 158.683 170.806 159.68C170.806 159.68 188.976 214.961 193.809 223.509C196.694 228.664 221.218 246.612 240.224 260.063C242.004 261.322 243.405 263.044 244.276 265.044C245.147 267.043 249.052 269.075 248.763 271.236C257.273 290.039 253.102 299.926 250.166 332.364C247.728 359.272 248.061 360.469 248.061 360.469C248.061 360.469 261.461 365.116 276.139 366.09C289.477 369.603 295.093 368.901 295.093 368.901C295.093 368.901 302.826 284.971 301.182 274.841Z" fill="white"/>
<mask id="mask0_589_13709" style="mask-type:alpha" maskUnits="userSpaceOnUse" x="170" y="154" width="132" height="215">
<path d="M301.182 274.841C299.588 264.994 279.168 225.451 279.168 225.451C279.168 225.451 266.264 221.582 257.767 224.664C249.27 227.747 205.321 202.904 203.914 200.623C202.507 198.341 178.964 154.416 178.964 154.416C178.964 154.416 177.017 153.283 173.915 154.915C173.027 155.369 172.273 156.048 171.728 156.884C171.183 157.719 170.865 158.683 170.806 159.68C170.806 159.68 188.976 214.961 193.809 223.509C196.694 228.664 221.218 246.612 240.224 260.063C242.004 261.322 243.405 263.044 244.276 265.044C245.147 267.043 249.052 269.075 248.763 271.236C257.273 290.039 253.102 299.926 250.166 332.364C247.728 359.272 248.061 360.469 248.061 360.469C248.061 360.469 261.461 365.116 276.139 366.09C289.477 369.603 295.093 368.901 295.093 368.901C295.093 368.901 302.826 284.971 301.182 274.841Z" fill="white"/>
</mask>
<g mask="url(#mask0_589_13709)">
<path d="M255.08 309.178C274.174 256.341 247.124 250.626 231.213 254.374L247.358 326.041L255.08 309.178Z" fill="#EBEEF2"/>
</g>
<path d="M236.829 218.54C236.829 218.54 205.321 202.904 203.914 200.623C202.507 198.341 178.964 154.416 178.964 154.416C178.964 154.416 177.017 153.283 173.915 154.915C173.027 155.369 172.273 156.048 171.728 156.884C171.183 157.719 170.865 158.683 170.806 159.68C170.806 159.68 188.976 214.961 193.809 223.509C196.694 228.664 223.492 248.05 223.492 248.05C227.818 243.064 236.829 218.54 236.829 218.54Z" fill="#FFB27D"/>
<path d="M280.133 0.909791L265.679 30.2226C265.562 30.461 265.389 30.6672 265.174 30.8231C264.959 30.9791 264.709 31.0801 264.446 31.1174L232.127 35.8183C231.825 35.8616 231.542 35.9887 231.309 36.1851C231.076 36.3815 230.902 36.6394 230.808 36.9294C230.714 37.2195 230.703 37.5302 230.776 37.8263C230.849 38.1224 231.004 38.392 231.222 38.6046L254.612 61.4223C254.803 61.6066 254.945 61.8346 255.028 62.0865C255.11 62.3384 255.13 62.6066 255.086 62.8679L249.564 95.0858C249.513 95.3863 249.547 95.6951 249.662 95.9774C249.777 96.2597 249.968 96.5043 250.214 96.6835C250.461 96.8627 250.752 96.9694 251.056 96.9916C251.36 97.0138 251.664 96.9506 251.933 96.8091L280.837 81.5972C281.071 81.4741 281.332 81.4098 281.597 81.4098C281.862 81.4098 282.122 81.4741 282.357 81.5972L311.263 96.8091C311.533 96.9506 311.837 97.0138 312.141 96.9916C312.444 96.9694 312.736 96.8627 312.982 96.6835C313.229 96.5043 313.42 96.2597 313.535 95.9774C313.65 95.6951 313.683 95.3863 313.632 95.0858L308.108 62.8679C308.062 62.6074 308.08 62.3398 308.161 62.0879C308.242 61.8361 308.382 61.6077 308.57 61.4223L331.967 38.6046C332.185 38.392 332.34 38.1224 332.413 37.8263C332.486 37.5302 332.475 37.2195 332.381 36.9294C332.287 36.6394 332.113 36.3815 331.88 36.1851C331.647 35.9887 331.364 35.8616 331.062 35.8183L298.743 31.1174C298.48 31.0801 298.23 30.9791 298.015 30.8231C297.8 30.6672 297.627 30.461 297.51 30.2226L283.061 0.909791C282.926 0.636597 282.717 0.406635 282.459 0.245855C282.2 0.0850752 281.901 -0.00012207 281.597 -0.00012207C281.292 -0.00012207 280.994 0.0850752 280.735 0.245855C280.476 0.406635 280.268 0.636597 280.133 0.909791V0.909791Z" fill="#F3CC30"/>
<path d="M281.596 7.68103L294.476 32.6525C294.809 33.2962 295.299 33.8456 295.9 34.25C296.501 34.6545 297.195 34.9009 297.916 34.9667L325.881 37.5246L296.335 38.9131C295.421 38.9552 294.517 38.7055 293.754 38.2C292.991 37.6945 292.408 36.9593 292.09 36.1006L281.596 7.68103Z" fill="#F7DB5E"/>
<path d="M312.997 91.3784L313.632 95.0811C313.683 95.3816 313.649 95.6905 313.534 95.9728C313.419 96.2551 313.228 96.4996 312.981 96.6788C312.735 96.8581 312.444 96.9648 312.14 96.987C311.836 97.0091 311.532 96.9459 311.262 96.8044L282.356 81.5926C282.122 81.4695 281.861 81.4052 281.596 81.4052C281.331 81.4052 281.071 81.4695 280.836 81.5926L251.93 96.8044C251.66 96.9459 251.356 97.0091 251.052 96.987C250.749 96.9648 250.457 96.8581 250.211 96.6788C249.964 96.4996 249.773 96.2551 249.658 95.9728C249.543 95.6905 249.509 95.3816 249.561 95.0811L255.085 62.8679C255.13 62.6068 255.11 62.3387 255.028 62.0869C254.946 61.835 254.804 61.6069 254.615 61.4223L231.229 38.6045C231.011 38.392 230.856 38.1224 230.783 37.8263C230.71 37.5302 230.721 37.2195 230.815 36.9294C230.909 36.6393 231.083 36.3815 231.316 36.1851C231.549 35.9887 231.832 35.8616 232.134 35.8183L242.956 34.2493C260.464 65.6927 287.274 82.2514 312.997 91.3784Z" fill="#EDBD31"/>
</svg>
