<svg width="560" height="600" viewBox="0 0 560 600" fill="none" xmlns="http://www.w3.org/2000/svg">
<g clip-path="url(#clip0_589_13357)">
<path d="M198.593 477.72C124.702 431.442 132.136 555.516 40.5495 424.976C-24.9261 343.279 10.3537 278.816 46.2135 172.793C91.0384 40.2641 209.656 -8.79981 363.189 15.3576C516.722 39.5151 614.592 302.258 507.753 464.553C400.915 626.849 290.956 535.567 198.593 477.72Z" fill="#F6F6F6"/>
<path d="M162.45 382.908V401.368C163.182 402.242 164.151 402.887 165.24 403.228V381.047C164.149 381.386 163.18 382.032 162.45 382.908V382.908Z" fill="#FFA412"/>
<path d="M84.2944 512.06C82.871 519.203 72.6585 518.01 61.2646 515.234C49.8707 512.458 52.575 515.759 36.356 513.963C20.1369 512.166 15.2264 506.103 14.7139 503.696C14.2727 501.566 22.2862 500.813 30.8832 499.826C31.9649 499.706 33.0538 499.571 34.1355 499.436C43.8428 498.222 50.9524 491.973 59.7558 486.84C68.1038 481.984 80.5652 462.181 80.5652 462.181L102.812 463.935C102.812 463.935 91.1407 481.621 86.6216 489.311C83.967 493.834 84.1093 499.819 84.4438 504.434C84.7352 506.971 84.685 509.536 84.2944 512.06V512.06Z" fill="#FFB27D"/>
<path d="M61.2646 515.198C49.8778 512.415 52.575 515.723 36.356 513.927C20.1369 512.131 15.2264 506.103 14.7139 503.696C14.2727 501.566 22.2862 500.813 30.8832 499.826L30.9615 499.989C37.9108 504.438 45.9379 506.926 54.1905 507.189C65.193 507.459 76.8503 504.349 84.4509 504.434C84.74 506.972 84.6873 509.536 84.2944 512.06C82.8568 519.16 72.6585 517.974 61.2646 515.198Z" fill="#363854"/>
<path d="M169.531 370.134L190.326 425.956L217.47 498.839C222.316 499.2 227.188 498.756 231.888 497.526C238.386 495.651 245.837 490.752 245.837 490.752C245.837 490.752 238.3 412.494 224.238 367.571C220.637 356.041 216.594 346.711 212.139 341.464C190.341 315.761 169.531 370.134 169.531 370.134Z" fill="#4D3EA3"/>
<path d="M362.404 561.294H362.649C362.99 561.294 363.328 561.225 363.643 561.092C363.958 560.959 364.243 560.763 364.481 560.518C364.719 560.272 364.906 559.981 365.03 559.662C365.155 559.342 365.214 559.001 365.205 558.658L361.327 389.712L349.89 388.343L359.643 558.658C359.68 559.369 359.987 560.038 360.5 560.529C361.014 561.019 361.695 561.293 362.404 561.294V561.294Z" fill="#B0D4FF"/>
<path d="M429.033 561.294H429.271C429.613 561.294 429.951 561.225 430.266 561.092C430.581 560.959 430.867 560.764 431.105 560.518C431.344 560.273 431.532 559.982 431.657 559.662C431.782 559.343 431.842 559.001 431.834 558.658L427.949 389.712L416.519 388.343L426.266 558.645C426.301 559.358 426.607 560.031 427.122 560.524C427.637 561.017 428.321 561.293 429.033 561.294V561.294Z" fill="#95C0F4"/>
<path d="M245.176 561.293H244.931C244.589 561.293 244.252 561.223 243.938 561.09C243.623 560.956 243.339 560.761 243.101 560.515C242.863 560.27 242.676 559.979 242.551 559.66C242.427 559.341 242.367 559.001 242.375 558.658L246.253 389.698L257.689 388.329L247.936 558.631C247.906 559.346 247.603 560.023 247.088 560.519C246.574 561.015 245.889 561.292 245.176 561.293Z" fill="#B0D4FF"/>
<path d="M436.584 379.225V263.448C436.577 253.674 432.707 244.302 425.824 237.391C418.941 230.48 409.609 226.595 399.876 226.59H316.821C307.08 226.59 297.738 230.476 290.85 237.393C283.962 244.311 280.092 253.693 280.092 263.475V383.668L436.584 379.225Z" fill="#B0D4FF"/>
<path d="M436.584 379.225H265.214V397.501H425.577C428.499 397.495 431.3 396.325 433.364 394.247C435.428 392.169 436.586 389.354 436.584 386.419V379.225Z" fill="#95C0F4"/>
<path d="M271.222 526.473C273.023 528.532 273.251 530.833 272.361 533.297C272.365 533.308 272.365 533.321 272.361 533.332C270.71 537.876 265.244 542.96 258.932 548.037C258.121 548.685 257.409 549.282 256.797 549.826C256.626 549.968 256.462 550.117 256.313 550.259L255.936 550.593C250.029 556.024 252.256 557.274 241.645 568.293C229.547 580.847 221.22 581.074 218.872 579.931C216.865 578.958 220.943 572.298 225.455 564.807L226.109 563.721C226.714 562.72 227.305 561.712 227.903 560.71C233.191 551.7 231.831 547.476 230.579 534.071C229.561 523.172 213.591 473.201 213.591 473.201L236.77 469.218C236.77 469.218 243.752 508.979 251.445 515.142C255.559 518.408 260.163 518.443 264.12 520.864C264.398 521.035 264.675 521.205 264.938 521.383C267.25 522.794 269.363 524.506 271.222 526.473V526.473Z" fill="#FFB27D"/>
<path d="M271.222 526.473C273.023 528.532 273.251 530.833 272.361 533.297C272.365 533.308 272.365 533.321 272.361 533.332C270.34 537.876 265.031 542.932 258.903 547.987C258.106 548.647 257.402 549.258 256.768 549.826C256.598 549.968 256.434 550.117 256.284 550.259L255.907 550.593C250 556.024 252.228 557.274 241.617 568.293C229.518 580.847 221.192 581.074 218.843 579.931C216.836 578.958 220.914 572.298 225.426 564.807C233.874 561.515 241.3 556.055 246.954 548.981C254.235 539.708 259.096 527.787 264.035 520.885C264.312 521.056 264.59 521.226 264.853 521.404C267.193 522.803 269.335 524.508 271.222 526.473V526.473Z" fill="#363854"/>
<path d="M245.987 379.219H367.318C371.819 379.219 375.469 382.884 375.469 387.405V389.308C375.469 393.829 371.819 397.494 367.318 397.494H245.987C241.485 397.494 237.835 393.829 237.835 389.308V387.405C237.835 382.884 241.485 379.219 245.987 379.219Z" fill="#B0D4FF"/>
<path d="M190.668 281.482C204.297 277.101 243.147 282.731 282.175 290.35L290.345 276.902L374.643 270.334C374.643 270.334 402.462 331.879 387.232 371.093C384.998 376.858 380.55 380.557 372.963 380.678H371.732H305.269C263.344 380.678 216.544 351.922 210.488 350.715C200.582 348.742 196.618 368.516 186.704 389.276C176.79 410.037 93.5599 481.188 93.5599 481.188C93.5599 481.188 80.7498 481.316 75.4763 479.342C69.7829 477.212 67.7119 474.45 67.7119 474.45C67.7119 474.45 159.952 291.372 190.668 281.482Z" fill="#5949BA"/>
<path d="M266.86 159.976C293.448 181.547 357.499 218.908 357.847 218.766C357.847 218.766 378.372 231.028 392.371 225.014C415.699 214.981 433.648 179.871 401.345 141.019C385.247 121.642 371.903 115.259 375.013 89.4999C378.408 61.5962 365.761 26.5071 333.579 25.0302C330.911 24.9095 314.606 22.7369 302.942 26.4077C273.315 35.6379 223.718 145.691 266.86 159.976Z" fill="#363854"/>
<path d="M380.401 279.458C378.664 284.243 333.088 288.504 307.155 286.785C298.921 286.253 292.651 285.096 290.423 283.178C281.172 275.162 282.09 292.792 280.823 208.435C280.211 167.254 315.816 130.645 315.816 130.645C315.816 130.645 318.663 148.225 353.976 127.308C355.229 126.598 369.135 147.118 382.521 172.416C397.274 200.362 382.18 274.545 380.401 279.458Z" fill="white"/>
<path d="M190.326 425.956L217.47 498.839C222.316 499.2 227.188 498.756 231.888 497.526C238.386 495.651 245.837 490.752 245.837 490.752C245.837 490.752 238.3 412.494 224.238 367.571L190.326 425.956Z" fill="#5949BA"/>
<path d="M315.816 130.645C315.816 130.645 283.577 138.534 275.251 152.393C265.066 169.277 214.281 245.405 214.281 245.405C214.281 245.405 264.348 263.071 272.881 254.558C281.414 246.044 302.572 175.575 302.572 175.575L315.816 130.645Z" fill="white"/>
<path d="M354.054 127.358C354.189 127.358 341.045 139.428 331.416 142.943C327.644 144.32 321.381 145.826 321.381 145.826L316.279 140.678C311.809 136.517 316.279 135.31 315.624 127.443C315.588 127.067 315.56 126.684 315.517 126.307C314.746 119.871 313.536 113.494 311.895 107.222L343.094 98.3254L342.084 100.015C344.005 116.168 349.82 126.889 354.054 127.358Z" fill="#FFB27D"/>
<path d="M343.087 98.2969C340.063 107.343 331.807 119.477 314.976 122.097C314.205 117.077 313.176 112.101 311.895 107.186L343.087 98.2969Z" fill="#ED975D"/>
<path d="M306.699 116.58C306.699 116.58 348.752 113.789 346.603 87.6891C344.454 61.5889 348.446 43.668 321.502 44.3212C294.558 44.9745 290.189 55.3904 288.765 64.2728C287.342 73.1551 295.704 116.622 306.699 116.58Z" fill="#FFB27D"/>
<path d="M299.141 43.8526C299.141 43.8526 309.589 74.4402 334.398 77.9903C352.496 80.589 359.684 75.704 359.684 75.704C352.874 68.7548 347.572 60.4819 344.105 51.4001C343.318 49.2673 341.976 47.3825 340.215 45.9397C338.455 44.497 336.342 43.5486 334.092 43.1923C321.21 41.2042 304.579 32.6982 299.141 43.8526Z" fill="#363854"/>
<path d="M308.052 49.2631C308.052 49.2631 300.543 52.2949 295.305 63.4634C292.459 69.5767 290.374 84.125 292.139 90.1246C292.139 90.1246 280.04 62.2209 288.808 49.6536C298.088 36.3479 308.052 49.2631 308.052 49.2631Z" fill="#363854"/>
<path d="M285.62 180.119C285.62 180.119 262.134 208.229 265.031 218.404C267.927 228.578 284.182 228.585 284.182 228.585C284.182 228.585 281.15 206.901 284.182 195.612C287.214 184.323 289.128 179.452 285.62 180.119Z" fill="#91B0F2"/>
<path d="M338.348 261.104C338.348 261.104 372.173 240.514 371.732 228.585C371.291 216.657 371.732 194.71 374.921 197.778C378.109 200.845 388.122 225.468 387.154 232.455C386.186 239.441 352.047 288.134 347.777 288.014C317.645 287.176 338.348 261.104 338.348 261.104Z" fill="#EBEEF2"/>
<path d="M346.046 253.246C355.566 206.974 325.686 161.764 279.306 152.266C232.927 142.768 187.611 172.578 178.091 218.85C168.571 265.121 198.451 310.332 244.83 319.83C291.21 329.328 336.525 299.517 346.046 253.246Z" fill="#E2810E"/>
<path d="M338.393 253.97C348.326 207.784 318.85 162.311 272.557 152.401C226.264 142.491 180.685 171.898 170.752 218.084C160.819 264.269 190.295 309.742 236.588 319.652C282.88 329.562 328.46 300.155 338.393 253.97Z" fill="#FFC76C"/>
<path d="M340.326 236.04C340.322 254.78 334.147 272.999 322.751 287.896C311.356 302.792 295.371 313.542 277.255 318.491C259.138 323.44 239.894 322.315 222.482 315.288C205.069 308.262 190.452 295.723 180.879 279.6C171.306 263.477 167.307 244.663 169.497 226.051C171.686 207.439 179.944 190.061 192.999 176.588C206.054 163.115 223.184 154.294 241.755 151.481C260.325 148.668 279.307 152.02 295.782 161.02C309.268 168.39 320.518 179.243 328.355 192.442C336.192 205.641 340.327 220.7 340.326 236.04V236.04Z" fill="#FFC76C"/>
<path opacity="0.27" d="M295.782 161.02L225.241 316.429C204.691 308.932 187.778 293.9 177.95 274.396L238.984 151.932C258.401 148.361 278.458 151.571 295.782 161.02V161.02Z" fill="#FFF4E3"/>
<path d="M254.591 314.98C236.52 314.979 219.01 308.726 205.042 297.288C191.075 285.85 181.515 269.934 177.991 252.252C174.467 234.57 177.198 216.216 185.717 200.317C194.237 184.418 208.018 171.958 224.713 165.061C241.409 158.163 259.985 157.254 277.276 162.488C294.568 167.723 309.506 178.777 319.544 193.768C329.582 208.759 334.1 226.758 332.327 244.699C330.555 262.64 322.602 279.413 309.824 292.16C302.588 299.42 293.98 305.175 284.499 309.092C275.018 313.009 264.852 315.01 254.591 314.98V314.98ZM254.591 163.746C240.064 163.746 225.864 168.044 213.786 176.095C201.707 184.146 192.293 195.589 186.733 208.977C181.172 222.366 179.716 237.099 182.548 251.313C185.38 265.528 192.373 278.585 202.642 288.835C212.912 299.085 225.997 306.066 240.243 308.897C254.49 311.728 269.258 310.281 282.68 304.738C296.102 299.196 307.575 289.808 315.65 277.761C323.724 265.714 328.037 251.548 328.043 237.056C328.02 217.627 320.274 199.001 306.504 185.263C292.734 171.525 274.064 163.797 254.591 163.775V163.746Z" fill="#FFA412"/>
<path d="M162.898 250.631C162.898 250.631 161.938 236.58 167.261 237.141C173.794 237.815 180.733 253.272 177.545 256.262C174.356 259.251 162.962 254.096 162.898 250.631Z" fill="#FFB27D"/>
<path d="M345.208 283.15L337.259 278.4C337.259 278.4 332.341 276.441 329.43 276.852C326.52 277.264 319.638 276.05 319.417 277.172C319.196 278.294 326.043 283.313 326.043 283.313C321.929 289.611 307.027 290.769 305.895 293.14C304.522 296.016 311.254 298.714 314.905 300.276C318.556 301.838 327.893 303.265 333.288 299.175C337.223 296.193 343.706 292.253 343.706 292.253L345.208 283.15Z" fill="#FFB27D"/>
<path d="M353.976 127.315C353.976 127.315 387.339 129.488 395.687 142.474C404.035 155.461 417.856 214.477 413.479 237.12C409.102 259.762 342.312 299.672 342.312 291.564C342.312 286.693 341.764 281.127 341.764 281.127C341.764 281.127 390.449 240.542 387.097 232.455C374.778 202.606 353.976 127.315 353.976 127.315Z" fill="#FFB27D"/>
<path d="M416.376 195.392C410.469 171.755 404.028 155.489 395.687 142.51C387.346 129.531 353.976 127.351 353.976 127.351C353.976 127.351 364.651 174.503 377.041 204.359L416.376 195.392Z" fill="white"/>
</g>
<defs>
<clipPath id="clip0_589_13357">
<rect width="560" height="600" fill="white"/>
</clipPath>
</defs>
</svg>
