<svg width="552" height="600" viewBox="0 0 552 600" fill="none" xmlns="http://www.w3.org/2000/svg">
<path d="M259.838 115.119C298.638 76.3187 406.338 73.6187 455.338 77.1187C540.838 75.8295 546.838 108.119 544.338 133.619C541.838 159.119 419.838 206.619 429.838 284.619C439.838 362.619 525.838 394.119 519.338 459.119C512.838 524.119 315.838 538.619 276.338 486.619C236.838 434.619 102.838 418.119 39.3376 394.119C-24.1624 370.119 22.3376 262.619 84.3376 242.619C146.338 222.619 211.338 163.619 259.838 115.119Z" fill="#F7F7F7"/>
<g clip-path="url(#clip0_847_18197)">
<path d="M399.751 40.5778C400.05 42.7139 405.762 84.9084 399.31 106.724C397.043 114.375 394.538 115.309 393.445 115.454C392.036 115.651 390.816 114.859 390.027 114.282C382.045 108.409 379.07 98.3155 379.07 98.3155C370.03 67.1493 373.03 27.0367 381.5 23.0843C382.233 22.7419 386.317 21.1285 387.206 17.7286C387.42 16.8612 387.433 15.9565 387.243 15.0837C388.967 16.6037 390.542 18.2852 391.945 20.1051C397.859 27.7889 399.106 35.9789 399.751 40.5778Z" fill="#DFE9EA"/>
<path d="M391.945 20.1051C390.542 18.2852 388.967 16.6038 387.243 15.0838C387.431 15.9572 387.416 16.8622 387.2 17.7293C386.311 21.1292 382.227 22.7426 381.5 23.0843C379.515 24.0112 377.833 26.9262 376.535 31.2438C376.917 32.2413 377.404 33.195 377.99 34.0887C380.229 37.5057 383.51 40.0821 386.388 42.9827C389.266 45.8834 391.882 49.4126 392.179 53.4865C389.545 47.9205 384.184 43.729 378.143 42.4891C385.717 45.6148 389.842 53.6402 393.181 61.1086C394.207 57.7207 396.426 54.8162 399.429 52.93C397.121 53.5818 395.098 54.9848 393.681 56.9158C394.643 52.2802 396.632 47.917 399.5 44.145C397.378 44.9574 395.419 46.1439 393.717 47.6479C394.733 46.1604 395.752 44.6208 396.776 43.0291C397.714 41.5672 398.614 40.1246 399.475 38.7013C398.724 33.9461 397.124 26.8314 391.945 20.1051Z" fill="#636363"/>
<g style="mix-blend-mode:multiply">
<path d="M386.912 95.9833C388.567 98.3045 390.528 100.392 392.742 102.19C392.561 102.429 392.436 102.706 392.379 103C392.322 103.294 392.332 103.597 392.411 103.886C392.047 103.979 391.66 103.847 391.316 103.712C387.592 102.202 384.421 99.5899 382.23 96.2275C384.389 101.577 387.953 106.247 392.546 109.747L393.846 99.6537C393.004 99.5902 392.173 99.4176 391.376 99.1403C389.627 98.5146 388.083 97.4228 386.912 95.9833Z" fill="#DDDDDD"/>
</g>
<g style="mix-blend-mode:multiply">
<path d="M399.75 40.5777C399.106 35.9788 397.859 27.7888 391.945 20.105C390.542 18.2851 388.967 16.6036 387.243 15.0836C391.674 20.4754 393.641 25.4142 394.603 28.7439C394.652 28.9126 394.712 29.1262 394.782 29.4161C393.536 30.7849 392.31 32.1944 391.206 33.6721C389.884 35.4397 391.404 36.3394 390.932 38.216C391.558 35.7431 392.813 33.473 394.576 31.6259C394.756 31.4386 394.943 31.2521 395.109 31.0575C395.263 31.9515 395.438 33.1529 395.624 34.7954C395.061 35.3451 394.529 35.9251 394.03 36.5328C393.536 37.1355 393.074 37.7643 392.614 38.3929C390.898 40.7309 391.052 41.7278 392.192 44.4594C392.796 42.0196 393.792 39.6934 395.142 37.5712C395.366 37.2166 395.6 36.8698 395.818 36.5115C396.005 38.3877 396.202 40.7155 396.4 43.6137C396.824 49.8209 396.982 54.6716 397.034 56.4382C397.044 56.5279 397.042 56.75 397.05 57.032C397.183 61.7933 397.329 65.3125 397.442 67.6901L400.893 65.9311C399.857 67.3275 398.825 68.7231 397.797 70.1177C398.021 73.4046 398.136 76.9675 398.047 80.774C397.987 83.3321 397.843 85.7717 397.64 88.0794L400.938 86.8842L397.84 89.838C397.704 91.039 397.566 92.2417 397.426 93.4461C397.264 94.8436 397.101 96.2378 396.936 97.6287L393.849 99.6592C393.483 104.02 393.118 108.381 392.752 112.741L392.488 112.651C392.323 113.548 392.18 114.449 392.06 115.353C392.511 115.481 392.983 115.515 393.448 115.455C394.54 115.303 397.05 114.376 399.313 106.725C405.762 84.9083 400.05 42.7138 399.75 40.5777Z" fill="#DDDDDD"/>
</g>
<path d="M390.888 136.522L389.273 135.024C390.925 122.691 392.157 109.303 392.676 94.9806C393.514 71.8189 392.412 48.629 389.382 25.6523C390.458 31.0676 391.766 38.488 392.813 47.3754C394.995 65.9159 394.772 80.0679 394.567 90.4393C394.263 105.859 393.034 121.248 390.888 136.522Z" fill="#A9B4B5"/>
</g>
<g clip-path="url(#clip1_847_18197)">
<path d="M119 580H251L251 488H119L119 580Z" fill="#363854"/>
<path d="M78 580H210L210 488H78L78 580Z" fill="#525784"/>
<path opacity="0.33" d="M209.971 488.125L250.682 527.445V488.125H209.971Z" fill="#2C2F44"/>
<path d="M130.835 165.685C130.835 165.685 150.78 140.315 138.408 67.8119L167.589 49.4448L179.15 98.7769C179.15 98.7769 182.335 143.579 183.227 144.52C184.118 145.461 159.829 159.866 159.829 159.866L130.835 165.685Z" fill="#363854"/>
<path d="M228.687 120.596C240.336 132.434 202.984 57.7128 191.292 48.4669C179.599 39.2211 155.803 74.0114 155.803 74.0114C155.803 74.0114 184.928 119.344 185.402 135.069C185.875 150.794 228.687 120.596 228.687 120.596Z" fill="#363854"/>
<path d="M385.812 118.421C382.913 117.979 374.182 126.078 374.182 126.078C355.54 128.234 328.278 133.181 318.468 135.069C311.513 136.408 292.809 130.035 274.534 122.714C252.801 113.991 231.685 103.954 231.685 103.954C219.625 103.331 205.932 125.337 230.383 139.318C234.122 141.455 248.146 145.093 264.294 148.42C286.576 153.012 312.909 156.993 321.859 155.592C332.267 153.966 361.747 143.193 379.255 134.944H379.299L379.492 134.851C380.545 134.365 384.833 132.452 387.694 132.62C390.978 132.813 398.289 126.807 398.514 125.206C398.738 123.605 388.71 118.864 385.812 118.421Z" fill="#ED975D"/>
<path d="M363.044 395.48L352.779 397.567C352.779 397.567 305.804 344.802 298.555 322.603C294.672 310.765 269.885 305.613 243.957 298.928C221.401 293.096 197.998 286.074 186.817 272.368C162.796 242.917 201.906 206.737 201.906 206.737C201.906 206.737 243.49 231.44 279.371 256.966C304.445 274.804 326.739 293.04 330.092 303.519C338.251 328.995 355.534 377.443 363.044 395.48Z" fill="#5949BA"/>
<path d="M349.301 412.887H355.072C357.011 412.582 358.438 412.021 360.42 411.759C363.43 411.367 364.82 412.6 365.094 412.887L365.151 412.943H389.676C390.299 412.065 389.676 410.021 389.121 408.52C388.927 408.016 388.619 407.565 388.221 407.2C387.823 406.836 387.346 406.569 386.828 406.42C384.222 405.666 379.099 404.999 374.4 400.75C371.757 398.364 361.642 391.972 361.642 391.972H361.592C361.367 391.972 360.308 392.302 355.708 396.19C353.334 398.177 349.301 393.361 349.301 393.361C348.745 393.869 348.294 394.481 347.973 395.162C347.405 396.32 347.219 397.629 347.444 398.9C347.811 401.105 346.633 405.211 345.686 407.99C345.119 409.672 344.633 410.862 344.633 410.862C344.633 410.862 344.315 412.264 349.301 412.887Z" fill="#363854"/>
<path d="M279.377 256.954L243.97 298.915C221.414 293.084 198.01 286.062 186.829 272.355C162.809 242.904 201.918 206.725 201.918 206.725C201.918 206.725 243.496 231.428 279.377 256.954Z" fill="#4D3EA3"/>
<path d="M247.198 235.041C247.198 235.041 244.344 244.038 239.719 257.577C233.842 274.698 225.091 299.071 215.593 321.675C213.511 326.659 211.386 331.525 209.248 336.229C201.351 353.624 193.267 368.533 186.15 376.103C173.367 389.729 142.278 477.309 142.278 477.309L134.531 475.166C134.531 475.166 123.736 400.402 161.992 357.823C162.419 357.397 162.691 356.84 162.765 356.241C163.276 349.942 165.096 321.731 169.054 293.146C170.032 286.137 171.129 279.103 172.369 272.368C172.444 271.938 172.532 271.508 172.606 271.084C178.428 239.932 184 226.082 191.192 219.11L244.082 234.163L247.198 235.041Z" fill="#5949BA"/>
<path d="M133.652 488.063H139.424C141.362 487.758 142.789 487.197 144.771 486.941C147.782 486.543 149.172 487.783 149.446 488.063L149.502 488.119H174.027C174.651 487.241 174.027 485.203 173.473 483.702C173.279 483.197 172.97 482.745 172.57 482.381C172.171 482.016 171.693 481.75 171.173 481.602C168.574 480.848 163.444 480.175 158.751 475.926C156.109 473.54 145.993 467.154 145.993 467.154H145.937C145.719 467.154 144.69 467.484 140.06 471.366C137.679 473.365 133.628 468.537 133.628 468.537C133.072 469.045 132.621 469.656 132.3 470.338C131.73 471.496 131.545 472.805 131.77 474.076C132.138 476.288 130.954 480.393 130.013 483.166C129.439 484.848 128.959 486.044 128.959 486.044C128.959 486.044 128.666 487.44 133.652 488.063Z" fill="#363854"/>
<path d="M144.99 133.331C144.99 133.331 136.139 154.975 125.936 176.04C117.354 193.747 107.818 211.048 101.773 214.743C93.2464 219.952 69.7556 234.637 54.5231 245.59C54.5231 245.59 42.6313 245.502 40.8114 247.776C38.9914 250.05 34.7034 260.274 35.9437 261.309C37.184 262.343 46.6451 261.863 48.9387 259.508C50.9456 257.458 55.4019 255.982 56.5113 255.639L56.717 255.577H56.7669C75.2777 249.882 104.315 238.02 113.11 232.219C120.676 227.235 137.461 206.562 150.842 188.17C160.54 174.844 168.462 162.707 169.783 158.62C178.428 131.811 153.491 124.764 144.99 133.331Z" fill="#FFB27D"/>
<path d="M188.101 44.3735C189.238 45.6744 190.297 47.0413 191.273 48.4669C192.625 50.431 193.746 52.5446 194.614 54.7658C199.363 66.9773 194.583 78.572 189.004 77.9677C184.81 77.5128 184.691 84.5718 184.691 84.5718L140.72 58.6722C140.72 58.6722 150.692 26.7167 167.658 32.7601C167.658 32.7601 178.97 33.8691 188.101 44.3735Z" fill="#363854"/>
<path d="M194.071 115.518C183.987 120.272 170.593 113.425 170.668 113.35C171.534 112.484 171.229 109.898 170.437 106.497C169.646 102.97 167.77 98.1417 164.311 92.3786C163.588 91.1325 162.871 89.9301 162.005 88.6404L163.158 88.2043L182.759 80.354C182.759 80.354 185.932 86.0423 189.247 91.2322C192.052 95.5561 195.006 99.4438 196.309 99.3317C196.378 99.232 209.348 108.166 194.071 115.518Z" fill="#FFB27D"/>
<path d="M182.759 82.3042C182.267 89.3196 179.874 101.899 170.425 106.509C169.633 102.983 167.757 98.1543 164.298 92.3912L182.759 82.3042Z" fill="#ED975D"/>
<path d="M163.164 100.341C163.164 100.341 188.68 90.2915 182.173 74.4976C175.666 58.7036 174.576 46.7787 158.009 52.5604C141.443 58.3422 140.776 65.6442 141.667 71.4322C142.559 77.2202 156.358 102.553 163.164 100.341Z" fill="#FFB27D"/>
<path d="M172.681 70.8963C184.467 69.2328 187.876 64.4728 187.876 64.4728C180.718 62.0381 174.629 57.1929 170.649 50.766C170.649 50.766 157.405 46.2988 147.589 53.7628C146.962 54.5744 146.535 55.522 146.342 56.5291C144.092 55.7939 138.645 52.7223 136.694 59.0773C136.133 60.9028 134.868 64.0616 135.117 65.8746C136.177 73.5317 146.255 82.3103 146.255 82.3103C148.785 81.5938 145.931 73.0894 145.532 68.5475C145.239 65.2017 147.04 60.9277 148.025 58.8966C149.271 60.5165 161.699 76.136 176.876 76.7591C171.42 74.7273 166.268 71.9604 161.562 68.535C165.221 70.292 169.085 71.4072 172.681 70.8963Z" fill="#363854"/>
<path d="M242.661 148.047C242.443 147.287 242.212 146.495 241.969 145.685C245.2 139.661 247.378 133.129 248.407 126.371C250.14 114.702 247.161 107.499 247.161 107.499C247.161 107.499 229.454 98.1165 221.645 96.9078C221.611 96.9028 221.578 96.9028 221.545 96.9078C221.441 96.9008 221.337 96.9008 221.233 96.9078C213.343 95.8175 196.259 99.3065 196.259 99.3065C196.259 99.3065 199.556 108.073 190.257 113.917C180.958 119.761 171.048 112.372 171.048 112.372C170.749 112.571 170.425 112.795 170.101 113.026C170.101 113.026 145.656 129.194 143.456 132.87C141.256 136.545 131.857 154.807 131.857 154.807C131.857 154.807 134.837 170.133 167.882 171.417C170.593 178.002 172.675 184.426 173.354 189.784C175.978 210.581 172.93 226.992 175.991 239.135C179.051 251.278 234.178 244.349 244.163 242.013C254.148 239.677 251.898 229.023 252.664 218.668C253.63 205.659 245.908 159.523 242.661 148.047Z" fill="white"/>
<path d="M248.407 126.39C247.373 133.174 245.18 139.73 241.925 145.773C241.059 141.953 237.525 127.979 231.835 121.636C231.835 121.636 241.421 122.502 248.407 126.39Z" fill="#EBEEF2"/>
<path d="M511 413H364V580H511V413Z" fill="#C9C9C9"/>
<path d="M466 413H318V580H466V413Z" fill="#EAEAEA"/>
<path d="M80.7748 305.212L75.3649 302.738H71.0021V305.212L74.5173 307.81L78.6495 310.645L81.4853 314.657L83.2679 318.084H84.2028V314.19L81.4853 305.922L80.7748 305.212Z" fill="#525784"/>
<path d="M74.6358 343.934L59.8769 332.295L50.4283 331.068L48.5398 338.974L60.6996 346.177L66.3713 357.036L73.221 371.578L75.8636 372.5L78.6496 364.83L76.6427 348.021L74.6358 343.934Z" fill="#525784"/>
<path d="M47.262 302.009H73.196C80.4383 302.009 84.7637 306.184 85.2249 313.542C85.736 321.822 83.4923 329.597 80.968 337.329C80.8034 337.901 80.595 338.459 80.3448 338.999C77.8517 343.852 77.8019 348.507 79.2354 353.989C83.031 368.487 75.4958 383.702 62.2889 390.368C48.5771 397.259 32.229 394.287 22.369 382.848C13.9487 373.073 11.9418 361.883 16.0865 349.709C16.7428 347.997 16.7026 346.096 15.9743 344.413C12.5526 335.803 9.50484 327.087 9.0374 317.747C8.90825 315.374 9.09055 312.995 9.57964 310.67C10.8262 304.956 14.734 302.022 20.6612 302.009C29.5074 301.997 38.3743 301.997 47.262 302.009ZM70.3227 336.98C71.0457 334.812 71.937 332.769 72.392 330.632C73.4972 325.415 74.4778 320.171 75.3338 314.9C75.5831 313.361 75.1405 312.096 72.928 312.109C55.7218 312.184 38.5135 312.184 21.3032 312.109C19.6079 312.109 18.9223 312.85 19.0345 314.333C19.2464 317.211 19.3337 320.146 19.9694 322.95C21.0414 327.672 22.4936 332.295 23.8586 337.23C35.8003 326.034 55.5265 323.716 70.2916 336.98H70.3227ZM51.6934 332.295C66.0908 341.896 74.4487 354.475 75.0595 371.578C79.2541 349.933 66.7951 336.002 51.6623 332.295H51.6934ZM83.2679 315.766C83.779 308.632 77.7769 302.682 71.0332 303.716C77.8767 305.106 82.0276 308.695 83.2367 315.766H83.2679Z" fill="#363854"/>
<path opacity="0.46" d="M42.0266 383.88C47.117 380.634 47.3481 371.898 42.5429 364.367C37.7377 356.836 29.7158 353.361 24.6255 356.607C19.5351 359.852 19.304 368.589 24.1092 376.12C28.9144 383.651 36.9363 387.125 42.0266 383.88Z" fill="#525784"/>
</g>
<defs>
<clipPath id="clip0_847_18197">
<rect width="28.8945" height="93.5174" fill="white" transform="matrix(0.99621 -0.0869868 0.146064 0.989275 368 16.5137)"/>
</clipPath>
<clipPath id="clip1_847_18197">
<rect width="502" height="552" fill="white" transform="translate(9 28)"/>
</clipPath>
</defs>
</svg>
