<svg width="620" height="620" viewBox="0 0 620 620" fill="none" xmlns="http://www.w3.org/2000/svg">
<g clip-path="url(#clip0_847_18195)">
<path d="M357.743 254.024C440.112 181.381 352.779 125.234 436.482 71.621C466.505 52.3904 540.72 52.3724 597.387 206.145C668.22 398.362 392.674 495.565 322.421 576.36C252.168 657.154 -63.8432 534.597 30.1689 334.817C124.181 135.037 254.782 344.827 357.743 254.024Z" fill="#F6F6F6"/>
<path d="M357.87 253.889C440.239 181.246 352.906 125.099 436.608 71.486C466.632 52.2554 540.847 52.2374 597.514 206.01C668.347 398.227 392.801 495.43 322.548 576.225C252.295 657.019 -63.7162 534.462 30.2958 334.682C124.308 134.902 254.909 344.692 357.87 253.889Z" fill="#F6F6F6"/>
<path d="M263.448 583H263.236C262.941 583 262.648 582.941 262.376 582.826C262.104 582.71 261.857 582.542 261.651 582.329C261.445 582.117 261.284 581.865 261.176 581.589C261.069 581.312 261.017 581.017 261.025 580.721L264.38 434.582L274.272 433.398L265.836 580.721C265.804 581.335 265.539 581.914 265.095 582.339C264.65 582.763 264.061 582.999 263.448 583Z" fill="#B0D4FF"/>
<path d="M205.814 583H205.608C205.312 583 205.019 582.941 204.747 582.826C204.474 582.711 204.228 582.542 204.021 582.329C203.815 582.117 203.652 581.865 203.544 581.589C203.436 581.313 203.384 581.017 203.391 580.721L206.751 434.582L216.638 433.398L208.208 580.709C208.177 581.326 207.912 581.908 207.466 582.335C207.021 582.761 206.429 582.999 205.814 583Z" fill="#95C0F4"/>
<path d="M364.85 583H365.062C365.357 582.999 365.649 582.939 365.921 582.824C366.193 582.708 366.439 582.539 366.645 582.327C366.851 582.115 367.013 581.863 367.12 581.587C367.228 581.312 367.28 581.017 367.273 580.721L363.919 434.57L354.026 433.386L362.462 580.697C362.488 581.316 362.751 581.901 363.196 582.33C363.641 582.759 364.233 582.999 364.85 583Z" fill="#B0D4FF"/>
<path d="M199.282 425.511V325.364C199.288 316.909 202.636 308.802 208.589 302.824C214.543 296.846 222.616 293.486 231.035 293.481H302.877C311.303 293.481 319.384 296.843 325.342 302.826C331.3 308.81 334.648 316.925 334.648 325.387V429.354L199.282 425.511Z" fill="#B0D4FF"/>
<path d="M199.282 425.511H347.518V441.319H208.803C206.275 441.315 203.853 440.302 202.067 438.505C200.282 436.708 199.28 434.272 199.282 431.734V425.511Z" fill="#95C0F4"/>
<path d="M364.149 425.505H259.198C255.303 425.505 252.147 428.676 252.147 432.586V434.232C252.147 438.143 255.303 441.313 259.198 441.313H364.149C368.043 441.313 371.2 438.143 371.2 434.232V432.586C371.2 428.676 368.043 425.505 364.149 425.505Z" fill="#B0D4FF"/>
<path d="M360.069 400.55C349.775 418.543 336.829 425.511 336.829 425.511H282.997C282.997 425.511 367.922 386.832 360.069 400.55Z" fill="#33364F"/>
<path d="M318.706 539.744C318.066 540.453 317.641 541.333 317.483 542.277C317.326 543.222 317.441 544.192 317.816 545.072C319.101 548.625 323.34 552.621 328.269 556.594C328.9 557.109 329.448 557.571 329.949 557.997L330.326 558.341L330.615 558.601C335.214 562.858 333.48 563.835 341.74 572.467C351.173 582.307 357.658 582.485 359.485 581.585C361.048 580.821 357.876 575.605 354.362 569.744C354.191 569.465 354.026 569.152 353.849 568.891L352.452 566.523C348.325 559.465 349.392 556.15 350.371 545.647C351.161 537.109 363.595 497.956 363.595 497.956L345.548 494.836C345.548 494.836 340.113 526.014 334.129 530.816C330.928 533.373 327.343 533.409 324.266 535.303C324.048 535.434 323.835 535.57 323.623 535.712C321.811 536.827 320.157 538.184 318.706 539.744Z" fill="#FFB27D"/>
<path d="M318.706 539.744C318.066 540.453 317.641 541.332 317.483 542.277C317.326 543.221 317.441 544.192 317.816 545.072C319.384 548.625 323.523 552.597 328.287 556.558C328.911 557.079 329.466 557.553 329.949 557.997L330.326 558.34L330.615 558.601C335.214 562.858 333.48 563.835 341.74 572.467C351.173 582.307 357.658 582.485 359.485 581.585C361.048 580.821 357.876 575.605 354.362 569.744C347.773 567.159 341.982 562.869 337.578 557.31C331.906 550.046 328.145 540.732 324.266 535.303C324.048 535.433 323.835 535.57 323.623 535.712C321.811 536.827 320.157 538.183 318.706 539.744Z" fill="#33364F"/>
<path d="M464.207 528.423C465.321 534.018 473.262 533.083 482.135 530.904C491.007 528.725 488.897 531.319 501.519 529.915C514.141 528.512 517.967 523.782 518.356 521.899C518.698 520.223 512.461 519.637 505.77 518.862L503.24 518.56C495.682 517.606 490.152 512.71 483.29 508.69C476.805 504.883 467.089 489.365 467.089 489.365L449.774 490.745C449.774 490.745 458.865 504.599 462.379 510.626C464.442 514.178 464.336 518.856 464.077 522.467C463.854 524.449 463.898 526.453 464.207 528.423Z" fill="#FFB27D"/>
<path d="M482.135 530.899C490.978 528.726 488.897 531.313 501.519 529.91C514.141 528.507 517.967 523.776 518.356 521.893C518.698 520.218 512.461 519.632 505.769 518.856L505.705 518.986C500.297 522.471 494.051 524.42 487.629 524.629C479.063 524.836 469.99 522.373 464.077 522.468C463.855 524.448 463.898 526.449 464.206 528.418C465.321 534.019 473.262 533.083 482.135 530.899Z" fill="#33364F"/>
<path d="M397.859 417.222L381.676 460.958L360.546 518.068C356.782 518.347 352.997 517.999 349.345 517.038C344.293 515.57 338.491 511.71 338.491 511.71C338.491 511.71 344.357 450.396 355.305 415.203C358.112 406.168 361.254 398.862 364.738 394.748C381.658 374.641 397.859 417.222 397.859 417.222Z" fill="#4D3EA3"/>
<path d="M381.405 347.785C370.793 344.351 340.561 348.756 310.182 354.73L303.82 344.198L238.192 339.07C238.192 339.07 216.544 387.294 228.394 418.022C230.162 422.539 233.599 425.435 239.501 425.529H240.462H292.194C324.855 425.512 361.266 402.954 365.976 402.007C373.688 400.461 376.777 415.95 384.488 432.202C392.199 448.454 457.002 504.244 457.002 504.244C457.002 504.244 466.96 504.345 471.075 502.793C475.496 501.13 477.118 498.963 477.118 498.963C477.118 498.963 405.317 355.53 381.405 347.785Z" fill="#5949BA"/>
<path d="M301.238 152.31C292.831 147.875 280.014 147.277 277.963 146.981C253.096 143.624 238.133 179.912 237.255 190.906C235.627 211.173 224.957 214.257 209.929 226.951C179.797 252.41 188.635 281.971 205.107 292.96C214.993 299.55 232.414 292.96 232.414 292.96C232.662 293.132 280.068 266.347 303.431 253.428C338.462 248.443 322.656 163.606 301.238 152.31Z" fill="#33364F"/>
<path d="M283.846 242.445C283.952 242.51 272.35 246.489 264.592 243.037C257.299 239.799 251.751 227.762 251.881 227.762C255.2 227.608 258.844 224.695 261.65 205.572L263.065 206.081L286.824 214.666C286.824 214.666 285.102 222.327 283.994 229.615C283.05 235.713 282.549 241.581 283.846 242.445Z" fill="#FFB27D"/>
<path d="M286.824 214.642C286.824 214.642 285.102 222.303 283.994 229.591C270.34 227.122 264.981 213.47 263.065 206.057L286.824 214.642Z" fill="#ED975D"/>
<path d="M290.367 222.244C290.367 222.244 257.854 217.863 260.89 197.567C263.926 177.271 261.768 163.044 282.656 165.004C303.543 166.963 306.409 175.294 307.039 182.31C307.67 189.326 298.915 222.86 290.367 222.244Z" fill="#FFB27D"/>
<path d="M305.842 171.173C305.842 171.173 285.025 189.183 270.87 190.634C256.715 192.085 251.35 187.502 251.35 187.502C257 182.432 261.552 176.249 264.721 169.337C265.441 167.709 266.582 166.305 268.025 165.269C269.468 164.233 271.161 163.604 272.928 163.446C283.033 162.57 302.199 162.168 305.842 171.173Z" fill="#33364F"/>
<path d="M292.831 169.556C292.831 169.556 299.794 176.318 301.987 181.333C304.103 186.176 304.74 197.75 303.054 202.345C303.054 202.345 313.902 181.161 307.77 170.865C301.274 159.953 292.831 169.556 292.831 169.556Z" fill="#33364F"/>
<path d="M311.225 290.521C310.246 356.619 310.954 342.812 303.756 349.082C302.022 350.592 297.147 351.492 290.727 351.918C270.546 353.262 235.067 349.923 233.717 346.175C229.066 333.22 232.35 329.189 228.464 309.348C228.064 307.241 227.557 304.955 226.973 302.469C223.73 288.851 220.582 284.204 232.073 262.309C242.49 242.475 253.296 226.383 254.287 226.963C281.771 243.345 283.988 229.574 283.988 229.574C283.988 229.574 311.709 258.307 311.225 290.521Z" fill="white"/>
<path d="M381.676 460.982L360.546 518.092C356.782 518.371 352.997 518.023 349.345 517.062C344.293 515.594 338.491 511.733 338.491 511.733C338.491 511.733 344.357 450.419 355.305 415.227L381.676 460.982Z" fill="#5949BA"/>
<path d="M283.994 229.592C283.994 229.592 312.292 234.411 315.593 246.637L338.462 330.781C338.462 330.781 324.083 333.374 317.439 326.708C310.795 320.041 294.329 264.814 294.329 264.814L283.994 229.592Z" fill="white"/>
<path d="M290.726 351.941C270.546 353.285 235.067 349.946 233.717 346.198C229.066 333.244 231.098 324 227.213 304.16L238.192 281.847C238.192 281.847 236.582 312.498 245.585 320.562C254.587 328.626 282.443 336.127 286.818 342.865C288.934 346.098 290.32 349.336 290.726 351.941Z" fill="#EBF3FF"/>
<path d="M254.269 226.969C254.269 226.969 227.533 228.62 218.306 241.587C209.15 259.911 200.414 275.94 196.839 287.171C203.532 290.775 227.727 296.438 234.935 297.982C234.935 291.766 254.269 226.969 254.269 226.969Z" fill="white"/>
<path d="M291.687 341.935C291.687 341.935 295.861 347.341 297.229 347.986C297.918 348.361 298.7 348.53 299.481 348.472L296.669 343.386L291.687 341.935Z" fill="#FFB27D"/>
<path d="M290.727 336.37L302.854 342.291C302.854 342.291 302.341 343.137 300.849 343.072C299.358 343.007 295.584 341.621 295.584 341.621L290.727 336.37Z" fill="#FFB27D"/>
<path d="M499.951 168.061C598.426 57.8007 409.588 -45.2611 345.776 54.7209C331.081 77.7461 340.933 106.669 354.435 130.414C432.879 268.372 250.553 300.588 300.317 354.997H392.727C406.13 342.534 417.417 260.472 499.951 168.061Z" fill="url(#paint0_linear_847_18195)"/>
<path d="M297.229 356.263H393.178L422.042 284.186H326.241L297.229 356.263Z" fill="#F4F4F4"/>
<path d="M394.298 353.457H267.604V356.264H393.178L394.298 353.457Z" fill="#C9C9C9"/>
<path d="M368.959 320.224C369.679 317.69 368.222 315.636 365.699 315.636C363.176 315.636 360.541 317.69 359.804 320.224C359.067 322.758 360.541 324.813 363.058 324.813C365.575 324.813 368.234 322.758 368.959 320.224Z" fill="#C9C9C9"/>
<path d="M215.887 330.415C217.946 332.886 251.409 337.279 267.882 339.167L269.941 347.918C246.432 349.634 196.428 350.904 192.721 342.255C188.088 331.445 197.869 289.746 198.384 288.201C198.796 286.966 221.55 293.864 232.876 297.468C226.355 307.42 213.828 327.944 215.887 330.415Z" fill="#FFB27D"/>
<path d="M267.604 339.07C267.604 339.07 287.513 334.618 290.726 336.394C293.94 338.17 301.792 344.629 302.777 346.879C303.761 349.129 295.62 345.174 292.973 344.458C291.263 343.996 286.753 345.571 284.519 346.323C275.121 349.467 269.361 347.85 269.361 347.85L267.604 339.07Z" fill="#FFB27D"/>
</g>
<defs>
<linearGradient id="paint0_linear_847_18195" x1="393.467" y1="77.9931" x2="393.467" y2="354.998" gradientUnits="userSpaceOnUse">
<stop stop-color="#B0D4FF"/>
<stop offset="1" stop-color="#B0D4FF" stop-opacity="0"/>
</linearGradient>
<clipPath id="clip0_847_18195">
<rect width="620" height="620" fill="white"/>
</clipPath>
</defs>
</svg>
